<?xml version="1.0" encoding="utf-8"?>
<!-- Generator: Adobe Illustrator 19.2.0, SVG Export Plug-In . SVG Version: 6.00 Build 0)  -->
<svg version="1.1" id="Слой_1" xmlns="http://www.w3.org/2000/svg" xmlns:xlink="http://www.w3.org/1999/xlink" x="0px" y="0px"
	 viewBox="0 0 256 256" style="enable-background:new 0 0 256 256;" xml:space="preserve">
<style type="text/css">
	.st0{fill:#546487;}
	.st1{fill:#49557D;}
	.st2{fill:#48547A;}
	.st3{fill:#4A5781;}
	.st4{fill:none}
	.st5{fill:#4A5882;}
	.st6{fill:#CACCD8;}
	.st7{fill:#707B9A;}
	.st8{fill:#808AA6;}
	.st9{fill:#707DAA;}
	.st10{fill:#5E6389;}
	.st11{fill:#6B6E94;}
	.st12{fill:#6A6D91;}
	.st13{fill:#5A6082;}
	.st14{fill:#5C6286;}
	.st15{fill:#6E77A3;}
	.st16{fill:#676B8C;}
	.st17{fill:#6E75A0;}
	.st18{fill:#6C709A;}
	.st19{fill:#6C719B;}
	.st20{fill:#6F79A5;}
	.st21{fill:#6D749E;}
	.st22{fill:#556688;}
	.st23{fill:#556588;}
	.st24{fill:#48547C;}
	.st25{fill:#49557E;}
	.st26{fill:#5E7094;}
	.st27{fill:#5F7196;}
	.st28{fill:#475378;}
	.st29{fill:#5D7093;}
	.st30{fill:#5C6F93;}
	.st31{fill:#7585A5;}
	.st32{fill:#4B5984;}
	.st33{fill:#49567E;}
	.st34{fill:#7686A6;}
	.st35{fill:#57678A;}
	.st36{fill:#56678A;}
	.st37{fill:#4D6697;}
	.st38{fill:#4D6393;}
	.st39{fill:#4D6596;}
	.st40{fill:#455275;}
	.st41{fill:#455175;}
	.st42{fill:#455174;}
	.st43{fill:#435071;}
	.st44{fill:#4C5E8C;}
	.st45{fill:#4D608E;}
	.st46{fill:#4D6292;}
	.st47{fill:#4D6190;}
	.st48{fill:#435072;}
	.st49{fill:#4C5F8C;}
	.st50{fill:#4D608F;}
	.st51{fill:#4C5D8A;}
	.st52{fill:#4C5C89;}
	.st53{fill:#4C5B88;}
	.st54{fill:#4B5A85;}
	.st55{fill:#4C5B87;}
	.st56{fill:#4B5985;}
	.st57{fill:#5A6B8E;}
	.st58{fill:#5B6C90;}
	.st59{fill:#8395B8;}
	.st60{fill:#596A8E;}
	.st61{fill:#4C5F8D;}
	.st62{fill:#8193B6;}
	.st63{fill:#4B5A86;}
	.st64{fill:#607297;}
	.st65{fill:#58698D;}
	.st66{fill:#7F90B3;}
	.st67{fill:#58688C;}
	.st68{fill:#7989AB;}
	.st69{fill:#7B8BAD;}
	.st70{fill:#5C6D91;}
	.st71{fill:#4C5C8A;}
	.st72{fill:#8091B3;}
	.st73{fill:#8192B4;}
	.st74{fill:#62749A;}
	.st75{fill:#607397;}
	.st76{fill:#617499;}
	.st77{fill:#5F7095;}
	.st78{fill:#7C8DAF;}
	.st79{fill:#4D6392;}
	.st80{fill:#4B5884;}
	.st81{fill:#4B5882;}
	.st82{fill:#58698C;}
	.st83{fill:#4E6899;}
	.st84{fill:#798AAB;}
	.st85{fill:#7788A8;}
	.st86{fill:#7383A3;}
	.st87{fill:#7787A8;}
	.st88{fill:#7989AA;}
	.st89{fill:#4D618F;}
	.st90{fill:#4F689A;}
	.st91{fill:#7F90B2;}
	.st92{fill:#7E8FB1;}
	.st100{fill:#FFFFFF;}
</style>
<g>
	<path class="st0" d="M256.5,28.7c0,0.7,0,1.4,0,2c-0.5,0.9-0.2,1.8-0.2,2.8c0,17.3,0,34.7,0,52c0,0.8-0.1,1.4-1.1,1.1
		c-0.9-0.2-1.5-0.8-2.1-1.4c-16.2-14.8-34.5-26.4-54.9-34.6c-1.4-0.6-3.3-0.7-3.3-2.9c0.7-1.4,2-1.7,3.4-2.1
		c5.5-1.4,11-1.2,16.5-0.4c3.1,0.5,3.4,0.3,3.4-2.9c0-6.4,0-12.8,0-19.2c0-1.5-0.3-2.6-2.1-2.8c-13.9-2-27.9-3.4-41.8,0.1
		c-9.3,2.3-17.1,7-22.3,15.4c-0.5,0.8-1.1,1.5-2,2c-2.4,0.9-4.7,0.2-7.1,0c-22.9-1.3-45.2,1.3-67,8.5c-21.2,7-40.5,17.5-57.8,31.5
		c-4.7,3.8-9.2,7.8-13.6,12C3.7,90.7,3,91.4,2,91.7c-0.7,0.2-1.2,0.1-1.2-0.8c0-19.2,0-38.3,0-57.5c0-0.9,0.2-1.9-0.2-2.8
		c0-0.9,0-1.7,0-2.6C1,22.5,2.4,17.2,6,12.6c4-5,8.9-8.8,14.9-10.8c3.1-1,6.4-1,9.6-1c65.3,0,130.6,0,195.8,0
		c13.3,0,23.2,6.6,28.4,18.7C256.1,22.5,255.8,25.6,256.5,28.7z"/>
	<path class="st1" d="M256.5,226.8c0,0.9,0,1.7,0,2.6c-0.6,4.2-1,8.4-3.5,12.1c-0.8,1.1-1.4,2.6-3.3,2.4c-0.7-0.6-0.7-1.3-0.6-2.1
		c0.8-5.5,1.1-11,0.9-16.5c-0.5-15.9-3.7-31.2-9.8-45.9c-4.1-9.8-9.3-18.9-15.8-27.3c-7.1-9.3-15.4-17.5-24.9-24.3
		c-1.9-1.3-3.7-2.8-5.6-3.9c-0.8-0.4-1.4-1-1.2-2c2.1-2.3,4.9-1.8,7.6-2.1c0.3,0,0.5,0.1,0.8,0.1c25.7,18.5,42.9,43.1,51.3,73.6
		c1.8,6.6,3.1,13.4,3.7,20.3C256.4,218.1,255.9,222.5,256.5,226.8z"/>
	<path class="st2" d="M0.5,229.4c0-1,0-2,0-3.1c0.5-0.9,0.2-1.8,0.2-2.7c0-12.6,0-25.1,0-37.7c0.7-3.9,2-7.5,3.4-11.2
		c8-20.1,19.6-37.7,35.4-52.5c1.1-1,2.3-1.7,3.6-2.5c1.3-0.5,2.4,0,3.6,0.3c1.9,0,3.6,0.4,5,1.7c0.4,1.7-1,2.4-2,3.2
		c-11.5,9.9-21.2,21.2-28.7,34.4c-9.5,16.6-15.5,34.3-17.5,53.3c-0.5,4.9-0.9,9.8-1,14.8c0,1.2,0.1,2.4-1.2,3.2
		C0.5,230.5,0.9,229.6,0.5,229.4z"/>
	<path class="st3" d="M30.7,256.5c-1,0-2,0-3.1,0c-1.8-0.6-3.6-0.4-5.4-0.7c-1.1-0.2-2.1-0.5-2.8-1.5c-1.7-3.5-1.6-7.4-2.1-11.2
		c-0.2-1.7,0.9-3,2.5-3.8c4.8-0.6,9.5,0.1,14.2,0.3c0.8,0.5,1.1,1.3,1.2,2.1c0.6,4,1.5,7.9,2.4,11.9c0.2,0.8,0.3,1.7-0.3,2.4
		C35.2,256.6,32.9,255.8,30.7,256.5z"/>
	<path class="st4" d="M256.5,28.7c-1-1.6-0.8-3.5-1.3-5.3C251.5,10.6,240.9,2,227.4,0.9c-0.4-0.1-0.4-0.3,0-0.4c9.2,0,18.4,0,27.6,0
		c1.3,0,1.6,0.3,1.6,1.6C256.5,10.9,256.5,19.8,256.5,28.7z"/>
	<path class="st4" d="M29.7,0.9C14.7,2.1,3.6,12.2,1,27.1C1,27.5,1,28,0.5,28.2c0-8.7,0-17.4,0-26.1c0-1.3,0.3-1.6,1.6-1.6
		c9.2,0.1,18.4,0,27.6,0C30,0.7,30,0.8,29.7,0.9z"/>
	<path class="st4" d="M249.9,243.8c3.3-3,4.4-7.1,5.6-11.1c0.3-1.1,0-2.4,1-3.3c0,8.5,0,17.1,0,25.6c0,1.3-0.3,1.6-1.6,1.6
		c-8.7-0.1-17.4,0-26.1,0c0.8-2.4,3.1-1.6,4.7-2.2c2.6-1,5.2-1.9,7.6-3.4c1.2-0.9,2.5-1.6,3.7-2.7c1.5-0.6,2.1-2,3-3.3
		C248.4,244.4,248.9,243.7,249.9,243.8z"/>
	<path class="st4" d="M20,254c2.3,1.6,5.3,1.3,7.7,2.6c-8.5,0-17.1,0-25.6,0c-1.3,0-1.6-0.3-1.6-1.6c0.1-8.5,0-17.1,0-25.6
		c0.5,0.1,0.4,0.7,0.6,1c0.9,0.5,1.1,1.4,1.3,2.3c0.9,3.4,2.4,6.4,4.1,9.4c1.1,1.6,2.4,3.2,3.7,4.7C13.2,249.7,17.1,251.1,20,254z"
		/>
	<path class="st5" d="M234,255c-1.5,1.1-3.6,0.4-5.1,1.5c-1,0-2,0-3.1,0c-0.2-0.2-0.4-0.5-0.5-0.7c-0.5-2.7,0.7-5.1,1.1-7.7
		c0.3-2.1,0.8-4.1,1.1-6.2c0.2-0.9,0.7-1.7,1.5-2.3c2.3-0.8,4.6-0.9,7,0c0.7,0.5,1.1,1.2,1,2C236.4,246.2,236.2,250.8,234,255z"/>
	<path class="st6" d="M29.7,0.9c0-0.1,0-0.3,0-0.4c65.9,0,131.8,0,197.6,0c0,0.1,0,0.3,0,0.4c-0.8,0-1.5,0.1-2.3,0.1
		C160.7,1,96.3,1,32,1C31.2,1,30.4,1,29.7,0.9z"/>
	<path class="st7" d="M0.5,30.7C1.4,31.7,1,32.8,1,33.9c0,19.2,0.1,38.5,0.1,57.7c1.2,0.9,1,2.3,1,3.5c0,1-0.4,2,0,3
		c0.3,2.2-0.2,4.4-0.1,6.6c0.1,1.6,0.4,3.1-0.6,4.5c-0.2,0.2-0.5,0.3-0.9,0.3C0.5,83.3,0.5,57,0.5,30.7z"/>
	<path class="st8" d="M255.9,86.5c0-17.5,0-35.1,0.1-52.6c0-1.1-0.4-2.2,0.5-3.2c0,24.9,0,49.8,0,74.8c-0.3,0.1-0.6,0-0.9-0.3
		c-1.3-2-0.6-4.3-0.7-6.5c0.4-2-0.3-4.1,0-6.1c0.4-1.2-0.1-2.4,0-3.6C255,88.1,255.1,87.1,255.9,86.5z"/>
	<path class="st9" d="M163.3,256.5c-21.2,0-42.3,0-63.5,0c-0.2-0.3-0.1-0.6,0.2-0.9c1.8-1.2,3.9-0.6,5.9-0.6c0.9,0,1.8,0.2,2.7-0.1
		c3.7-0.3,7.5,0.5,11.2-0.1c7.8,0.1,15.6,0.1,23.4,0c3.6,0.5,7.2-0.2,10.7,0.1c1.9,0.5,3.9-0.2,5.9,0c1.1,0.1,2.2-0.1,3.2,0.7
		C163.3,255.9,163.4,256.2,163.3,256.5z"/>
	<path class="st10" d="M1.1,184.8c0,12.9,0,25.7-0.1,38.6c0,1,0.3,2.1-0.5,2.9c0-16.7,0-33.5,0-50.2c0.3-0.2,0.6-0.1,0.9,0.2
		C2.8,179.2,1.8,182,1.1,184.8z"/>
	<path class="st11" d="M256.5,226.8c-1-1.6-0.4-3.3-0.5-4.9c-0.1-3-0.1-6-0.1-8.9c-1.2-7.8-1-15.6-1.1-23.4c0.5-2,0.3-4,0.2-6
		c-0.1-1.9-0.6-3.9,0.6-5.7c0.2-0.3,0.5-0.3,0.9-0.2C256.5,194,256.5,210.4,256.5,226.8z"/>
	<path class="st12" d="M256.5,177.7l-0.2,0l-0.2,0c-1.6-1.1-1-2.9-1.1-4.4c-0.1-1.1-0.1-2.2,0.1-3.3c-0.2-6.1-0.1-12.3-0.1-18.4
		c0.2-4.4-0.2-8.7,0-13.1c0-1.2-0.2-2.6,0.7-3.6c0.2-0.3,0.5-0.4,0.9-0.2C256.5,149,256.5,163.3,256.5,177.7z"/>
	<path class="st13" d="M0.5,109.6c0.1,0,0.3,0,0.4-0.1c0.1,0.1,0.3,0.2,0.4,0.3c0.8,1.1,0.7,2.4,0.7,3.7c0,5,0,10,0,14.9
		c0.1,4.5,0.1,9-0.3,13.5c0,0.5-0.1,0.9-0.4,1.3c-0.2,0.3-0.5,0.3-0.8,0.2C0.5,132.1,0.5,120.8,0.5,109.6z"/>
	<path class="st14" d="M0.5,143.4c0.2,0,0.3,0,0.5,0c1.2,0.8,1.1,2,1.1,3.2c-0.1,4.1,0.3,8.3-0.2,12.4c-0.1,0.8,0,1.5,0.2,2.3
		c0.1,3.9,0,7.8,0,11.7c0,1.2,0.1,2.4-1.1,3.2l-0.2,0l-0.2,0C0.5,165.2,0.5,154.3,0.5,143.4z"/>
	<path class="st15" d="M99.8,256.1c0,0.1,0,0.3,0,0.4c-10.1,0-20.1,0-30.2,0c-0.2-0.3-0.1-0.6,0.2-0.9c2-1.3,4.2-0.5,6.3-0.7
		c0.9-0.1,1.8,0.3,2.7,0.1c3-0.3,6.1-0.2,9.1,0c1.9-0.4,3.8,0,5.6,0c1.9-0.3,3.8-0.1,5.6,0.4C99.5,255.6,99.7,255.8,99.8,256.1z"/>
	<path class="st16" d="M256.5,134.7l-0.2,0l-0.2,0c-0.3-0.2-0.5-0.4-0.6-0.7c-0.8-4.2-0.5-8.4-0.5-12.6c0.2-3.9-0.1-7.7,0-11.6
		c0-1.3-0.1-2.5,0.5-3.7c0.2-0.3,0.4-0.5,0.7-0.7c0.1,0,0.3,0,0.4,0C256.5,115.2,256.5,124.9,256.5,134.7z"/>
	<path class="st17" d="M206.8,256.5c-8.9,0-17.7,0-26.6,0c-0.2-0.3-0.1-0.6,0.2-0.8c1.1-0.9,2.4-0.8,3.7-0.6
		c3.2-0.2,6.3-0.2,9.5-0.1c2.8,0,5.7-0.2,8.5,0c1.5,0.3,3.2-0.5,4.6,0.7C206.8,255.9,206.9,256.2,206.8,256.5z"/>
	<path class="st18" d="M30.7,256.5c2.1-1.1,4.4-0.2,6.6-0.6c1.5-1.6,3.4-0.7,5.1-0.8c2.1-0.3,4.1-0.2,6.2,0c2.4,0,4.8-0.7,7,0.6
		c0.3,0.2,0.3,0.5,0.2,0.9C47.4,256.5,39.1,256.5,30.7,256.5z"/>
	<path class="st19" d="M206.8,256.5c0-0.1,0-0.3,0-0.4c0.1-0.1,0.2-0.3,0.3-0.4c2.6-1.3,5.3-0.6,7.9-0.6c1.7-0.1,3.5-0.3,5.2-0.1
		c1.9,0.2,4-0.8,5.5,1c0,0.2,0,0.3,0,0.5C219.5,256.5,213.2,256.5,206.8,256.5z"/>
	<path class="st20" d="M180.2,256.1c0,0.1,0,0.3,0,0.4c-5.6,0-11.3,0-16.9,0c0-0.1,0-0.3,0-0.4c0.1-0.1,0.2-0.3,0.3-0.4
		c1.7-1,3.6-0.8,5.5-0.7c1.9,0.3,3.8-0.4,5.6,0.1C176.6,255.3,178.7,254.1,180.2,256.1z"/>
	<path class="st21" d="M55.8,256.5c0-0.1,0-0.3,0-0.4c1.2-1.7,3-0.8,4.6-1c2.9-0.1,5.8-0.5,8.6,0.3c0.3,0.1,0.5,0.4,0.7,0.7
		c0,0.1,0,0.3,0,0.4C65,256.5,60.4,256.5,55.8,256.5z"/>
	<path class="st4 st100" d="M149.7,37.4c6.9-12.7,18.4-17.8,32-19.5c12-1.4,24-0.2,35.9,1.5c1.4,0.2,1.6,0.8,1.6,2c0,7.9,0,15.9,0,23.8
		c0,1.5-0.3,1.7-1.9,1.5c-6.2-1.1-12.3-1.6-18.5-0.2c-1.3,0.3-2.6,0.6-3.8,1.4c-0.6,1.8-2.4,2.4-3.5,3.8c-0.9,1.1-1.4,2.5-2,3.8
		c-0.7,2.9-1,5.9-1.1,8.9c0.2,2.4,0.3,4.8,0,7.2c0.4,5.2,0.4,5.3,5.5,5.1c2.4-0.1,4.7,0.7,7.1,0c4.1,0.1,8.3-0.3,12.4,0.3
		c0.8,0.1,1.5-0.2,2.2-0.3c2.1,0.1,4.3,0,4.6,3c0,2.8,0.3,5.5,0.1,8.3c-0.1,2.4,0.2,4.8,0.1,7.2c-0.3,2.6,0.3,5.2-0.1,7.8
		c-0.1,4-0.7,4.5-4.7,4.3c-0.6,0-1.2,0.1-1.7,0.2c-2.7,0.4-5.5-0.5-8.3,0.1c-2.7,0.1-5.3-0.3-8-0.2c-1.8,0.3-3.7,0.1-5.6,0.1
		c-3.1,0.1-3.2,0.1-3.4,3.3c0,0.5-0.2,1-0.1,1.5c0.3,3.2,0.3,6.4,0,9.7c-0.1,0.6,0,1.2-0.1,1.8c0,0.7,0.3,1.5,0.1,2.2
		c-0.1,0.8,0,1.5-0.1,2.3c0.4,4.2,0.3,8.5,0.1,12.7c-0.3,1.2,0.3,2.4,0,3.6c-0.2,0.7-0.1,1.5-0.2,2.2c-0.1,0.6,0.1,1.2,0,1.8
		c-0.3,1.1,0.3,2.1,0,3.1c0.1,2.2,0.3,4.4,0.1,6.6c0.1,5.6,0.1,11.1,0.1,16.7c-0.5,2.8,0.2,5.7,0,8.5c-0.1,1.1-0.1,2.2-0.2,3.3
		c0.2,4.1,0.1,8.3,0.1,12.4c-0.6,1.9,0,3.7,0,5.6c0,10.6,0,21.2,0,31.9c0,0.9,0,1.9-0.4,2.8c-0.1,0.3-0.3,0.6-0.5,0.9
		c-2.1,1.5-4.5,0.8-6.7,0.7c-1.6,0.1-3.2,0.3-4.7,0c-1.6,0.1-3.1,0.2-4.7,0c-2.2,0.2-4.4,0.3-6.6,0.1c-2.2-0.1-4.4,0.3-6.7-0.1
		c-3,0.1-6.1,0.3-9.2,0.1c-1.4-0.2-3.1,0.5-4.3-0.8c-1-1-0.6-2.2-0.7-3.4c-0.3-6.1-0.2-12.2,0-18.3c-0.1-4.2-0.2-8.5-0.1-12.7
		c0.2-1.9-0.3-3.8,0.1-5.7c-0.1-1.6-0.3-3.2,0-4.7c-0.1-2.8-0.3-5.7,0-8.5c-0.2-1.7-0.2-3.5,0-5.2c-0.1-1.6-0.3-3.2,0-4.7
		c-0.2-2.9-0.3-5.7,0-8.6c-0.2-3-0.3-6.1,0-9.1c0.1-1.4-0.3-2.8,0-4.2c-0.2-1.5-0.2-3.1,0-4.6c-0.1-1.5-0.3-3,0-4.5
		c0-0.6,0-1.2,0-1.8c-0.2-0.9-0.1-1.8,0-2.7c-0.2-1.8-0.2-3.6,0-5.4c-0.1-1.2-0.2-2.3,0-3.5c0-0.7-0.1-1.4,0-2.2c0-0.6,0-1.2,0-1.7
		c-0.1-0.7-0.1-1.5-0.1-2.2c-0.3-2.1-0.2-4.3,0-6.4c-0.2-1.5-0.2-3.1,0-4.6c-0.2-1.6-0.2-3.1,0-4.7c-0.4-3.3-0.5-3.4-3.7-3.4
		c-5.1,0-10.2,0-15.3,0c-4,0-4.8-1-4.4-5c-0.2-1.2,0-2.4,0-3.7c-0.2-1.2-0.2-2.4,0-3.6c0-0.4,0-0.9,0-1.3c-0.4-1.8,0-3.6-0.1-5.4
		c-0.2-1.2,0-2.4,0.1-3.7c-0.2-1.6-0.2-3.1,0-4.6c0.2-2.7,0.8-3.4,3.6-3.5c5.5-0.1,11-0.1,16.5,0c2.1,0,3.4-0.6,3.4-3
		c-0.2-2-0.2-4,0-6.1c-0.1-1.5-0.2-3,0-4.5c0-1.2-0.3-2.4,0.1-3.5c0-0.3,0.1-0.6,0.1-0.9c0.5-1.3,0.1-2.8,0.4-4.1
		c-0.3-2.7,0.4-5.3,1-7.9c0.4-1.7,0.7-3.5,1.5-5C147.4,40,147.9,38.3,149.7,37.4z"/>
	<path class="st22" d="M149.7,37.4c-0.6,1.5-1.2,3-1.8,4.5c-0.8,0.6-1.6,0.8-2.6,0.7c-4-0.4-8-0.3-12-0.6c-4.8-0.5-9.7,0.3-14.5,0.6
		c-10.8,0.7-21.5,2.5-32,5.4c-26.5,7.1-50.1,19.6-70.8,37.5c-4,3.5-7.6,7.3-11.4,11c-1,0.9-1.8,2.2-3.4,1.8c0-2.2,0-4.4,0-6.7
		c6-5.5,11.9-11.1,18.4-16.2c8-6.3,16.4-11.8,25.3-16.7c9-5,18.5-9.2,28.2-12.5c10.8-3.7,21.9-6.4,33.2-7.9
		c6.4-0.9,12.8-1.3,19.3-1.6C133.6,36.4,141.6,37.1,149.7,37.4z"/>
	<path class="st23" d="M190.9,51.1c1-1.5,2.4-2.6,4.1-3.2c2.6,1.9,5.8,2.7,8.8,4c16.1,7.1,30.8,16.4,44.4,27.6
		c2.7,2.2,5.2,4.6,7.7,7c0,2,0,4.1,0,6.1c-1.3,0.4-2.1-0.6-2.8-1.3c-14.6-14-31.1-25-49.4-33.5c-3.3-1.5-6.7-2.9-10.1-4.2
		C192.4,53.1,190.8,53,190.9,51.1z"/>
	<path class="st24" d="M255.9,189.4c0,7.8,0,15.7,0,23.5c-1.2-5.2-2.3-10.4-3.5-15.6c-2.6-11.9-7.2-23-13-33.7
		c-6.5-12.1-15.1-22.6-25.1-31.9c-3.1-2.9-6.5-5.5-9.8-8.1c-1.2-1-2.4-1.9-3.3-3.2c1.6-2.2,4-1.9,6.3-1.8c3.3,1.6,5.9,4,8.5,6.4
		c17.7,15.9,30.7,34.9,38.4,57.4C255.2,184.7,255.4,187.1,255.9,189.4z"/>
	<path class="st25" d="M249.9,243.8c-0.4,0.7-0.8,1.3-1.5,1.7c-1.2-0.8-1.1-2.1-0.9-3.2c0.6-5.2,1-10.5,0.9-15.8
		c-0.7-29.3-10-55.4-28.9-78c-7.4-8.9-16-16.5-25.7-22.8c-0.9-0.6-1.7-1.1-2.4-1.9c-0.8-0.9-0.7-1.7,0.5-2.2c0.4-0.1,0.8,0,1.1,0.3
		c3.8,3,7.9,5.5,11.7,8.6c11.6,9.6,21.4,20.7,29,33.7c7.7,13.3,12.9,27.4,15.4,42.5c1.6,9.7,2.7,19.5,1.4,29.4
		C250.1,238.7,250.1,241.2,249.9,243.8z"/>
	<path class="st26" d="M207.9,119.3c-2.3,0.1-4.5,0.5-6.6,1.1c-0.2,0-0.3-0.1-0.5-0.1c-4.5-2.6-9.1-5-13.3-8.1
		c-0.4-5.7-0.4-5.7,5.2-5.7c1.5,0,3,0.1,4.5,0.1c5.5,1.9,9.8,5.6,14.4,9c0.8,0.6,1.5,1.4,1.3,2.6
		C211.4,119.8,209.7,119.7,207.9,119.3z"/>
	<path class="st27" d="M187.4,112.1c5,1.7,9.6,4.2,13.3,8.1c-2.6,0.5-5.1,1.1-7.7,1.6c-0.3,0-0.7,0.1-1,0.1
		c-1.5,0.5-2.8,2.2-4.6,0.5C187.2,119,187.2,115.6,187.4,112.1z"/>
	<path class="st24" d="M6,242.7c-2.7-3.7-4.3-7.8-4.9-12.4c0.7-1.1,0.4-2.3,0.4-3.5C2,206.8,6,187.6,14.6,169.3
		c6.3-13.4,14.4-25.5,24.8-36c3.9-4,8-7.8,12.3-11.4c0.2-0.4,0.6-0.5,1-0.6c0.6,0,1.3,0.2,1.9,0.2c0.7,0,1.3-0.1,2,0.3
		c1.9,1.2,1.3,2.6,0.1,3.8c-1.7,1.7-3.7,3-5.5,4.6c-23.1,20.6-36.7,46.3-42,76.7c-1.1,6.5-1.4,13-1.9,19.6
		c-0.3,4.1,0.5,8.1,0.7,12.2c0,0.9,0.3,1.9,0,2.8C7.7,242.4,7.3,243.4,6,242.7z"/>
	<path class="st28" d="M1,176.1c0-5,0.1-9.9,0.1-14.9c2-6.5,5.7-12.1,9.3-17.7c5.3-8.1,11.2-15.6,18-22.4c1.1-1.2,1.8-2.7,3-3.7
		c1.3-0.5,2.6-0.1,3.9,0.2c1.9,0.7,4,0.4,5.8,1.4c0.7,0.3,1.6,0.5,1.9,1.4c-9.4,8.4-17.5,17.8-24.4,28.4
		c-6.7,10.4-12.1,21.5-16.1,33.3c-0.3,1-0.4,2.2-1.5,2.9C1,181.9,1,179,1,176.1z"/>
	<path class="st29" d="M52.7,121.9c-0.3,0-0.7,0-1,0c-1.8,0.2-3.3-1.2-5.1-1.2c-1.7-1.1-0.5-2.1,0.3-2.9c1.8-1.7,3.8-3.2,5.8-4.6
		c17.7-12.9,37.5-21.1,59.1-24.4c3.1-0.5,6.3-1.6,9.5-0.3c0,1.9,0,3.7,0,5.6c-1.2,1.2-2.9,1-4.3,1.2c-11.8,1.2-23.2,4.4-34.1,9
		c-10.4,4.4-20.1,10-29.1,16.9C53.5,121.5,53.1,121.8,52.7,121.9z"/>
	<path class="st30" d="M121.3,88.6c-3.7,0.5-7.4,0.9-11,1.5c-11.3,1.9-22.2,5.2-32.6,9.8c-10.3,4.6-19.8,10.5-28.6,17.5
		c-1,0.8-3.1,1.1-2.4,3.3c-1.2-0.1-2.4-0.3-3.6-0.4c-0.7,0-1.4-0.1-2-0.6c-0.8-1.8,0.7-2.5,1.7-3.3C50,110.1,58,104.6,66.6,100
		c16.1-8.6,33.2-13.9,51.4-15.8c1.2-0.1,2.4-0.2,3.3,0.8C121.3,86.2,121.3,87.4,121.3,88.6z"/>
	<path class="st31" d="M34.3,240.2c-4.9-0.1-9.9-0.1-14.8-0.2c-0.5,0.1-0.9-0.1-1.3-0.4c-0.7-1.3-1.3-2.8-1.3-4.3
		c-0.1-5.2-0.3-10.4,0.1-15.5c0.6-8.1,1.7-16.2,4.1-24c1-3.2,1.3-6.7,3.9-9.2c1.5-0.4,3.1-0.5,4.7-0.6c1.3,0.4,2.8,0.1,4.1,0.8
		c0.9,1.2,0.3,2.3-0.1,3.4c-3.4,9.4-5.5,19.2-6.3,29.1c-0.5,5.5-0.2,11.1-0.1,16.6c0,2,1.1,2.9,3.1,2.8c1.2-0.1,2.4,0,3.6,0.1
		c1.8-0.3,3.7,0,5.5-0.1c2.4-0.1,4.7-0.2,7.1,0.1c1.7-0.2,3.5-0.2,5.2,0c2,0.2,4.3-1.1,5.7,1.3c-0.2,0.5-0.7,0.7-1.2,0.8
		c-3.5,0.6-7.1,0.3-10.6,0.2c-2.1,0.2-4.2,0.2-6.2,0C37.7,241.1,35.8,241.7,34.3,240.2z"/>
	<path class="st1" d="M18.9,239.5c0.2,0.1,0.4,0.3,0.6,0.4c-2.2,2-1.1,4.6-0.8,6.7c0.3,2.4,0.4,4.9,1.3,7.3
		c-4.1-1.2-7.3-3.7-10.2-6.7c-1.2-4-1.5-8.2-1.6-12.3c-0.3-11.6-0.1-23.3,2.6-34.7c0.4-1.7,0.1-4.1,2.5-4.8c1.3,1,1,2.5,1,3.8
		c0,9.8,0.1,19.6,0,29.4C14.3,233.1,15.7,236.6,18.9,239.5z"/>
	<path class="st32" d="M34.3,240.2c1.7,0,3.4,0,5.1,0c0.2,0.2,0.6,0.4,0.7,0.8c1.2,4.5,2,9,2.9,13.6c0.1,0.5-0.2,1-0.5,1.4
		c-1.7,0-3.4,0-5.1,0C35.7,250.8,34.5,245.6,34.3,240.2z"/>
	<path class="st33" d="M187.4,122.4c1.5-0.2,3-0.3,4.6-0.5c-1.3,1.2,0.2,1.4,0.7,1.7c3.6,2.3,7,4.8,10.4,7.4
		c10.4,8.4,19.4,18.1,26.6,29.4c8.6,13.3,14.3,27.8,17.4,43.4c2,10.1,2.7,20.4,2.2,30.7c-0.2,3.6-0.9,7.2-0.9,10.9
		c-0.3,1.8-1.8,2.6-3.1,3.5c-1.3-1.4-0.6-3.1-0.4-4.6c0.8-5.7,1.4-11.5,1.3-17.2c-0.3-10.3-1.3-20.5-4-30.5
		c-0.2-0.8-0.5-1.5-0.7-2.3c-0.3-2.5-2.6-4.1-3.1-6.5c0.7-1.1,0.2-2.1-0.2-3.2c-4.4-12-10.9-22.8-18.8-32.9
		c-8.1-10.4-18.1-18.6-29.2-25.6c-1-0.6-1.9-1.4-2.7-2.3C187.4,123.4,187.4,122.9,187.4,122.4z"/>
	<path class="st33" d="M242.7,196.1c2.1,5.3,2.8,10.8,3.5,16.4c0.7,5,1.1,10.2,1.1,15.2c0,7.1-0.7,14.2-1.9,21.3
		c-0.8,1.3-2.3,1.7-3.5,2.5c-1.7-0.1-1.4-1.4-1.3-2.4c0.2-2.9,0.9-5.7,1.1-8.6c1.1-13.6-0.2-27.2,0.3-40.8
		C242,198.5,241.5,197.1,242.7,196.1z"/>
	<path class="st3" d="M242.7,196.1c0,9.3-0.2,18.5,0.1,27.8c0.2,8.8,0.6,17.6-1.4,26.3c-0.1,0.6,0.1,1,0.5,1.3
		c-2.3,1.9-5,2.8-7.8,3.5c-0.4-3,1.1-5.7,1.3-8.6c0.1-2.1,0.9-4.1,0.7-6.3c-0.1-0.3-0.1-0.6,0.2-0.9c3.9-2.4,5.1-5.8,5-10.4
		c-0.3-10.4-0.1-20.7-0.1-31.1c0-1.3-0.3-2.8,1.1-3.7C242.8,194.6,242.7,195.4,242.7,196.1z"/>
	<path class="st1" d="M13.3,195.6c-1.8,4.4-2.3,9.2-3.1,13.8c-1.5,8.9-1,17.9-1,26.9c0,2.5,0.5,5,0.8,7.6c0.1,1.2,0.5,2.3-0.3,3.4
		c-1.6-1.2-2.8-2.8-3.7-4.6c1.4-0.3,1.3-1.5,1.1-2.5c-1.2-8.5-0.9-16.9,0-25.4c1.1-10.8,3.4-21.3,7-31.6c5-14.3,12.4-27.2,21.9-39
		c5.9-7.2,12.4-13.7,19.9-19.4c0.9-0.7,1.9-1.4,0.4-2.6c0.9-1.1,2-0.6,3.1-0.4c1.5,0.1,3,0.2,4.5,0.4c0.9,0.3,1.9,0.4,2.6,1.1
		c0.6,1.7-0.9,2.2-1.8,2.9c-4.7,3.5-9.3,7.2-13.5,11.3c-9.6,9.1-17.5,19.6-23.7,31.2c-3.1,5.8-5.8,11.8-7.6,18.1
		c-0.3,0.7-0.8,1-1.4,1.4c-1.9,1.2-3.3,2.8-3.8,5C14.4,194.4,14.2,195.2,13.3,195.6z"/>
	<path class="st34" d="M236.1,239.7c0,0.1,0,0.2-0.1,0.4c-2.4,0-4.8,0.1-7.1,0.1c-1.7,1.4-3.7,0.9-5.6,0.9c-1.7,0.2-3.5,0.2-5.2,0
		c-2.4,0.2-4.7,0.3-7.1,0c-1.6-0.1-3.1,0.3-4.7-0.1c-1,0-2,0.1-2.6-0.9c0.2-1.3,1.3-1.4,2.3-1.5c1.4-0.1,2.9-0.1,4.3,0.1
		c1.7-0.2,3.5-0.2,5.2,0c2.6-0.2,5.3-0.3,7.9,0c4.4-0.3,4.6-0.5,4.8-5c0.6-14.8-1.6-29.2-6.9-43.1c-0.5-1.3-1.4-2.7-0.2-4.1
		c2.5-0.9,5-0.4,7.5-0.4c0.3,0.1,0.6,0.2,0.9,0.4c2.7,4.7,3.8,10,5.2,15.2c2.9,11.3,3.3,22.9,2.8,34.5
		C237.5,237.6,237,238.7,236.1,239.7z"/>
	<path class="st32" d="M223.2,240.2c1.9,0,3.8,0,5.6,0c-1,5.3-2.1,10.6-3.1,15.9c-1.9,0-3.7-0.1-5.6-0.1c-0.5-0.8-0.5-1.6-0.3-2.4
		c1-3.8,1.7-7.7,2.4-11.6C222.4,241.2,222.7,240.7,223.2,240.2z"/>
	<path class="st35" d="M146.5,46.6c-0.4,2.7-0.7,5.5-1.1,8.2c-0.7,0.8-1.6,0.8-2.6,0.8c-7-0.5-14-0.5-21-0.1
		C110,56,98.4,58,87.1,61.3c-24.7,7.1-46.7,19.4-65.8,36.6c-4.9,4.4-9.4,9.2-13.9,14c-2.4,0.3-4.7,0.1-6.3-2.1c0,0-0.1-0.2-0.1-0.2
		c0-1.5,0.1-3,0.1-4.6c0.8-2.4,2.5-4.2,4.2-6c14.3-14.8,30.6-26.9,49-36.1c17.7-8.8,36.4-14.4,56-16.9c7.4-0.9,14.9-1.4,22.4-1.5
		c3.7,0,7.3,0.7,11,0.6C144.8,45.1,145.8,45.5,146.5,46.6z"/>
	<path class="st36" d="M146.5,46.6c-7.2-0.6-14.4-1.6-21.6-0.6c-3.2,0.4-6.4,0.3-9.7,0.5c-10.1,0.9-20,2.9-29.8,5.5
		c-11.7,3.2-23,7.6-33.7,13.3c-11.3,6-21.9,13-31.7,21.4c-6.3,5.4-12.5,11-17.9,17.4c-0.3,0.3-0.7,0.5-1,0.8c0-2.2,0-4.4,0-6.7
		c2.7-2.6,5.4-5.2,8.1-7.8c11.5-11.2,24.4-20.3,38.5-28c14.3-7.8,29.5-13.4,45.3-17c7.5-1.7,15.2-3,22.9-3.5
		c5.8-0.4,11.5-0.9,17.3-0.9c4.9,0,9.8,0.6,14.7,1C147.4,43.5,146.9,45.1,146.5,46.6z"/>
	<path class="st35" d="M219.2,79.9c0.2-3.2-2.3-1.7-3.7-2.1c-2.3-0.5-4.2-1.7-6.3-2.7c-6.1-3.2-12.2-6.2-18.7-8.7
		c-1.3-0.5-2.6-0.9-3.2-2.3c-0.2-3.2,0.1-6.3,1.5-9.3c7.5,2.7,14.7,5.8,21.8,9.4c12.3,6.4,23.7,14.1,34.2,23.2
		c2.9,2.5,5.8,5,8.5,7.7c1.1,1.1,2,2.3,2.6,3.8c0.1,2.2,0.1,4.4,0.2,6.6c0,0-0.2,0.1-0.2,0.1c-0.8,1.7-2.3,1.9-3.9,1.8
		c-1.2-0.5-2.1-1.4-3-2.3c-8.3-8.5-17.4-16.1-27.3-22.6C220.6,81.8,219.7,81.1,219.2,79.9z"/>
	<path class="st36" d="M255.9,98.8c-5.2-4.9-10.4-9.7-15.9-14.2c-7.9-6.5-16.4-12.1-25.3-17.1c-7.6-4.2-15.4-7.9-23.6-10.8
		c-0.9-0.3-2-0.6-2.2-1.9c0.3-1.4,0.9-2.6,2-3.6c2.7,2.1,6,2.7,9,4.1c13.9,6.1,27,13.6,39.1,22.9c5.9,4.6,11.5,9.5,16.9,14.7
		C255.9,94.7,255.9,96.7,255.9,98.8z"/>
	<path class="st37" d="M149,240.2c3.1,0,6.1,0,9.2,0c0.8,0.9,0.3,1.8-0.1,2.6c-2.5,4.9-6.1,8.9-10.9,11.8c-1.2,0.7-2.6,0.8-3.8,1.3
		c-7.9,0-15.7,0-23.6,0c-7.5-1.7-11.8-7-15.1-13.4c-0.5-0.9-1.1-2.1,0.2-3c2.6-0.4,5.2-0.1,7.8-0.2c0.3,0,0.5,0,0.8,0.1
		c1.2,0.6,2,1.8,3,2.8c8,8.6,20.8,8.9,29.1,0.6C146.6,241.8,147.6,240.8,149,240.2z"/>
	<path class="st38" d="M164.9,240.2c2.2,0,4.4,0,6.7,0c0.9,1,0.5,2.1,0.2,3.1c-1.3,3.7-3.2,7.1-5.3,10.4c-0.7,1.1-1.8,1.7-3,2.2
		c0,0,0,0.2,0,0.2c-3.1-0.1-6.1-0.1-9.2-0.2c-0.4-1.4,0.7-2.2,1.5-3c3.1-3.1,5.5-6.6,7.3-10.6C163.3,241.4,163.8,240.6,164.9,240.2z
		"/>
	<path class="st38" d="M99.8,256.1c-0.2-0.1-0.4-0.1-0.5-0.2c-1.4-0.5-2.4-1.5-3.2-2.8c-2-3.2-3.8-6.5-5-10c-0.4-1.2-1-2.5,0.4-3.5
		c2.1-0.5,4.3-0.3,6.4-0.1c1.3,0.6,1.7,1.8,2.2,3c1.8,4,4.1,7.6,7.2,10.7c0.7,0.7,1.7,1.5,1.3,2.8C105.6,256,102.7,256,99.8,256.1z"
		/>
	<path class="st39" d="M108.5,255.9c-3.8-3.9-7.3-8-9.4-13.1c-0.3-0.9-0.9-1.6-0.8-2.6c2-1.3,4.1-1.3,6.1,0
		c3.1,7.2,8.4,12.3,15.3,15.7C116,255.9,112.3,255.9,108.5,255.9z"/>
	<path class="st39" d="M164.9,240.2c-2.3,6.1-6,11.2-10.7,15.7c-3.6,0-7.2,0-10.7,0c5.5-3.1,10.4-6.9,13.5-12.7c0.5-1,0.9-2,1.4-3
		C160.4,240.2,162.6,240.2,164.9,240.2z"/>
	<path class="st2" d="M207.9,119.3c1.4-1,3.2-0.6,4.6-1.5c0.8-1.2,2-1.4,3.4-1.1c13.5,11.4,25,24.5,33.6,40
		c2.4,4.3,4.6,8.7,6.5,13.2c0.1,2.6,0.1,5.1,0.2,7.7c-0.1,3.9-0.1,7.8-0.2,11.7c-1.9-5-3.5-10.1-5.6-15.1
		c-5.2-12.5-12.2-24.1-21.1-34.4C222.8,132.3,215.5,125.6,207.9,119.3z"/>
	<path class="st28" d="M255.9,170c-0.9-0.1-1.5-0.7-1.9-1.6c-4-10-9.8-19.1-16.3-27.6c-5.8-7.6-12.4-14.5-19.6-20.7
		c-0.9-0.8-1.9-1.5-2.1-2.8c0.1-0.8,0.7-1.1,1.4-1.3c1.9-0.9,4.1-1.1,6.1-1.7c0.9-0.3,1.8-0.4,2.7-0.1c6,4.6,10.9,10.2,15.6,16.1
		c4.2,5.3,8.4,10.6,11.9,16.3c0.9,1.6,1.6,3.2,2.2,4.9C255.9,157.7,255.9,163.8,255.9,170z"/>
	<path class="st40" d="M255.9,151.5c-3.3-4.2-5.8-9-9.1-13.3c-6.1-8-12.3-15.9-20-22.4c-0.3-0.2-0.4-0.7-0.5-1.1
		c0.9-2.3,3.2-1.6,4.9-2.4c2-0.7,4-1.6,6.2-1.2c5.9,5.4,11,11.6,15.9,17.8c1.2,1.6,2.2,3.2,2.6,5.2c0.1,0.2,0.1,0.4,0.2,0.5
		C256,140.3,256,145.9,255.9,151.5z"/>
	<path class="st41" d="M31.2,117.8c0.6,1.3-0.4,2.1-1.1,2.8c-11.3,11.5-20.7,24.3-27.7,38.8c-0.3,0.7-0.6,1.4-1.4,1.8
		c0-6-0.1-11.9-0.1-17.9c0-0.3,0.1-0.7,0.1-1c0.9-3.5,3.1-6.2,5.1-9c3.7-5.2,7.5-10.2,12-14.8c1.1-1.1,1.6-2.6,2.7-3.7
		c2.5-0.7,4.7,0.6,7,1.1C29,116.6,30.8,116,31.2,117.8z"/>
	<path class="st42" d="M20.5,115.3c1.2,0.8,0.4,1.4-0.2,2c-3.4,4.1-7,8.1-10.2,12.4c-3.1,4.1-6,8.4-9,12.7c0-4.6,0-9.2,0-13.8
		c2-4.6,5.6-8,8.6-11.8c1-1.3,2.1-2.7,3.2-3.9c1-0.4,2-0.2,3,0.1c1.5,0.7,3.4,0.3,4.5,1.9C20.4,115,20.4,115.1,20.5,115.3z"/>
	<path class="st43" d="M12.8,113.2c0.2,0.4,0.3,0.8,0,1.2c-3.6,4.4-7.1,8.9-10.7,13.3c-0.3,0.3-0.7,0.5-1,0.8c0-6.3,0-12.6,0-18.8
		c2,0.6,4.1,1.2,6.1,1.9c1.1-0.8,2-0.5,3,0.2c0.2,0.2,0.3,0.4,0.4,0.7c-0.3,1.7-2,2.4-2.5,3.7c1.2-1.1,1.6-3.6,4.2-3.3
		C12.5,112.8,12.7,113,12.8,113.2z"/>
	<path class="st44" d="M69.6,256.1c-0.2-0.1-0.3-0.1-0.5-0.2c-0.8-0.5-1.4-1.2-1.8-2.1c-1.5-3.7-2.6-7.5-3.3-11.4
		c-0.2-1-0.3-2,0.7-2.8c2.9-0.6,5.8-0.4,8.7-0.1c1.2,0.6,1.5,1.8,1.8,2.9c0.9,3.6,2.1,7.1,3.6,10.6c0.4,0.9,0.8,1.9,0,2.9
		C75.8,256,72.7,256,69.6,256.1z"/>
	<path class="st45" d="M78.8,255.9c-2.1-5.1-4.2-10.2-5.1-15.7c1.4-1.5,3.3-0.6,5-0.8c0.9-0.1,1.8-0.1,2.7,0.1
		c1.1,0.4,1.6,1.3,1.9,2.3c1.2,3.9,2.8,7.6,4.6,11.3c0.4,0.9,0.9,1.9,0.1,2.9C85,255.9,81.9,255.9,78.8,255.9z"/>
	<path class="st46" d="M91.1,240.2c1.7,5.8,4.5,11,8.2,15.7c-1.9,0-3.8,0-5.6,0c-0.9-0.4-1.7-1-2.3-1.9c-2.4-3.6-3.9-7.6-5.1-11.7
		c-0.2-0.7-0.3-1.5,0.1-2.2c0.2-0.2,0.4-0.4,0.7-0.5C88.4,239.5,89.9,238.8,91.1,240.2z"/>
	<path class="st47" d="M86.6,240.2c1.5,5.6,3.8,10.9,7.1,15.7c-1.9,0-3.7,0-5.6,0c-2.2-5.2-5.1-10.1-6.1-15.7
		C83.5,239,85,239,86.6,240.2z"/>
	<path class="st42" d="M255.9,134.1c-5.2-7.4-11-14.1-17.2-20.6c-0.5-0.6-1.1-1.1-1.1-1.9c-0.1-0.4,0.1-0.8,0.4-1
		c1.8-0.9,3.8-1.3,5.8-1.8c0.6-0.2,1.2-0.3,1.8,0c2.4,2.7,5,5.1,7.3,7.9c1.2,1.5,2.3,2.9,3,4.7C255.9,125.6,255.9,129.8,255.9,134.1
		z"/>
	<path class="st48" d="M255.9,121.3c-3.6-3.5-6.4-7.6-10.1-11c-0.4-0.3-0.2-0.8,0-1.2c1.4-2.1,3.4-2.8,6.1-2.2
		c1.3-0.5,2.7-0.9,4-1.4C255.9,110.8,255.9,116.1,255.9,121.3z"/>
	<path class="st49" d="M193.6,255.9c-3.2,0-6.5,0-9.7,0c-0.6-0.9-0.3-1.8,0-2.7c1.6-3.7,2.9-7.4,3.8-11.3c0.2-0.9,0.6-1.8,1.5-2.3
		c2.9-0.3,5.8-0.4,8.7,0c0.9,0.6,1,1.5,0.9,2.5c-0.6,4.2-1.8,8.2-3.4,12.1C195,255,194.4,255.6,193.6,255.9z"/>
	<path class="st50" d="M188.9,240.2c-0.6,5.6-3,10.6-5.1,15.7c-1.2,0.1-2.4,0.1-3.6,0.2c-1.9-0.1-3.7-0.1-5.6-0.2
		c-0.7-0.8-0.3-1.6,0.1-2.4c1.9-3.6,3.4-7.4,4.6-11.3c0.3-0.8,0.8-1.5,1.5-2c2.2-0.1,4.4-0.1,6.6-0.2
		C187.9,239.7,188.4,239.6,188.9,240.2z"/>
	<path class="st51" d="M193.6,255.9c2.2-5.1,3.7-10.3,4.6-15.7c1.8-1.3,3.7-1.2,5.7-0.2c0.8,0.1,1.7,0.1,2.5,0.2
		c0.8,0.7,0.8,1.6,0.6,2.6c-0.7,3.7-1.6,7.3-2.8,10.9c-0.3,1-0.9,1.8-1.9,2.2C199.4,255.9,196.5,255.9,193.6,255.9z"/>
	<path class="st52" d="M202.3,255.9c2-5.1,3.3-10.3,4.1-15.7c1.5,0,3.1,0,4.6,0c1.3,3.3-1.4,13.8-4.1,15.7c0,0,0,0.2,0,0.2
		C205.3,256,203.8,256,202.3,255.9z"/>
	<path class="st53" d="M45.6,240.2c3.6,0,7.2,0,10.8,0c0.8,0.5,1.3,1.3,1.5,2.3c0.7,3.6,1.7,7.1,2.8,10.6c0.3,1,0.6,2-0.2,2.9
		c-1.5,0-3.1,0.1-4.6,0.1c-2.4-0.1-4.8-0.1-7.2-0.2c-0.8-0.7-1.3-1.5-1.6-2.5c-1-3.4-1.7-6.9-2.2-10.4C44.7,242,44.7,241,45.6,240.2
		z"/>
	<path class="st54" d="M45.6,240.2c0.3,4.3,1.3,8.6,2.5,12.7c0.3,1,0.7,1.9,0.6,3c-2,0-4.1,0-6.1,0c-1.3-5.2-2.8-10.3-3.1-15.7
		C41.5,240.2,43.5,240.2,45.6,240.2z"/>
	<path class="st55" d="M206.8,255.9c2.2-5,3.1-10.4,4.1-15.7c2.4,0,4.8,0,7.2,0c0.9,0.8,1,1.8,0.8,2.8c-0.6,3.6-1.4,7.1-2.3,10.7
		c-0.3,0.9-0.8,1.7-1.5,2.3C212.3,255.9,209.6,255.9,206.8,255.9z"/>
	<path class="st56" d="M215,255.9c0.9-4.1,1.8-8.3,2.8-12.4c0.3-1.1,0.3-2.2,0.3-3.3c1.7,0,3.4,0,5.1,0c-0.2,5.4-1.5,10.6-3,15.7
		C218.5,255.9,216.8,255.9,215,255.9z"/>
	<path class="st46" d="M163.3,255.9c3.9-4.6,6.8-9.8,8.2-15.7c1.5,0,3.1,0,4.6,0c0.9,1,0.5,2.1,0.2,3.1c-1.1,3.8-3,7.2-4.9,10.6
		c-0.6,1-1.5,1.6-2.5,2C167.1,255.9,165.2,255.9,163.3,255.9z"/>
	<path class="st47" d="M169,255.9c3.3-4.8,5.9-9.9,7.1-15.7c1.5,0,3.1,0,4.6,0c-1.1,5.6-3.5,10.7-6.1,15.7
		C172.7,255.9,170.9,255.9,169,255.9z"/>
	<path class="st51" d="M60.4,255.9c-1.7-5.1-3.1-10.4-4.1-15.7c0.3-0.1,0.7-0.1,1-0.2c2.4-1.6,4.8-0.9,7.2,0.2
		c1.1,5.4,2.7,10.6,4.6,15.7C66.2,255.9,63.3,255.9,60.4,255.9z"/>
	<path class="st57" d="M27.7,116.7c-2.4-0.5-4.8-1-7.2-1.4c0,0,0.1-0.1,0.1-0.1c-0.4-1.7,0.8-2.5,1.7-3.4c6.8-6.9,14.2-13,22.1-18.5
		c19.4-13.3,40.6-21.8,63.8-25.4c10-1.5,20-2.1,30.1-1.6c2.2,0.1,4.7-0.2,6.6,1.5c0.2,2,0.2,4.1,0,6.1c-0.9,1-2.1,1-3.3,0.9
		c-17.7-1.4-35,0.7-52,5.7C69.1,86.5,50.9,97,34.7,111c-1.4,1.2-2.7,2.6-4,3.9C29.8,115.8,28.9,116.5,27.7,116.7z"/>
	<path class="st58" d="M27.7,116.7c4.9-5.9,10.9-10.5,17-15c16-11.8,33.6-20,52.9-24.6c7.4-1.8,15-2.9,22.6-3.5
		c5.8-0.5,11.6-0.2,17.4-0.4c2.5-0.1,4.9,0.8,7.4,0.5c0,0.3,0.1,0.7,0.1,1c0.4,2.3-0.2,3.3-2.9,3.2c-6-0.2-12.1,0.1-18.2-0.1
		c-2.2-0.1-2.9,0.6-2.7,2.6c-1.2,1.3-2.9,1.3-4.5,1.5c-24.1,2.6-46,11-65.8,24.9c-4.4,3.1-8.6,6.4-12.6,10.1
		c-0.9,0.8-1.9,1.5-3.2,1.5c-1.4-0.2-2.7-0.3-4.1-0.5C30,117.4,28.9,117.1,27.7,116.7z"/>
	<path class="st3" d="M187.4,141.3c0-4.4,0-8.9,0-13.3c0.9-0.7,1.7-0.3,2.5,0.2c9,5.8,17.1,12.4,24.2,20.5
		c7.5,8.5,13.7,17.7,18.6,27.9c1.2,2.5,2.3,5.1,3.3,7.7c0.4,1,0.9,2.1-0.2,3.1c-0.9,0.6-1.9,0.5-2.9,0.4c-1.4-0.2-2.7-0.8-4.1-1.1
		c-1.5,0-3,0-4.6,0c-1.4-0.2-1.7-1.4-2.1-2.3c-4.9-10.7-11.4-20.3-19.4-28.9c-3.8-4.1-8-7.6-12.4-11
		C189.2,143.5,188.2,142.5,187.4,141.3z"/>
	<path class="st59" d="M145,218.6c0,6.1,0,12.3,0,18.4c-1.2,3.1-3.6,3.5-6.5,3.4c-5.2-0.2-10.4-0.1-15.6,0c-2,0-3.4-0.8-4.5-2.3
		c-4.9-6.7-4.9-16.5,2.3-23.1c5.9-5.5,15.2-5.6,21.7-0.1C143.5,216,143.9,217.5,145,218.6z"/>
	<path class="st60" d="M144.9,67.6c-5.3-0.4-10.7-0.6-16.1-0.5c-19.9,0.4-39,4.4-57.2,12.3C58.5,85,46.5,92.3,35.4,101.2
		c-5.3,4.3-10.5,8.7-14.9,13.9c-1.6-0.5-3.1-0.9-4.7-1.4c-0.5-1.5,0.7-2.4,1.5-3.3c10.5-11.1,22.4-20.4,35.7-28
		c18.4-10.6,38.2-17.3,59.3-19.8c9.9-1.2,19.9-1.8,29.8-0.7c1,0.1,2,0.2,2.8,1C145.1,64.5,145.1,66,144.9,67.6z"/>
	<path class="st61" d="M144.9,159.2c0.2,3.1,0.2,6.1,0,9.2c-1.1,1.1-2.4,0.6-3.6,0.4c-17.9-3-33.6,1.7-47.4,13.4
		c-1.9,1.6-3.6,3.3-5.6,4.8c-3.7,0.2-7.4,0.4-11-0.1c-1.5-1.4-0.3-2.5,0.5-3.5c3.1-4.3,6.9-8,11-11.3c13.3-10.8,28.6-15.8,45.7-15.3
		c2.6,0.1,5.2,0.4,7.8,0.9C143.3,157.8,144.2,158.3,144.9,159.2z"/>
	<path class="st62" d="M145,218.6c-2.1-0.3-2.7-2.4-4.2-3.5c-9.5-7.3-22.8-1.5-24.6,10.1c-0.8,5,0.6,9.2,3.5,13.1
		c0.7,1,1.6,1.4,2.8,1.4c5.9,0,11.8,0,17.7,0c1.4,0,2.5-0.1,3.1-1.6c0.3-0.7,1-0.9,1.7-1c0,1,0,2,0,3c-0.4,0.7-1,0.9-1.7,0.9
		c-7.8,0.6-15.6,0.2-23.3,0.2c-2.2,0.1-4.3,0.3-6.3-1c-0.2-0.1-0.4-0.1-0.6-0.2c-1.4-0.4-2.8,0-4.1-0.3c-1.4-0.5-1.8-1.7-2.2-2.9
		c-5.6-17.5,5.8-33.9,21.5-35.7c4.6-0.5,8.9,0.2,13.2,1.9c1.5,0.6,2.7,1.4,3.5,2.9C145,210.1,145,214.4,145,218.6z"/>
	<path class="st63" d="M144.9,136.2c0.2,1.9,0.2,3.8,0,5.6c-0.8,0.9-1.9,1-3.1,0.8c-1.6-0.3-3.2-0.3-4.8-0.4
		c-26.6-1.7-48.6,8-66.6,27.2c-4.1,4.3-7.5,9.3-10.4,14.5c-0.6,1.1-1.2,2.3-2.3,3c-1.7,0.3-3.5,0.4-5.2-0.1
		c-1.6-1.6-0.5-3.3,0.3-4.7c3-5.5,6.5-10.8,10.6-15.6c9.3-11,20.5-19.4,33.8-24.9c9.7-4,19.7-6.5,30.2-7c5-0.2,9.8,0.1,14.7,0.6
		C143.2,135.2,144.2,135.4,144.9,136.2z"/>
	<path class="st64" d="M66.5,124c-0.8-0.2-1.7-0.4-2.5-0.6c-0.2-1.7,1.2-2.3,2.3-3c7.3-4.7,15-8.7,23.2-11.7
		c9.4-3.5,19-5.9,28.9-6.8c1-0.1,2-0.3,2.9,0.5c0.3,4,0.3,4,4.4,4c5.4,0,10.9,0.2,16.3-0.1c2.7-0.1,3.5,0.7,3.1,3.2
		c-0.1,0.5-0.1,1-0.1,1.5c-1.1,1.2-2.6,1.1-4.1,0.9c-13.2-1.3-26.1,0-38.9,3.5c-8.6,2.4-16.6,6-24.6,9.9c-0.7,0.1-1.5,0.3-2.2,0.4
		C72.3,125.4,69.1,126.1,66.5,124z"/>
	<path class="st65" d="M144.9,63c-5.2-0.1-10.4-0.7-15.6-0.5c-21.1,0.5-41.3,4.7-60.7,13.3c-13.8,6.1-26.5,14-38.1,23.6
		c-5.3,4.4-10.2,9.3-14.8,14.5c-1-0.2-2-0.4-3-0.5c-0.2,0-0.3,0-0.5-0.1c-0.3-0.2-0.7-0.4-0.7-0.9c0.5-1.5,1.5-2.6,2.5-3.7
		c13-13.4,27.7-24.6,44.4-33.1c13.8-7.1,28.4-11.9,43.7-14.9c13-2.5,26.2-2.5,39.3-2.5c1.4,0,2.5,0.3,3.5,1.3
		C145,60.6,144.9,61.8,144.9,63z"/>
	<path class="st66" d="M144.9,186.9c0,2.9,0,5.8,0,8.7c-1.2,0.9-2.3,0.2-3.4-0.1c-10.7-3.1-20.8-1.9-29.7,5
		c-7.6,5.8-11.8,13.6-13.1,23.2c-0.6,4.4,0,8.6,0.9,12.9c0.2,1.1,0.8,2.4-0.5,3.3c-1.7,0.1-3.4,0-5.2,0c-1.2-0.5-1.5-1.6-1.7-2.6
		c-4.4-20.4,5.6-40.2,24.8-48.3c2.2-0.9,4.4-1.2,6.7-1.6c1.4-0.3,2.6-0.7,3.8-1.3c5-0.4,10-0.1,14.9-0.2
		C143.4,185.8,144.2,186.2,144.9,186.9z"/>
	<path class="st67" d="M10.2,112.2c-1-0.2-2-0.4-3-0.6c0.4-1.4,1.3-2.4,2.2-3.4c15.8-17.1,34.3-30.5,55.6-40
		c13.9-6.2,28.4-10.3,43.5-12.5c10.8-1.6,21.5-1.4,32.3-1.4c1.5,0,3,0.3,4.5,0.5c0,1.4,0,2.9-0.3,4.3c-1.6-0.8-3.2-1-5-0.9
		c-4.3,0.1-8.7,0.1-13,0c-6.6-0.1-13.2,0.7-19.7,1.6c-8.1,1.2-16.1,3.1-23.9,5.6c-12.6,4-24.6,9.5-35.8,16.4
		c-8.8,5.4-17,11.5-24.6,18.5c-3.8,3.5-7.7,6.9-10.9,11C11.5,111.7,11,112.2,10.2,112.2z"/>
	<path class="st68" d="M203.8,240c-1.9,0.1-3.8,0.1-5.7,0.2c-3.1,0-6.1,0-9.2,0c-0.5-0.1-1.1-0.1-1.6-0.2c0-0.1,0-0.3,0.1-0.4
		c1.7-1.7,3.8-1,5.8-0.9c1.7-0.1,3.4-0.2,5.1-0.1c1.8,0.1,2.8-0.4,3-2.5c0.9-9,0.5-17.8-1.8-26.6c-1.8-6.7-4.2-13.1-7.7-19.1
		c-0.7-1.2-1.8-2.4-0.6-3.9c3.3-1.2,6.6-0.1,9.9,0c3.7,4.5,5.3,10,7.1,15.4c3.5,10.4,4.2,21.2,3.7,32c-0.1,2,0,4.1-1.5,5.8
		C208.2,239.8,206,239.1,203.8,240z"/>
	<path class="st50" d="M88.6,186.4c1.3-3.3,4.4-4.9,6.9-6.9c11.7-9.2,25.1-13.3,39.9-12.5c3.2,0.2,6.4,1,9.5,1.5
		c0.2,2.9,0.2,5.8,0,8.7c-1,0.9-2.1,0.6-3.2,0.3c-8-1.9-16-1.4-23.9,0.8c-6.1,1.7-11.4,4.9-16.6,8.2c-0.4,0.2-0.7,0.5-1.1,0.6
		c-2.6,0.2-5.3,0.1-7.9,0.1C91,187,89.6,187.5,88.6,186.4z"/>
	<path class="st69" d="M191,187c5.7,9,9.3,18.7,11,29.2c1.2,7.4,1.1,14.7,0.2,22.1c-0.1,1.1-0.8,1.3-1.8,1.3c-2.3,0-4.6,0-6.9,0
		c-1-0.9-1-2.1-0.9-3.3c1-10.7,0.4-21.2-3.6-31.3c-0.8-1.9-0.7-4-1.7-5.8c0-4.1,0-8.2,0-12.3C188.6,185.8,189.8,185.6,191,187z"/>
	<path class="st54" d="M144.9,136.2c-4.6-0.3-9.1-1.1-13.7-0.9c-6.2,0.3-12.3,0.8-18.4,2.3c-14,3.3-26.6,9.4-37.6,18.5
		c-6.3,5.2-11.9,11.1-16.2,18.1c-2.5,3.9-5.7,7.5-6.8,12.2c-0.1,0.1-0.2,0.2-0.3,0.3c-1.4,0.6-2.8,0.6-4.2,0c-1.1-1.5,0-2.8,0.6-4
		c5.1-10.3,11.8-19.4,20.2-27.1c13.1-12,28.4-19.9,45.9-23.2c9.2-1.7,18.4-2,27.7-0.9c1,0.1,2,0.3,2.8,1.1
		C145.1,133.8,145.1,135,144.9,136.2z"/>
	<path class="st70" d="M35.3,118.3C46.1,108,58.5,99.7,72,93.3c12.9-6,26.3-10.2,40.4-11.9c2.9-0.4,5.9-0.7,8.8-1c0,1.5,0,3.1,0,4.6
		c-10.4,0.7-20.6,2.7-30.5,5.8c-17.1,5.4-32.5,13.9-46.3,25.3c-1.3,1-2.9,1.8-3.5,3.5C39.1,119.3,37.2,118.8,35.3,118.3z"/>
	<path class="st71" d="M52.2,186.4c1.9,0,3.8,0,5.6,0c0.8-0.7,1.7-1.1,2.8-0.8c0.4,0,0.8,0.1,1.3,0.1c0.4,0,0.8,0,1.2,0
		c2.2,0,3.7-1,4.9-2.9c11.4-16.7,26.8-27.7,46.5-32.4c9-2.1,18.1-2.3,27.2-1.2c1.2,0.1,2.3,0.5,3.2,1.5c0.2,1.5,0.2,3.1,0,4.6
		c-1.1,1.1-2.4,0.7-3.6,0.5c-12.4-1.5-24.4-0.4-36,4.5c-12,5.1-22,12.8-29.8,23.3c-0.9,1.2-1.8,2.3-2.7,3.4
		c-0.2,0.2-0.4,0.4-0.7,0.6c-0.3,0.1-0.6,0.2-0.9,0.2c-3.4,0.5-6.8,0.4-10.2,0.1c-1.8,0.1-3.7,0.3-5.5,0c-1.1,0-2.2,0.3-3.1-0.6
		C52.1,187,52.1,186.7,52.2,186.4L52.2,186.4z"/>
	<path class="st52" d="M144.9,150.5c-5-0.8-10.1-1.1-15.2-1c-15.8,0.2-29.9,5.3-42.5,14.5c-7.8,5.7-14.4,12.7-19.4,21
		c-1.3,2.1-3.2,1.1-4.8,1.4c-1.1-1.6,0.6-2.8,0.8-4.2c0.5-1.3,1.3-2.3,2.1-3.4c0.7-0.5,1.3-1,1.6-1.8c0.1-0.2,0.3-0.4,0.4-0.6
		c1.4-1.1,2.4-2.6,3.5-4c3.5-4.6,8.1-7.9,12.3-11.8c0.2-0.2,0.3-0.3,0.5-0.5c0.8-0.3,1.4-0.9,1.9-1.5c0.6-0.4,1.1-1,1.8-1.2
		c5.5-3,11.2-5.7,16.8-8.6c0.8-0.2,1.4-0.7,2.3-0.7c2.3-0.1,4.5-0.9,6.6-1.8c2.4-1.2,5.1-1.3,7.7-1.6c7.2-1,14.5-1,21.8,0.3
		c0.7,0.1,1.3,0.3,1.8,0.8C145.1,147.5,145.1,149,144.9,150.5z"/>
	<path class="st72" d="M99.3,239.6c-2.8-9.6-2.7-19,2-28c5.2-10.1,13.4-16.5,24.6-18.4c6.4-1.1,12.9-0.3,19,2.4c0,1.5,0,3.1,0,4.6
		c-1.4,1.2-2.8,0.3-4.1-0.2c-6.5-2.1-13-2.3-19.5,0.3c-13.2,5.2-20.9,19.8-17.8,33.6c0.2,1.1,0.6,2.1,0.8,3.2c0.2,1,0.5,2.1-0.7,2.7
		C102.2,239.8,100.8,240.1,99.3,239.6z"/>
	<path class="st73" d="M103.9,239.6c-0.8-4.1-2.2-8-2.1-12.3c0.2-14.8,11.6-28.8,27-29.8c4.8-0.3,9.3,0.4,13.7,2
		c0.8,0.3,1.6,0.7,2.4,0.7c0,1.9,0,3.8,0,5.6c-3.9-2.3-8.1-3.8-12.5-4c-5.8-0.2-11.2,1.4-15.8,4.9c-10.1,7.8-13.2,21.4-7.6,32.8
		C107.3,240,105.6,240,103.9,239.6z"/>
	<path class="st51" d="M72.2,186.4c10.2-15.6,24.4-25.7,42.3-30.4c9.6-2.5,19.3-2.6,29.1-0.9c0.4,0.1,0.9,0,1.3,0.1
		c0.2,1.4,0.2,2.7,0,4.1c-13.3-3-26.2-1.5-38.7,3.5c-8.4,3.3-15.6,8.4-21.9,14.6c-2.8,2.7-5.5,5.6-7.4,9
		C75.3,187.5,73.7,187.4,72.2,186.4z"/>
	<path class="st55" d="M187.4,175.1c0-5.6,0-11.3,0-16.9c1.3-0.5,2,0.6,2.8,1.3c7.3,6.7,13.5,14.4,18.3,23.2c0.7,1.3,2,2.5,0.7,4.2
		c-2.2,0.6-4.6,0.5-6.8,0.2c-1.8-0.3-3.5-0.4-5.3-0.3c-1.3,0-2.4-0.3-3.1-1.4C191.9,181.8,188.8,179,187.4,175.1z"/>
	<path class="st74" d="M144.9,120.3c0.2,2.2,0.2,4.4,0,6.7c-0.6,0.7-1.5,0.7-2.3,0.8c-8.9,0.7-17.8,0.4-26.7,0.5
		c-4.8,0-9.6,0.1-14.3-0.5c-2.1-0.2-4.5,0.9-6.3-1.2c-0.1-1.5,1.1-1.8,2.1-2.2c7.1-2.6,14.5-4.2,22-5.2c6.4-0.8,12.9-0.4,19.4-0.4
		C140.8,118.8,143.1,118.8,144.9,120.3z"/>
	<path class="st75" d="M77.3,124.9c4.4-3.4,9.6-5.1,14.6-7.1c8.4-3.4,17.1-5.5,26.1-6.5c7.7-0.9,15.4-1.1,23.1-0.2
		c1.3,0.2,2.5,0.1,3.8,0.1c0.2,1.5,0.2,3.1,0,4.6c-0.8,0.8-1.8,0.9-2.8,0.8c-17.9-2-35,0.8-51.6,7.7c-1.7,0.7-3.6,0.9-5,2.4
		c-2.2,0.6-4.4-0.1-6.6-0.2C78.2,126.3,77.5,125.8,77.3,124.9z"/>
	<path class="st32" d="M144.9,132.6c-4.2-0.3-8.5-1-12.7-0.9c-4.8,0.2-9.7,0.3-14.5,1.1c-16.2,2.6-30.6,9.1-43.4,19.2
		c-9.9,7.8-17.6,17.4-23.7,28.4c-1.1,1.9-2,4-3,5.9c-0.7,0.8-1.5,0.8-2.4,0.4c-1.1-1.2-0.1-2.3,0.4-3.3c3.6-7.4,8.1-14.3,13.4-20.7
		c9.2-10.9,20.2-19.4,33.1-25.4c8.3-3.8,16.9-6.4,26-7.7c6.2-0.9,12.4-1.2,18.5-0.8c2.7,0.2,5.9-0.7,8.3,1.6
		C144.9,131.2,144.9,131.9,144.9,132.6z"/>
	<path class="st76" d="M85.5,125.9c0.6-0.9,1.4-1.4,2.4-1.8c10.1-4.2,20.5-7.2,31.4-8.5c8.6-1,17.1-0.9,25.6,0.1
		c0.2,1.5,0.2,3.1,0,4.6c-6.7-0.7-13.4-0.8-20.1-0.4c-10.2,0.5-20.1,2.6-29.6,6.6c-0.6,0.9-1.5,1.1-2.4,1
		C90.3,127.4,87.7,127.8,85.5,125.9z"/>
	<path class="st55" d="M60.9,186.4c-1,0-2,0-3.1,0c2-5.5,5.7-10.1,9.3-14.6c10.3-12.7,23.3-21.6,38.8-26.8c6.4-2.1,13-3.1,19.7-3.9
		c6.5-0.7,12.9,0.5,19.3,0.7c0.2,0.9,0.2,1.7,0,2.6c-0.8,0.9-1.8,0.8-2.8,0.7c-3.7-0.5-7.4-1-11.1-0.9c-16.2,0.4-31,5.1-44.4,14.3
		C78,164.3,71,171.5,65.1,180C63.6,182,62.6,184.4,60.9,186.4z"/>
	<path class="st67" d="M251.9,107c-2,0.7-4.1,1.4-6.1,2.2c-0.5,0.1-1,0.3-1.5,0.4c-1.1-0.6-2.1-1.4-3-2.3
		c-6-6.2-12.7-11.5-19.7-16.5c-1-0.7-1.9-1.4-2.4-2.6c0-2.7,0-5.5,0-8.2C231.3,87.4,242.3,96.4,251.9,107z"/>
	<path class="st26" d="M59.4,122.8c-1-0.1-2.1-0.2-3.1-0.4c-0.7-0.1-1.4-0.1-2-0.2c-0.8-1.3,0.4-1.9,1.1-2.5
		c4.8-3.6,9.9-6.9,15.2-9.8c9.1-4.9,18.5-8.8,28.5-11.5c6.7-1.7,13.4-2.9,20.3-3.8c0.7-0.1,1.4-0.1,1.9,0.5c0,1.2,0,2.4,0,3.6
		c-0.7,1.1-1.8,1.4-3.1,1.5c-20.3,2.2-38.9,9.1-55.7,20.7C61.5,121.8,60.3,122,59.4,122.8z"/>
	<path class="st77" d="M59.4,122.8c0.5-1.7,2.2-2.3,3.4-3.2c15.7-10.7,33-17.4,51.9-19.8c2.2-0.3,4.4-0.6,6.5-1c0,1.2,0,2.4,0,3.6
		c-10.3,1.2-20.5,3.2-30.3,6.8c-9.2,3.4-17.9,7.9-26.1,13.3c-0.3,0.2-0.6,0.6-0.9,0.9C62.4,123.6,60.9,122.9,59.4,122.8z"/>
	<path class="st67" d="M10.2,112.2c7.3-9.2,16.3-16.6,25.7-23.6C47,80.3,59.1,73.7,72,68.5c10.8-4.3,22-7.2,33.4-9.2
		c11.7-2,23.4-2,35.1-1.9c1.6,0,3.5-0.3,4.4,1.7c0.1,0.1,0.1,0.2,0,0.4c-8.9-0.8-17.8-0.7-26.8-0.1c-9.6,0.6-19.1,2.4-28.4,4.9
		c-15.2,4.1-29.5,10.4-42.9,18.7c-8.5,5.3-16.4,11.3-23.7,18c-4,3.7-8.1,7.3-11.4,11.7c-0.5,0.4-1,0.4-1.5,0
		C10.3,112.4,10.2,112.3,10.2,112.2z"/>
	<path class="st54" d="M209.4,186.4c-5.4-10.9-12.8-20.2-22-28.2c0-2.2,0-4.4,0-6.7c1.3-0.6,2.1,0.2,3,0.9
		c9,7.4,16.2,16.3,21.9,26.4c1,1.7,2,3.4,2.8,5.2c0.5,1.2,1.3,1.8,2.6,1.5c0.5,0,1,0.1,1.6,0c0.6,0.1,1.1,0.1,1.7,0
		c1.1-0.2,2,0.1,2.8,0.9c1.7,0,3.4,0,5.1,0c0.3,0.1,0.3,0.3,0,0.4c-2.6,0.1-5.1,0.1-7.7,0.2c-1.6,1.5-3.5,0.8-5.4,0.8
		c-0.8,0.1-1.5,0.2-2.3,0C212.2,187.3,210.6,187.5,209.4,186.4z"/>
	<path class="st78" d="M187.4,199.2c2.6,3.3,3.4,7.3,4.6,11.2c2.6,8.8,2.6,17.7,1.6,26.7c-0.1,0.8,0,1.7-0.1,2.5c-2,0-4.1,0-6.1,0
		C187.4,226.1,187.4,212.7,187.4,199.2z"/>
	<path class="st79" d="M92.2,186.4c2.7,0,5.5,0,8.2,0c1-0.5,2.1-1,3.1-1c3.1,0.3,5.7-1.2,8.4-2.4c9.4-4.2,19.2-5.5,29.3-3.3
		c1.4,0.3,2.8,0.8,3.7,2c0.2,1.7,0.2,3.4,0,5.1c-6,0-12,0.1-18,0.1c-6.2,1.3-12.5,1.1-18.7,0.9c-2.1-0.2-4.1,0.3-6.2,0
		c-0.9-0.3-1.9,0.1-2.8,0c-1.4-0.5-2.7,0.1-4,0.1c-1,0-2,0-2.9-0.7C92.1,187,92,186.7,92.2,186.4z"/>
	<path class="st47" d="M144.9,181.8c-4.4-1.1-8.8-2.1-13.3-2c-6.5,0-13,1.1-18.8,4.1c-4.1,2.2-8.1,2.7-12.5,2.5
		c6.2-5.5,13.6-8.5,21.6-10.2c7.7-1.6,15.4-1.1,22.9,1C145.1,178.7,145.1,180.2,144.9,181.8z"/>
	<path class="st32" d="M144.9,130.6c-26.1-3.7-49.6,2.8-70.6,18.6c-13,9.8-22.4,22.5-29.3,37.2c-0.5,0.5-1,0.5-1.5,0.2
		c-0.9-1.7,0.3-3,0.9-4.3c3.3-6.7,7.3-13.1,12-18.9c9.1-11.1,20-20.1,32.9-26.5c8.5-4.2,17.5-7.1,26.8-8.6c3.8-0.6,7.8-0.6,11.7-0.6
		c4.5,0,9-0.1,13.5,0c1.3,0,2.5,0.2,3.4,1.3C144.9,129.5,144.9,130,144.9,130.6z"/>
	<path class="st60" d="M219.2,88.1c5.3,3.1,9.9,7.1,14.7,10.9c3.1,2.5,5.9,5.4,8.7,8.2c0.6,0.7,1.5,1.2,1.6,2.3
		c-2,0.6-4,1.5-6.2,1.6c-2.3-0.5-3.6-2.4-5.3-3.8c-3.6-3.2-7.3-6.3-11.2-9.1c-1-0.8-2-1.6-2.4-2.9C219.2,92.9,219.2,90.5,219.2,88.1
		z"/>
	<path class="st25" d="M187.4,123.9c0.8-0.1,1.5,0.3,2.1,0.7c8.5,5.4,16.6,11.3,23.6,18.6c7.3,7.7,13.5,16.2,18.7,25.5
		c2.8,4.9,5.1,10,7,15.3c0.5,1.2,1.9,2.8-0.3,3.9c-0.2,0.1-0.5,0.1-0.7,0c-1.8-2.1-2.2-4.9-3.3-7.4c-5.1-11.6-11.8-22.1-20.2-31.6
		c-7.3-8.3-15.7-15.1-25-21.1c-0.8-0.5-1.5-1-2-1.9C187.4,125.3,187.4,124.6,187.4,123.9z"/>
	<path class="st80" d="M144.9,129c-18-2.6-35.2-0.1-51.8,7.2c-13,5.7-24.1,14.1-33.4,24.7c-6.8,7.6-12.2,16.1-16.2,25.5
		c-0.4,0.5-0.9,0.5-1.5,0.3c-1.1-1.1-0.3-2.3,0.1-3.3c4.8-10.1,10.9-19.2,18.7-27.3c11.7-12.3,25.6-20.8,41.6-26.1
		c4.3-1.5,8.8-1.8,13.2-2.4c9.8,0,19.5-0.1,29.2-0.5C144.9,127.7,144.9,128.3,144.9,129z"/>
	<path class="st81" d="M223.7,186.4c-1,0-2,0-3.1,0c-1.1-0.7-1.5-1.8-2-2.9c-5.8-12.5-14.2-23.1-24.3-32.4c-2.3-2.1-5.2-3.5-6.9-6.2
		c0-1.2,0-2.4,0-3.6c3,1.4,5.4,3.6,7.8,5.6c12.3,10.4,21.5,23.1,28.1,37.7C223.6,185.2,223.6,185.8,223.7,186.4z"/>
	<path class="st82" d="M187.4,64c8.8,3.4,17.4,7.3,25.6,12c0.9,0.5,1.7,1.1,2.5,1.7c-4.9,0-9.9,0-14.8,0c-3.8-1-7.2-2.9-10.8-4.3
		c-1-0.4-1.8-1-2.5-1.7C187.2,69.1,187.2,66.6,187.4,64z"/>
	<path class="st83" d="M113.7,240.2c2,0,4.1,0,6.1,0c1.4,0.6,2.7,1.4,4.1,2.1c4.8,2.7,9.8,2.6,14.6,0.2c1.6-0.8,3.2-1.6,4.8-2.3
		c0.6-0.1,1.1-0.1,1.7-0.2c1.3,0.1,2.7,0.1,4,0.2c-5.7,9.8-20.4,12.8-29.5,6C117.2,244.5,115.1,242.7,113.7,240.2z"/>
	<path class="st55" d="M60.9,186.4c0-2.1,1.5-3.4,2.5-4.9c5.3-8.8,12.3-16,20.5-22.1c10.1-7.5,21.3-12.4,33.7-14.6
		c8.1-1.4,16.2-1.9,24.3-0.5c1,0.2,2,0.1,3.1,0.1c0,0.5,0,1,0,1.5c-3.2-0.3-6.4-0.7-9.6-0.9c-6.8-0.4-13.5,0.5-20.2,1.6
		c-0.5,0.1-1,0.6-1.5,0.9c-2.4-0.1-4.4,1.2-6.7,1.5c-0.7,0.2-1.4,0.3-2,0.5c-5.8,2.6-11.6,5.2-16.9,8.7c-0.5,0.3-1,0.7-1.5,1
		c-0.7,0.5-1.3,1.1-2,1.5h0c-6.2,4.7-11.7,10.1-16.4,16.4h0c-0.5,0.7-1.1,1.3-1.5,2c-0.9,0.9-1.5,1.9-2,3.1c-1,1.3-1.4,2.9-2.6,4.1
		C61.6,186.4,61.3,186.4,60.9,186.4z"/>
	<path class="st57" d="M219.2,95.2c6.7,4.8,13.2,9.8,18.8,15.8c-0.2,0.2-0.3,0.3-0.5,0.5c-2,0.5-4.1,1-6.1,1.5c-0.8-0.2-1.4-0.5-2-1
		c-2.9-2.4-5.6-4.9-8.7-7.2c-0.7-0.5-1.1-1.3-1.5-2C219.2,100.4,219.2,97.8,219.2,95.2z"/>
	<path class="st33" d="M187.4,126c6.1,3.4,11.6,7.6,17,12.1c9.9,8.4,17.8,18.5,24.4,29.6c3.8,6.4,6.9,13.1,9.3,20.1
		c-1.1,0.7-1.7,0.1-2.1-0.9c-3.6-11-9.3-21-16.3-30.2c-8.3-11-18.3-20.3-30-27.6c-0.7-0.5-1.4-0.9-2.3-1
		C187.4,127.3,187.4,126.6,187.4,126z"/>
	<path class="st32" d="M217.6,186.4c-1.7,0.2-2.6-0.4-3.5-2.1c-3.6-7.2-8-14-13.4-20.2c-3.4-4-7.1-7.5-11-10.9
		c-0.7-0.6-1.5-1.1-2.3-1.6c0-1,0-2,0-3.1c1.3-0.5,2.1,0.5,2.9,1.2c11.4,9.5,20.6,20.8,27,34.3C217.7,184.7,218.2,185.5,217.6,186.4
		z"/>
	<path class="st58" d="M219.2,102.9c4.4,2.9,8.5,6.3,12.2,10.2c-1.7,0.5-3.4,1.1-5.1,1.6c-0.9,0.1-1.7,0.3-2.6,0.4
		c-4-1.4-6.7-4.7-10-7.2c-0.4-0.3-0.5-0.9-0.3-1.4c0.7,0,1.3-0.1,2-0.1C219,106.4,219,106.4,219.2,102.9z"/>
	<path class="st26" d="M121.3,95.2c-8.8,0.8-17.5,2.5-25.9,5c-14.2,4.2-27.1,10.8-39,19.5c-0.9,0.7-1.8,1.3-2.1,2.5
		c-0.6,0.1-1.1,0.2-1.6-0.3c1-2.4,3.3-3.3,5.2-4.6c13-9.2,27.2-15.8,42.6-19.7c6.8-1.7,13.7-3,20.8-3.3
		C121.3,94.5,121.3,94.9,121.3,95.2z"/>
	<path class="st30" d="M217.6,116.7c-0.5,0.2-1,0.4-1.5,0.6c-1.2,0.2-2.4,0.3-3.6,0.5c-3.6-3.6-8.1-6.2-12.3-9
		c-1.1-0.7-2.3-1.2-3-2.3c2.7,0,5.5,0,8.2,0c4.9,1.5,8.4,5,12.2,8.1C218.1,115.1,218.8,116,217.6,116.7z"/>
	<path class="st80" d="M187.4,144.9c2.6,1.2,4.6,3.2,6.7,5.1c11.3,10.1,20.4,21.9,26.5,35.9c0.1,0.2,0.1,0.3,0.1,0.5
		c-0.5,0-1,0-1.5,0c-0.9-0.4-1.3-1.3-1.7-2.1c-5.7-12.1-13.6-22.4-23.4-31.4c-2.2-2-4.8-3.5-6.6-5.9
		C187.4,146.3,187.4,145.6,187.4,144.9z"/>
	<path class="st32" d="M187.4,146.9c2.6,1,4.5,3.1,6.5,4.8c10.1,9.1,18.3,19.7,24.2,32c0.4,0.8,0.7,1.7,1.1,2.6c-0.5,0-1,0-1.5,0
		c-5.6-12.1-13.1-22.8-22.9-31.9c-2.3-2.1-4.8-4-7.2-6C187.4,148,187.4,147.5,187.4,146.9z"/>
	<path class="st70" d="M217.6,116.7c0.1-1.7-1.5-2.1-2.4-2.9c-3.2-2.5-6.6-4.9-9.9-7.3c2.7,0,5.5,0,8.2,0c3.1,2.6,6.2,5.1,9.3,7.7
		c0.3,0.3,0.6,0.6,0.9,0.9C221.7,115.7,219.7,116.2,217.6,116.7z"/>
	<path class="st51" d="M209.4,186.4c1.4,0.1,2.8-0.4,4.1,0.4c-1,1.5-2.5,1.1-3.9,1.2c-0.9,0.1-1.8-0.3-2.7-0.1
		c-1.9,0.1-4,0.7-5.7-0.8c-3.4,0-6.8,0-10.2,0c-1.2,0-2.4-0.1-3.6-0.1c0-3.9,0-7.8,0-11.7c2.8,2.7,5,5.9,7.1,9.2
		c1,1.6,2.1,2.1,3.9,2.1C202.1,186.3,205.8,186.4,209.4,186.4z"/>
	<path class="st60" d="M187.4,71.7c4.7,1.4,9.3,3.2,13.3,6.1c-3.9,0-7.8,0-11.6,0.1c-1.5,0-1.9-0.5-1.8-1.9
		C187.4,74.5,187.4,73.1,187.4,71.7z"/>
	<path class="st3" d="M85.5,125.9c3.3,0,6.5,0.9,9.7,0.6c2.1,0.2,4.1,0.4,6.2,0.6c0.8,0.3,1.6,0.5,0.6,1.5c-0.7,0.7-1.6,0.9-2.5,1.2
		c-13.7,4.8-25.9,12.3-36.3,22.3c-9.4,9.1-16.9,19.6-22.3,31.6c-1.6,3.6-2.8,4.1-6.6,3.2c-1.5-0.4-3-0.3-4.5-0.1
		c-1.6,0.1-3.1,0.1-4.7,0.2c-0.9,0.4-1.7,1-2.7,0.4c-1.1-1.4,0.3-1.7,1-1.7c2.6,0,3.4-1.7,4.2-3.7c5.9-14.7,14.7-27.5,25.8-38.6
		c5.9-5.9,12.5-11.1,19.7-15.5c1.1-0.7,2.3-1.3,2.3-2.8c0.7,0,1.3,0,2-0.1C80,125.8,82.8,125.4,85.5,125.9z"/>
	<path class="st84" d="M60.9,187c3.6,0,7.2,0,10.7,0c0.7,1.4-0.3,2.5-0.8,3.6c-4,7.4-7.2,15.1-8.6,23.4c-1.3,7.3-1.7,14.7-0.8,22.1
		c0.2,1.8,0.9,2.7,2.7,2.6c2-0.1,3.9,0.2,5.9,0c3.9,0,7.7-0.2,11.6,0.1c0.8-0.2,1.5-0.1,2.2,0.1c0.9,0,1.8-0.1,2.6,0.5
		c0.3,0.2,0.3,0.5,0.1,0.8c0,0,0.1,0.2,0.1,0.2c-1.5,0-3.1,0-4.6,0c-2.7,0-5.5,0-8.2,0c-3.1,0-6.1,0-9.2,0c-2.4-0.1-4.8-0.1-7.2-0.2
		c-1.8-0.9-3.7-0.2-5.6-0.4c-1.7-1.9-1.3-4.4-1.5-6.6c-0.8-14.5,1.6-28.5,7.8-41.7C58.7,189.8,59.4,188,60.9,187z"/>
	<path class="st85" d="M52.2,186.8c1,0.1,2.1,0.1,3.1,0.2c1.2,1.5,0.4,2.9-0.2,4.3c-3.1,7-5.3,14.2-6.5,21.7c-1.2,7.2-2,14.5-1,21.8
		c0.2,1.6,0.5,3.4-0.9,4.8c-2.4,0-4.8,0-7.2,0c-1.1-0.6-1.4-1.5-1.6-2.7c-0.5-5.4-0.6-10.8-0.2-16.3c0.6-8,2.2-15.6,4.4-23.3
		c0.8-2.9,2-5.6,3.1-8.4c0.4-1,1-1.8,2-2.3C48.9,186.6,50.5,186.5,52.2,186.8z"/>
	<path class="st34" d="M33.8,239.6c-1.4,0-2.7-0.2-4.1,0c-2.4,0.3-3.5-0.8-3.5-3.1c-0.1-5.9-0.4-11.8,0.1-17.6
		c0.5-7.3,1.8-14.6,3.9-21.7c1-3.5,2-7,3.6-10.3c2.5-0.4,5-0.8,7.5-0.5c1,1.1,0.6,2.2,0.2,3.3c-3.2,8.3-5.3,16.8-6.3,25.7
		c-0.8,6.6-1.2,13.2-0.4,19.8C34.9,236.8,35.1,238.4,33.8,239.6z"/>
	<path class="st86" d="M22,186.8c1,0.1,2,0.1,3,0.2c-3.7,9.7-5.8,19.7-6.7,30c-0.5,5.6-0.2,11.2-0.4,16.8c-0.1,2,0.4,3.9,1,5.7
		c-3.9-1.5-5.5-3.9-5.5-8.7c0-10.7,0-21.4,0-32.2c0-1-0.1-2-0.1-3.1c0.2-4.2,2.1-7.2,6.2-8.7C20.3,186,21.2,186,22,186.8z"/>
	<path class="st81" d="M41.5,187c-2.6,0-5.1,0-7.7,0c-1.4-0.1-2.7-0.1-4.1-0.2c2.3-0.9,4.7-0.3,7.1-0.4c1.4-0.1,2.1-0.5,2.7-1.8
		c4.4-10.1,10.4-19.2,17.7-27.6c8.4-9.6,18.3-17,29.5-22.8c4.4-2.3,9.1-4.2,13.9-5.8c0.4-0.1,2.1,0.1,0.8-1.3
		c4.8,0.2,9.5,0.3,14.3,0.5c-1.7,0.9-3.6,0.9-5.4,1.3c-14.2,3.2-27,9.4-38.4,18.4c-13,10.3-23,23.2-29.7,38.4
		c-0.1,0.2-0.1,0.5-0.2,0.7c0.1,0.1,0.2,0.2,0.2,0.4c0,0.1,0,0.2-0.1,0.2C41.9,187.1,41.7,187.1,41.5,187z"/>
	<path class="st87" d="M41.5,187c0.2-0.1,0.3-0.1,0.5-0.2c1.7-0.2,3.4-0.5,5.1,0.2c-3.4,8.3-6.1,16.7-7.5,25.6
		c-1.3,8.6-1.6,17.2-0.7,25.8c0,0.4,0.3,0.8,0.4,1.2c-1.9,0-3.8,0-5.6,0c0.2-3.6-0.6-7.1-0.6-10.7C33.3,214.4,35.8,200.4,41.5,187z"
		/>
	<path class="st88" d="M46.6,239.6c0.3-4-0.6-7.9-0.6-12c0.3-12.9,2.8-25.3,8.2-37.1c0.5-1.2,1-2.3,1.1-3.6c1.9,0,3.8,0,5.6,0
		c-0.4,2.8-2.1,5-3.1,7.5c-3.2,8.1-5.4,16.4-6.3,25.1c-0.6,6.7,0,13.4,0.1,20.1C50,239.6,48.3,239.6,46.6,239.6z"/>
	<path class="st31" d="M236,186.9c0.7,0.3,1.4,0.6,2.1,0.9c0.1,0.1,0.3,0.2,0.5,0.2c1.9,1.6,3.4,3.5,3.7,6.1c0,12.6,0,25.2-0.1,37.7
		c0,4.2-2.2,7-6.1,7.9c0.8-5.6,0.6-11.3,0.5-17c-0.3-11-2.5-21.7-6.3-32.1c-0.4-1.2-1-2.4-0.9-3.7c1.2-0.6,2.4-0.3,3.6-0.2
		C234,186.8,235,186.8,236,186.9z"/>
	<path class="st33" d="M22,186.8c-0.8,0-1.7,0.1-2.5,0.1c-1-0.9-0.3-1.8,0-2.6c5.1-13.7,12.2-26.3,21.8-37.6
		c7.4-8.7,15.9-16.3,25.2-22.8c2.9,0.3,5.8,0.7,8.8,1c0.4,0.7,1.8,0.1,1.7,1.2c-0.1,0.7-1,0.9-1.5,1.2c-9,5.3-17.1,11.7-24.2,19.4
		c-9.9,10.6-17.9,22.5-23,36.1c-0.9,2.5-2.1,4-4.9,3.5C22.9,186.3,22.4,186.7,22,186.8z"/>
	<path class="st85" d="M206.8,187c2.2-0.1,4.4-0.1,6.7-0.2c0.7,0.1,1.4,0.1,2,0.2c1,0.7,1.7,1.6,2.2,2.7c3.9,9.2,6.2,18.9,7.1,28.9
		c0.5,6.2,0.8,12.4,0,18.6c-0.1,1-0.3,1.8-1.1,2.5c-2.7,0-5.5,0-8.2,0c-0.7-0.7-0.9-1.6-0.8-2.6c0.9-11.8,0.1-23.4-3.3-34.8
		c-1.2-4.1-2.8-8-4.4-11.9C206.6,189.2,206,188.1,206.8,187z"/>
	<path class="st88" d="M206.8,187c3.3,7.7,6.2,15.5,7.8,23.7c1.8,9.2,1.9,18.4,1,27.7c0,0.4,0,0.9,0,1.3c-1.7,0-3.4,0-5.1,0
		c0.2-4.5,0.6-9,0.5-13.5c-0.2-12.5-2.9-24.4-8.4-35.6c-0.6-1.1-1.3-2.2-1.3-3.5C203.1,187,205,187,206.8,187z"/>
	<path class="st87" d="M223.7,239.6c-0.1-3.6,0.6-7.1,0.6-10.7c0-14.1-2.6-27.6-8.2-40.6c-0.2-0.5-0.3-1-0.5-1.4c1.9,0,3.8,0,5.6,0
		c3.1,7.6,5.4,15.4,6.8,23.4c1.5,8.8,1.9,17.7,1,26.6c-0.2,2.2-0.9,2.9-2.9,2.6C225.3,239.5,224.5,239.6,223.7,239.6z"/>
	<path class="st81" d="M232.9,186.8c-1.2,0.1-2.4,0.1-3.6,0.2c-0.2-0.1-0.3-0.1-0.5-0.2c0-0.1,0-0.3,0-0.4
		C230.2,186.5,231.6,186,232.9,186.8z"/>
	<path class="st78" d="M86.5,240c0-0.1,0-0.3,0-0.4c0.3-0.4,0.7-0.6,1.2-0.7c2.1-0.3,4.2-0.9,6,0.7c1.9,0,3.8,0,5.6,0
		c1.5,0,3.1,0,4.6,0c1.7,0,3.4,0,5.1,0c1.4,0.2,2.8-0.4,4.1,0.4c-2.9,0.1-5.8,0.1-8.7,0.2c-2,0-4.1,0-6.1,0c-2.4,0-4.8,0-7.2,0
		C89.6,240.2,88,240.1,86.5,240z"/>
	<path class="st28" d="M229.4,132.8c-0.3-0.3-0.8-0.6-0.7-0.9c0.1-0.9,0.5-0.2,0.7,0c0.2,0.1,0.2,0.4,0.3,0.6
		C229.6,132.6,229.5,132.7,229.4,132.8z"/>
	<path class="st28" d="M220.6,123.1c0.2,0.3,0.5,0.6,0.7,0.9c-0.1,0.1-0.4,0.2-0.4,0.2c-0.3-0.3-0.5-0.6-0.8-0.9
		C220.2,123.2,220.3,123.2,220.6,123.1z"/>
	<path class="st28" d="M232.6,135.6c0.3,0.3,0.7,0.5,0.6,1c0,0-0.3,0.1-0.4,0.1c-0.3-0.2-0.7-0.5-0.7-1
		C232.2,135.7,232.4,135.7,232.6,135.6z"/>
	<path class="st28" d="M237.6,142.4c-0.5-0.5-1.3-0.7-1.3-1.6C237.3,140.9,237.4,141.6,237.6,142.4z"/>
	<path class="st28" d="M237.5,142.3c0.5,0.5,1.3,0.7,1.3,1.6C237.9,143.8,237.7,143,237.5,142.3z"/>
	<path class="st42" d="M10.3,112.6c0.5,0,1,0,1.5,0c0.2,0.2,0.3,0.4,0.5,0.5c-1.4-0.1-2.2,0.8-2.9,1.8c-0.9,1.4-2.1,2.4-3.6,3.2
		C7.3,116.3,8.8,114.4,10.3,112.6z"/>
	<path class="st89" d="M92.2,186.4c0,0.1,0,0.3,0,0.4c-0.6,1-1.6,1.1-2.6,1.1c-2.5,0-5.1,0.1-7.6,0c-2.3-0.1-4.6,0.2-6.8,0.1
		c-1.1-0.1-2.2,0-2.9-1.2c0-0.1,0-0.3,0-0.4c1.5,0,3.1,0,4.6,0c3.9,0,7.8,0,11.8,0C89.8,186.4,91,186.4,92.2,186.4z"/>
	<path class="st90" d="M143.3,240.2c-6.3,6.8-17.8,6.8-23.5,0C127.7,240.2,135.5,240.2,143.3,240.2z"/>
	<path class="st91" d="M93.7,239.6c-2,0-4.1,0-6.1,0c-1.8-1.7-1.8-4-1.9-6.2c-0.6-8.5-0.1-16.8,3.4-24.8c4.1-9.2,10.3-16.5,19-21.7
		c6.3,0,12.6,0,18.9,0c-0.4,0.6-1,0.9-1.7,1c-11.3,1.6-19.5,7.8-26,16.8c-5.4,7.4-7.1,15.9-7,24.9C92.3,232.9,93.2,236.3,93.7,239.6
		z"/>
	<path class="st55" d="M47.1,187c-1.7-0.1-3.4-0.1-5.1-0.2c0-0.1,0-0.3,0-0.4c0.5,0,1,0,1.5,0c0.5,0,1,0,1.5,0c0.9,0,1.7,0,2.6,0
		c1.5,0,3.1,0,4.6,0c0,0.1,0,0.3,0,0.4C50.5,186.8,48.8,186.9,47.1,187z"/>
	<path class="st69" d="M72.2,186.8c3.2,0.1,6.5,0.1,9.7,0.2c0.6,1.3-0.1,2.3-0.7,3.3c-6.1,9-10,18.9-11.2,29.8
		c-0.5,5.1-0.5,10.2,0,15.3c0.1,1.4,0.6,2.9-0.3,4.2c-2.2,0-4.4,0-6.6,0c-1.6,0-2.4-0.6-2.6-2.2c-1.5-12.6-0.2-24.9,4.4-36.8
		c1.8-4.8,4.2-9.3,6.8-13.7C71.8,186.9,72,186.8,72.2,186.8z"/>
	<path class="st55" d="M62,186.4c0.6-1.5,1.3-3,2.6-4.1c-0.5,1.4-1,2.7-1.5,4.1C62.6,186.4,62.3,186.4,62,186.4z"/>
	<path class="st55" d="M68.1,177.2c2.6-4.5,6.2-8.3,10.1-11.7c2-1.7,3.6-3.9,6.2-4.7c-1.1,2-3.1,3.1-4.8,4.4
		c-3.7,3-6.7,6.6-9.7,10.3C69.5,176.1,68.7,176.6,68.1,177.2z"/>
	<path class="st55" d="M88.1,158.2c3.2-3,7.3-4.7,11.2-6.5c1.8-0.8,3.6-1.9,5.7-2.2c-0.2,0.2-0.3,0.5-0.5,0.6
		C98.8,152.4,93.6,155.6,88.1,158.2z"/>
	<path class="st55" d="M107,149c2.1-1,4.2-2.1,6.7-1.5C111.5,148.1,109.4,149.1,107,149z"/>
	<path class="st55" d="M66.6,179.2c0.1-1,0.7-1.6,1.5-2C68,178.2,67.4,178.7,66.6,179.2z"/>
	<path class="st55" d="M84.5,160.8c0.5-0.8,1-1.4,2-1.5C86.1,160,85.5,160.7,84.5,160.8z"/>
	<path class="st78" d="M69.6,239.6c-0.8-1.7-0.8-3.5-0.9-5.2c-1.1-16.2,2.1-31.3,11.7-44.7c0.6-0.8,1-1.8,1.5-2.7
		c3.4-0.1,6.8-0.1,10.3-0.2c2.4,0.1,4.8,0.1,7.1,0.2c0.3,1.3-0.7,1.8-1.4,2.5c-8.5,8.5-14,18.5-15.8,30.5c-0.8,5.3-0.9,10.6,0,16
		c0.2,1.2,0.5,2.5-0.3,3.7C77.8,239.6,73.7,239.6,69.6,239.6z"/>
	<path class="st92" d="M108,187c-0.1,0.8-0.6,1.3-1.3,1.8c-6.1,4.5-11.3,9.8-14.9,16.5c-3.2,5.8-4.9,12.1-5.3,18.7
		c-0.3,5.3,0,10.5,1,15.7c-0.3,0-0.7,0-1,0c-0.9,0-1.7,0-2.6,0c-1.8-1.6-1.7-3.9-1.9-5.9c-1.1-12.8,1.3-24.7,8.7-35.4
		c3-4.4,6.2-8.8,11.1-11.3C103.9,187,106,187,108,187z"/>
	<path class="st92" d="M101.9,187c-0.5,1.6-2,2.3-3.1,3.3c-7.6,7.4-12.7,16.1-14.8,26.6c-1.6,7.6-1.3,15.2,0,22.8c-0.7,0-1.4,0-2,0
		c-2.4-9.4-1.8-18.7,1.1-27.9c3.1-9.8,8.5-18.1,16.3-24.8C100.2,187,101,187,101.9,187z"/>
</g>
</svg>
