<?xml version="1.0" encoding="utf-8"?>
<!-- Generator: Adobe Illustrator 19.2.0, SVG Export Plug-In . SVG Version: 6.00 Build 0)  -->
<svg version="1.1" id="Слой_1" xmlns="http://www.w3.org/2000/svg" xmlns:xlink="http://www.w3.org/1999/xlink" x="0px" y="0px"
	 viewBox="0 0 256 256" style="enable-background:new 0 0 256 256;" xml:space="preserve">
<style type="text/css">
	.st0{fill:#FFFFFF;}
	.st1{fill:#C5C5C5;}
	.st2{fill:#D8D8D8;}
	.st3{fill:#D0CFCF;}
	.st4{fill:#DDDDDD;}
	.st5{fill:#E4E3E4;}
	.st6{fill:#F8F6F7;}
	.st7{fill:#EAEAEA;}
	.st8{fill:#F5F5F5;}
	.st9{fill:#F1F1F1;}
	.st10{fill:#EDECEC;}
	.st11{fill:#EAE9E9;}
	.st12{fill:#4C77B5;}
	.st13{fill:#4D6EA8;}
	.st14{fill:#4C669E;}
	.st15{fill:#D6548A;}
	.st16{fill:#D3537E;}
	.st17{fill:#BE5470;}
	.st18{fill:#C85376;}
	.st19{fill:#C85377;}
</style>
<g>
	<path class="st0" d="M128.5,257c-41.3,0-82.7,0-124,0.1c-3,0-3.6-0.6-3.6-3.6c0.1-83,0.1-166,0-249c0-3,0.6-3.6,3.6-3.6
		c83,0.1,166,0.1,249,0c3,0,3.6,0.6,3.6,3.6c-0.1,83-0.1,166,0,249c0,3-0.6,3.6-3.6,3.6C211.8,257,170.2,257,128.5,257z"/>
	<path class="st1" d="M237.9,51c0,52,0.1,103.9,0,155.9c0,15.5-15.9,31.1-31.5,31.1c-51.8,0-103.6,0-155.4-0.1
		c-0.7-0.8-0.6-1.5,0-2.3c1.5-1.1,3.3-0.9,5-1c1.2-0.1,2.3-0.1,3.5,0c24.8-0.1,49.6-0.1,74.5,0c5.7,0,11.3-0.3,16.8-1.8
		c8.5-2.4,17.3-3.4,26.1-4.2c30.8-2.7,48.3-20.1,51.5-51.6c0.9-9.3,2.2-18.5,5.1-27.5c0.7-2.1,1-4.2,1-6.4c0-19.8,0.1-39.6,0-59.5
		c0-8.6,0-17.2,0-25.8c0-2.1-0.1-4.3,1-6.3C236.1,50.5,237,50.4,237.9,51z"/>
	<path class="st2" d="M51,236c0,0.6,0,1.3,0,1.9c-16.1-0.7-31-16-31-32C20,155,20,104,20,53.1C20,35.3,35.3,20,53.1,20
		c31.3,0,62.6,0,93.9,0c0.6,1,0.5,1.8-0.4,2.5c-3.6,1.6-7.5,0.9-11.3,0.9c-6.1,0-12.3-0.2-18.4,0.1c-15.4,0.1-30.8-0.2-46.2-0.1
		c-1.8,0.2-3.6,0.1-5.5,0c-2.6-0.2-5.2-0.1-7.7-0.1c-7.7-0.1-14.9,1.2-21.2,6c-9.5,7.5-13.2,17.4-12.9,29.3
		c0.3,14.9,0.1,29.9,0.1,44.9c0.2,10.1,0.2,20.3,0,30.4c0.2,11.9,0.2,23.8,0.1,35.6c0.4,13.9-1.2,27.9,1.1,41.7
		c2.7,11.3,10.1,18.1,20.8,21.8C47.2,234.4,50.4,232.7,51,236z"/>
	<path class="st3" d="M147,22c0-0.6,0-1.3,0-1.9c19.6,0,39.3-0.2,58.9,0c16.2,0.1,31.3,14.8,32,31c-0.6,0-1.3,0-1.9,0
		c-2.1-0.8-2-2.8-2.5-4.5c-2.1-8.4-7.3-14.4-14.5-18.8c-5-2.6-10.3-4-15.8-4.1c-14.1-0.1-28.3-0.3-42.4-0.1
		C156.2,23,151.3,24.8,147,22z"/>
	<path class="st4" d="M221,27c8.4,5.9,13.4,13.9,15,24c0,11,0,22,0,33c-1.7,5-3,10.1-5.4,14.9c-1.3,2.5-2.2,5.2-4.3,7.2
		c-2.7,2.6-3.2,5.7-2.6,9.2c0.9,5.6,1.6,11.3,1.6,16.9c-0.1,13.3-0.6,26.6-3.2,39.7c-1.7,8.6-5.8,16.4-11.5,23.1
		c-10.1,11.8-20.3,23.6-36.4,27.6c-5.7,1.4-11.5,2.1-17.3,2.6c-16.1,1.4-32.2,2-48.3,0c-6.5-0.8-12.6-2.9-18.6-5.6
		c-7.9-3.7-8.6-3.4-14.8,2.7c-2.7,2.7-5.5,5.4-8.1,8.1c-2.3,2.5-4.9,4.5-8.1,5.6c-1,0-2,0-3,0c-3.4-2.1-7.4-0.9-11-2
		c-10.8-3.2-18-10-21-21c1.4-0.4,2.1,0.8,2.8,1.6c3.9,4.2,4,4.2,8.1,0.1c8.2-8.1,16.2-16.2,24.4-24.4c6.8-6.8,8.5-6.9,15.4,0.1
		c14.7,14.9,32.4,23.7,53,26.6c24.5,3.4,47-1.3,65.3-18.7c12.9-12.3,20.3-27.9,21.7-45.9c0.4-4.6,1.3-9.2,1-13.9
		c-0.1-2.4-0.3-4.6-1.6-6.7c-0.6-7.4-2.3-14.5-4.7-21.4c3.9-4.8,2.7-9.3-0.3-14.1c-6.7-10.6-6-20.9,0.3-31.8
		c3.6-6.2,5.9-13.2,8.9-19.8c0.5-1,0.5-2.3,1.1-3.3c2.9-4.2,4.6-8.4,0.9-13.1C220.3,28,220.6,27.4,221,27z"/>
	<path class="st2" d="M59,236c6.2-6,12.4-12,18.5-18.1c2.4-2.4,4.8-2.8,8.1-1.7c4.1,1.3,7.7,3.8,11.9,4.9c16.3,4.5,32.7,4.3,49.3,3
		c10.2-0.8,20.4-1.2,30.4-4c5.5-1.5,10-4.6,14.2-8c12.6-10.3,23.7-21.9,28.6-38c1.8-6,2.4-12.4,2.8-18.6c0.9-13.7,2-27.4-0.8-41.1
		c-0.7-3.5,0.1-6.6,3.1-9.4c4.5-4.1,5.6-10.3,7.7-15.7c0.8-2,1-4.2,3.1-5.4c0,19.7,0,39.3,0,58.9c0,6.3-3,11.8-4.1,17.9
		c-1.8,10.1-2.1,20.3-4.7,30.3c-5.3,20.2-22.1,35.3-42.8,37.9c-13.1,1.6-26.3,2.5-39,6.6c-1.4,0.4-3,0.3-4.4,0.3
		C113.6,236,86.3,236,59,236z"/>
	<path class="st2" d="M45,234c3.6,0.8,7.9-1.9,11,2c-1.7,0-3.3,0-5,0C49.5,233.9,46.5,236.1,45,234z"/>
	<path class="st0" d="M22,103c0-15.5,0.1-30.9-0.1-46.4c-0.2-12,4.4-21.5,14-28.6c7.9-2.7,15.7-4.6,24.3-2.8
		c4.2,0.9,8.8-0.1,13.3,0.3c13.8,1.1,27.6,1.5,41.2,4.3c1.1,0.2,2.3,0.4,3.4,0.6c13.5,2.6,17.7,9.3,13.2,22c-3.6,10.2-5,21-4.5,32
		c0.2,4.4-1.4,8.7-3.7,12.3c-2.8,4.3-3.1,7.9-0.5,12.4c2.6,4.4,1.4,7.5-2.8,10.5c-2.3-0.4-2.5-2.4-3.1-4c-3.2-9-9.3-15.2-17.8-19.3
		c-21.2-8.3-40.6-1.5-49.5,17.6c-4.9,10.5-5.3,21.1,0.1,31.6c5.3,11.4,14.6,17.7,26.6,20.2c2.9,0.3,6-0.6,8.8,1.1
		c0.6,0.8,0.6,1.6,0.2,2.4c-8.2,3-15.3-0.1-22.3-3.8c-8.8-5.5-15.1-13.3-20.3-22.1c-0.6-1-1.1-2.2-2-2.8
		c-8.2-6.1-9.5-15.3-10.5-24.3C29.3,110.2,27.7,105.5,22,103z"/>
	<path class="st5" d="M215,132c4.1,3.7,1.9,8.5,1.8,12.7c-0.4,13-3.2,25.6-9.7,37.1c-13.4,23.4-33.6,35.7-60.6,37.3
		c-20,1.2-38.5-3.6-55.7-13.7c-6-3.5-11.1-8.4-16.2-13.2c-1.7-1.6-3.4-3.2-5.2-4.6c-2.6-2-4.2-1.5-6.3,0.7
		c-9.1,9.3-18.3,18.4-27.5,27.6c-5.5,5.5-5.5,5.5-10.1-0.9c-0.5-0.7-1-1.3-1.5-1.9c-1.5-3.2-2-6.5-2-10c0-11,0-22,0-33
		c0.3-0.1,0.7-0.3,1-0.1c10,6.5,20.3,3.3,30.3,0.7c14.6-3.8,26.9-0.3,37.4,9.9c9.6,9.4,19.8,17.7,32.7,22.3
		c26.7,9.5,55.8,1.3,71.5-23.1c4.7-7.3,6.2-15.7,9-23.7c2.8-6,7.4-11,8.5-17.8C212.8,136,212.7,133.4,215,132z"/>
	<path class="st6" d="M119.2,119c4.5-2.8,4.9-6.6,2-10.5c-3.1-4.2-2.4-7.4,0.3-11.6c3-4.8,4.1-10.2,4-16.3
		c-0.2-10.3,1.6-20.8,5.2-30.6c3.4-9,0.6-15.4-9.5-17.5c-11.1-2.4-22.3-4.2-33.8-4.8c-6.5-0.3-13.2-1.2-19.7-1.5
		C57.1,25.8,46.4,25.4,36,28c6.2-4.7,13.4-6.1,21-6c2.7,1.1,5.3,1.7,8,0c1.7,0,3.3,0,5,0c7.3,2.1,14.9,1.4,22.3,1.3
		c15-0.1,29.3,3.6,44,5.7c3,0.4,5.7,1.8,8.3,3.3c4.1,2.2,6.1,5.6,5.5,10.3c-1,7.4-0.3,15-3.8,22c-0.5,0.9-0.6,2-0.3,2.9
		c2.1,6.8,1.6,13.9,2.8,20.7c0.7,4.5,1.5,4.7,6.1,3.5c3.9-1,7.6-3.9,11.9-1.6c1.4,2.5-0.8,2.9-2.2,3.4c-4.4,1.6-8.4,4-12.6,5.9
		c-9,3.3-14.5,12.4-13.3,21.6c-0.3,3.8-0.3,7.6-0.3,11.4c0.1,6.1,3,11.3,5.6,16.6c5.4,7.3,11.9,13.1,21,15.3
		c5.1,2.1,10.8,0.2,15.9,2.4c0.4,3.3-2.3,3.3-4.2,3.4c-6.4,0.5-12.3,2.2-18.3,4.3c-13.7,4.9-28-8.1-25-22.4
		c0.8-3.7,1.2-7.2,0.2-10.8c-1.5-5.8-0.4-11.5-0.1-17.3c0.3-4.8-1.6-5.9-6.1-4.7c-3.3,0.8-2.8,3.1-2.5,5.5
		c1.2,10.3-1.9,19.4-8.1,27.5c-1.2,1.5-2.3,4-5.1,2.3c-0.6-2.6,1.2-4.3,2.3-6.3c4.6-7.6,6.7-15.8,5.2-24.7
		C118.9,122,118.2,120.5,119.2,119z"/>
	<path class="st7" d="M205,156c-4.2,20.3-13.6,37.2-33.3,46c-25.8,11.5-49.4,6.1-71-10.9c-2.3-1.8-5-3.5-6.7-5.9
		c-6.4-8.8-15.8-12.3-25.6-14.9c-4.8-1.3-9.5-0.1-14.2,1.5c-6.5,2.3-13.3,2.3-20,3.1c-4.8,0.6-8.6-1.9-12.1-4.9c0-12,0-24,0-36
		c3.6-1.3,3.8,1.7,4.3,3.8c1.2,5.4,2.2,10.7,3.8,16c2.5,8.3,8.1,11.8,16.3,8.9c6-2.1,11.3-2.1,16.6,1.2c6.7,4.2,14.2,5.4,22,5
		c0.6-0.5,1.3-0.7,2.1-0.7c8.2-0.7,13.5,2.9,18.5,9.6c9.5,12.5,23.3,19,38.7,20.3c18.9,1.6,33.4-6.9,43.8-22.5
		c2.8-4.1,5-8.6,7.7-12.8C198.5,160.1,200.7,156.6,205,156z"/>
	<path class="st8" d="M167.2,91.2c-4.9-1.7-9,0.9-13.2,2.5c-4.3,1.6-6.3,1.2-6.6-3.8c-0.3-5.1-1-10.1-1.4-15.2
		c-0.1-1.7-0.3-3.3-1.1-4.8c-1.3-2.4-1-4.5,0.3-7c1.8-3.5,2.8-7.4,2.7-11.5c0-1.7-0.1-3.3,0-5c0.9-10.9-3.3-15.3-14.6-16.5
		c-8.5-0.9-16.9-2.9-25.3-4.3c-1.5-0.3-3-0.6-4.4-0.5c-9.6,0.7-19.2-1.4-28.8-1c-1.9,0.1-3.6-0.5-4.9-2c15.7,0,31.3,0,47,0
		c8,1.4,16.2,0.9,24.2,2.5c5.1,1.1,10.1,1.9,14.8,4.1c5.8,2.7,8.8,7.1,8.1,13.5c-0.7,6.6-1.2,13.3-3.6,19.6
		c-1.1,2.8-1.1,5.5-0.1,8.3c1.1,3,2,6.1,1.8,9.3c-0.2,4.5,1.2,7.5,6.3,7.5c0.8,0,1.6,0.4,2.2,1c0.9,1.7-0.3,2.5-1.4,3.4
		C168.7,91.6,168,91.6,167.2,91.2z"/>
	<path class="st9" d="M171,89c-0.4-0.3-0.8-0.8-1.2-0.8c-8.3-1.4-8.3-1.4-8.8-10.1c0-0.2,0.1-0.4,0-0.5c-5.7-10.6-0.3-21,1.4-31.2
		c2.4-13.9-4.8-16.6-15.4-19.3c-9.8-2.5-20.2-2.5-30-5.1c10,0,20,0,30-0.1c4.7,0,9.3,0,14,0c3.2,0.8,6.5,0.9,9.8,1
		c6.3,0.3,9.6,3.4,9.5,9.7c-0.2,10-1.9,19.9-4.9,29.4c-2.4,7.6-0.2,14.1,2,20.8c0.7,2.2,3,2.3,4.7,3.3c2.2,1.2,5.9,1,5.7,5
		C182.1,91.6,176.5,90.7,171,89z"/>
	<path class="st10" d="M63,164c-6.2-2.2-12-1.1-18.2,0.6c-6.5,1.8-14-0.7-16-10c-1.3-6-3.2-11.8-3.9-17.8c-0.2-1.8-1.2-2.6-2.9-2.8
		c0-10.3,0-20.7,0-31c6.6,1.2,8.1,3,9,10.4c0.4,3.8,1.2,7.5,1.7,11.2c0.9,6.4,4.8,10.8,9,15.4c4.8,5.3,7.9,12.2,13.1,17.4
		C57.4,160,60.5,161.6,63,164z"/>
	<path class="st8" d="M65,22c-2.7,3.5-5.3,2.2-8,0C59.7,22,62.3,22,65,22z"/>
	<path class="st11" d="M188,91c-1.6-1.8-3.9-3-6-3.3c-4.6-0.6-6-3.4-7.2-7.4c-2-7-2.5-13.4-0.2-20.7c2.7-8.4,4.1-17.4,4.3-26.3
		c0.1-6.1-2.3-8.8-8.4-9.2c-3.3-0.2-6.5-0.7-9.5-2c13,0,26,0.1,39-0.1c7.5-0.1,14.5,1.3,21,5.1c0.4,0.9,0.6,2,1.2,2.6
		c3.2,2.8,2.1,5.5,0.7,8.8c-3.2,7.5-7.8,14.4-9.9,22.4c-1.2,4.6-4.4,8.4-6.3,12.8c-2.9,7.3-0.1,13.3,2.2,19.5
		c0.8,2.3,2.2,4.4,3.5,6.6c2.6,4.3,1.6,7.5-2.4,10.2c-1.2-0.3-1.9-1.2-2.6-2.2c-4.2-6.3-9.7-11.1-16.7-14.2
		C189.6,93.1,188.4,92.5,188,91z"/>
	<path class="st6" d="M188,91c9.4,3.9,17.3,9.7,22,19c3.7,6.9,5.1,14.2,5,22c-1.2,8.9-4.7,16.8-10,24c-2.7,2.3-5.3,4.7-8,7
		c-1.5,1.4-3,2.8-5.3,2.5c-0.8-0.3-1.2-0.9-1.2-1.7c0.8-2.3,3-2.9,4.7-4.1c13.7-9.5,19.6-25.5,14.8-40.8
		c-2.7-8.4-7.1-15.4-14.7-20.1c-5.4-3.3-10.9-6.2-17.4-6.3c-3-0.3-6.3,1-9-1.4c0.7-0.6,1.3-1.3,2-1.9C176.8,88.4,182.4,89.9,188,91z
		"/>
	<path class="st12" d="M120,123c2.9,9.9-0.7,18.5-5.4,26.8c-0.8,1.4-1.7,2.7-2.6,4.1c-4.3,8.3-19,15.6-27,13.2
		c-3.3-0.2-6.6-0.4-9.9-0.6c1.2-2.9-1.2-3.8-2.9-4.9c-6.2-4.3-11.8-9.1-15.3-16.1c-10.3-20.4,1-43.1,23.6-46.3
		c12.2-1.7,22.3,3.5,30.4,12.7C114,115.6,115.8,120.3,120,123z"/>
	<path class="st8" d="M85,167.2c10.7-0.9,19.5-5.7,27-13.2c2.7-0.9,6-4.2,7.5-8c2.9-7.4,5.9-14.7,3.7-23c-1.1-4.2,0.8-5.3,7.7-5.9
		c3.9-0.3,4.4,2.2,4.1,5.1c-0.9,8.1-1.2,16.1,0.9,24.1c0.3,1.3-0.3,3-0.9,4.3c-3.7,9.2,3.8,19.7,10.8,22.4c4.2,1.6,8.7,2,12.6,0.2
		c5.8-2.8,11.8-4.1,18.2-4.1c1.7,0,3.2-0.6,4.4-1.9c2.8-2.7,6-4.1,9.9-3.2c0.4,0.4,0.7,0.8,1.1,1.1c0,2.6-2.3,3-4,3.8
		c-4.2,2.2-7.7,5.1-10.8,8.7c-9.7,11.7-28.6,14.9-43.1,7.9c-6.6-3.2-11.4-7.9-15.2-14c-1.1-1.7-2.2-3.4-3.2-5.1
		c-2.1-3.4-4.5-4.2-8.4-2.6c-6.5,2.8-12.9,6.2-20.4,5.1c-0.7,0-1.3,0-2,0C85,168.4,85,167.8,85,167.2z"/>
	<path class="st13" d="M120,123c-3.2,1.4-3.9-1.5-5-3.2c-4.3-6.6-9.2-12.4-16.5-16.1c-20-10.2-42.5,2.7-44.3,24.5
		c-1,11.5,4.3,21.3,13.5,28.6c2.6,2.1,5.5,3.7,8.1,5.7c2.2,1.7,1.8,3.1-0.8,4c-10.9-2.7-19.9-8.1-25.3-18.3
		c-0.4-0.7-0.6-1.5-0.8-2.2c-0.2-6.9-1.5-13.7-0.4-20.8c2.6-15.7,15-28.1,30.7-30.7c7.1-1.2,13.8,0.5,20.7,0.7
		c10.1,5,16.7,12.8,19.3,23.8C119.6,120.3,120.3,121.6,120,123z"/>
	<path class="st14" d="M99.9,95.2c-2.6,1.7-5.6,1.1-8.2,0.7c-13.3-2.1-24.7,1.9-33.5,11.7c-7.6,8.4-10,18.7-8.5,29.9
		c0.4,2.9,1.3,5.9-0.7,8.6c-8.2-12.6-4.6-30.7,5.2-41.8C66.2,90.6,80.9,87.8,99.9,95.2z"/>
	<path class="st15" d="M190.9,163.9c-3.3,1.1-6.6,2.1-9.9,3.2c-5.8-0.4-11.7,0.9-17.2-1.9c-1.2-3.2-3.5-5.5-6.1-7.7
		c-10.4-8.7-15.2-24.6-11.3-37.1c5-15.7,21.8-25,37.7-20.5c7,2,13.1,5.4,18.2,10.9c2.5,2.7,4.8,6.1,8.7,7.1
		c5.9,15.3-1.4,34.8-16.4,43.7C193.4,162.4,192.2,163.1,190.9,163.9z"/>
	<path class="st16" d="M211,117.9c-2.3,2.4-3.5,0-4.8-1.2c-5.2-4.8-9.7-10.4-16.5-13.4c-14-6.2-25.4-3.2-35,5.7
		c-9.3,8.7-11.1,22.7-5.5,34.5c2.7,5.7,5.9,11.1,11.4,14.8c2.1,1.4,5.1,3.3,3.2,6.9c-9-2.2-15.5-7.7-20.5-15.3c0.6-2-0.1-4-0.7-5.9
		c-3.9-12.8-2.3-24.6,5.7-35.4c11.4-12.9,25.3-17.1,41.9-11.8c1.9,0.6,3.8,1.3,5.8,1.1c7,3.9,11.5,9.8,14,17.3
		C210.3,116.1,210.7,117,211,117.9z"/>
	<path class="st17" d="M169,90.9c3.3,0.1,6.6,0.2,9.9,0.3c0.7,4-2.7,3.5-4.7,3.7c-6.2,0.7-11.8,2.9-17.1,6.1
		c-2.8,1.7-5.3,3.9-7.5,6.4c-4.9,5.8-7.6,12.6-8.7,20.1c-0.3,2.3-0.3,5.1-3.8,5.4c-0.6-4.4-0.4-8.7,0.6-13
		c-1.3-5.3,2.4-9.1,4.7-12.9c2-3.3,4.9-6.1,8.5-8c4.9-3.7,10.6-5.7,16.2-7.9C167.8,91.1,168.4,91,169,90.9z"/>
	<path class="st18" d="M137.2,133c2.7-2.1,3.1-5.5,3.6-8.4c1.1-6.7,3.8-12.5,8.2-17.6c0.6,0.7,0.6,1.3,0,2c-0.6,3.4-3.3,5.6-4.5,8.7
		c-3.1,8-3.3,15.9-1.2,24.2c0.6,2.5,3.5,5.4,0,8C139.6,144.8,137.4,139.3,137.2,133z"/>
	<path class="st0" d="M151,99c-4.8,4.7-8.9,9.7-11.8,15.8c-0.8,1.7-1,3.4-1.5,5.1c-2.2-3.8-1.4-7.3,1.2-10.4
		C142.4,105.4,144.9,100.1,151,99z"/>
	<path class="st10" d="M87,169c7.9-1.1,15.2-4.1,22.4-7.2c2.4-1.1,3.8-0.6,5.5,1.4c4.1,5,6.5,11.2,11.4,15.6
		c14.4,12.8,38.3,13.1,51.2-3.6c3.8-5,9.8-6.6,14.6-10.2c1.7-0.7,3.3-1.3,5-2c-7.7,15.5-17.3,29.4-34.8,34.7
		c-9.9,3-20.1,2.8-30.2-0.7c-10.6-3.7-19.8-9.3-27.2-17.7c-0.3-0.4-0.9-0.6-1-1.1c-2.9-7-8.3-9.3-15.5-8.4
		C87.8,169.9,87.4,169.3,87,169z"/>
	<path class="st19" d="M149,109c0-0.7,0-1.3,0-2c5.6-6.8,12.9-10.4,21.4-12.1c3.1-0.6,6.5-0.6,8.5-3.7c6.4,0.4,12,2.9,17.1,6.7
		c-1.5,1.8-3.3,1.2-5,0.6c-15.7-5.6-29.3-2.3-40.8,9.7C149.9,108.5,149.4,108.7,149,109z"/>
</g>
</svg>
