<?xml version="1.0" encoding="utf-8"?>
<!-- Generator: Adobe Illustrator 19.2.0, SVG Export Plug-In . SVG Version: 6.00 Build 0)  -->
<svg version="1.1" id="Слой_1" xmlns="http://www.w3.org/2000/svg" xmlns:xlink="http://www.w3.org/1999/xlink" x="0px" y="0px"
	 viewBox="0 0 256 256" style="enable-background:new 0 0 256 256;" xml:space="preserve">
<style type="text/css">
	.st0{fill:#FCFCFC;}
	.st1{fill:#171818;}
	.st2{fill:#55935E;}
	.st3{fill:#C04E45;}
	.st4{fill:#E8B147;}
	.st5{fill:#151617;}
	.st6{fill:#0E0F10;}
	.st7{fill:#101011;}
	.st8{fill:#547ABB;}
	.st9{fill:#A14E45;}
	.st10{fill:#E7AF46;}
	.st11{fill:#E6B047;}
	.st12{fill:#4D78BB;}
	.st13{fill:#C6954A;}
	.st14{fill:#4E8B92;}
	.st15{fill:#D7AD4C;}
	.st16{fill:#50915E;}
	.st17{fill:#5B955D;}
	.st18{fill:#AF4F46;}
	.st19{fill:#0D0F0F;}
	.st20{fill:#191A1A;}
	.st21{fill:#1A1B1B;}
	.st22{fill:#1D1C1B;}
	.st23{fill:#2C2B2B;}
	.st24{fill:#1F1F1E;}
	.st25{fill:#272727;}
	.st26{fill:#1A1A1A;}
	.st27{fill:#55985F;}
	.st28{fill:#C64D45;}
	.st29{fill:#ECB24B;}
	.st30{fill:#1D1D1D;}
	.st31{fill:#292727;}
	.st32{fill:#2F2F2D;}
	.st33{fill:#2E2D2D;}
	.st34{fill:#3B3A39;}
	.st35{fill:#141618;}
	.st36{fill:#232222;}
	.st37{fill:#262523;}
	.st38{fill:#3A3A39;}
	.st39{fill:#353535;}
	.st40{fill:#313130;}
	.st41{fill:#507ABC;}
	.st42{fill:#4D6EAD;}
	.st43{fill:#527DBE;}
	.st44{fill:#507CBE;}
	.st45{fill:#191816;}
	.st46{fill:#171B1B;}
	.st47{fill:#4B7BBD;}
	.st48{fill:#537E55;}
	.st49{fill:#171817;}
	.st50{fill:#292828;}
	.st51{fill:#2A2929;}
	.st52{fill:#FFFFFF;}
	.st53{fill:#222320;}
	.st54{fill:#181918;}
	.st55{fill:#1F1E1D;}
	.st56{fill:#242322;}
	.st57{fill:#1E1D1C;}
	.st58{fill:#22211E;}
	.st59{fill:#2D2B2B;}
	.st60{fill:#2A2A28;}
	.st61{fill:#1B1B1A;}
	.st62{fill:#3A3936;}
	.st63{fill:#3C3B39;}
	.st64{fill:#353432;}
	.st65{fill:#31302E;}
	.st66{fill:#333131;}
	.st67{fill:#3C3B3B;}
	.st68{fill:#19181A;}
	.st69{fill:#413F3D;}
	.st70{fill:#444341;}
	.st71{fill:#44403E;}
	.st72{fill:#3C3A39;}
	.st73{fill:#1C1B1B;}
	.st74{fill:#3E3C3A;}
	.st75{fill:#424242;}
	.st76{fill:#333230;}
	.st77{fill:#2B2928;}
	.st78{fill:#252423;}
	.st79{fill:#5178BA;}
	.st80{fill:#191A19;}
	.st81{fill:#21221F;}
	.st82{fill:#171716;}
	.st83{fill:#101111;}
	.st84{fill:#302F2E;}
	.st85{fill:#22211F;}
	.st86{fill:#252222;}
	.st87{fill:#3B3A3A;}
	.st88{fill:#1D1D1C;}
	.st89{fill:#393632;}
	.st90{fill:#3A3835;}
	.st91{fill:#393633;}
	.st92{fill:#32312E;}
	.st93{fill:#221F19;}
	.st94{fill:#262725;}
	.st95{fill:#3A3938;}
	.st96{fill:#151514;}
	.st97{fill:#31312E;}
	.st98{fill:#1D1D1B;}
	.st99{fill:#222220;}
	.st100{fill:#272724;}
	.st101{fill:#0F1010;}
	.st102{fill:#343333;}
	.st103{fill:#191918;}
	.st104{fill:#292927;}
	.st105{fill:#0E1010;}
	.st106{fill:#262423;}
	.st107{fill:#1E1F1C;}
	.st108{fill:#1D1E1B;}
	.st109{fill:#292724;}
	.st110{fill:#111111;}
	.st111{fill:#2E2D2B;}
	.st112{fill:#373636;}
	.st113{fill:#363434;}
	.st114{fill:#141414;}
	.st115{fill:#2A2A29;}
	.st116{fill:#1C1D1B;}
	.st117{fill:#0F1011;}
	.st118{fill:#121212;}
	.st119{fill:#141413;}
	.st120{fill:#131313;}
	.st121{fill:#FEFEFE;}
	.st122{fill:#242422;}
	.st123{fill:#393837;}
	.st124{fill:#444241;}
	.st125{fill:#3D3C3C;}
	.st126{fill:#444342;}
	.st127{fill:#35312E;}
	.st128{fill:#403D3C;}
	.st129{fill:#191917;}
	.st130{fill:#2A2928;}
	.st131{fill:#373737;}
	.st132{fill:#323030;}
	.st133{fill:#323131;}
	.st134{fill:#3D3D3C;}
	.st135{fill:#403E3C;}
	.st136{fill:#403E3D;}
	.st137{fill:#3B3B3A;}
	.st138{fill:#3D3D3B;}
	.st139{fill:#333332;}
	.st140{fill:#363432;}
	.st141{fill:#35322E;}
	.st142{fill:#313030;}
	.st143{fill:#41403F;}
</style>
<g>
	<path class="st0" d="M128.3,254.5c-41.7,0-83.4,0-125.1,0.1c-2.2,0-2.6-0.4-2.6-2.6c0.1-81.9,0.1-163.8,0-245.6
		c0-2.5,0.7-2.7,2.9-2.7c83.5,0.1,167,0.1,250.4,0c2.3,0,2.8,0.4,2.8,2.8c-0.1,81.8-0.1,163.6,0,245.3c0,2.5-0.7,2.9-3,2.9
		C211.9,254.5,170.1,254.5,128.3,254.5z"/>
	<path class="st1" d="M6.4,245c-0.2-0.4-0.4-0.8-0.7-1.2c-0.3-2.1-1.4-4.1-1.3-6.4c0.2-9,0-18.1,0.1-27.1c0-0.4,0.2-0.8,0.4-1.1
		c0.3-0.3,0.7-0.3,1.1-0.1c1,1.4,0.7,3,0.7,4.6c0,3,0.2,6,0,8.9c0.2,2.2,0,4.5,0.1,6.7c0.1,3.8,0.4,4.1,4.3,4.2c1.2,0,2.3,0,3.5,0
		c76.3,0,152.7,0,229,0c2.1,0,4.6,0.8,6.3-0.2c2-1.1,0.8-3.9,1.4-5.9c0.2-0.7,0.4-1.5,1.1-1.9c1.4,0.4,1,1.6,1.1,2.6
		c0.1,2.6-0.1,5.2,0.1,7.8c0.3,1.2-0.2,2.1-1,2.9c-0.4,0.5-0.6,1.1-0.8,1.7c-2.3,5.3-5.7,7.9-12,7.9c-73.8-0.2-147.6-0.1-221.4-0.1
		c-3.9,0-7.8,0.2-10.1-3.9C7.4,243.4,7,244.9,6.4,245z"/>
	<path class="st2" d="M129.9,5c20.3,0,40.5,0,60.8,0c0.9,0.9,0.9,2.1,0.9,3.3c0,9.5,0,19.1,0,28.6c0,1.2,0.1,2.3-0.7,3.3
		c-1.2,0.9-2.6,0.8-4,0.8c-17.7,0-35.3,0-53,0c-1.4,0-2.8,0.2-4-0.7c-1-1.2-0.8-2.6-0.8-4c0-9.1,0-18.3,0-27.4
		C129,7.6,128.8,6.1,129.9,5z"/>
	<path class="st3" d="M3.9,19C6,10.1,12.4,4.9,21.3,4.9c13.7,0,27.4,0,41.1,0c0.7,0,1.5,0.1,2.2,0.2c1,0.9,0.9,2.1,0.9,3.3
		c0,9.7,0,19.3,0,29c0,1.3,0.2,2.8-1.3,3.7C45.5,41,26.7,41,8,41c-1.2,0-2.4,0.1-3.4-0.6c-0.9-3.2-0.2-6.5-0.4-9.7
		C4,26.8,4.5,22.9,3.9,19z"/>
	<path class="st4" d="M241.2,5.6c4.6,1.1,8.2,3.6,10.3,7.9c0.5,1.3,1.1,2.5,1.2,3.8c0.1,1.2,0.3,2.4,0.6,3.6c0,0.4,0.1,0.7,0.1,1.1
		c0,4.8,0,9.6,0,14.4c0,1.1,0.3,2.4-0.7,3.3c-1.1,0.7-2.2,0.6-3.4,0.6c-17.7,0-35.3,0-53,0c-1.3,0-2.6,0.1-3.7-0.7
		c-0.9-1.1-0.8-2.4-0.8-3.6c0-8.5,0-17,0-25.5c0-4,0.6-4.6,4.7-4.6c14.6,0,29.1-0.2,43.7,0.2C240.5,6,240.9,5.9,241.2,5.6z"/>
	<path class="st5" d="M6.4,245c0.8-1,0.3-2.2,0.4-3.5c1.1,1.4,2.2,2.7,3.2,4.1c1,1.2,2.1,2.1,3.8,1.9c0.7-0.1,1.5,0,2.2,0
		c74.1,0,148.1,0,222.2,0c9.1,0,10-0.6,13.2-9.4c0-0.1,0.1-0.2,0.1-0.2c0.5,0,0.4,0.4,0.4,0.7c1.5,1.2,0.5,2.6,0.1,3.9
		c-0.3,0.8-1.1,1.5-0.8,2.5c-2.2,3-4.8,5.4-8.2,6.9c-1.4-0.4-2.7,0.4-4.1,0.2c-1.5,0.3-3,0.2-4.5,0.2c-70.7,0-141.4,0-212,0
		c-1.4,0-2.8,0.1-4.1-0.2c-0.6,0-1.2,0.2-1.8,0.4c-1-0.2-2-0.3-2.7-1.1c-0.3-0.8-1-0.9-1.7-0.8C9.4,249.6,8.3,246.8,6.4,245z"/>
	<path class="st6" d="M16.7,252.4c0.2-0.2,0.4-0.4,0.6-0.5c1.2-0.6,2.5-0.3,3.8-0.3c71.9,0,143.9,0,215.8,0c1.3,0,2.6,0.3,3.8-0.3
		c0.9,0,1.9-0.9,2.5,0.5c-2.5,1.1-5.1,1.4-7.8,1.4c-71,0-142,0-213,0C20.4,253.2,18.5,253,16.7,252.4z"/>
	<path class="st7" d="M251.4,244.9c-1.1-1.1,0.1-1.8,0.4-2.7c0.4-1.1,0.9-2.4,0.3-3.6c0.4-0.6,0.8-1.3,1.3-1.9
		c-0.2-0.4-0.3-0.8-0.3-1.2c-0.3-11.1-0.8-22.2-0.6-33.3c0-10.4,0-20.9,0-31.3c0-5.8,0-11.6,0-17.4c0-12.6,0-25.1,0-37.7
		c0-19.5,0-39,0-58.5c0-3.5,0-7.1,0-10.6c0-1.3,0-2.6,0.2-3.9c0.1-0.4,0.2-0.7,0.4-1c0.2-0.3,0.6-0.4,0.9-0.2c0,1,0.1,1.9,0.1,2.9
		c0,63.5,0,126.9,0,190.4C254.1,238.3,253.7,241.8,251.4,244.9z"/>
	<path class="st6" d="M4.5,237.8c1.2,1.8,1.5,3.8,1.2,6c-1.8-2.5-2.1-5.5-2.1-8.5c0-64.3,0-128.5,0-192.8c0-0.4,0.1-0.8,0.2-1.3
		c0.4-0.2,0.8-0.1,1,0.3c0.5,0.7,0.5,1.5,0.5,2.3c0.1,15.6,0,31.1,0,46.7c0,11.5,0,23,0,34.5c0,10.5,0,20.9,0,31.4
		c0,15.9,0,31.8,0,47.7c0,1.8,0,3.6-0.6,5.3c0,8.4,0,16.7,0,25.1C4.8,235.8,5,236.8,4.5,237.8z"/>
	<path class="st8" d="M65.9,5c20.9,0,41.8,0,62.7,0c0.5,0.5,0.6,1.1,0.6,1.8c-0.1,11.2,0.3,22.3-0.2,33.5c-0.2,0.4-0.5,0.6-1,0.6
		c-0.3-0.2-0.6-0.6-0.8-1c-0.7-3.3-0.3-6.7-0.4-10.1c-0.1-7.3,0.1-14.6-0.2-21.9c-0.1-0.4-0.2-0.7-0.5-1c-1.3-0.7-2.7-0.4-4.1-0.4
		c-17.3,0-34.6,0-52-0.1C68.8,6.4,66.9,7.1,65.9,5z"/>
	<path class="st9" d="M4.5,41.5c-0.2,0-0.5-0.1-0.7-0.1c-0.2-0.2-0.2-0.4,0-0.6c0.4-0.2,0.8-0.3,1.2-0.3c18.6,0,37.2,0,55.8,0
		c1,0,2.1-0.2,3.1,0.3c1.1-0.9,0.6-2.2,0.6-3.3c0-10.8,0-21.6,0-32.4C64.8,5,65,5,65.1,5.1c0.6,0.6,0.9,1.3,1,2.2
		c0,11,0.2,22.1-0.1,33.1c-0.1,0.4-0.3,0.8-0.5,1.1c-0.3,0.3-0.7,0.5-1.1,0.6c-4.1,0.4-8.3,0.2-12.5,0.2c-14,0-27.9,0-41.9,0
		c-1.5,0-3,0.1-4.5-0.2C5.2,41.9,4.8,41.7,4.5,41.5z"/>
	<path class="st10" d="M241.2,5.6c0,0.2,0,0.4,0,0.6c-0.9,0.5-1.9,0.3-2.8,0.3c-15.3,0-30.7,0-46,0c-0.8-0.3-0.8-0.9-0.4-1.5
		C208.4,5.2,224.9,4.1,241.2,5.6z"/>
	<path class="st11" d="M252.1,17.7c-0.2-1.4-0.4-2.8-0.6-4.1c1.8,2,2.4,4.5,2.5,7.1c0.1,6.7,0,13.4,0,20.1c-0.4,0.1-0.8,0.2-1.2,0.2
		c-18.7,0.1-37.5,0-56.2,0c-1.4,0-3.3,0.6-4-1.5c20.1,0,40.1,0,60.2,0c0.5-6.2,0.5-12.4,0-18.6l0,0C252,20,252.9,18.7,252.1,17.7z"
		/>
	<path class="st12" d="M65.3,6.9c0-0.6-0.1-1.2-0.1-1.8c0.3,0,0.5,0,0.8,0C67,6,68.4,5.5,69.6,5.5c18.3,0,36.5,0,54.8,0
		c1.2,0,2.6-0.5,3.6,0.6c-1.5,1.3-3.2,0.9-4.9,0.9c-18.2,0-36.4,0-54.6,0c-0.7,0-1.5,0-2.2,0.1C65.9,7.2,65.6,7.1,65.3,6.9z"/>
	<path class="st13" d="M253.4,40.7c0.2,0,0.4,0,0.6,0c0,0.2,0,0.4,0,0.6c-0.2,0-0.4,0-0.6,0.1c-1,0.8-2.2,0.8-3.3,0.8
		c-18.3,0-36.5,0-54.8,0c-0.8,0-1.7,0-2.5-0.3c-0.4-0.2-0.7-0.5-0.9-0.8c0.1-0.5,0.4-0.7,0.9-0.7c19.1,0,38.1,0,57.2,0
		C251.1,40.5,252.3,40.2,253.4,40.7z"/>
	<path class="st14" d="M128.5,40.7c0-11.9,0.1-23.8,0.1-35.7c0.2,0,0.4,0,0.6,0c0.6,1.7,0.3,3.5,0.3,5.3c0,9.7,0,19.4,0,29.2
		c0,0.4,0,0.8,0.1,1.1c-0.1,0.4-0.3,0.7-0.6,0.9C128.6,41.4,128.4,41.2,128.5,40.7z"/>
	<path class="st15" d="M192,5c0,0.4,0,0.8,0.1,1.2c0.3,11.5,0.4,23,0,34.4c-0.1,0.1-0.1,0.2-0.2,0.3c-0.5,0-0.8-0.2-0.8-0.7
		c0-10.8,0-21.7,0-32.5c0-0.9-0.4-1.9,0.5-2.7C191.7,4.9,191.9,4.9,192,5z"/>
	<path class="st16" d="M191.5,5c0,11.9-0.1,23.8-0.1,35.7c-0.2,0.2-0.5,0.2-0.8,0.1c-0.2-0.3-0.2-0.5,0.1-0.7c0-11.7,0-23.4,0-35.1
		C191,5,191.2,5,191.5,5z"/>
	<path class="st17" d="M129.3,40.7c0-11.9-0.1-23.8-0.1-35.7c0.2,0,0.4,0,0.6,0c0,11.7,0,23.4,0,35.1c0.2,0.1,0.2,0.3,0.2,0.4
		c0,0.2,0,0.2-0.1,0.2C129.8,40.9,129.6,40.9,129.3,40.7z"/>
	<path class="st18" d="M4.5,40.7c-0.2,0-0.5,0-0.7,0C3.5,33.5,3.4,26.3,3.9,19c1.1,1.8,0.5,3.7,0.5,5.6c0.1,5.2,0,10.4,0,15.5
		c0.2,0.1,0.3,0.3,0.2,0.4C4.6,40.7,4.6,40.7,4.5,40.7z"/>
	<path class="st19" d="M12.2,250.6c1-0.7,1.7-0.7,1.7,0.8C13.1,251.5,12.7,251,12.2,250.6z"/>
	<path class="st20" d="M252.8,225.7c-1.3,3-0.4,6.4-1.6,9.6c-1.4-0.9-2.9-0.7-4.5-0.7c-78.7,0-157.3,0-236,0c-5,0-5,0-5-5.1
		c0-2.3,0-4.7,0-7c1.6-1.4,3.6-1,5.5-1c22.2,0,44.4,0,66.6,0c1.9,0,3.8,0,5.7-0.2c1.3-0.2,2.6-0.3,3.9-0.4c0.7,0,1.4,0.2,2.1,0.5
		c5.3,0.5,10.6,0.4,15.9,0c0.7-0.3,1.3-0.5,2.1-0.5c1.3,0.2,2.6,0.2,3.9,0.6c1.9,0.3,3.8,0.1,5.7,0.1c42,0,84,0,126,0
		c1.1,0,2.1-0.1,3.2,0c2.7,0.2,4-0.8,4.4-3.7c0.2-1.9-0.4-4.4,2-5.6C253.3,216.7,253.3,221.2,252.8,225.7z"/>
	<path class="st21" d="M84.5,221.8c-1,1.1-2.4,0.6-3.6,0.6c-25,0-50.1,0-75.1,0c0-3,0-6,0-9c2.1,0.5,4.2,0.4,6.3,0.4
		c16.2,0,32.5,0,48.7,0c1.5,0,3,0.2,4.4-0.6c0.9-0.3,1.7-0.2,2.6,0.1c0.3,0.1,0.6,0.3,0.8,0.5c0.8,1.2,1.7,2.3,3.5,1.7
		c2,0.4,3.7,1.2,5.3,2.5c1.1,1.4,2.7,0.9,4.1,1c1.1,0.1,2.3,0,3.2,0.9c0.2,0.3,0.3,0.6,0.3,1C84.8,221.3,84.7,221.6,84.5,221.8z"/>
	<path class="st22" d="M66,213.5c-0.4,1.1-1.2,1.3-2.4,1.3c-18.6,0-37.2,0-55.7,0.1c-1.5,0-1.3-1.1-2-1.4c0-1.5,0-3,0-4.5
		c-0.9-1.6-0.9-3.1,0-4.7c1.5-1,3.3-0.8,5-0.8c11.4,0,22.7,0,34.1,0c4.1,0,8.3,0,12.4-0.3c2.7,0.7,3.6,3.1,4.7,5.2
		c0.2,1.1,0.7,2.2,0,3.3c-0.8,0.6-1.7,0.8-2.7,0.8c-15.9,0-31.9,0-47.8,0c14,0,28.1,0,42.1,0c3.4,0,6.8,0.3,10.2-0.2
		c0.3-0.2,0.7-0.3,1.1-0.3C65.7,212.1,66.1,212.6,66,213.5z"/>
	<path class="st23" d="M4.5,209.7c0-17.7,0-35.4,0-53.1c0.4-0.2,0.8-0.1,1,0.3c0.9,2.7,0.3,5.5,0.5,8.3c0,6.3,0,12.7,0,19
		c0,5.2,0,10.4,0,15.5c0,3.2-0.6,6.3-0.9,9.4c0,0.2,0,0.4,0,0.6C4.9,210,4.7,210,4.5,209.7z"/>
	<path class="st24" d="M252.8,225.7c0-4.5,0-9,0-13.4c-1.5-3.3-1-6.6-0.4-9.9c0.2-0.4,0.6-0.5,1-0.3c0,11.5,0,23,0,34.5
		C252,233,253.1,229.3,252.8,225.7z"/>
	<path class="st25" d="M4.5,209.7c0.2,0,0.4,0,0.6,0c0,8.4,0,16.8,0,25.2c0,1,0.4,2.2-0.6,3C4.5,228.4,4.5,219.1,4.5,209.7z"/>
	<path class="st26" d="M5.1,209.1c0-8.3,0-16.6,0-25c0.4-0.2,0.8-0.1,1,0.3c1,2.7,0.5,5.5,0.6,8.2c0.1,2.9,0.1,5.8,0,8.7
		c0,1.2-0.1,2.3-1,3.2c0,1.5,0,3,0,4.5C5.5,209.1,5.3,209.1,5.1,209.1z"/>
	<path class="st27" d="M129.9,40.7c0-0.2,0-0.4,0-0.6c20.3,0,40.5,0,60.8,0c0,0.2,0,0.4,0,0.6c-1.1,1.2-2.6,0.9-3.9,0.9
		c-17.7,0-35.3,0-53,0C132.5,41.6,131,41.9,129.9,40.7z"/>
	<path class="st28" d="M4.5,40.7c0-0.2,0-0.4,0-0.6c18.6,0,37.2,0,55.8,0c1.2,0,2.6-0.5,3.6,0.6C44.1,40.7,24.3,40.7,4.5,40.7z"/>
	<path class="st29" d="M192.1,40.6c0-11.5,0-23,0-34.4c16.4,0,32.8,0,49.2,0c-1.1,1.1-2.4,0.6-3.6,0.6c-13.8,0-27.7,0.1-41.5,0
		c-2.9,0-3.6,0.9-3.5,3.6c0.2,9.7,0.1,19.4,0.1,29.1c1,1.1,2.4,0.6,3.6,0.6c17.8,0,35.7,0,53.5,0c1.2,0,2.6-0.5,3.6,0.6
		C232.9,40.7,212.5,40.7,192.1,40.6z"/>
	<path class="st29" d="M252.8,20.9c1.2,1.4,0.7,3,0.6,4.5c-0.3,4.7,0.9,9.4-0.6,14C252.8,33.3,252.8,27.1,252.8,20.9z"/>
	<path class="st29" d="M252.1,17.7c1.1,0.9,0.5,2.1,0.6,3.2C251.7,20,252.3,18.8,252.1,17.7z"/>
	<path class="st30" d="M240.6,251.3c-0.9,1.1-2.2,0.6-3.3,0.6c-73.3,0-146.7,0-220,0c1.1-1.1,2.4-0.6,3.6-0.6
		C94.2,251.3,167.4,251.3,240.6,251.3z"/>
	<path class="st31" d="M253.4,115.6c0,12.6,0,25.2,0,37.7c-1.7-0.3-0.8-1.7-0.9-2.5c-0.2-1.5,0-3-0.1-4.5c-0.1-0.4-0.6,0.2-0.2,0
		c0.6,3-0.1,6,0.6,8.9c0,0.4-0.1,0.8-0.2,1.2c-0.3,1.8-0.1,3.6-0.2,5.4c-0.1,3.2-0.8,3.8-4,4c-1.3,0.1-2.6,0-3.8,0
		c-33.5,0-67.1,0-100.6,0c-2.3,0-4.7,0.1-7,0.2c-2.2-0.1-3.4-1.6-4.6-3.2c-0.5-1-1.3-1.7-2.3-2.2c-1.2-0.9-2.5-1.6-3.6-2.6
		c-1.2-1-2.5-2.1-1.7-4c1.7-1.6,3.8-1.1,5.8-1.1c37.6,0,75.2,0,112.8,0c1.2,0,2.3,0,3.5,0c3.3-0.1,3.6-0.4,3.7-3.7
		c0-0.6,0-1.3,0.1-1.9c0.1-2.1-0.6-4.4,1.1-6.2c1.5,0.1,0.3,1.6,1,2.1c0.1,0.4,0.6-0.2,0.2,0c-0.9-2.2-0.7-4.7-1.4-6.9
		c-0.3-2.1-0.1-4.2-0.3-6.3c0.1-3.9-0.1-7.7,0.1-11.6C251.3,117.2,251,115.3,253.4,115.6z"/>
	<path class="st32" d="M253.4,115.6c-1.7,0.3-1.2,1.7-1.2,2.8c0,4,0,8,0,11.9c-0.7,1.3-0.4,2.7-0.3,4.1c0.2,2.4-1,3.3-3.1,3.3
		c-0.6,0-1.3,0-1.9,0c-17.8,0-35.5-0.1-53.3,0.1c-0.7,0-1.5,0-2.2-0.3c-1.4-3.4-1.2-6.9-0.2-10.3c7.8,1.6,15.6,0.7,23.4,0.8
		c10.6,0.2,21.3,0,31.9,0.1c2.5,0,4.2-0.5,4.1-3.4c0.1-3-0.1-6,0-9c0.4-7.2,0.9-14.4,0.6-21.6c-0.1-3.1,0-6.3,0-9.4
		c-0.1-1,0.1-1.9,0-2.9c0.1-2.6,0-5.2,0.1-7.8c0-2,0.2-4,0.4-6c0.4-2.7,0.1-5.4,0.2-8.1c0.1-1.1-0.3-2.6,1.4-3
		C253.4,76.4,253.4,96,253.4,115.6z"/>
	<path class="st33" d="M4.5,41.5c0.2,0,0.4,0,0.6,0c1.8,1.1,3.8,0.2,5.6,0.2c18,0.1,36,0.1,54,0c1.5-0.5,3.1-0.6,4.7-0.6
		c18.3,0,36.5,0,54.8,0c1.7,0,3.4,0.3,5,0.5c3-0.4,6-0.2,8.9-0.2c16.5,0,33,0,49.6,0c1.4,0,2.8-0.1,4.1,0.2c8.5,0.3,17,0,25.5,0.2
		c12,0.2,24-0.4,36,0.4c0,1.3,0,2.5,0,3.8c-4.2-2.3-8.8-1.6-13.3-1.6c-75.7,0-151.5,0-227.2,0c-1.7,0-3.4-0.1-5.1,0.1
		c-1.4,0.7-2.9,1.8-3.2-1C4.5,42.7,4.5,42.1,4.5,41.5z"/>
	<path class="st34" d="M6.4,44c1.2-1.1,2.6-0.6,4-0.6c58.6,0,117.3,0,175.9,0c20.2,0,40.4,0,60.7-0.1c2.7,0,4.8,0.5,6.4,2.6
		c0,3.6,0,7.3,0,10.9c-1.2,2.5-0.3,5.1-0.6,7.6c-0.2,1.3,0.5,2.7-0.6,3.9c-0.1-0.1-0.3-0.3-0.4-0.4c-0.9-2.3-0.3-4.7-0.6-7.1
		c-0.2-3.6,0.2-7.1,0.1-10.7c0-1.1,0.2-2.3-0.5-3.4c-1.1-1.9-2.9-2-4.8-1.9c-78.1,0-156.1,0-234.2,0c-1.7-0.1-3.4,0.4-5.1,0
		C6.2,44.6,6.1,44.3,6.4,44z"/>
	<path class="st35" d="M253.4,42.1c-2.1,1.1-4.1-0.1-6.2-0.1C228.8,42.1,210.4,42,192,42c-0.1-0.1-0.2-0.2-0.3-0.3
		c0.1-0.1,0.1-0.2,0.2-0.4c19.2,0,38.5,0,57.7,0c1.3,0,2.5,0.1,3.8,0.1C253.4,41.7,253.4,41.9,253.4,42.1z"/>
	<path class="st36" d="M253.4,202c-0.2,0-0.4,0-0.6,0c-1.2-1.1-0.8-2.6-0.9-4c0-4.4,0-8.8,0-13.1c0-3.3,0-6.6,0-10
		c0.1-1.3-0.2-2.7,0.5-4c0.2-0.4,0.6-0.5,1-0.3C253.4,181.1,253.4,191.6,253.4,202z"/>
	<path class="st37" d="M253.4,170.7c-0.2,0-0.4,0-0.6,0c-1.3-1.4-0.9-3.2-0.8-4.9c0.2-3.5,0.2-7,0.2-10.5c0-3.1,0-6.3,0-9.4
		c1.3,2.4-0.2,5.1,1.3,7.4C253.4,159.1,253.4,164.9,253.4,170.7z"/>
	<path class="st38" d="M6.4,44c0,0.2,0,0.4,0,0.6c1,2.3,0,4.6,0.3,6.9c0,0.4,0,0.7,0,1.1c0.1,2.5,0,5.1,0,7.6
		c-0.1,1.6-0.1,3.1,0.1,4.7c0,0.4,0,0.7-0.1,1.1c-0.1,0.3-0.3,0.7-0.4,1C5.8,73.3,6.1,79.6,6,86c0,1.5,0.2,3-0.5,4.4
		c-0.2,0.4-0.6,0.5-1,0.3c0-15.8,0-31.5,0-47.3C5.1,43.6,5.2,45.6,6.4,44z"/>
	<path class="st39" d="M4.5,90.7c0.2,0,0.4,0,0.6,0C6.8,93.3,5.7,96.3,6,99c0,7.2,0,14.5,0,21.7c0,1.4,0.2,2.8-0.4,4.1
		c-0.2,0.4-0.6,0.5-1,0.4C4.5,113.7,4.5,102.2,4.5,90.7z"/>
	<path class="st40" d="M4.5,125.2c0.2,0,0.4,0,0.6,0c1.5,1.8,0.7,3.9,0.9,5.9c0,6.3,0,12.6,0,18.9c-0.3,2.2,0.6,4.5-0.9,6.5l-0.3,0
		c0,0-0.3,0-0.3,0C4.5,146.1,4.5,135.7,4.5,125.2z"/>
	<path class="st41" d="M65.9,6.8c0.3-0.5,0.8-0.6,1.3-0.6c0.1,0.4,0,0.8-0.3,1.1c-0.1,10,0,19.9,0,29.9c0.2,0.4,0.5-0.2,0.1,0
		c-0.1,0.1-0.2,0-0.2-0.2c0-9.5,0-18.9,0-28.4c0-0.6-0.1-1.3,0.4-1.8c1.6-0.4,3.2-0.2,4.8-0.2c17.5,0,35,0,52.4,0
		c1.2,0,2.3-0.3,3.5,0.3c0,11.1,0,22.2,0,33.3c-1.1,1-2.6,0.9-3.9,0.9c-18.2,0-36.3,0-54.5,0c-1.3,0-2.6,0.2-3.7-0.7
		c-0.7-5-0.3-10-0.3-15C65.7,19.2,65.2,13,65.9,6.8z"/>
	<path class="st42" d="M128.5,40.7c0.1,0.2,0.1,0.3,0.1,0.5c-0.7,0.8-1.6,0.4-2.4,0.4c-19.7,0-39.3,0-59,0c-0.7,0-1.5,0.2-2.2-0.3
		c0-0.2,0.1-0.4,0.1-0.7c0.4-0.2,0.8-0.3,1.2-0.3c19.5,0,38.9,0,58.4,0c1,0,2.1-0.3,3.1,0.3C128.2,40.7,128.4,40.7,128.5,40.7z"/>
	<path class="st43" d="M128,40.7c-20.7,0-41.4,0-62.1,0c-0.2-0.1-0.2-0.3-0.2-0.4c0.1-0.1,0.1-0.2,0.2-0.2c20.7,0,41.4,0,62.1,0
		C128,40.3,128,40.5,128,40.7z"/>
	<path class="st44" d="M128,6.8c-20.3,0-40.5,0-60.8,0l0,0c0-0.2,0-0.4,0-0.6c20.3,0,40.5,0,60.8,0C128,6.4,128,6.6,128,6.8z"/>
	<path class="st45" d="M65.1,41.4c21.2,0,42.4-0.1,63.5-0.1c0.2,0.1,0.4,0.1,0.6,0c0.1,0.1,0.2,0.2,0.3,0.2c0.1,0.2,0,0.4-0.2,0.6
		c-21.5,0-43.1,0-64.6,0c-0.2-0.1-0.3-0.3-0.2-0.4c0.1-0.1,0.1-0.2,0.2-0.2C64.8,41.4,65,41.3,65.1,41.4z"/>
	<path class="st46" d="M64.6,41.5c0,0.2,0,0.4,0,0.6c-17.3,0-34.7,0-52,0c-1.9,0-3.8-0.2-5.7,0.5c-0.9,0.3-1.7,0.1-1.9-1.1
		C25,41.5,44.8,41.5,64.6,41.5z"/>
	<path class="st47" d="M65.9,40.1c0,0.2,0,0.4,0,0.6c-0.2,0-0.4,0-0.6,0C65,29.4,65,18.1,65.3,6.9c0.2,0,0.4,0,0.6,0
		C65.9,17.9,65.9,29,65.9,40.1z"/>
	<path class="st48" d="M129.9,40.7c20.3,0,40.5,0,60.8,0c0.2,0,0.5,0,0.7,0c0.2,0,0.3,0.1,0.4,0.2c0,0.1,0,0.3,0,0.4
		c0,0,0.1,0.1,0.1,0.1c-1,0.4-2.1,0.2-3.2,0.2c-18.8,0-37.6,0-56.4,0c-1.1,0-2.1,0.2-3.1-0.2c0,0,0-0.2,0-0.2c0-0.2,0-0.3,0.1-0.5
		C129.5,40.8,129.7,40.8,129.9,40.7z"/>
	<path class="st21" d="M252.8,198.2c0,1.3,0,2.6,0,3.8c0,3.4,0,6.8,0,10.2c-1.1,2.6-1.1,5.3-1.2,8c-0.1,1.6-0.6,2.4-2.3,2.2
		c-0.7-0.1-1.5,0-2.2,0c-44.1,0-88.2,0-132.4,0c-1.3,0-2.8,0.5-3.9-0.6c-0.2-0.2-0.3-0.5-0.3-0.7c0.1-0.3,0.2-0.5,0.4-0.7
		c1-0.4,2.2-0.5,3.2-0.9c0.7-0.2,1.3-0.5,2-0.6c1.9-0.1,4,0.2,5.3-1.8c0.4-0.9,1.1-1.2,2.1-1.2c1,0.4,1.8,0,2.3-0.9
		c0.6-0.8,1.3-1.3,2.3-1.3c1.2,0.2,2.4,0,3.6,0.2c1.4,0.2,2.8,0.1,4.2,0.1c36.5,0,72.9,0,109.4,0c1.6,0,3.2,0.4,4.7-0.5
		c0.4-0.6,0.6-1.2,0.6-1.9c-0.2-2.5,0.4-5.1,0.3-7.6c0-1.9,0.2-3.8,1-5.6C252.1,198,252.4,198,252.8,198.2z"/>
	<path class="st49" d="M110.7,220.6c0,0.2,0,0.4,0,0.7c-1.1,0.4-2.1,0.5-3.2,0c-0.4,0.2-0.9,0.4-1.3,0.6c-5.7,0.5-11.5,0.5-17.2,0
		c-0.4-0.2-0.9-0.4-1.3-0.6c-1.1,0.5-2.1,0.4-3.2,0c0-0.3,0-0.5,0-0.8c1.2-1,2.6-1,3.9-0.8c6.2,0.8,12.3,0.7,18.4,0
		c0.7-0.1,1.5,0,2.2,0.1C109.7,219.9,110.3,220.1,110.7,220.6z"/>
	<path class="st50" d="M89,221.9c5.7,0,11.5,0,17.2,0c-3.6,1.4-7.4,0.4-11.1,0.6C93.1,222.5,90.9,223.1,89,221.9z"/>
	<path class="st51" d="M84.5,221.2c1.1,0,2.1,0,3.2,0c-0.9,1.1-2.1,0.5-3.2,0.6C84.5,221.6,84.5,221.4,84.5,221.2z"/>
	<path class="st51" d="M107.5,221.2c1.1,0,2.1,0,3.2,0c0,0.2,0,0.4,0,0.6C109.6,221.7,108.4,222.3,107.5,221.2z"/>
	<path class="st52" d="M109.2,220.5c-8.2,1-16.4,0.6-24.6,0c-0.9-1.2-2-0.7-3.1-0.6c-1.4-0.9-3.3-0.1-4.5-1.4
		c-1.6-1.1-3.3-2.1-5.3-2.1c-1.2-0.5-2.4-1-3.1-2.2l-0.1-0.2l-0.2,0.1c-1.2-0.3-1.9-1.3-2.9-1.9l-0.2-0.1l-0.3,0c-0.1,0-0.3,0-0.4,0
		c-1.7-0.6-2.2-2.2-2.9-3.6c-0.9-1.7-1.9-3.2-3.2-4.6c-1.7-0.9-0.6-2.9-1.6-4.2c-0.1-0.3-0.2-0.6-0.3-0.9c-0.2-0.9-0.2-1.8-0.2-2.7
		c0-1.1-0.1-2.2-0.4-3.2c-0.1-0.7-0.1-1.3,0-2c0.5-2.9,0.5-5.9,1.3-8.7c0.3-1.2,0.9-2.3,1.8-3.3c2.2-1.8,2.6-5.1,5.5-6.3
		c3.7-2.4,7.5-4.6,11.6-6.2c2-0.3,3.6-2,5.8-1.9c0.9-0.1,1.7-0.3,2.6-0.5c0.9-0.3,1.7-0.5,2.7-0.5c0.8,0,1.5-0.2,2.3-0.4
		c0.9-0.2,1.9-0.2,2.8-0.3c2.9-0.8,5.9-0.5,8.8-0.6c1,0,2.7,0.4,2-1.7c-1.2-1.8-3.5-2.8-4-5.2c-0.7-1.7-0.6-3.6-0.5-5.3
		c0.2-2.4-0.5-3.6-3.2-3.3c-0.8,0.1-1.7,0-2.5-0.2c-0.9-0.2-1.8-0.5-2.8-0.5c-0.8,0-1.5,0.2-2.3,0c-1.4-0.9-3-1.1-4.6-1.7
		c-3.4-1.4-7-2.7-9.9-5c-4.1-3-5.5-7.7-7.4-12.1c-0.7-1.9-1.2-3.8-1.3-5.8c0-1.2,0-2.3-0.4-3.4c-0.3-1.3-0.3-2.7,0-4
		c0.4-1.1,0.5-2.2,0.4-3.3c0-0.8,0.1-1.5,0.2-2.3c0.4-1,0.2-2,0.3-3c0.8-1.6,1.7-3.1,2.4-4.7c2.6-5.8,6.9-10,12.3-13.2
		c2.4-1.6,5-2.8,7.7-3.8c4.6-1.4,9.2-2.6,14-3.2c0.9-0.2,1.9-0.2,2.8-0.2c12.8,0.1,25.6-0.2,38.4,0.1c2.3,1.6,2.3,2.1-0.2,4.5
		c-1,0.5-2.1,0.7-3.1,1.2c-0.5,0.3-1,0.5-1.6,0.5c-0.8-0.1-1.6,0-2.4,0.3c-0.7,0.2-1.4,0.2-2.1,0.2c-0.9,0-1.7,0.1-2.5,0.3
		c-0.5,0.1-1.1,0.2-1.6,0.4c-0.9,1.2,0.5,1.4,1,1.7c3.3,2.2,5.3,5.2,6.4,8.9c0.4,1.3,0.7,2.7,1.1,4c0.2,0.8,0.3,1.6,0.3,2.4
		c0,0.3,0,0.7,0,1c0.1,2-0.2,4,0.3,5.9c0.1,0.7,0.1,1.3,0,2c-0.4,1.2-0.4,2.5-0.4,3.7c0,0.5,0,0.9,0,1.4c0,0.5-0.1,0.9-0.2,1.4
		c-0.2,0.7-0.5,1.4-0.8,2.2c-0.8,1.9-1.2,4.1-2.5,5.8c-2.1,3-4.3,6-7.1,8.4c-1.1,1.2-2.6,1.8-3.9,2.7c-1.2,0.9-2.1,2-3.2,3
		c-0.6,0.6-1,1.3-1.4,2c-0.7,1.3-1.1,2.7,0,4c0.2,0.2,0.4,0.4,0.5,0.7c0.2,0.2,0.3,0.5,0.4,0.8c0.7,1.7,2.2,2.7,3.4,4
		c0.7,0.5,1.3,1.1,1.6,1.9c1.1,2.6,4.2,2.9,5.6,5.1c0.9,0.3,1.5,1,2.1,1.7c1.1,1.1,2.2,2.2,3.3,3.3c2.3,1.1,3.8,2.8,4.7,5.2
		c0.7,2.1,1.9,3.9,3,5.8c0.2,2.1,0.6,4.1,1.1,6.1c0.3,2.2,0.3,4.5,0,6.7c-0.6,2.3-0.8,4.8-1.5,7.1c-0.2,2-1.7,3.4-2.4,5.1
		c-0.5,0.9-0.9,1.8-1.4,2.7c-0.8,1.2-1.6,2.3-2.2,3.5c-1,1-2.2,1.7-2.9,2.9c-0.5,0.6-1.1,1.3-1.7,1.8c-0.5,0.3-1,0.4-1.6,0.6
		c-1,0.4-2,0.9-3.1,1c-1-0.1-1,1.2-1.8,1.3c-0.8,0.4-1.4,1.3-2.5,0.8c-0.7,0.3-1.4,0.7-2.1,1c-1.5,1.7-3.7,1.4-5.5,2
		c-0.5,0.8-1.4,0.4-2,0.7C112.4,220.7,110.7,219.9,109.2,220.5z"/>
	<path class="st53" d="M68.5,214.2c1.1,0.6,2.7,0.6,3.1,2.2C69.6,216.9,68.5,216.3,68.5,214.2z"/>
	<path class="st54" d="M76.8,218.5c1.6,0.2,3.4-0.2,4.5,1.4C79.8,219.7,77.8,220.8,76.8,218.5z"/>
	<path class="st19" d="M65.3,212.2c1.3,0.1,2.1,1,2.9,1.9c-0.7-0.2-1.4-0.4-2.2-0.6C65.7,213.1,65.5,212.6,65.3,212.2z"/>
	<path class="st55" d="M57,199.4c1.8,1.2,0.5,3.1,1.2,4.6c-17.5,1.4-35,0.3-52.5,0.6c0-4.1,0-8.1,0-12.2c0.9-0.5,1.9-0.4,2.8-0.4
		c14.3,0.1,28.5,0,42.8,0c4.2,0,4.1,0,4.6,4.1C56.1,197.3,55.9,198.6,57,199.4z"/>
	<path class="st21" d="M64.8,212.1c-0.3,1.4-1.3,1.4-2.5,1.4c-17.2,0-34.5,0-51.7,0c-0.9,0-2.4,0.3-2.4-0.9c0.1-1.4,1.6-1,2.6-1
		c15.9,0,31.7,0,47.6,0c1.2,0,2.6,0.5,3.6-0.6C63.3,210.6,63.7,212.1,64.8,212.1L64.8,212.1z"/>
	<path class="st56" d="M64.8,212.1c-1.2,0.3-1.8-0.8-2.7-1.1c-0.9-0.6-0.6-1.6-0.6-2.5C62.8,209.4,63.7,210.9,64.8,212.1z"/>
	<path class="st57" d="M5.8,184.1c-0.2,0-0.4,0-0.6,0c0-6.4,0-12.8,0-19.2c0.4,0,0.8,0.1,1,0.5c1,4.5,0.4,9,0.6,13.6
		C6.5,180.7,7.2,182.6,5.8,184.1z"/>
	<path class="st58" d="M5.8,164.9c-0.2,0-0.4,0-0.6,0c0-2.8,0-5.6,0-8.3c0-2.1,0-4.3,0-6.4c0.4-0.2,0.7-0.1,1,0.2
		c0.9,2.2,0.4,4.5,0.6,6.7c-0.3,2.4,0.4,4.9-0.5,7.3C6,164.6,5.9,164.8,5.8,164.9z"/>
	<path class="st58" d="M5.8,184.1c0-1.7,0-3.4,0-5.1c0.9-0.5,1.8-0.4,2.8-0.4c16.2-0.1,32.5,0.3,48.7-0.2c0.9,0,1.7,0,2.4,0.7
		c-2.6,3.7-2.2,8.2-3.2,12.4c-0.7-0.9-0.5-1.9-0.4-2.2c-0.1,3,0.1,6.6,1.1,10.2c0,0,0,0,0,0c-0.1,0.4-0.1,0.8-0.2,1.3
		c-1.2-1.5-1.7-2.8-1.8-5.8c0-1.4-0.2-1.9-1.9-1.9c-14.7,0.1-29.3,0.1-44,0.1c-1.2,0-2.3,0-3.4-0.6C5.8,189.6,5.8,186.9,5.8,184.1z"
		/>
	<path class="st59" d="M118.3,143.5c-0.1-0.9,0.6-1.4,1.3-1.8c1.9-0.2,2.6-1.6,3.2-3.1c1.2-0.8,2.5-1.7,3.7-2.5
		c2.1-0.9,4.2-0.3,6.3-0.3c13.8,0,27.5,0,41.3,0c1.7,0,3.4-0.1,5.1,0.4c2,1,0.8,3,1.4,4.4c-0.5-6.6-0.4-13.2-0.4-19.8
		c0-1.4-0.3-2.8,0.9-3.9c2,0.8,1.5,2.6,1.6,4.1c0.1,7.1-0.1,14.2,0.1,21.3c0.3,1.6,1.6,1.4,2.7,1.4c1.2,0,2.5,0.1,3.7-0.2
		c0.1-0.1,0.3-0.1,0.4-0.2c0.2-0.2,0.5-0.3,0.6-0.6c0.7-1.7-0.4-3.7,1.1-5.2c1.2-0.8,2.6-0.6,4-0.6c17.4,0,34.8-0.1,52.2,0.1
		c3,0,4.4-0.6,3.9-3.8c-0.1-0.9-0.3-1.9,0.6-2.7c0,2.1,0,4.3,0,6.4c0.5,1.5,0.5,3,0,4.5c-1.3,1.8-0.4,3.8-0.6,5.8
		c-1.2,1.1-2.8,1-4.2,1c-41.1,0-82.2,0-123.3,0c-1.7,0-3.4,0.1-4.8-1.2c-0.6-0.6-0.8-1.4-0.9-2.2
		C118.1,144.2,118.2,143.8,118.3,143.5z"/>
	<path class="st60" d="M119,145.7c1.1,1.6,2.8,1.3,4.3,1.3c42.7,0,85.4,0,128.1,0c0,7,0,7-7,7c-38.7,0-77.4,0-116,0
		c-1.3,0-3.1-0.9-3.7,1.3c-0.7-0.4-1.3-0.8-2-1.2c-0.5-2.2-2.5-3.1-3.8-4.6l-0.2-0.1l0-0.2C118.5,148.1,117.9,146.8,119,145.7z"/>
	<path class="st37" d="M143.1,176.6c-1.8-0.4-1.7-2.2-2.2-3.4c-1.4-2.8-3.2-5.3-5.1-7.6c1.6-0.6,3.3-0.7,5-0.7
		c35.6,0,71.2,0,106.8,0.1c3.4,0,4.3-1,4-4.1c-0.1-1.6-0.7-3.4,0.6-4.9c0.7,4.9,0.2,9.9,0.2,14.8c0,0.6-0.5,0.9-1,1.2
		c-1.8,0.6-3.6,0.4-5.4,0.4c-32.6,0-65.2,0-97.8,0c-2.4,0-4.6,0-4.3,3.3C143.8,176,143.5,176.3,143.1,176.6z"/>
	<path class="st58" d="M251.5,171.3c1.3-5.1,0.4-10.2,0.6-15.4c0-0.2,0-0.4,0-0.6c1.4,2.6,0.4,5.4,0.6,8.1c0.2,2.4,0,4.9,0,7.3
		c0,1.3,0,2.6,0,3.8c-0.3,0.1-0.6,0.1-0.9-0.1C251,173.4,250.6,172.4,251.5,171.3z"/>
	<path class="st37" d="M252.1,141.2c0-1.5,0-3,0-4.5c1.4,2.2,0.2,4.7,0.9,7.4C251.7,143,252.3,142,252.1,141.2z"/>
	<path class="st61" d="M132.5,162.2c-1-0.2-1.6-0.9-2.1-1.7C131.6,160.4,132.3,160.9,132.5,162.2z"/>
	<path class="st62" d="M252.1,84.3c0,3.2,0,6.4,0,9.6c-1,1.7,0.5,3.9-1,5.6c-1.3,0.7-2.7,0.6-4.1,0.6c-16.8,0-33.7,0-50.5,0
		c-2.3,0-4.8,0.2-5.8-2.8c-0.3-3.9-0.9-7.9,0.4-11.7c0.9-0.5,1.8-0.4,2.8-0.4c16.1,0.1,32.3,0,48.4,0.1
		C245.7,85.2,248.9,85.2,252.1,84.3z"/>
	<path class="st63" d="M101.2,81.2c-4.7,1.1-9.4,2.2-14.2,3.2C61.3,82,35.5,84,9.7,83.4c-1.8,0-3.8,0.4-4.1-2.3
		c0.1-1.8-0.7-3.6,0.4-5.3c2,0.7,4.1,1,6.2,1c77.7,0,155.4,0,233.1,0c2.5,0,5.1,0.2,5.7-3.1c0.3-0.4,0.6-0.5,1.1-0.3
		c0,2.8,0,5.5,0,8.3c-1.3,2-3.3,1.6-5.2,1.6c-15.3,0-30.6,0-45.8,0c-3,0-5.9,0.1-8.9,0c-1.2-0.1-1.6-1.1-2.2-1.9
		c-0.1-0.2-0.1-0.4-0.2-0.6c0-0.2,0.1-0.4,0.1-0.6c0.3-0.3,0.6-0.5,1-0.5c17.4-0.2,34.8,0,52.1-0.1c1,0,2.1,0.1,3.1-0.1
		c-1.1,0.2-2.2,0.1-3.2,0.1c-46.2,0-92.4,0.4-138.6,0.3c-1.1,0.3-2.3,0.3-3.4,0.4C101.1,80.7,101.1,81,101.2,81.2z"/>
	<path class="st64" d="M251.5,99c0.3-1.7-0.6-3.5,0.6-5.1c0,7.3,0.2,14.5-0.6,21.8c-0.5,0.4-1,0.7-1.6,0.8
		c-10.1,0.1-20.2,0.4-30.2-0.2c-2.2-1.1-1.3-3.1-1.2-4.8c-0.5,1.6,0.2,3.4-0.4,5c-0.2,0.3-0.4,0.5-0.8,0.5c-0.3-0.2-0.6-0.4-0.8-0.8
		c-0.4-0.9-0.4-1.9-0.5-2.8c-0.2-3.7-0.4-3.8-4.2-3.9c-5.9,0-11.9,0-17.8-0.1c-1.5,0-3.3,0.4-4-1.6c0.5-0.5,1.1-0.6,1.7-0.6
		c7.7,0.1,15.4-0.2,23.1,0.1c-6.6-0.3-13.3,0-19.9-0.1c-1.2,0-2.6,0.3-3.7-0.5c-1-2.4-1.1-4.7,0-7c0.2-0.1,0.6-0.2,0.6-0.1
		c1.6,3.5,4.8,2.9,7.7,2.9c15.3,0,30.6-0.1,46,0.1C248.4,102.6,250.6,102.1,251.5,99z"/>
	<path class="st65" d="M251.5,124.6c0,4.5,0,4.5-4.4,4.5c-17.3,0-34.6,0-51.9,0c-1.7,0-3.1-0.2-3.8-1.9c-1.3-2.2-1.2-4.3-0.1-6.5
		c2-0.7,4-0.2,6-0.2c16,0,32,0,48,0c1.4,0,2.8-0.1,4.1,0.3c1,0.2,1.8,0.7,1.7,1.9c-0.1,1.1-1,1.3-1.9,1.3c-0.7,0.1-1.5,0-2.2,0
		c-16.6,0-33.3,0-49.9,0c16.8,0,33.6,0,50.4,0C248.8,124,250.3,123.6,251.5,124.6z"/>
	<path class="st66" d="M251.5,124.6c-19.7,0-39.4,0-59.6,0c1.3-1.8,2.7-1.2,3.8-1.2c17.2,0,34.3,0,51.5-0.1c1.1,0,3.3,1,3.3-1
		c0-1.4-2.1-0.8-3.3-0.8c-17.3,0-34.5,0-51.8,0c-1.4,0-2.8,0.2-4-0.6c-0.8-0.9-0.7-1.8-0.1-2.7c1.2-0.9,2.6-0.7,4-0.7
		c6.6,0,13.1,0,19.7,0c0.3,0,0.6-0.1,1-0.2c0.3-0.2,0.6-0.3,0.9-0.4c0.3,0.1,0.5,0.2,0.8,0.2c6.2-0.7,12.5-0.2,18.7-0.3
		c3.6-0.1,7.2,0,10.8,0c1.1,0,2.4,0.3,3.1-1c0.4,0,0.9,0,1.3,0C251.5,118.6,251.5,121.6,251.5,124.6z"/>
	<path class="st34" d="M191.3,83c1.3-0.8,2.7-0.6,4-0.6c17.6,0,35.1,0,52.7,0c1.4,0,2.8,0.1,4-0.6c0,0.9,0,1.7,0,2.6
		c-0.7,1.4-1.8,2-3.5,2c-18-0.1-35.9-0.1-53.9,0c-1.2,0-2.3,0-3.4-0.6C190.6,84.7,190.6,83.8,191.3,83z"/>
	<path class="st67" d="M191.3,118.2c0,0.9,0,1.7,0,2.6c0,2.1,0,4.3,0,6.4c0,3.4,0,6.8,0,10.2c-0.3,2.1,0.7,4.4-0.7,6.4
		c-0.7-0.8-0.9-1.7-0.9-2.7c0-6.9-0.1-13.8,0-20.7c0-0.6,0.1-1.3,0.5-1.8C190.5,118.1,190.9,118,191.3,118.2z"/>
	<path class="st34" d="M252.1,73.4c-0.2,0-0.4,0-0.6,0c-1.2-1.5-1-3.2-0.3-4.9c0.3-0.4,0.6-0.4,1-0.2c0,0,0,0,0,0
		C252.7,70,251.9,71.7,252.1,73.4z"/>
	<path class="st68" d="M129.3,41.5c20.9,0,41.8,0,62.7,0c0,0.2,0,0.4,0,0.5c-20.9,0-41.8,0-62.7,0C129.3,41.8,129.3,41.7,129.3,41.5
		z"/>
	<path class="st69" d="M5.8,60.6c0-2.8,0-5.5,0-8.3c2.1-1.2,4.3-0.9,6.6-0.9c47.1,0,94.2,0,141.4,0c30.5,0,61,0,91.5,0
		c1.4,0,2.8,0.1,4.1-0.2c2.3-1.1,0.5-3.9,2.2-5.3c1.4,3.9,0.4,7.9,0.5,11.9c0,0.9,0,1.9,0.1,2.8c-0.9,2.4,0.3,5-0.7,7.4
		c-0.6,1.4-1.8,1.7-3.1,1.9c-1.4,0.1-2.8,0.1-4.2,0.1c-77,0-154,0-231,0c-1.5,0-3,0.1-4.5-0.1c-2.8-0.4-3.2-1.1-2.3-4.1
		c0-0.2,0-0.4,0-0.6C5.6,63.7,6.6,62,5.8,60.6z"/>
	<path class="st70" d="M251.5,45.9c-0.3,2.1,0.7,4.4-0.6,6.4c-1.1-0.6-2.3-0.3-3.4-0.3c-79.7,0-159.4,0-239.2,0
		c-0.8,0-1.7,0.2-2.5-0.3c0-2.4-0.2-4.7,0.6-7c1.5-0.4,2.9-0.8,4.5-0.6c1.1,0.6,2.3,0.3,3.4,0.3c76.4,0,152.8,0,229.2,0
		c1.1,0,2.3,0.3,3.4-0.3C249,43.4,250.2,44.7,251.5,45.9z"/>
	<path class="st71" d="M247,44c-0.9,1-2.2,0.6-3.3,0.6c-76.5,0-153,0-229.5,0c-1.1,0-2.4,0.4-3.3-0.6C89.6,44,168.3,44,247,44z"/>
	<path class="st72" d="M251.5,67.6c0.3-2.3-0.7-4.8,0.6-7c0,2.6,0,5.1,0,7.7c-0.2,0-0.4,0-0.6,0c-0.2-0.1-0.2-0.3-0.2-0.4
		C251.4,67.7,251.4,67.6,251.5,67.6z"/>
	<path class="st73" d="M252.8,198.2c-0.2,0-0.4,0-0.6,0c-1.7-0.3-1-1.6-1-2.5c0.1-2.4,0.2-4.8,0-7.2c-0.2-1.4-0.9-2.9,0.6-4
		c0.4-0.1,0.7,0,1,0.2C252.8,189.2,252.8,193.7,252.8,198.2z"/>
	<path class="st55" d="M252.8,184.7c-0.2,0-0.4,0-0.6,0c-1.7-3.2-0.9-6.5-0.4-9.8c0.1-0.1,0.3-0.3,0.4-0.4c0.2,0,0.4,0,0.6,0
		C252.8,177.9,252.8,181.3,252.8,184.7z"/>
	<path class="st74" d="M251.5,67.6c0,0.2,0,0.4,0,0.6c0,1.7,0,3.4,0,5.1c0,4.5,0,4.5-4.4,4.5c-78.9,0-157.9,0-236.8,0
		c-1.8,0-3.7,0.4-4.5-1.9c-0.5-3.4-0.5-6.8,0-10.2c0.2,0,0.4,0,0.6,0C6,68.2,7,69,9.6,69c79.4-0.1,158.8-0.1,238.2,0
		C249.2,68.9,250.6,69,251.5,67.6z"/>
	<path class="st75" d="M5.8,51.6c80.4,0,160.8,0,241.1,0c1.3,0,2.8-0.5,4,0.6c-79.9,0-159.8,0-239.7,0c-1.8,0-3.6,0-5.3,0
		C5.8,52.1,5.8,51.8,5.8,51.6z"/>
	<path class="st76" d="M5.8,65.7c0,3.4,0,6.8,0,10.2c0,1.7,0,3.4,0,5.1c0.3,1.5,1,3,0.9,4.6c-0.2,4.3,0.7,8.6-0.5,12.9
		c-0.2,0.4-0.6,0.5-1,0.5c0-2.8,0-5.5,0-8.3c0-7.2,0-14.4,0-21.6C5.1,67.9,4.7,66.7,5.8,65.7z"/>
	<path class="st74" d="M5.8,60.6c1.2,1.3,0.4,3,0.6,4.5C5.2,63.7,6,62.1,5.8,60.6z"/>
	<path class="st77" d="M5.1,99c0.2,0,0.4,0,0.6,0c0.1,0.1,0.3,0.3,0.4,0.4c0.9,3.5,0.4,7,0.5,10.5c-0.1,3.2,0,6.3,0,9.5
		c-0.5,3.7,0.7,7.6-0.6,11.3c-0.3,0.4-0.6,0.5-1,0.3c0-1.9,0-3.8,0-5.8C5.1,116.5,5.1,107.7,5.1,99z"/>
	<path class="st78" d="M5.1,131c0.2,0,0.4,0,0.6,0c0.6,0.6,0.8,1.3,0.9,2.1c0,2.3,0,4.6,0.1,6.9c-0.1,2.7,0,5.4,0,8.1
		c-0.1,0.8-0.2,1.6-0.9,2.1l-0.3,0c0,0-0.3,0-0.3,0C5.1,143.8,5.1,137.4,5.1,131z"/>
	<path class="st79" d="M67.2,6.8c0,10.4,0,20.8,0,31.3c-1-0.7-0.6-1.5-0.6-2.2c0-8.7,0-17.4,0-26.1C66.6,8.8,66.2,7.7,67.2,6.8
		C67.2,6.8,67.2,6.8,67.2,6.8z"/>
	<path class="st55" d="M252.1,187.9c0,3.4,0,6.8,0,10.2c0.3,2-0.5,3.8-0.6,5.8c-0.1,1.5-1.4,1.4-2.4,1.6c-2.3,0.5-4.6,0.7-7,0.7
		c-31.1,0-62.1,0-93.2,0c-2.7,0-5.6,0.3-7.7-2.1c-0.6-0.8-0.7-1.8-0.9-2.8c0.6-1.5,1.2-3,1.8-4.5c1.1-0.5,0.8-1.9,1.5-2.7
		c0.5-0.9,0.5-2.1,1.9-2.2c32.7,0,65.3,0,98,0c1.1,0,2.1,0,3.2,0c2,0.1,3.6-0.3,4-2.7C250.8,188.7,251.1,187.9,252.1,187.9z"/>
	<path class="st22" d="M141.4,202.6c0.1,1.1,0.7,1.6,1.7,2c1.4,0.5,2.9,0.6,4.4,0.6c32,0,63.9,0,95.9,0c2.7,0,5.4-0.4,8-1.3
		c0.9,2.6-0.5,5.1,0,7.7c-1.1,1-2.5,1-3.9,1c-35.8,0-71.7,0-107.5,0c-1.6,0-3.2,0.1-4.4-1.3c-1-1.7,0.7-2.5,1.2-3.7
		c0.1-1.6,1.1-2.5,2.1-3.6C139.9,203.7,139.9,201.6,141.4,202.6z"/>
	<path class="st73" d="M135.7,210.3c1,1.9,2.8,1.3,4.3,1.3c37.2,0,74.4,0,111.6,0c0,0.6,0,1.3,0,1.9c-0.9,0.8-2,0.6-3.1,0.6
		c-37.7,0-75.4,0-113.2,0c-1.3,0-3.3,0.6-2.9-2c-0.3-1.1,0.9-1.2,1.2-1.8C134.3,209.9,135,209.8,135.7,210.3z"/>
	<path class="st22" d="M132.4,212.1c0.4,2.1,2.1,1.4,3.4,1.4c14.1,0,28.1,0,42.2,0c24.5,0,49,0,73.5,0c-0.5,2.1-2.2,1.2-3.4,1.2
		c-33.4,0-66.7,0-100.1,0c-4.8,0-9.6,0-14.4,0c-1,0-2.2,0.4-3-0.6c-0.6-0.6-0.5-1.2,0-1.7C131.2,212.3,131.8,212.2,132.4,212.1z"/>
	<path class="st80" d="M115.9,219.3c1.6-1.4,3.7-1.4,5.5-2C120.5,220.5,118.1,219.6,115.9,219.3z"/>
	<path class="st81" d="M130.6,212.4c0,0.6,0,1.2,0,1.7c-0.9,0.6-1.8,0.5-2.6,0C128.8,213.6,129.7,213,130.6,212.4z"/>
	<path class="st82" d="M109.2,220.5c1.5-0.9,3.1-0.7,4.7-0.5c-1,0.8-2,1.1-3.2,0.6C110.2,220.5,109.7,220.5,109.2,220.5z"/>
	<path class="st83" d="M123.5,216.3c0.8-0.3,1.5-1.2,2.5-0.8C125.4,216.4,125.1,218.4,123.5,216.3z"/>
	<path class="st31" d="M5.8,150.2c0-0.6,0-1.3,0-1.9c1,0,1.3,0.7,1.4,1.4c0.2,3.1,2.2,3.3,4.7,3.3c17,0,34.1,0,51.1,0
		c10,0,20,0,30,0c1.4,0,2.8,0,4.1,0.5c0.5,0.2,1,0.5,1.4,0.9c0.4,0.4,0.8,0.6,1.3,0.9c0.8,1.9,2.8,2.9,3.9,4.5
		c-0.2,0.6-0.1,1.3-0.8,1.6c-1.6,0.8-3.4,0.2-5,0.8c-0.4,0.2-0.8,0.4-1.3,0.3c-1.6-0.3-3.2-0.2-4.8,0.3c-0.3,0.1-0.5,0.1-0.8,0.2
		c-0.6,0.1-1.2,0-1.8,0.2c-0.1,0.2-0.2,0.4-0.1,0.6c-0.6,0.5-1.3,0.6-2.1,0.5c-1.1-0.6-2-0.1-3,0.2c-0.7,0.2-1.6,0.1-2,0.9
		c-2,0-3.5,1.7-5.6,1.6c-1-1.8-2.6-1-4-1c-20.5,0-41.1,0-61.6,0c-4.2,0-4.6-0.6-4.7-4.9c0-1.3,0.3-2.6-0.3-3.8
		C5.8,154.9,5.8,152.5,5.8,150.2z"/>
	<path class="st62" d="M5.8,99c0-4.5,0-9,0-13.4c0.9-0.5,1.8-0.4,2.8-0.4c22.1,0.1,44.2,0,66.3,0c1.2,0,2.3,0,3.5,0.2
		c1.6,0.3,2.2,1.2,1.7,2.7c-5.1,3.2-9.2,7.5-12.2,12.8c-2.5-0.8-5-0.9-7.5-0.9c-16.2,0-32.5,0-48.7,0c-1.6,0-3.2,0.2-4.7-0.3
		C6.4,99.5,6.1,99.3,5.8,99L5.8,99z"/>
	<path class="st84" d="M5.8,132.9c0-0.6,0-1.3,0-1.9c0-3.8,0-7.7,0-11.5c1.9,0.4,1.2,2,1.6,3.2c0.5,1.3,1.7,1.1,2.7,1.1
		c17.6,0,35.3,0.1,52.9-0.1c0.3-0.1,0.7-0.1,1.1-0.1c2,0.4,0.9,2.8,2.3,3.6c1.9,4.1,3.6,8.5,7.2,11.5c-0.5,1.9-1.7,0.9-2.4,0.4
		c-1.9-1.2-4-1.3-6.2-1.3c-17.5,0-35,0-52.4,0c-1.6,0-3.2-0.1-4.7,0.6c-1.5,0.7-1.8,0-1.8-1.4C6,135.6,6.4,134.2,5.8,132.9z"/>
	<path class="st59" d="M5.8,132.9c1.3,1.5,0.2,3.3,0.9,5.2c0.7-1.5,2-1.4,3.3-1.4c19.2,0,38.5,0,57.7,0c1.6,0,2.9,0.2,4,1.5
		c0.5,0.6,1.1,1.6,2,0.4c2.8,2.4,6.5,3.3,9.6,5.1c0.8,1.3,3.5,0,3.4,2.6c-0.2,0.4-0.4,0.7-0.7,0.9c-1.4,0.9-3.1,0.8-4.7,0.8
		c-23.4,0-46.8,0-70.2,0c-1,0-1.9,0-2.9-0.2c-1.5-0.2-2.2-1-2.2-2.6c0-1.8,0.4-3.6-0.3-5.4C5.8,137.6,5.8,135.2,5.8,132.9z"/>
	<path class="st85" d="M125.5,178.2c0.7,0.6,1.6,0.8,1.9,1.7c1.3,1.6,1.9,3.5,2.6,5.4l0,0c0.2,0.3,0.2,0.7,0,1.1
		c-0.5,2.1,0.5,4.5-0.8,6.5c-1.7,1.4-3.8,1.2-5.8,1.2c-14.4,0-28.7,0-43.1,0c-3.9,0-3.9,0-3.2,3.7c0.2,1,0.4,1.9-0.5,2.7
		c-1.6-1.2-2.7-2.8-3-4.8c0.2-2.2-0.4-4.2-0.7-6.4c0.2-2.6,1-5,2.5-7c0.8-0.4,1.4-1.1,1.9-1.8c0.8-0.9,1.6-1.9,3-1.8
		c12.9,0.1,25.8,0,38.7,0C121.2,178.6,123.4,178.6,125.5,178.2z"/>
	<path class="st64" d="M5.8,99c0.2,0,0.4,0,0.6,0c1,3.1,3.3,3.5,6.2,3.5c16.5-0.1,33,0,49.6-0.1c3.5,0,3.5,0,3.2,3.2
		c1.1,0.8,0.6,1.6,0,2.5c-1.1,0.6-0.1,1.7-0.7,2.5c-0.1,0.3-0.3,0.6-0.4,0.9c-0.6,1.6,0.3,3.6-1.6,4.7c-1.4,0.5-2.9,0.4-4.4,0.4
		c-17,0-34,0-51,0c-1.4-0.1-1.2-1.1-1.3-2.1c-0.1-1.6,0.4-3.2-0.3-4.7C5.8,106.2,5.8,102.6,5.8,99z"/>
	<path class="st60" d="M5.8,139.9c1,0.8,0.6,2,0.6,3c0.1,4,0.1,4,4.2,4c23.8,0,47.6,0,71.4,0c1.5,0,3,0.2,4.3-0.6
		c0.9-0.7,2.4-0.1,3.2-1.2c0.9-0.1,1.9-0.1,2.7,0.5c-0.1,0.4,0,0.7,0.5,0.7c6,0,6,0,5.8,6c0,0.8,0.1,1.7-0.6,2.4
		c-1.4-0.9-2.9-0.6-4.3-0.6c-27.4,0-54.9,0-82.3,0c-4.5,0-4.5,0-4.9-4.4c0-0.5-0.4-0.9-0.6-1.4C5.8,145.5,5.8,142.7,5.8,139.9z"/>
	<path class="st62" d="M130.4,86.8c0.8-0.5,1.8-0.6,2.7-0.5c0.8,0.2,1.7,0.7,2.4-0.2c0.7-0.4,1.4-1,2.1-0.1c13-1.8,26-0.4,39-0.8
		c1.1,0,2.3-0.3,3.4,0.4c1.1,4.4,1,8.9,0.1,13.3c-1.4,1.3-3.2,1-4.9,1c-10.7,0-21.3,0-32,0c-1.6,0-3.2-0.3-4.5,1.1
		c-0.2,0.3-0.5,0.5-0.8,0.6c-2-0.3-1-2.5-2.2-3.3c-1.5-4-3.7-7.4-7.8-9.2c-0.5-0.2-1.2-1-1.1-1.4c0.2-0.8,1-0.9,1.8-0.9
		c1,0.4,2.1,0.2,2.8,0.2C131.3,87.4,130.8,87.2,130.4,86.8z"/>
	<path class="st86" d="M59.7,179c-17.3,1.3-34.5,0.2-51.8,0.5c-0.7,0-1.4-0.4-2.1-0.6c0-4.7,0-9.4,0-14.1c0,0,0,0,0,0
		c1.7,0.2,1.5,1.6,1.6,2.7c0.2,2.1,1.3,2.7,3.2,2.7c2.7,0,5.3,0,8,0c13.6,0,27.2,0,40.8,0c1.6,0,3.2-0.2,4.7,0.6
		c0.9,0.4,2.2,1,0.7,2.3C62.8,175,61.8,177.4,59.7,179z"/>
	<path class="st55" d="M129.9,186.1c0-0.3,0.1-0.5,0.1-0.8c2.1,4.5,0.3,11.5-3.8,14.8c-0.8,0.9-1.5,1.8-2.8,1.9
		c-0.8,0.3-1.7,0.3-2.5,0.3c-13.5,0.1-26.9,0-40.4,0c-0.9,0-1.7-0.2-2.5-0.4c-0.4-0.6-0.9-1.1-1.3-1.7c0.4-2.1-1.1-3.6-1.5-5.4
		c-0.3-1.4-0.5-2,1.5-2c16.1,0.1,32.2,0.1,48.3,0.1c1.5,0,2.9-0.3,4.4-0.7C130.1,190.3,129.1,188.1,129.9,186.1z"/>
	<path class="st37" d="M64.6,173.2c0.2-2.2-1.5-1.8-2.7-1.8c-5.3-0.1-10.6,0-15.9,0c-11.9,0-23.8-0.1-35.7,0.1c-3,0-4.4-0.6-3.9-3.8
		c0.1-0.9,0.3-1.9-0.6-2.7c0-2.6,0-5.1,0-7.7c1.2,1.4,0.6,3.1,0.6,4.6c-0.1,2.4,0.9,3.1,3.2,3.1c10.3-0.1,20.6,0,30.9,0
		c10.9,0,21.9,0,32.8,0c1.7,0,2.7,0.3,3,2.1C72.5,169,68.5,171.1,64.6,173.2z"/>
	<path class="st64" d="M118.5,111.6c0.5,0.6,0.5,1.4,0.4,2.1c-0.3,0.6-0.2,1.2-0.5,1.8c-0.3,0.7-0.8,1.1-1.5,1.1
		c-9.2-0.1-18.5,0-27.7,0c-0.9,0-1.9-0.3-2.7,0.5c-0.3,1.3,0.5,2.5,0.6,3.7c-0.1,0.8,0.1,1.8-1.2,1.8c-0.2-0.4-0.5-0.8-0.7-1.1
		c-0.3-1.1-0.3-2.4-1.1-3.3c-0.4-0.6-0.8-1.2-0.7-2c0.3-0.3,0.3-0.7,0.2-1.1c0-0.3,0.1-0.5,0-0.8c0,0.3-0.1,0.6-0.3,0.8
		c-0.5-0.8-0.7-1.7-0.5-2.7c0.3-0.4,0.4-0.9,0.5-1.3c0.2-1.8-0.2-3.7,0.3-5.5c0.4-2.4,2-3,4.1-3c8.3,0,16.6,0.1,24.9-0.1
		c1.5,0,2.4,0.5,2.9,1.9c0.7,1.6,1.4,3.1,1.8,4.8c0.1,0.3,0.2,0.6,0.3,1c0.3,0.6,0,1.4,0.4,2C118.1,111.8,118.3,111.7,118.5,111.6z"
		/>
	<path class="st32" d="M179.8,136.7c-15.9,0-31.8,0-47.6,0c-1.9,0-3.8-0.1-5.7-0.7c2.9-2.4,4.7-5.7,7.1-8.5c2.2,0.5,4.4,0.6,6.6,0.6
		c11.6,0,23.1,0,34.7,0c1.7,0,3.4-0.2,4.9,0.8C180.7,131.5,180.9,134.1,179.8,136.7z"/>
	<path class="st86" d="M125.5,178.2c-0.2,1.5-1.3,1.4-2.4,1.4c-13.6,0-27.3,0-40.9,0c-1,0-1.9-0.2-2.8-0.7c-0.3-1.5,1.2-1.8,1.9-2.6
		c0.2-1.1,1-1.6,2-1.8c1.1-0.6,2.6-0.5,3.2-1.9c1-1.4,2.8-0.4,3.9-1.3c0.9-0.5,1.9-0.3,2.8-0.6c1.2,0,2.3-0.2,3.4-0.5
		c0.3-0.1,0.7-0.1,1-0.1c3.8-0.4,7.6-0.3,11.4-0.1c1.5,0,3,0.7,4.6,0.6C118.6,171.5,122.3,174.3,125.5,178.2z"/>
	<path class="st65" d="M101.8,137.3c-7.9-1.3-12-7-15.7-13.3c1.5-1.5,3.4-1.6,5.3-1.7c7.2,0,14.4,0,21.6,0c1.8,0,3.6,0.1,4.9,1.7
		c-0.2,5.8-5.4,12-10.8,12.8C105.4,137.4,103.5,136.7,101.8,137.3z"/>
	<path class="st87" d="M80,88.1c-0.1-2.2-1.6-1.9-3.1-1.9c-22.2,0-44.5,0-66.7,0c-1.5,0-3,0.2-4.4-0.6c0-1.5,0-3,0-4.5
		c0.7,0.6,0.9,1.4,2.3,1.4c25.2-0.1,50.4-0.1,75.6-0.2c2.1,0,1.8,2.1,3.3,2.1C84.7,85.6,82.4,86.9,80,88.1z"/>
	<path class="st88" d="M78,202.1c1.3-0.8,2.6-0.7,4-0.7c14,0,28.1,0,42.1,0c0.4,0.7-0.3,0.9-0.6,1.4c-0.2,0.2-0.4,0.4-0.6,0.6
		c-0.3,0.2-0.5,0.4-0.7,0.6c-1.6-0.3-1.2,2.7-3.1,2c-1.3,0.8-2.7,1.2-3.9,2c-1.6,1.5-3.5,1.9-5.5,1.9c-0.4,0.1-0.8,0.2-1.3,0.2
		c-1.3-0.4-2.5-0.2-3.8,0.3c-0.4,0.2-0.9,0.3-1.3,0.1c-1.9-0.2-3.8,0-5.7-0.1c-0.3,0-0.6,0-1-0.1c-1.2-0.4-2.4-0.6-3.7-0.6
		c-0.9,0.2-1.8-0.7-2.7,0c-3.8-0.5-6.7-2.9-9.6-5.1c-0.2-0.2-0.5-0.4-0.7-0.6C79.1,203.5,78.4,202.9,78,202.1z"/>
	<path class="st89" d="M65.4,105.7c-0.1-2-1.1-2.3-3.1-2.3c-17.2,0.1-34.3,0.1-51.5,0.1c-4.4,0-4.4,0-4.4-4.5c19.2,0,38.4,0,57.6,0
		c1.7,0,3.3-0.1,3.8,1.9C67.3,102.6,67.1,104.6,65.4,105.7z"/>
	<path class="st72" d="M179.8,85.6c-1.1,0.6-2.2,0.7-3.4,0.6c-11.2-0.1-22.4-0.1-33.5-0.3c-1.8,0-3.5,2.2-5.2,0.1
		c0.4-0.2,0.7-0.4,1.1-0.5c1-0.2,2.1,0,2.7-1c1.6-0.6,2.8-1.4,1.9-3.4c-0.2-0.4-0.1-0.8,0.3-1c0.9-0.5,1.8-0.5,2.8-0.5
		c10.9,0,21.7,0,32.6,0c1,0,1.9-0.1,2.7,0.6c0.3,0.3,0.5,0.7,0.6,1c0.7,8.2,0.3,16.4,0.2,24.6c0,0.8-0.2,1.5-0.7,2.1
		c-0.3,0.3-0.7,0.3-1,0c-1.2-2-0.8-4.2-0.6-6.2c0.3-5.6,0.1-11.3,0.2-16.8C180.2,85,180.2,85.4,179.8,85.6z"/>
	<path class="st65" d="M179.8,129.1c-14,0-27.9,0-41.9,0c-1.5,0-3.5,0.8-4.3-1.5c1.7-1.5,1.2-4,2.6-5.6c0.8,1.5,1.9,1.8,3.6,1.8
		c11.9-0.1,23.8-0.1,35.7,0c1.5,0,3-0.3,4.3,0.7C180.6,126,180.8,127.5,179.8,129.1z"/>
	<path class="st90" d="M84.5,98.3c1.4-5,4.9-7.9,9.6-9.5c0.4,0.2,0.8,0.3,1.2,0.5c1.7-0.1,3.4,0.1,5.1-0.1c0.3-0.1,0.6,0,0.8,0.2
		c3-0.4,4.9,1.6,7,3.4c0.9,1.2,1.9,2.2,3.1,3c0,0.7,1.3,0.6,0.9,1.5c0.2,2.3-1.6,2.5-3.1,2.6c-7.5,0.2-15.1,0.1-22.6,0
		C85.4,99.9,84.6,99.5,84.5,98.3z"/>
	<path class="st91" d="M84.5,98.3c1.4,1,3.1,0.6,4.6,0.6c6.5,0.1,12.9,0,19.4,0c1.5,0,3.1,0.2,3.7-1.7c3,2.3,3.6,5.9,5,9.2
		c0.2,1.4,0.9,2.7-0.1,4.1c-1.2-2.3-1-5.9-3.1-7c-2.1-1-5.2-0.1-7.8-0.1c-6.1,0-12.1,0.1-18.2-0.1c-2.2-0.1-3.5,0.5-4.2,2.6
		c-0.4-0.1-0.7-0.3-0.8-0.7c0-0.3,0-0.5,0.2-0.7C82.8,102.4,83.1,100.3,84.5,98.3z"/>
	<path class="st66" d="M86.4,120.7c-0.4-1.1-0.9-2.1-1.3-3.2c0.8-0.7,1.7-0.9,2.6-0.9c9.7,0.1,19.3-0.3,29,0.2
		c1,0.3,1.5,0.9,1.7,1.9c0.1,0.5,0.3,1,0.6,1.4c0.1,0.4-0.1,0.6-0.5,0.7c-0.2,0.2-0.5,0.3-0.8,0.4c-0.6,0.2-1.2,0.5-1.8,0.8
		c-5.7,0.8-11.4,0.2-17.1,0.4c-3,0.1-5.9,0-8.9,0C88.6,122.3,87.2,122.2,86.4,120.7z"/>
	<path class="st92" d="M86.4,120.7c10.2,1.1,20.5,1.1,30.7,0c0.8,0.6,0.5,1.6,0.8,2.4c0.1,0.3,0,0.6-0.1,0.8c0,0,0.1,0,0.1,0
		c-9.4-1.6-18.8-0.4-28.2-0.7c-1.2,0-2.2,1.5-3.6,0.7c-0.4-0.4-0.6-0.8-0.3-1.4C86.5,122.2,86.4,121.4,86.4,120.7z"/>
	<path class="st66" d="M179.8,124.6c-14.6,0-29.2,0-43.7,0c0-0.4,0.1-1.5,0.2-2.7c-0.3-0.8,0.5-1.2,0.7-1.8c1-0.1,1.2,0.7,1.6,1.4
		c0.9,1.4,2.3,0.9,3.5,0.9c10.9,0,21.9,0,32.8,0c1.7,0,3.4-0.3,4.8,1.1C180,123.8,180,124.2,179.8,124.6z"/>
	<path class="st93" d="M143.3,80.4c0,0.2,0,0.4,0,0.6c-13.2,0-26.5,0-39.7,0c0-0.5,0.2-0.8,0.6-1c8.2-0.5,16.4-0.1,24.6-0.2
		c3.7-0.1,7.4,0,11.2,0C141.1,79.8,142.4,79.5,143.3,80.4z"/>
	<path class="st94" d="M103,161.1c0-0.5,0.1-1,0.6-1.3c1.4,1.9,1.5,3.1-1.5,3.1c-3.3,0-6.7,0.4-10,0.6c-0.4-0.4-1-0.2-1.4-0.5
		c-0.1-0.3,0-0.5,0.2-0.7c0.2,0,0.4,0,0.7,0c1.7-0.5,3.4-0.4,5,0c0.2-0.2,0.5-0.4,0.7-0.6C99.1,160.8,101.2,162,103,161.1z"/>
	<path class="st82" d="M96.6,209.7c0.2,0,0.4,0,0.6,0c2.1,0.9,4.3-0.2,6.4,0.6c0.2-0.2,0.5-0.4,0.7-0.6c1.3-0.5,2.5-0.5,3.8,0
		c0.5,0,1,0.1,1.6,0.1c-5.6,1.9-11.2,1.7-16.9,0.5c-0.2-0.4-0.1-0.6,0.2-0.8C94.2,209.5,95.5,209.1,96.6,209.7z"/>
	<path class="st95" d="M137.6,121.4c0-0.5-0.1-1-0.6-1.3c-0.4-0.4-0.2-0.9,0-1.3c0.9-2.4,0.9-4.9,0.8-7.4c-0.1-2.4-0.5-4.8,0.3-7.2
		c0.3-0.3,0.7-0.3,1,0c1.5,3.5,0.5,7.3,0.7,10.9c0,0.7,0,1.5-0.1,2.2c-0.2,1.4-0.4,2.8-1.2,4C138.2,121.6,137.9,121.6,137.6,121.4z"
		/>
	<path class="st96" d="M90.2,146.4c0.5-0.8,1.4-0.5,2.1-0.7c6.9-0.2,6.9-0.2,7,6.5c0,1,0.2,2.1,0.4,3.1c-0.4,0-0.8,0-1.1,0
		c-0.7-2.2-0.3-4.4-0.3-6.6c0-1.5-0.5-2-2-2C94.2,146.6,92.2,147,90.2,146.4z"/>
	<path class="st97" d="M138.2,104.1c0,3.8,0,7.6,0,11.4c0,1.3,0.2,2.6-1.3,3.3c0-0.4,0-0.9,0.1-1.3c0.6-1.3-0.1-2.8,0.5-4.2
		c-0.3-0.4-0.3-0.8,0-1.2c-0.7-2.2,0.1-4.5-0.5-6.7c0-0.2,0-0.5,0-0.7c0.2-0.3,0.3-0.6,0.6-0.8C137.8,103.9,138,103.9,138.2,104.1z"
		/>
	<path class="st98" d="M113.6,170.6c-1.4,0.3-3,1.3-4.2-0.5c-1.6,0.6-3.3,0.2-4.9,0.2c-0.5-0.4-0.6-0.9-0.2-1.4c0.2,0,0.4,0,0.6,0
		c1.1,0.5,2.3,0,3.4,0.5C110.2,169.2,112,169.5,113.6,170.6z"/>
	<path class="st99" d="M104.3,168.8c0,0.4,0,0.8,0,1.2c-2.5,0.9-5.2-0.3-7.7,0.6l0,0c-0.2,0.2-0.5,0.3-0.8,0.1
		c-0.5-0.2-1.1-0.3-1.4-0.9c1.1-0.7,2.4-0.7,3.7-0.6c1.4-0.5,2.9,0.1,4.2-0.5C103,168.8,103.7,168.8,104.3,168.8z"/>
	<path class="st55" d="M57.1,199.4c-2.3-3.3-1.1-7.1-1.4-10.7c0.9,0.1,0.5,0.7,0.6,1.1c0.1,0.5,0.1,1,0.1,1.6
		c0.2,0.4,0.3,0.9-0.1,1.3c0.5,1.1,0,2.4,0.5,3.6C56.9,197.3,57,198.4,57.1,199.4z"/>
	<path class="st59" d="M119,149.5c2,1,4.3,1.6,3.8,4.6C121.2,152.9,119.2,152,119,149.5z"/>
	<path class="st100" d="M64,110.5c0.2,0,0.4,0,0.7,0c0.1,0.2,0.2,0.3,0.2,0.5c0,1,0.1,2.1-0.2,3.1c0.2,1.3,0.3,2.5,0,3.8
		c0.3,1,0.3,2,0.2,3c0,0.4-0.2,0.6-0.5,0.8c-0.4,0-0.7-0.2-0.9-0.6c-0.2-0.3-0.3-0.7-0.3-1.1C63.1,116.8,63.7,113.7,64,110.5z"/>
	<path class="st101" d="M143.9,189.6c0-2.4,0-4.8,0-7.2c-0.3-0.7-0.3-1.4,0-2.1c0.7-0.2,1,0.3,1.3,0.8c0.5,3.1,0.5,6.3,0,9.4
		c-0.1,0.4-0.4,0.6-0.7,0.9C143.4,191,143.7,190.3,143.9,189.6z"/>
	<path class="st102" d="M122.8,138.5c0.9,2.6-1.5,3-2.7,4.2c-0.2-0.4-0.3-0.7-0.5-1.1C120.4,140.3,121.5,139.3,122.8,138.5z"/>
	<path class="st83" d="M101.2,89.4c-0.3,0-0.5,0.1-0.8,0.1c-1.9,0.4-3.8,0.4-5.7,0c-0.2-0.2-0.4-0.4-0.6-0.6
		C96.5,88.3,98.9,87.7,101.2,89.4z"/>
	<path class="st103" d="M143.9,189.6c0.1,0.6,0.1,1.2,0.7,1.6c0.2,0.3,0.2,0.5,0.1,0.8c-0.8,0.9,0,2.1-0.7,3c-0.9,0.4-0.5,2-1.8,1.9
		C142.7,194.4,143.3,192,143.9,189.6z"/>
	<path class="st82" d="M81.3,176.4c-0.6,0.9-1.3,1.7-1.9,2.6c-0.4,0.8-1,1.5-1.8,1.9c-0.3-0.1-0.4-0.2-0.4-0.5
		C77.8,178.3,79.1,176.9,81.3,176.4z"/>
	<path class="st103" d="M73,189.2c0.6,2.1,1.9,4.1,0.7,6.4C72.8,193.5,72.7,191.4,73,189.2z"/>
	<path class="st104" d="M144,180.2c0,0.7-0.1,1.4-0.1,2.1c-0.5-1.9-1.5-3.7-0.7-5.8c0,0,0.2-0.2,0.2-0.2
		C145.4,177.4,144.9,178.8,144,180.2z"/>
	<path class="st105" d="M118.3,143.5c0,0.3,0.1,0.7,0.1,1c0.4,1.5,0.4,3,0,4.5C116.6,147.2,117.1,145.3,118.3,143.5z"/>
	<path class="st19" d="M83.2,104.7c0,0.3,0.1,0.5,0.1,0.8c0.4,2.1,0.4,4.2,0,6.3c-0.2,0.2-0.4,0.4-0.6,0.7
		C82.6,109.8,81.7,107.1,83.2,104.7z"/>
	<path class="st103" d="M86.4,145.7c-0.8-1-2.8-0.3-3.2-1.9c1.6,0.4,3.6,0,4.6,1.9C87.3,146.1,86.9,146.1,86.4,145.7z"/>
	<path class="st106" d="M135.7,210.3c-0.7,0-1.3,0-2,0c0.7-1.3,1.5-2.5,3.2-2.8C137.2,208.8,136.1,209.4,135.7,210.3z"/>
	<path class="st83" d="M66.4,127.1c-1.8-0.4-0.8-2.3-1.8-3.2c-0.7-0.9-0.7-1.7,0.1-2.5l0,0c0.2-0.3,0.4-0.3,0.5,0
		C65.6,123.3,66,125.2,66.4,127.1z"/>
	<path class="st22" d="M130,185.3c-1.3-1.6-1.9-3.5-2.6-5.4C129.6,181.1,130,183.1,130,185.3z"/>
	<path class="st107" d="M94.5,169.9c0.6,0.1,1.2,0.2,1.5,0.8c-0.7,0.7-1.8-0.1-2.6,0.6c-1,0-2.1,0-3.1,0
		C91.5,170.1,92.9,169.9,94.5,169.9z"/>
	<path class="st89" d="M137,105.4c1.2,2.2,0.3,4.5,0.5,6.7C136.9,109.9,137.2,107.6,137,105.4z"/>
	<path class="st83" d="M119,120.1c-0.2-0.2-0.4-0.4-0.6-0.7c-0.4-1.5-0.6-2.9,0-4.4c0.2-0.4,0.4-0.8,0.6-1.3
		C119.2,115.9,119.2,118,119,120.1z"/>
	<path class="st108" d="M135.8,98.4c1.9,0.4,0.9,2.3,1.8,3.2c-0.1,0.4-0.3,0.7-0.7,0.8C136.4,101,135.7,99.8,135.8,98.4z"/>
	<path class="st109" d="M111.2,95.8c-1.7-0.4-2.7-1.4-3.1-3C109.6,93.3,110.6,94.3,111.2,95.8z"/>
	<path class="st64" d="M117.1,110.5c0-1.4,0-2.7,0.1-4.1c0.9,1,0.9,2.2,1.1,3.5c-0.2,0.3-0.3,0.6-0.6,0.8
		C117.4,110.8,117.2,110.7,117.1,110.5L117.1,110.5z"/>
	<path class="st110" d="M101.8,137.3c1.7-1.1,3.5-0.3,5.3-0.5C105.4,138,103.6,137.4,101.8,137.3z"/>
	<path class="st99" d="M86.4,172.6c-0.2,2.1-1.7,1.9-3.2,1.9C84.1,173.6,85.2,173,86.4,172.6z"/>
	<path class="st88" d="M115.2,207.9c1-1.2,2.4-1.8,3.9-2C118.3,207.4,116.9,207.9,115.2,207.9z"/>
	<path class="st111" d="M77.1,180.3c0.1,0.2,0.3,0.3,0.4,0.5c-0.2,1.2-1,1.4-2,1.3C75.7,181.3,76.1,180.5,77.1,180.3z"/>
	<path class="st112" d="M118.4,149c0-1.5,0-3,0-4.5c0.5,0.3,0.6,0.7,0.6,1.2c0,1.2-0.1,2.4-0.1,3.5
		C118.7,149.3,118.5,149.2,118.4,149z"/>
	<path class="st113" d="M86.4,145.7c0.5,0,0.9,0,1.4,0c0.4-0.7,1.1-0.8,1.8-0.5c-0.5,2-2.1,0.9-3.2,1.2
		C86.4,146.1,86.4,145.9,86.4,145.7z"/>
	<path class="st114" d="M90.8,162.9c0.5,0,1,0.1,1.3,0.6c-1,0.1-2,0.1-3,0.2c-0.5-0.2-1-0.5-1.4-0.7
		C88.7,162.5,89.8,162.5,90.8,162.9z"/>
	<path class="st61" d="M123.5,202.7c0.2-0.5,0.4-0.9,0.6-1.4c0.7-0.4,1.3-0.8,2-1.3C125.9,201.6,125.1,202.6,123.5,202.7z"/>
	<path class="st19" d="M141.4,202.6c-0.8,0.4-1.7,0.9-2.5,1.3c0.5-0.8,0.9-1.7,1.4-2.5C140.7,201.8,141.1,202.2,141.4,202.6z"/>
	<path class="st66" d="M83.9,118.2c1.4,0.7,1.2,2.1,1.1,3.3C84.2,120.6,83.9,119.4,83.9,118.2z"/>
	<path class="st115" d="M102.4,168.8c-1.3,1-2.8,0.4-4.2,0.5C99.5,168.6,100.9,168.7,102.4,168.8z"/>
	<path class="st116" d="M92.8,209.6c0,0.2,0,0.4,0,0.6c-0.9-0.2-1.7-0.4-2.6-0.6c0.7-0.9,1.7-0.5,2.6-0.6c0.2,0.1,0.3,0.3,0.2,0.4
		C92.9,209.6,92.9,209.6,92.8,209.6z"/>
	<path class="st96" d="M130.4,86.8c0.5,0.1,1,0.2,1.8,0.4c-1.5,0.3-2.6,0.6-3.6-0.3C129.3,86.9,129.8,86.8,130.4,86.8z"/>
	<path class="st19" d="M83.9,164.3c1-1,2.1-0.9,3.1-0.1c-0.9,0.2-1.7,0.3-2.6,0.5C84.2,164.7,84,164.5,83.9,164.3z"/>
	<path class="st95" d="M137.5,113.3c-0.1,1.4,0.5,2.9-0.5,4.2C137.1,116.1,137,114.7,137.5,113.3z"/>
	<path class="st101" d="M103.6,80.5c0,0.2,0,0.4,0,0.5c-0.8,0-1.6,0.1-2.4,0.1c-0.5-0.2-0.9-0.5-1.4-0.7c1.1-0.6,2.3-0.2,3.4-0.3
		C103.4,80.3,103.5,80.4,103.6,80.5z"/>
	<path class="st62" d="M141.4,84.4c-0.4,1.6-1.4,1.6-2.7,1C139.6,85.1,140.5,84.8,141.4,84.4z"/>
	<path class="st117" d="M117.8,124c0-0.3-0.1-0.5-0.1-0.8c-0.4-0.8-0.5-1.7,0.1-2.5c0.2,0,0.5,0,0.7,0
		C118,121.8,119.2,123.2,117.8,124z"/>
	<path class="st118" d="M83.1,115.1c0.1-0.5,0.2-1,0.4-1.7c0.4,1.2,0.6,2.1-0.2,2.9C83.2,115.9,83.2,115.5,83.1,115.1z"/>
	<path class="st117" d="M117.7,110.5c0.2-0.2,0.4-0.4,0.6-0.6c0.1,0.6,0.1,1.2,0.2,1.7c-0.2,0.5-0.5,1-0.7,1.4
		C117.3,112.2,117.3,111.4,117.7,110.5z"/>
	<path class="st119" d="M136.9,102.3c0.2-0.3,0.5-0.5,0.7-0.8c0,0,0.1-0.1,0.1-0.1c0.8,0.9,0.6,1.7,0,2.6c-0.2,0.2-0.4,0.4-0.6,0.6
		C137,103.9,136.9,103.1,136.9,102.3z"/>
	<path class="st92" d="M65.2,121.4c-0.2,0-0.4,0-0.5,0c0-1.2,0-2.4,0.1-3.6C65.2,119,65.2,120.2,65.2,121.4z"/>
	<path class="st19" d="M83.9,164.3c0.2,0.1,0.4,0.3,0.6,0.4c-0.8,0.2-1.7,0.4-2.5,0.6C82.1,164.1,83,164.2,83.9,164.3z"/>
	<path class="st101" d="M135.5,86.1c-0.7,1.2-1.5,0.9-2.4,0.2C133.9,86.2,134.7,86.1,135.5,86.1z"/>
	<path class="st115" d="M108.4,169.3c-1.2,0.1-2.4,0.5-3.4-0.5C106.1,168.7,107.3,168.8,108.4,169.3z"/>
	<path class="st58" d="M56.9,196.2c-1-1.1-0.4-2.4-0.5-3.6C56.5,193.9,56.7,195.1,56.9,196.2z"/>
	<path class="st120" d="M64.7,110.5c0.5-0.7-1.1-2.1,0.7-2.3c-0.1,0.8-0.2,1.6-0.3,2.3C65,110.8,64.8,110.8,64.7,110.5L64.7,110.5z"
		/>
	<path class="st64" d="M64.6,110.5c0.2,0,0.3,0,0.5,0c-0.1,1.2-0.3,2.4-0.4,3.5C64.7,112.8,64.7,111.7,64.6,110.5z"/>
	<path class="st19" d="M122.2,203.9c0.2-0.2,0.5-0.4,0.7-0.6C122.8,203.6,122.8,204.1,122.2,203.9z"/>
	<path class="st19" d="M79.9,204c0.2,0.2,0.5,0.4,0.7,0.6C80.1,204.7,80,204.3,79.9,204z"/>
	<path class="st121" d="M181.2,108c0.9-2.2,0.4-4.6,0.4-6.8c0.1-6.7,0.1-13.4,0.2-20.1c2.3-1.6,4.8-0.9,7.3-0.6
		c0.4,0.2,0.6,0.4,0.8,0.8l0-0.1c0.6,0.4,0.8,1,0.8,1.7c0,8,0.2,15.9,0,23.9c0,0.4-0.2,0.8-0.5,1.2c3.6,0.9,7.3,0.3,10.9,0.4
		c4.4,0.1,8.9,0.1,13.3,0c2.2-0.1,2.8,0.7,2.6,2.7c-0.2,1.9-0.2,3.8-0.2,5.7c0,0,0,0.1,0,0.1c-1,1.2-2.4,0.8-3.6,0.8
		c-6.5,0-13,0.1-19.5,0c-2.6-0.1-3.5,0.6-3.5,3.3c0.2,6.6,0.1,13.2,0,19.8c0,1,0.5,2.1-0.5,3l0.2-0.1c-2.7,1-5.5,0.7-8.3,0.2
		c-0.1-8-0.1-15.9-0.2-23.9c0-1,0.6-2.1-0.5-2.9c-0.9,0.9-2.1,0.9-3.3,0.9c-6.7,0-13.4,0-20.1,0c-1.3,0-2.6,0-3.6-1.1
		c-1.3-2.5-0.9-5.2-0.4-7.8c0.2-0.4,0.5-0.7,0.9-0.8c4.3-0.8,8.6-0.3,13-0.3C172.1,107.7,176.7,107.3,181.2,108z"/>
	<path class="st122" d="M154.3,116.2c1.1,0.9,2.5,0.5,3.7,0.5c7.7,0.1,15.4,0.2,23.2,0.2c0,8.5,0,17.1,0,25.6c0,0.2,0,0.4-0.2,0.6
		c-0.1,0.1-0.3,0-0.5,0c-0.6-5.4-0.1-10.8-0.2-16.2c0-2.6-0.5-5-1.1-7.5c-1-1.2-2.3-0.9-3.6-0.9c-5.8,0-11.5,0-17.3,0
		c-1.2,0-2.4,0.1-3.5-0.3c-0.4-0.2-0.6-0.4-0.8-0.8C153.9,116.9,154,116.5,154.3,116.2z"/>
	<path class="st19" d="M189.8,143.6c0-8.2,0.1-16.3,0-24.5c0-1.9,0.4-2.5,2.4-2.5c8.2,0.1,16.3,0,24.5,0c0,0.3,0.1,0.5,0.1,0.8
		c-4.4,0.7-8.8,0.1-13.3,0.3c-4.3,0.2-8.6-0.4-12.9,0.3c0,8.5,0,17.1-0.1,25.6C190.4,143.7,190.1,143.7,189.8,143.6z"/>
	<path class="st123" d="M180.4,118.2c0,8.3,0,16.6,0,24.9c-1.2-2-0.3-4.2-0.6-6.3c0-2.6,0-5.1,0-7.7c0-1.5,0-3,0-4.5
		c0-0.2,0-0.4,0-0.6c-0.5-0.7-0.8-1.6-0.8-2.5c0-1.1,0-2.1,0.5-3.1C179.7,118,180,118,180.4,118.2z"/>
	<path class="st101" d="M181.7,143.7c2.8-0.1,5.5-0.1,8.3-0.2C187.3,145.1,184.5,144.7,181.7,143.7z"/>
	<path class="st86" d="M144,180.2c-0.2-1.3,0.5-2.7-0.6-3.9c0-0.2-0.1-0.4,0-0.6c0.4-1.5-1.9-3.1-0.6-4c1-0.8,3-0.4,4.6-0.4
		c34.7,0,69.4,0,104.1,0c0.2,1.1,0.4,2.1,0.6,3.2c-0.1,0.2-0.3,0.4-0.3,0.6c-0.5,5.6-0.5,5.6-6.3,5.6c-31.1,0-62.2,0-93.3,0
		c-2.1,0-4.3,0-6.4,0.4c-0.4,0.1-0.8,0-1.2-0.2C144.4,180.7,144.2,180.5,144,180.2z"/>
	<path class="st89" d="M251.5,99c0,4.5,0,4.5-4.6,4.5c-16.5,0-32.9-0.1-49.4,0.1c-3.1,0-5.8,0.1-6.1-3.9c-0.7-0.9-0.7-1.7,0-2.6
		c0.7,1.8,2.1,2,3.8,1.9C213.9,99,232.7,99,251.5,99z"/>
	<path class="st124" d="M191.3,97.1c0,0.9,0,1.7,0,2.6c0,2.3,0,4.7,0,7c0.2,0.5,0,0.7-0.5,0.7c-0.6-0.5-0.5-1.2-0.4-1.8
		c0.1-8.2-0.3-16.3,0.3-24.5c0.8,0.4,0.7,1.2,0.7,1.9c0,0.9,0,1.7,0,2.6C191.3,89.4,191.3,93.2,191.3,97.1z"/>
	<path class="st125" d="M189.8,81.3c-0.2,0-0.3,0-0.4-0.2c-2.5-0.8-5.1,0.2-7.6-0.6c-1.1-0.6-2.2-0.7-3.4-0.7c-10.3,0-20.6,0-31,0
		c-1.4,0-2.7,0.4-4.1,0.7c-13.2,0-26.5,0-39.7,0c0,0,0-0.1,0-0.1c-0.3-0.1-0.5-0.3-0.6-0.6c0.9-1,2.2-0.6,3.3-0.6
		c47.1,0,94.1,0,141.2,0c1.1,0,2.4-0.4,3.3,0.6c-1.1,0.6-2.3,0.3-3.4,0.3c-18,0-35.9,0-53.9,0c-1.1,0-2.3-0.3-3.4,0.3
		C190,80.7,189.9,81,189.8,81.3z"/>
	<path class="st72" d="M190.1,80.4c1.1-1.1,2.4-0.6,3.6-0.6c19.1,0,38.1,0,57.2,0c-1.1,1.1-2.4,0.6-3.6,0.6
		C228.2,80.4,209.1,80.4,190.1,80.4z"/>
	<path class="st19" d="M190.6,81.1c0,7.6,0,15.3,0.1,22.9c0,1.1-0.5,2.4,0.6,3.3c8.5-0.4,17.1-0.5,25.6,0.1
		c-1.3,0.9-2.9,0.4-4.3,0.5c-7.5,0.1-15,0.1-22.5,0.1c-0.1-8.9-0.2-17.8-0.3-26.8C190.1,81.1,190.4,81.1,190.6,81.1z"/>
	<path class="st126" d="M103,79.8c0.2,0.2,0.4,0.4,0.6,0.6c-1.3,0-2.6,0-3.8,0C100.6,78.9,102,80.2,103,79.8z"/>
	<path class="st127" d="M250.2,115.6c0.5,1,0.8,1.9-0.9,1.9c-10.3,0-20.7-0.1-31-0.1c-0.3,0-0.5-0.3-0.8-0.5c0-0.2,0-0.5,0-0.7
		c0.2-0.2,0.4-0.3,0.5-0.4c0.2-0.1,0.4-0.1,0.7-0.1C229.3,115.6,239.8,115.6,250.2,115.6z"/>
	<path class="st128" d="M216.9,107.3c-8.5,0-17.1-0.1-25.6-0.1c0-0.2,0-0.4,0-0.6c7.4,0,14.9,0,22.3,0
		C214.8,106.7,216,106.2,216.9,107.3z"/>
	<path class="st129" d="M218.2,116.3c-0.2,0-0.4,0-0.6-0.1c0.3-2.5-0.6-5.1,0.6-7.6C218.7,111.1,218.7,113.7,218.2,116.3z"/>
	<path class="st67" d="M218.2,116.3c0-2.6,0-5.1,0-7.7c1.4,2.2,0.3,4.7,0.7,7C218.6,115.8,218.4,116.1,218.2,116.3z"/>
	<path class="st75" d="M190.7,118.2c0.9-1.1,2.2-0.6,3.3-0.6c7.6-0.1,15.3,0,22.9,0c-0.9,1.1-2.2,0.6-3.3,0.6c-7.4,0-14.9,0-22.3,0
		C191.1,118.2,190.9,118.2,190.7,118.2z"/>
	<path class="st58" d="M145.3,180.9c0.5-2.1,2.2-1.2,3.4-1.2c31.8,0,63.6,0,95.3,0c2,0,4.1,0.3,6.1-0.1c2.9-0.6,0.3-3.7,2-5
		c0,3.4,0,6.8,0,10.2c-1.2,1.1-0.4,2.1,0,3.2c-0.1,0.1-0.2,0.1-0.2,0.2c-1,1.4,0.4,3.5-0.9,4.5c-1.7,1.1-3.9,0.4-5.9,0.4
		c-32,0-64,0-96,0c-1.5,0-3,0.2-4.3-0.6c-0.2-0.1-0.2-0.3-0.2-0.4c0.1-0.1,0.1-0.2,0.2-0.2c0-0.2,0-0.4,0-0.6c0,0,0,0,0,0
		C145.5,187.8,144.4,184.3,145.3,180.9z"/>
	<path class="st66" d="M64,120.7c0,0.2,0,0.4,0,0.7c-1.3,1.3-3,0.9-4.5,0.9c-15.9,0-31.9,0-47.8,0c-1.4,0-2.8-0.3-4.1,0.4
		c-0.4,0.2-0.8,0.2-1.2-0.1c-0.2-1.1,0.4-2.3-0.6-3.2c0-3.2,0-6.4,0-9.6c1.6,1.9-0.4,4.5,1.3,6.4c1.3,0.5,2.7,0.3,4.1,0.3
		c15.7,0,31.5,0,47.2,0c1.5,0,3-0.2,4.4,0.4C64.4,117.9,63.1,119.6,64,120.7z"/>
	<path class="st130" d="M144.6,191.8c0,0.2,0,0.4,0,0.6c-0.1,0.9,0.3,1.9-0.6,2.6C144.2,193.9,143.6,192.7,144.6,191.8z"/>
	<path class="st131" d="M90.2,146.4c8.2,0,8.2,0,8.3,8.3c0,0.2,0,0.4,0,0.6c-0.2-0.2-0.4-0.4-0.7-0.6c0-0.1,0-0.2,0-0.3
		c-0.1-2.2,0.6-4.9-0.4-6.5c-1.2-2-4.1-0.4-6.2-0.9C90.9,146.8,90.6,146.6,90.2,146.4z"/>
	<path class="st66" d="M103,161.1c-1.8,1.4-3.9,0.2-5.8,0.6C99.1,160.4,101.1,161.4,103,161.1z"/>
	<path class="st66" d="M96.6,162.3c-1.7,0-3.4,0-5,0C93.2,161.3,94.9,161.3,96.6,162.3z"/>
	<path class="st66" d="M90.8,162.9c-1.1,0-2.1,0-3.2,0c0.9-1,2.1-0.5,3.2-0.6C90.9,162.5,90.9,162.7,90.8,162.9z"/>
	<path class="st92" d="M7,122.7c0.5-2.1,2.2-1.2,3.4-1.2c17.8-0.1,35.7,0,53.5,0c0.2,0,0.4,0,0.7,0c0,0.8,0,1.7-0.1,2.5
		c-0.2,0-0.4,0-0.6,0c-17.7,0-35.5,0-53.2,0C9.5,123.9,7.7,124.7,7,122.7z"/>
	<path class="st132" d="M7,122.7c1.1,1.1,2.4,0.6,3.6,0.6c16.4,0,32.8,0,49.3,0c1.4,0,2.8-0.1,4,0.6c-1.1,1.1-2.4,0.6-3.6,0.6
		c-17.4,0-34.9,0-52.3,0.1c-2.1,0-1.6-0.9-1.7-2C6.6,122.7,6.8,122.7,7,122.7z"/>
	<path class="st133" d="M129.9,186.1c-0.2,2.1,0.6,4.3-0.6,6.3C129.5,190.3,128.6,188.1,129.9,186.1z"/>
	<path class="st127" d="M63.3,117.5c-17.6,0-35.3,0-52.9,0c-1.2,0-2.9,0.9-3.4-1.2c1.1-1.1,2.4-0.6,3.6-0.6c17.6,0,35.1,0,52.7,0
		C63.8,116.3,63.8,116.9,63.3,117.5z"/>
	<path class="st134" d="M63.3,117.5c0-0.6,0-1.3,0-1.9c0.3-1.7-0.6-3.5,0.6-5.1c0,3.4,0,6.8,0,10.2
		C62.9,119.8,63.5,118.6,63.3,117.5z"/>
	<path class="st89" d="M137.6,104.1c0-0.9,0-1.7,0-2.6c0.1-2.1,1.2-2.6,3.3-2.6c13,0.1,25.9,0.1,38.9,0.1c0.9,1.6,0.9,3.1,0,4.7
		c-1,0.7-2.2,0.8-3.4,0.8c-11.7,0.1-23.4,0-35.1,0c-0.9,0-1.7-0.1-2.5-0.4c-0.2,0-0.4,0-0.6,0C138,104.1,137.8,104.1,137.6,104.1z"
		/>
	<path class="st135" d="M179.8,103.5c0-1.5,0-3,0-4.5c0-4.5,0-9,0-13.4c0.3-1.5-0.6-3.1,0.6-4.5c0.7,6,0.2,12.1,0.3,18.1
		c0,2.7,1.2,6.2-0.6,7.9c-1.7,1.6-5.1,0.4-7.7,0.5c-5.2,0.1-10.3,0-14.1,0c6.6,0.2,14.7-0.3,22.7,0.2c0,0,0.2,0.2,0.2,0.2
		c-7.6,0.7-15.2,0.1-22.8,0.3c-1.4,0-2.8-0.3-4.1,0.4c-1.3-1.8,0-2.5,1.5-2.8c1.9-0.4,3.8-0.2,5.7-0.2c4.5,0,8.9-0.1,13.4,0
		C176.9,105.7,178.6,105.2,179.8,103.5z"/>
	<path class="st127" d="M117.7,117.5c-10.9,0-21.8,0-32.6,0c-0.1-1.3,0.4-1.9,1.8-1.9c9.7,0,19.3,0,29,0.1c0.6,0,1.2,0.4,1.8,0.6
		C118.1,116.7,118.1,117.1,117.7,117.5z"/>
	<path class="st136" d="M83.2,111.7c0-2.1,0-4.2,0-6.3c0.2,0.2,0.4,0.4,0.6,0.6C83.6,107.9,84.4,109.9,83.2,111.7z"/>
	<path class="st137" d="M117.7,117.5c0-0.4,0-0.9,0-1.3c0-0.5,0.1-1,0.6-1.2c0,1.5,0,2.9,0,4.4C117.6,119,117.8,118.2,117.7,117.5z"
		/>
	<path class="st138" d="M117.7,110.5c0,0.9,0,1.7,0,2.6c-1.4-0.6-0.3-1.7-0.6-2.6C117.3,110.5,117.5,110.5,117.7,110.5z"/>
	<path class="st115" d="M96.6,170.7c2.5-1.3,5.1-0.3,7.7-0.6c1.7,0,3.4,0,5.1,0C105.2,171.4,100.9,170.3,96.6,170.7z"/>
	<path class="st115" d="M93.4,171.3c0.7-0.9,1.7-0.5,2.6-0.6c0.2,0,0.4,0,0.6,0C95.7,171.7,94.5,171.1,93.4,171.3z"/>
	<path class="st25" d="M103.6,210.3c-2.1-0.3-4.3,0.7-6.4-0.6C99.4,210,101.6,209.1,103.6,210.3z"/>
	<path class="st31" d="M108.1,209.7c-1.3,0-2.5,0-3.8,0C105.6,208.7,106.8,208.7,108.1,209.7z"/>
	<path class="st31" d="M92.8,209.6c0-0.2,0-0.4,0-0.6c1.3,0.2,2.7-0.5,3.8,0.6C95.3,209.7,94.1,209.7,92.8,209.6z"/>
	<path class="st139" d="M181,107.8c-8.5,0-17,0-25.5,0c0-0.2,0-0.4,0-0.6c6.8,0,13.7,0,20.5,0c4.4,0,4.4,0,4.4-4.5
		c0-7.2,0-14.5,0-21.7c0.8,0.6,0.6,1.5,0.6,2.3C181.1,91.6,181,99.7,181,107.8z"/>
	<path class="st93" d="M181.8,80.4c2.5,0.3,5.2-0.7,7.6,0.6c-2.6,0-5.1,0.1-7.7,0.1C181.8,80.9,181.8,80.7,181.8,80.4z"/>
	<path class="st126" d="M94.8,89.4c1.9,0,3.8,0,5.7,0C98.5,90.4,96.6,90.4,94.8,89.4z"/>
	<path class="st137" d="M117.8,120.8c0,0.8,0,1.7-0.1,2.5c-0.9-0.7-0.5-1.7-0.6-2.5C117.3,120.3,117.6,120.4,117.8,120.8z"/>
	<path class="st65" d="M179.8,121.4c0,0.9,0,1.7,0,2.6c-1.3-0.8-2.7-0.6-4-0.6c-11.7,0-23.4,0-35.1,0c-1.4,0-3.2,0.6-3.1-1.9
		c0.2,0,0.4,0,0.6,0c1.2-1.1,2.7-1,4.2-1c11,0,22.1,0,33.1,0C177.1,120.4,178.6,120.3,179.8,121.4z"/>
	<path class="st140" d="M179.8,103.5c0.4,2.5-0.5,3.3-3.1,3.3c-6.6-0.2-13.2-0.1-19.8-0.1c-1.4,0-3-0.2-2.6,2.1c0,0,0-0.1,0-0.1
		c-0.3,0.2-0.5,0.5-0.6,0.8c-0.7,2.2,0.9,4.7-1.1,6.7c-4.6,0.5-9.2,1.3-13.7-0.5c0-3.8,0-7.7,0-11.5c0.9-1,2.2-0.6,3.3-0.6
		C154.7,103.5,167.3,103.5,179.8,103.5z"/>
	<path class="st66" d="M179.8,121.4c-13.9,0-27.7,0-41.6,0c-0.2-1.4,0.4-2.6,0.6-3.8c1.6-1.3,3.4-0.9,5.2-0.9
		c2.6-0.1,5.3,0.1,7.9-0.1c0.3-0.1,0.6-0.3,0.9-0.4c0.6-0.2,0.9,0.2,1.2,0.6c0,0.3,0.1,0.6,0.1,1c7.3,0.6,14.6,0.1,21.8,0.3
		c1.2,0,2.5-0.3,3.7,0.3C179.8,119.3,179.8,120.3,179.8,121.4z"/>
	<path class="st141" d="M152.9,116.3c-0.3,1.8-1.7,1.2-2.7,1.3c-3.8,0-7.6,0-11.3,0c0-0.6,0-1.3,0-1.9c4.7,0,9.4,0,14.1,0
		c0.2,0.1,0.2,0.3,0.2,0.4C153,116.2,153,116.3,152.9,116.3z"/>
	<path class="st142" d="M145.3,180.9c-0.3,3.4,0.7,6.9-0.6,10.2c0-3.4,0-6.8,0-10.2C144.8,180.9,145.1,180.9,145.3,180.9z"/>
	<path class="st101" d="M154.1,116.6c-0.2-0.1-0.4-0.3-0.6-0.4c-0.5-2.6-0.5-5.1,0-7.7c0.2,0,0.5,0,0.7,0c0,2.5,0,5,0,7.6
		C154.2,116.3,154.1,116.5,154.1,116.6z"/>
	<path class="st75" d="M179.8,118.2c-7.4,0-14.8,0-22.2,0c-1.1,0-2.4,0.4-3.3-0.6c7.7,0,15.5,0,23.2,0c1,0,2.1-0.4,3,0.6
		C180.2,118.2,180,118.2,179.8,118.2z"/>
	<path class="st143" d="M153.6,108.6c0,2.6,0,5.1,0,7.7c-0.2,0-0.4,0-0.6,0c0-0.2,0-0.4,0-0.6C153.3,113.3,152.2,110.8,153.6,108.6z
		"/>
</g>
</svg>
