<?xml version="1.0" encoding="utf-8"?>
<!-- Generator: Adobe Illustrator 19.2.0, SVG Export Plug-In . SVG Version: 6.00 Build 0)  -->
<svg version="1.1" id="Слой_1" xmlns="http://www.w3.org/2000/svg" xmlns:xlink="http://www.w3.org/1999/xlink" x="0px" y="0px"
	 viewBox="0 0 256 256" style="enable-background:new 0 0 256 256;" xml:space="preserve">
<style type="text/css">
	.st0{fill:#E5E0DC;}
	.st1{fill:#D0CBC5;}
	.st2{fill:#875A4D;}
	.st3{fill:#DCD7D3;}
	.st4{fill:#E5E0DB;}
	.st5{fill:#F5CC57;}
	.st6{fill:#53AD6F;}
	.st7{fill:#D55554;}
	.st8{fill:#6ABEE9;}
	.st9{fill:#FEFDFD;}
	.st10{fill:#FFFFFF;}
	.st11{fill:#815043;}
	.st12{fill:#70463C;}
	.st13{fill:#242D38;}
	.st14{fill:#344556;}
	.st15{fill:#466177;}
	.st16{fill:#466076;}
</style>
<g>
	<path class="st0" d="M154.7,257.1c-42.9,0-85.7,0-128.6,0c-14.2-2.5-22.6-10.8-25-25c0-44.8,0-89.5,0-134.3
		c1.8-1.8,4.1-1.6,6.4-1.6c16.7,0,33.3-0.1,50,0c7.1,0,8.2,1.8,6.1,8.8c-7.8,26-4.4,49.8,13.7,70.8c3.8,4.4,7.5,9.1,11.4,13.4
		c6.7,7,14.2,13.1,21,20c13.6,14,27.6,27.6,41.3,41.5C152.8,252.4,155.5,253.8,154.7,257.1z"/>
	<path class="st1" d="M154.7,257.1c-13.5-13.7-27-27.5-40.6-41.1c-8.4-8.4-16.9-16.6-25.4-24.9c1.9-3.9,4.5-1.3,6.4-0.4
		c7.9,3.7,15.9,6.8,24.7,8c30.5,4.1,61.1-13,73.4-41.3c7.6-17.5,8.2-35.2,1.6-53.1c-0.9-2.6-2.7-5.1-1.4-8.1
		c1.4-1.2,3.1-1.1,4.8-1.4c0.7,0,1.4,0,2.1,0.1c16.4,0.1,32.8,0,49.2,0.1c2.6,0,5.3-0.4,7.5,1.7c0,0.4,0,0.8,0,1.1
		c-2.3,2.3-5.3,1.7-8.1,1.7c-14.7,0.1-29.4,0-45,0c7.4,7.7,14.4,14.5,21.3,21.4c8.7,8.7,17.3,17.4,26.1,26c2.3,2.3,4.3,4.7,5.7,7.7
		c0,25,0,50.1,0,75.1c-0.8,11.1-5.8,19.5-15.9,24.7c-3.3,1.7-7,1.3-10.2,2.6C205.6,257.1,180.1,257.1,154.7,257.1z"/>
	<path class="st2" d="M199.2,96.6c-0.4,0-0.8,0-1.2,0c-3.5-0.8-6.1-3-8.8-5.1c-3.1-2.8-5.3-6.5-8.1-9.5
		c-23.6-25.6-59.8-30.4-89.7-12.1c-2.9,1.8-5.9,5.7-9.5,3.5c-3.1-1.9-1.6-6.3-1.6-9.6c-0.1-18.4-0.1-36.8,0-55.2
		c0-2.6-0.5-5.4,1.6-7.5c49.3,0,98.6,0,147.9,0c10,0.7,17.5,5.4,23.2,13.6c3,4.3,2.8,9.1,4.1,13.7c0,22.4,0,44.8,0,67.1
		c-4.4,1.2-9,0.4-13.4,0.5C228.9,96.5,214,95.6,199.2,96.6z"/>
	<path class="st3" d="M81.9,1.1c-1.1,10.4-0.3,20.8-0.4,31.1c-0.1,13.8,0,27.5,0,42.4c9.4-7.5,18.8-12.8,29.5-15.4
		c30.2-7.6,60.3,3.9,77.8,29.6c0.5,0.8,1.2,1.5,1.8,2.2c1.6,1.5,3.7,2.8,2.9,5.6c6.3,13.2,9.2,26.7,7.1,41.6
		c-2.4,17-9.4,31.5-21.9,43c-16.5,15.2-35.8,22.2-58.7,19.3c-9.2-1.2-17.5-4.4-25.7-8.2c-1.7-0.8-3.2-3.1-5.5-1.1
		c-14.7-14.1-27.5-29.6-30.3-50.4c-1.7-12.5-1.3-25.4,3.9-37.4c2-4.6,0.8-5.5-3.7-5.5c-19.1,0.1-38.3,0-57.4,0c0-0.4,0-0.8,0-1.1
		c4.9-3.5,10.5-1.9,15.8-1.8c5.3-0.4,10.6-0.5,15.9,0c5.2-0.4,10.4-0.5,15.5,0c5-0.8,10.3,1,15.2-1.6c4.8-5.8,8.9-12.2,13.9-17.9
		c2-2.2,1.3-5.4,1.3-8.3c0.1-19.1,0-38.3,0-57.4c0-3-0.4-6.1,2-8.6C81.2,1.1,81.5,1.1,81.9,1.1z"/>
	<path class="st4" d="M257.1,154.7c-13.9-13.7-27.7-27.4-41.6-41c-4.9-4.9-10.1-9.5-15.1-14.3c0.3-0.5,0.6-1.1,0.9-1.6
		c18.6,0,37.2,0,55.8,0C257.1,116.8,257.1,135.8,257.1,154.7z"/>
	<path class="st5" d="M49,96.6c-5.3,0-10.6,0-16,0c-2.3-2.2-2.2-5.1-2.2-8c-0.1-26.5-0.1-53,0-79.5c0-2.8,0-5.7,2.2-8
		c5.3,0,10.6,0,15.9,0c2.2,2.3,2.2,5.2,2.2,8c0.1,26.5,0.1,53,0,79.5C51.1,91.5,51.2,94.4,49,96.6z"/>
	<path class="st6" d="M49,96.6c0-31.8,0-63.7-0.1-95.5c5.3,0,10.6,0,15.9,0c2.2,2.3,2.2,5.2,2.2,8c0.1,25.4,0,50.8,0,76.2
		c0,3.5-1.2,6.7-2,10C60,98.8,54.4,96.3,49,96.6z"/>
	<path class="st7" d="M33,1.1c0,31.8,0,63.7,0,95.5c-5.3,0-10.7,0-16-0.1c-2.1-2.1-2.1-4.8-2.1-7.4c-0.1-25.3,0-50.6,0-75.8
		c0-2.1,0.3-4.1,0.7-6.2c1.8-6,7.7-4.3,11.7-6C29.2,1.1,31.1,1.1,33,1.1z"/>
	<path class="st8" d="M65.1,95.3C65,63.9,64.9,32.5,64.9,1.1c5.3,0,10.6,0,15.9,0c0.1,23.8,0.2,47.6,0.3,71.4c0,2-0.6,3.6-2.1,5
		C73.2,82.6,69.3,89,65.1,95.3z"/>
	<path class="st2" d="M17.1,6c0,30.2-0.1,60.4-0.1,90.6c-5.3,0-10.6,0.1-15.9,0.1c0-23.5,0-47,0-70.5C2.3,19.5,4.9,13.6,9.9,9
		C11.8,7.2,13.7,4.6,17.1,6z"/>
	<path class="st9" d="M257.1,28.4c-3.4-12.1-9.8-21.4-22.3-25.7c-1.7-0.6-3.9,0.3-5.1-1.6c8.3,0,16.5,0.1,24.8-0.1
		c2.1,0,2.6,0.5,2.6,2.6C257.1,11.9,257.1,20.2,257.1,28.4z"/>
	<path class="st9" d="M17.1,6c-6.9,3.3-10.9,9.2-13.8,16c-0.6,1.5-0.5,3.3-2.1,4.3c0-7.5,0.1-15-0.1-22.5C1,1.5,1.6,1,3.7,1.1
		c7.9,0.1,15.8,0.1,23.6,0.1C24.1,3.2,20,3.2,17.1,6z"/>
	<path class="st10" d="M231,257.1c1-0.5,1.9-1.1,3-1.4c13.3-3.7,19.9-13.3,23.2-25.9c0,8.2-0.1,16.3,0.1,24.5c0.1,2.5-0.5,3-2.9,2.9
		C246.5,257,238.7,257.1,231,257.1z"/>
	<path class="st10" d="M1.1,232.1c3.2,8.1,7.6,15.2,15,20.3c3.2,2.2,7.1,2.3,10,4.7c-7.4,0-14.8-0.1-22.2,0.1
		c-2.5,0.1-3-0.5-2.9-2.9C1.3,246.9,1.1,239.5,1.1,232.1z"/>
	<path class="st11" d="M199.2,96.6c1.8-1.6,3.9-1,6-1c17.3,0,34.7,0,52,0c0,0.4,0,0.8,0,1.1C237.8,96.7,218.5,96.6,199.2,96.6z"/>
	<path class="st12" d="M193.4,96.7c-1-1.9-1.9-3.7-2.9-5.6c3.1,1,4.8,3.9,7.4,5.5C196.4,96.6,194.9,96.7,193.4,96.7z"/>
	<path class="st13" d="M208.9,72.9c-13.5,0-23.6-10.2-23.5-23.8c0-13.2,10.5-24,23.5-24.1c13.2-0.1,24.3,10.8,24.4,24.1
		C233.4,62.1,222.3,72.9,208.9,72.9z"/>
	<path class="st13" d="M73.2,128.7c0.3-30.8,25.6-55.9,56.3-55.6c30.9,0.3,55.8,25.4,55.6,56.2c-0.1,30.8-25.3,55.9-56,55.9
		C98.2,185.2,72.9,159.7,73.2,128.7z"/>
	<path class="st14" d="M220.7,49.1c-0.1,6.7-5.8,12.5-12.2,12.3c-5.5-0.2-11.6-6.4-11.7-11.9c0-5.2,5.9-12.9,12.3-12.1
		C216.5,38.2,220.8,41.9,220.7,49.1z"/>
	<path class="st14" d="M159.2,116c2.4,9.9,3.2,19.6-2.3,28.9c-6.3,10.5-15.8,16.1-27.5,16.4c-12,0.3-21.6-5.8-28-16.4
		c-12.4-20.5,2.2-45.8,26.4-48.1c5-0.5,9.6,1.8,14.5,2.3c-1.8,5.5-3.3,11-3,16.8c-2.3,1.7-4.3,0-6.5-0.4c-6.9-1.4-13,1.3-16.3,7.4
		c-2.9,5.4-1.8,11.6,2.7,16.1c4.7,4.7,11.1,5.7,16.6,2.5c5.8-3.4,8.4-9.3,7-15.9c-0.5-2.1-2-4.2-0.5-6.5
		C148.2,119.2,153.7,117.8,159.2,116z"/>
	<path class="st15" d="M159.2,116c-4.8,5.2-10.6,5.7-16.9,3.4c-2-0.3-3.1-1.4-3.4-3.4c-2.3-6.3-1.7-12.1,3.4-16.9
		c5.5-2.7,10.6-2.9,15.3,2C162,105.7,161.7,110.7,159.2,116z"/>
	<path class="st16" d="M209.6,53.1c-2.6-0.5-4.3-1.8-4.3-4.1c0-2.1,1.7-3.3,3.7-3.5c2.2-0.2,3.6,0.8,3.7,3.1
		C212.8,51.2,211.3,52.3,209.6,53.1z"/>
	<path class="st13" d="M138.9,116c1.1,1.1,2.3,2.3,3.4,3.4c5.7,12.3,1.7,22.5-10,25.2c-8.1,1.9-16.4-3.3-18.5-11.5
		c-2.1-8.2,2.7-16.8,10.5-19.3C129.6,112.2,134.3,113.7,138.9,116z"/>
</g>
</svg>
