<?xml version="1.0" encoding="utf-8"?>
<!-- Generator: Adobe Illustrator 19.2.0, SVG Export Plug-In . SVG Version: 6.00 Build 0)  -->
<svg version="1.1" id="Слой_1" xmlns="http://www.w3.org/2000/svg" xmlns:xlink="http://www.w3.org/1999/xlink" x="0px" y="0px"
	 viewBox="0 0 256 256" style="enable-background:new 0 0 256 256;" xml:space="preserve">
<style type="text/css">
	.st0{fill:#D97044;}
	.st1{fill:#E7A477;}
	.st2{fill:#E2915C;}
	.st3{fill:#DD7F48;}
	.st4{fill:#E59D6C;}
	.st5{fill:#E18D56;}
	.st6{fill:#E6A070;}
	.st7{fill:#DE844C;}
	.st8{fill:#E39460;}
	.st9{fill:#E49967;}
	.st10{fill:#DE824A;}
	.st11{fill:#E08851;}
	.st12{fill:#FEFBF9;}
	.st13{fill:#E6E5E5;}
	.st14{fill:#EEEDED;}
	.st15{fill:#E49764;}
</style>
<g>
	<path class="st0" d="M235.1,256.4c-71.8,0-143.6,0-215.5,0c-0.6-0.7-1.6-0.5-2.3-0.7c-8.6-1.7-13.8-6.9-15.9-15.4
		c-0.3-1.2-0.2-2.5-1-3.6c0-10.5,0-21,0-31.6c8.4,2.9,17,4.7,25.9,4.3c0.2,0.7,0.3,1.4,0.5,2.1c3,12,14.8,20.4,26.9,19.2
		c12.9-1.3,23-11.8,23.4-24.5c0.2-6.2-1.8-11.7-5.3-16.7c2.9-1.6,5.1-4.1,7.5-6.2c4.4-3.9,8.5-8.1,12.5-12.5c2.9-3.3,6-6.4,9-9.6
		c0.3,0.3,0.6,0.6,0.9,0.9c17,18.9,25.8,41.1,26.5,66.5c0.1,1.9,0.5,2.3,2.4,2.3c12.2-0.1,24.3-0.1,36.5,0c1.7,0,2.3-0.3,2.2-2.2
		c-0.5-20-4.6-39.2-13-57.5c-7-15.2-16.3-28.9-28.2-40.7c-0.1-0.1-0.2-0.2-0.3-0.4c0-0.1,0-0.2,0-0.4c1.8-0.5,2.7-2,3.8-3.2
		c3.4-3.8,6.9-7.5,11-10.5c11.4,11.2,20.6,24,28.1,38c12.5,23.5,18.8,48.5,19.1,75.1c0,1.4,0.4,1.7,1.8,1.7c12.4,0,24.9-0.1,37.3,0
		c1.7,0,1.9-0.5,1.9-2c-0.3-10.9-1.1-21.8-3-32.6c-3.4-19.5-9.4-38.2-18.2-56c-8.6-17.4-19.6-33.2-32.6-47.6
		c0.4-0.7,1.1-0.8,1.7-1.1c13-5.2,26.4-6.1,40.1-3.8c4.8,0.8,9.3,2.5,14,3.6c1,0.4,1.9,0.9,2.9,1.3c7.2,2.8,14,6.3,20.6,10.2
		c0,44.1,0,88.2,0,132.3c-0.8,1.1-0.6,2.4-0.9,3.6c-1.8,8.8-6.7,14.6-15.6,16.7C238.3,255.8,236.6,255.6,235.1,256.4z"/>
	<path class="st1" d="M22.2,0.4c36,0,72,0,107.9,0c-0.3,1.1-1.3,1.2-2.2,1.5c-15.9,4.5-31.8,9-47.8,13.5C68.8,18.6,57.4,21.8,46,25
		c-0.9,0.3-2,0.4-2,1.8c-4.4-0.2-8.9-0.5-13.3-0.7C26.2,26,26.2,26,26,30.3c-7,2-13.9,3.9-20.9,5.9c-1.7,0.5-3.2,0.7-4.6-0.4
		c0-4.6,0-9.1,0-13.7c0.1-0.7,0.4-1.4,0.4-2.1c1-9.3,6.5-15.9,15.6-18.4C18.3,1.2,20.3,0.9,22.2,0.4z"/>
	<path class="st2" d="M256.4,26.5c0,7,0,13.9,0,20.9c-16.6,4.7-33.2,9.3-49.8,14c-15.1,4.2-30.2,8.5-45.3,12.8
		c-0.8,0.2-1.7,0.4-1.8,1.5c-6.4-5.5-13.2-10.5-20.1-15.4c0.2-1,1.1-1.1,1.8-1.3c1.6-0.5,3.1-0.9,4.7-1.4c17-4.8,34-9.6,51-14.4
		C216.8,37.6,236.6,32,256.4,26.5z"/>
	<path class="st3" d="M26.4,209.5c-8.9,0.4-17.5-1.4-25.9-4.3c0-8.1,0-16.2,0-24.3c1.1,0.1,2.3-0.1,3.4-0.4
		c5.5-1.6,10.9-3.1,16.4-4.6c21-5.9,41.9-11.9,62.9-17.7c4-1.1,7.8-3,12.2-2.5c2,1.1,3.3,3,5,4.4c0.2,0.3,0.5,0.7,0.7,1
		c-3,3.2-6,6.4-9,9.6c-4,4.4-8.1,8.6-12.5,12.5c-2.4,2.1-4.6,4.6-7.5,6.2c-6.6-7.5-14.7-11.1-24.8-9.4c-7.9,1.3-13.9,5.8-17.8,12.6
		C26.3,197.8,25.4,203.5,26.4,209.5z"/>
	<path class="st4" d="M183,0.4c17.8,0,35.6,0,53.3,0c-0.7,1.6-2.2,1.7-3.5,2c-20.6,5.8-41.3,11.6-61.9,17.4
		c-19.4,5.5-38.8,10.9-58.2,16.5c-3.9,1.1-8.1,1.6-11.6,3.9c-7.9-3.3-16.1-5.5-24.3-8c0.3-1.4,1.6-1.5,2.7-1.8c4-1.2,8-2.3,12.1-3.5
		C121.2,18.7,151,10.3,180.7,2C181.6,1.7,182.7,1.6,183,0.4z"/>
	<path class="st5" d="M159.5,75.6c0.1-1.1,1-1.2,1.8-1.5c15.1-4.2,30.2-8.5,45.3-12.8c16.6-4.7,33.2-9.3,49.8-14
		c0,6.4,0,12.8,0,19.2c-0.9,0-1.8,0-2.7,0.3c-25.3,7.2-50.6,14.3-76,21.4c-1.3,0.4-2.2,0.9-2.4,2.3
		C170.2,85.5,165.1,80.3,159.5,75.6z"/>
	<path class="st6" d="M183,0.4c-0.3,1.2-1.4,1.3-2.4,1.5C151,10.3,121.2,18.7,91.5,27c-4,1.1-8.1,2.3-12.1,3.5
		c-1,0.3-2.3,0.4-2.7,1.8C66,29.7,55,27.8,44,26.8c0-1.4,1.1-1.5,2-1.8c11.4-3.2,22.8-6.4,34.2-9.6c15.9-4.5,31.8-9,47.8-13.5
		c0.9-0.2,1.9-0.4,2.2-1.5C147.8,0.4,165.4,0.4,183,0.4z"/>
	<path class="st7" d="M0.4,169c0-5.8,0-11.7,0-17.5c1.2,0.5,2.2,0.7,3.6,0.4c13.1-3.8,26.2-7.4,39.3-11.1c6.3-1.8,12.6-3.7,19-5.5
		c7.3,2.6,14.1,6.2,20.5,10.6c-0.4,1.2-1.5,1.2-2.4,1.5c-6.8,2-13.6,3.9-20.5,5.8c-18.6,5.2-37.3,10.5-55.9,15.7
		C2.7,169.2,1.6,169.4,0.4,169z"/>
	<path class="st8" d="M256.4,26.5C236.6,32,216.8,37.6,197,43.2c-17,4.8-34,9.6-51,14.4c-1.6,0.4-3.1,0.9-4.7,1.4
		c-0.7,0.2-1.6,0.3-1.8,1.3c-3.9-2.4-7.8-4.8-11.7-7.2c0.6-0.3,1.2-0.7,1.9-0.9c16-4.6,32.1-9.1,48.1-13.7c17.8-5,35.6-10,53.5-15
		c8.1-2.3,16.1-4.5,24.2-6.8c0.4,1.1,0.2,2.4,1,3.4C256.4,22.2,256.4,24.3,256.4,26.5z"/>
	<path class="st9" d="M101.1,40.3c3.5-2.4,7.7-2.8,11.6-3.9c19.4-5.6,38.8-11,58.2-16.5c20.6-5.8,41.3-11.6,61.9-17.4
		c1.3-0.4,2.9-0.5,3.5-2c0.1,0,0.3,0,0.4,0c0.3,0.6,0.8,0.4,1.3,0.5c4.1,0.8,8,2,11.2,4.8c-1,1-2.4,1.1-3.7,1.5
		c-17.6,5-35.2,9.9-52.9,14.8c-24,6.7-47.9,13.5-71.9,20.3c-2.7,0.8-5.6,0.9-7.9,2.9C109,43.6,105.1,42,101.1,40.3z"/>
	<path class="st10" d="M0.4,169c1.2,0.4,2.3,0.3,3.5-0.1c18.6-5.3,37.3-10.5,55.9-15.7c6.8-1.9,13.7-3.8,20.5-5.8
		c0.9-0.3,2-0.3,2.4-1.5c4.5,2.8,8.7,6,12.4,9.8c-4.3-0.6-8.2,1.4-12.2,2.5c-21,5.8-41.9,11.8-62.9,17.7c-5.5,1.5-10.9,3.1-16.4,4.6
		c-1.1,0.3-2.2,0.5-3.4,0.4C0.4,176.9,0.4,172.9,0.4,169z"/>
	<path class="st8" d="M0.4,98.6c0-5.3,0-10.5,0-15.8c1.5,0.6,2.9,0.3,4.4-0.1c2.8-0.8,5.6-1.6,8.4-2.4c11.5-3.2,22.9-6.5,34.4-9.7
		c1-0.3,2.3-0.4,2.8-1.6c1.4,0.2,2.8,0.4,4.2,0.7c8.2,1.5,16.3,3.3,24.1,6.3c-0.7,0.5-1.4,0.8-2.3,1.1c-11.1,3.1-22.2,6.2-33.3,9.4
		c-1,0.3-2.4,0.3-2.5,1.8c-3.2-0.2-6.3-0.5-9.5-0.6c-4.8-0.2-4.8-0.1-5,4.6c0,0.1,0,0.3-0.1,0.4c-6.3,1.7-12.5,3.5-18.8,5.2
		C5,98.4,2.8,99.6,0.4,98.6z"/>
	<path class="st11" d="M175.3,90.6c0.2-1.4,1.1-2,2.4-2.3c25.3-7.1,50.7-14.3,76-21.4c0.9-0.3,1.8-0.3,2.7-0.3c0,6,0,11.9,0,17.9
		c-0.2,0-0.4,0-0.6,0c-7.4,2-14.7,4.1-22.1,6.1c-0.3,0.1-0.5,0.5-0.8,0.7c-4.7-1.2-9.2-2.8-14-3.6c-13.7-2.3-27.1-1.4-40.1,3.8
		c-0.6,0.3-1.4,0.4-1.7,1.1c-0.3-0.3-0.6-0.5-0.9-0.8C175.9,91.4,175.6,91,175.3,90.6z"/>
	<path class="st11" d="M62.3,135.3c-6.3,1.8-12.6,3.7-19,5.5c-13.1,3.7-26.2,7.3-39.3,11.1c-1.4,0.4-2.5,0.2-3.6-0.4
		c0-5.1,0-10.2,0-15.4c1.2,0.7,2.4,1.1,3.8,0.7c8.1-2.4,16.3-4.7,24.5-7c0.7-0.2,1.4-0.3,1.6-1.2c4.8,0.1,9.6,0.7,14.4,1.6
		C50.7,131.3,56.6,132.9,62.3,135.3z"/>
	<path class="st9" d="M50.4,68.9c-0.5,1.3-1.8,1.3-2.8,1.6c-11.5,3.3-22.9,6.5-34.4,9.7c-2.8,0.8-5.6,1.6-8.4,2.4
		c-1.4,0.4-2.9,0.7-4.4,0.1c0-6.1,0-12.2,0-18.3c1.7,2.3,3.9,1.6,6,0.9c2.2-0.7,4.5-1.4,6.7-1.9c4.3-1.1,8.3-2.7,12.7-3.2
		c0,1.6,0.2,3.3,0,4.9c-0.1,1.6,0.5,2,2,2C35.5,67.2,43,67.7,50.4,68.9z"/>
	<path class="st5" d="M30.3,128.6c-0.2,0.8-0.9,1-1.6,1.2c-8.2,2.3-16.3,4.6-24.5,7c-1.4,0.4-2.6,0.1-3.8-0.7c0-6.8,0-13.7,0-20.5
		c1.7,2.1,3.6,1.3,5.6,0.6c1.8-0.6,3.7-1.1,5.5-1.6c4.8-1.2,9.5-2.9,14.4-3.8c0,4.3,0.1,8.5,0.1,12.8C26,128.2,26,128.2,30.3,128.6z
		"/>
	<path class="st2" d="M26,110.9c-4.9,0.8-9.6,2.5-14.4,3.8c-1.9,0.5-3.7,1-5.5,1.6c-2,0.7-3.9,1.4-5.6-0.6c0-5.7,0-11.4,0-17.1
		c2.4,1,4.6-0.2,6.8-0.8c6.3-1.7,12.5-3.4,18.8-5.2C26,98.7,26,104.8,26,110.9z"/>
	<path class="st6" d="M0.4,35.8c1.5,1.1,3,0.9,4.6,0.4c6.9-2,13.9-4,20.9-5.9c0,5.1,0,10.2,0,15.4c-0.9,0.2-1.8,0.2-2.7,0.5
		c-6.1,1.7-12.1,3.4-18.2,5.2c-1.7,0.5-3.2,1-4.6-0.5C0.4,45.8,0.4,40.8,0.4,35.8z"/>
	<path class="st4" d="M0.4,50.8c1.4,1.5,3,1,4.6,0.5c6-1.8,12.1-3.5,18.2-5.2c0.9-0.2,1.8-0.3,2.7-0.5c0,4.8,0,9.7,0,14.5
		c-4.4,0.5-8.5,2.2-12.7,3.2c-2.3,0.6-4.5,1.2-6.7,1.9c-2.2,0.7-4.3,1.4-6-0.9C0.4,59.9,0.4,55.3,0.4,50.8z"/>
	<path class="st7" d="M233,91.3c0.3-0.2,0.5-0.6,0.8-0.7c7.4-2.1,14.7-4.1,22.1-6.1c0.2-0.1,0.4,0,0.6,0c0,6.1,0,12.2,0,18.3
		c-6.6-3.9-13.4-7.4-20.6-10.2C234.9,92.2,233.9,91.8,233,91.3z"/>
	<path class="st12" d="M235.1,256.4c1.5-0.9,3.2-0.7,4.8-1c9-2.1,13.8-8,15.6-16.7c0.2-1.2,0.1-2.5,0.9-3.6c0,6.7,0,13.4,0,20.1
		c0,1.1-0.2,1.3-1.3,1.3C248.5,256.4,241.8,256.4,235.1,256.4z"/>
	<path class="st12" d="M22.2,0.4c-1.9,0.4-3.9,0.8-5.8,1.3c-9,2.5-14.6,9.1-15.6,18.4c-0.1,0.7-0.3,1.4-0.4,2.1c0-6.8,0-13.7,0-20.5
		c0-1.1,0.2-1.3,1.3-1.3C8.5,0.5,15.4,0.4,22.2,0.4z"/>
	<path class="st12" d="M0.4,236.8c0.8,1.1,0.7,2.4,1,3.6c2.1,8.4,7.3,13.6,15.9,15.4c0.8,0.2,1.7-0.1,2.3,0.7c-6,0-12.1,0-18.1,0
		c-0.9,0-1.1-0.2-1.1-1.1C0.5,249.2,0.4,243,0.4,236.8z"/>
	<path class="st12" d="M249.3,5.7c-3.2-2.9-7.1-4.1-11.2-4.8c-0.5-0.1-1,0.1-1.3-0.5c6.2,0,12.4,0,18.6,0c0.9,0,1.1,0.2,1.1,1.1
		c-0.1,6.2,0,12.4,0,18.6c-0.8-1-0.5-2.3-1-3.4C254.7,12.3,252.7,8.6,249.3,5.7z"/>
	<path class="st13" d="M176.2,91.8c0.3,0.3,0.6,0.5,0.9,0.8c13,14.4,24,30.2,32.6,47.6c8.8,17.8,14.8,36.4,18.2,56
		c1.9,10.8,2.7,21.7,3,32.6c0,1.5-0.2,2.1-1.9,2c-12.4-0.1-24.9-0.1-37.3,0c-1.4,0-1.8-0.3-1.8-1.7c-0.4-26.6-6.6-51.6-19.1-75.1
		c-7.5-14.1-16.7-26.8-28.1-38c-0.2-0.3-0.3-0.5-0.5-0.8c1.1-0.3,1.9-1,2.7-1.7c9-8.3,18.8-15.5,30-20.5
		C175.4,92.8,176,92.5,176.2,91.8z"/>
	<path class="st14" d="M26,110.9c0-6.1,0-12.2,0-18.3c0-0.1,0.1-0.3,0.1-0.4c0.2-4.7,0.2-4.8,5-4.6c3.2,0.1,6.4,0.4,9.5,0.6
		c2.4,0.3,4.9,0.7,7.3,1.1c7.3,1.2,14.5,2.7,21.5,5.2c5.2,1.8,10.5,3.6,15.6,5.8c5,2.6,10,5.2,14.9,7.8c0.1,0.1,0.1,0.3,0.2,0.3
		c10,6.1,19.2,13.4,27.5,21.6c0.1,0.1,0.2,0.2,0.3,0.2c0.1,0.1,0.2,0.2,0.3,0.4c-3,2-5,5-7.4,7.6c-6.8,7.4-12.9,15.5-20.6,22
		c-1.7-1.4-3-3.3-5-4.4c-3.7-3.8-7.9-7.1-12.4-9.8c-6.4-4.4-13.2-8-20.5-10.6c-5.7-2.4-11.6-3.9-17.6-5.1c-4.7-0.9-9.5-1.5-14.4-1.6
		c-4.3-0.4-4.3-0.4-4.3-4.9C26,119.4,26,115.2,26,110.9z"/>
	<path class="st13" d="M100.2,160.1c7.7-6.6,13.8-14.6,20.6-22c2.4-2.6,4.4-5.6,7.4-7.6c11.9,11.8,21.2,25.5,28.2,40.7
		c8.4,18.2,12.5,37.4,13,57.5c0,1.9-0.5,2.2-2.2,2.2c-12.2-0.1-24.3-0.1-36.5,0c-1.9,0-2.3-0.4-2.4-2.3
		c-0.7-25.4-9.6-47.6-26.5-66.5c-0.3-0.3-0.6-0.6-0.9-0.9C100.7,160.8,100.4,160.5,100.2,160.1z"/>
	<path class="st13" d="M26.4,209.5c-1-6-0.1-11.7,2.9-16.9c4-6.8,9.9-11.2,17.8-12.6c10.1-1.7,18.2,1.9,24.8,9.4
		c3.5,5,5.5,10.5,5.3,16.7c-0.4,12.7-10.5,23.3-23.4,24.5c-12.2,1.2-24-7.2-26.9-19.2C26.7,210.9,26.5,210.2,26.4,209.5z"/>
	<path class="st11" d="M127.6,129.9c-8.4-8.2-17.5-15.5-27.5-21.6c-0.1-0.1-0.2-0.2-0.2-0.3c0.2-0.8,0.8-1.1,1.5-1.3
		c7.8-2.2,15.4-4.6,23.3-6.4c0.6,0.4,1.2,0.8,1.7,1.2c5.6,4.2,10.6,9,15.8,13.7c0.2,0.3,0.3,0.5,0.5,0.8c-4.1,3.1-7.5,6.8-11,10.5
		c-1.1,1.2-2,2.8-3.8,3.2C127.8,129.8,127.7,129.9,127.6,129.9z"/>
	<path class="st13" d="M127.6,129.9c0.1,0,0.2-0.1,0.3-0.1c0,0.1,0,0.2,0,0.4C127.8,130.1,127.7,130,127.6,129.9z"/>
	<path class="st14" d="M142.1,115.2c-5.1-4.7-10.2-9.6-15.8-13.7c-0.6-0.4-1.1-0.8-1.7-1.2c-4.1-3.4-8.5-6.4-13.2-9
		c-0.6-0.4-1.3-0.9-1.9-1.3c-3.4-2.2-7.2-3.7-10.8-5.6c-6.4-3.6-13.2-6.2-20.1-8.4c-7.8-3-15.9-4.8-24.1-6.3
		c-1.4-0.3-2.8-0.4-4.2-0.7C43,67.7,35.5,67.2,28,67.1c-1.5,0-2.2-0.4-2-2c0.1-1.6,0-3.2,0-4.9c0-4.8,0-9.7,0-14.5
		c0-5.1,0-10.2,0-15.4c0.2-4.3,0.2-4.3,4.7-4.2c4.4,0.2,8.9,0.5,13.3,0.7c11.1,1,22,2.9,32.9,5.5c8.2,2.5,16.4,4.7,24.3,8
		c4,1.6,7.9,3.3,11.9,4.9c4.9,2.6,9.9,5.2,14.8,7.7c3.9,2.4,7.8,4.8,11.7,7.2c6.9,4.9,13.7,9.9,20.1,15.4c5.5,4.7,10.6,9.9,15.8,15
		c0.3,0.4,0.6,0.8,0.9,1.2c-0.2,0.7-0.8,1-1.4,1.2c-11.2,5-21,12.2-30,20.5C144,114.2,143.2,114.9,142.1,115.2z"/>
	<path class="st15" d="M127.8,53c-4.9-2.6-9.9-5.2-14.8-7.7c2.2-2,5.2-2.2,7.9-2.9c23.9-6.8,47.9-13.6,71.9-20.3
		c17.6-5,35.2-9.9,52.9-14.8c1.3-0.4,2.7-0.4,3.7-1.5c3.4,2.9,5.4,6.6,6.1,10.9c-8.1,2.2-16.1,4.5-24.2,6.8c-17.8,5-35.7,10-53.5,15
		c-16,4.5-32.1,9.1-48.1,13.7C129,52.3,128.4,52.7,127.8,53z"/>
	<path class="st2" d="M78.7,75.9c7,2.2,13.7,4.9,20.1,8.4c3.5,2,7.3,3.5,10.8,5.6c0.7,0.4,1.3,0.9,1.9,1.3c-1,0.3-2,0.7-3,1
		c-7.3,2.1-14.6,4.2-21.8,6.2c-1,0.3-1.8,0.6-1.7,1.7c-5.1-2.3-10.3-4-15.6-5.8c-7-2.4-14.2-4-21.5-5.2c-2.4-0.4-4.9-0.7-7.3-1.1
		c0.2-1.6,1.5-1.5,2.5-1.8c11.1-3.2,22.2-6.3,33.3-9.4C77.2,76.7,77.9,76.3,78.7,75.9z"/>
	<path class="st5" d="M84.9,100.2c0-1.2,0.7-1.5,1.7-1.7c7.3-2,14.6-4.1,21.8-6.2c1-0.3,2-0.7,3-1c4.6,2.6,9,5.6,13.2,9
		c-7.9,1.8-15.5,4.2-23.3,6.4c-0.7,0.2-1.3,0.5-1.5,1.3C94.9,105.4,89.9,102.8,84.9,100.2z"/>
</g>
</svg>
