<?xml version="1.0" encoding="utf-8"?>
<!-- Generator: Adobe Illustrator 19.2.0, SVG Export Plug-In . SVG Version: 6.00 Build 0)  -->
<svg version="1.1" id="Слой_1" xmlns="http://www.w3.org/2000/svg" xmlns:xlink="http://www.w3.org/1999/xlink" x="0px" y="0px"
	 viewBox="0 0 400 400" style="enable-background:new 0 0 400 400;" xml:space="preserve">
<style type="text/css">
	.st0{fill:#FFFFFF;}
	.st1{fill:#4BB4CE;}
	.st2{fill:#60BAD8;}
	.st3{fill:#8FCBDD;}
	.st4{fill:#A3D4E5;}
	.st5{fill:#48B3CE;}
	.st6{fill:#5CB9D7;}
	.st7{fill:#FDFEFF;}
	.st8{fill:#54B6D0;}
</style>
<g>
	<path class="st0" d="M401,201c0,65.3,0,130.7,0.1,196c0,3.4-0.7,4.1-4.1,4.1c-130.7-0.1-261.3-0.1-392,0c-3.4,0-4.1-0.7-4.1-4.1
		C1,266.3,1,135.7,0.9,5c0-3.4,0.7-4.1,4.1-4.1C135.7,1,266.3,1,397,0.9c3.4,0,4.1,0.7,4.1,4.1C401,70.3,401,135.7,401,201z
		 M377.6,145.1c0-20.3,1-40.7-0.2-60.9c-2-35.2-29.3-60-64.6-60c-75.4,0-150.9,0-226.3,0c-30.8,0-58.3,24.2-61.5,54.7
		c-2.3,21.9-0.8,43.9-0.7,65.9c-0.1,0.8-0.2,1.7-0.2,2.5c0,55.5,0,111,0,166.5c0,4.3,0.5,8.7,1.4,12.9c6.5,30.8,32,51.3,63.8,51.3
		c74.5,0.1,149,0,223.5,0c4.6,0,9.4-0.4,13.9-1.4c30.8-6.6,51.1-31.9,51.2-63.9c0.1-52,0-104,0-156
		C377.9,152.7,377.7,148.9,377.6,145.1z"/>
	<path class="st1" d="M377.6,145.1c0.1,3.8,0.2,7.7,0.2,11.5c0,52,0.1,104,0,156c-0.1,32-20.4,57.3-51.2,63.9
		c-4.5,1-9.2,1.4-13.9,1.4c-74.5,0.1-149,0.1-223.5,0c-31.8,0-57.3-20.5-63.8-51.3c-0.9-4.2-1.3-8.6-1.4-12.9
		c-0.1-55.5-0.1-111,0-166.5c0-0.8,0.1-1.7,0.2-2.5c2.6,0.4,5.2,0.9,7.7,1.3c0.3,0.7,0.7,1.3,1,2c0,55.1-0.3,110.3,0,165.4
		c0.2,29.1,27.2,55.5,56.7,55.6c74.1,0.2,148.3,0.2,222.4,0c30.1-0.1,56.7-26.9,56.9-57.1c0.2-54.6,0-109.3,0-163.9
		c0.3-0.4,0.5-0.7,0.8-1.1C372.5,146.3,375.1,145.7,377.6,145.1z"/>
	<path class="st2" d="M377.6,145.1c-2.6,0.6-5.2,1.2-7.8,1.9c0-14.7-0.1-29.3,0-44c0.1-7,0.2-14.1-1.2-20.9
		c-6.1-29.5-29.8-49.7-60.2-49.8c-71.7-0.3-143.3-0.2-215,0c-12.9,0-24.9,3.6-35.5,11.4C40.4,56.4,32.3,74,32.2,95.5
		c-0.1,16.8-0.1,33.7-0.1,50.5c-2.6-0.4-5.2-0.9-7.7-1.3c0-22-1.5-44,0.7-65.9c3.1-30.5,30.7-54.7,61.5-54.7c75.4,0,150.9,0,226.3,0
		c35.3,0,62.7,24.8,64.6,60C378.6,104.4,377.7,124.8,377.6,145.1z"/>
	<path class="st3" d="M369,148c0,54.6,0.2,109.3,0,163.9c-0.1,30.2-26.7,57-56.9,57.1c-74.1,0.2-148.3,0.2-222.4,0
		c-29.5-0.1-56.6-26.5-56.7-55.6c-0.3-55.1,0-110.3,0-165.4c3.9-0.2,7.3,1.9,11.1,2.1c0,51-0.1,101.9,0,152.9c0,4,0.5,8,1.3,11.8
		c5.6,26.2,26.6,42.9,54.8,43c67.1,0.1,134.3,0.1,201.4,0c4.4,0,9-0.5,13.3-1.4c26.2-5.6,42.7-26.6,42.8-54.4
		c0.2-50.3,0.1-100.6,0.1-150.9C361.4,149.2,365.4,149.3,369,148z"/>
	<path class="st4" d="M44.2,150.1c-3.8-0.2-7.2-2.3-11.1-2.1c-0.3-0.7-0.7-1.3-1-2c0-16.8,0-33.7,0.1-50.5
		C32.3,74,40.4,56.4,58,43.6c10.6-7.7,22.6-11.3,35.5-11.4c71.7-0.2,143.3-0.3,215,0c30.4,0.1,54.2,20.3,60.2,49.8
		c1.4,6.8,1.3,13.9,1.2,20.9c-0.1,14.7,0,29.3,0,44c-0.3,0.4-0.5,0.7-0.8,1.1c-3.6,1.3-7.6,1.1-11.1,3.1c-0.3-0.1-0.5-0.2-0.8-0.2
		c0-18.2,0.1-36.3-0.1-54.5c-0.3-28.8-23.2-51.5-51.9-51.5c-69.5,0-138.9,0-208.4,0c-2.7,0-5.4-0.1-8,0.4
		c-26.3,4.6-44.7,27.6-44,52.7c0.5,17.3,0.1,34.6,0.1,52C44.6,150,44.4,150,44.2,150.1z"/>
	<path class="st5" d="M357.2,150.9c0.3,0.1,0.5,0.1,0.8,0.2c0,50.3,0.1,100.6-0.1,150.9c-0.1,27.8-16.7,48.8-42.8,54.4
		c-4.3,0.9-8.9,1.4-13.3,1.4c-67.1,0.1-134.3,0.1-201.4,0c-28.2-0.1-49.2-16.8-54.8-43c-0.8-3.9-1.3-7.9-1.3-11.8
		c-0.1-51,0-101.9,0-152.9c0.2-0.1,0.5-0.1,0.7-0.2c1.1,0.4,2.2,0.8,3.3,1.1c20.1,5.1,40.4,8.8,60.8,12
		c2.8,15.6,14.5,22.4,28.3,27.7c-4.8,1.4-9.3,2.2-13.1,4.8c-2.7,1.9-3.4,3.6-1.3,6.5c3.1,4.2,6.8,7.7,11.5,10
		c5.7,2.8,11.9,3.6,18.9,4.3c-5.5,3.8-10,7.8-8.1,14.2c2.5,8.5,10.6,8.6,18.3,10.2c-15.7,15-33.5,22.4-54.5,21.7
		c-16.8-0.6-31.7-6.6-45.5-15.9c-0.4-0.1-0.8-0.1-1.2-0.2c0.2,0.3,0.3,0.6,0.5,0.9c9.5,13.9,22,24.5,36.5,32.6
		c37.2,21,76.8,23.6,117.2,12.6c44.2-12,77.2-37.2,91.3-82.7c0.7-2.2,1.8-2.7,3.9-2.9c6.3-0.7,12.6-1.4,18.4-4.2c4.1-2,8.2-4,11-8.5
		c-9.7,0-18.8,0.2-28.4-3.2c4.2-1.1,7.4-1.8,10.6-2.7c5.3-1.5,10.5-3.3,14.5-7.4c1.1-1.1,2.8-2.7,1.9-4.3c-0.8-1.5-2.7-0.3-4.1,0
		c-8.4,2-16.8,1.6-25.2-0.1c-1.7-0.3-3.1-0.5-3.5-2.7c-0.8-4.2-2.1-8.4-3.1-12.5c2.5-0.2,4.9,0,7.4-0.5
		C326.5,157.2,341.8,154.1,357.2,150.9z"/>
	<path class="st6" d="M357.2,150.9c-15.4,3.2-30.7,6.3-46.1,9.6c-2.5,0.5-5,0.3-7.4,0.5c-0.3-0.4-0.6-0.8-0.8-1.2
		c-9.3-21.5-25.3-34.4-48.7-37.9c-0.9-0.1-1.4-0.6-1.7-1.5c5.3-1.4,10.5-3.1,15.1-6.1c1.6-1,3.9-2.2,3-4.6c-0.8-2-3.1-1.8-4.9-1.5
		c-3.7,0.4-7.3,1.1-11.7,1.9c0.9-1.1,1.4-1.5,1.7-2c0.9-1.1,2.7-2.2,1.8-3.7c-1.1-1.9-3-0.6-4.5-0.3c-4.8,1-8.7,4-13,6.1
		c-0.1-0.1-0.2-0.2-0.4-0.4c-0.2-1.1,0.9-2.6-0.2-3.3c-1.4-1-2.5,0.5-3.4,1.2c-2.5,2.2-4.9,4.5-7.3,6.8
		c-15,15.5-24.2,34.4-31.3,54.5c-2.2,0-4.4,0-6.6,0c-3.3-2.5-6.6-5.1-10-7.4c-23.2-16-49.5-25.5-75.5-35.7c-3.4-1.3-3.8,0.5-3.5,3.1
		c0.8,7.9,3.9,14.7,9.4,20.4c3.6,3.8,7.7,7,12.1,10.4c-5.3,1.3-10.3,0.9-14.6,3.3c-20.4-3.2-40.7-6.9-60.8-12
		c-1.1-0.3-2.2-0.7-3.3-1.1c0-17.3,0.4-34.7-0.1-52c-0.7-25,17.7-48.1,44-52.7c2.6-0.5,5.3-0.4,8-0.4c69.5,0,138.9,0,208.4,0
		c28.7,0,51.7,22.7,51.9,51.5C357.3,114.6,357.2,132.7,357.2,150.9z"/>
	<path class="st7" d="M197.7,169c7.1-20.1,16.3-39,31.3-54.5c2.3-2.4,4.7-4.7,7.3-6.8c0.9-0.8,2-2.3,3.4-1.2c1.1,0.8,0,2.2,0.2,3.3
		c-0.5,0.3-0.8,0.6-0.2,1.1c0.2-0.2,0.4-0.5,0.6-0.7c4.3-2.1,8.2-5.1,13-6.1c1.5-0.3,3.5-1.6,4.5,0.3c0.9,1.6-0.9,2.6-1.8,3.7
		c-0.4,0.5-0.8,1-1.7,2c4.4-0.7,8.1-1.4,11.7-1.9c1.8-0.2,4.1-0.5,4.9,1.5c0.9,2.4-1.4,3.6-3,4.6c-4.6,3-9.8,4.7-15.1,6.1
		c0.2,0.9,0.8,1.4,1.7,1.5c23.4,3.4,39.3,16.4,48.7,37.9c0.2,0.4,0.5,0.8,0.8,1.2c1.1,4.2,2.3,8.3,3.1,12.5c0.4,2.2,1.9,2.4,3.5,2.7
		c8.4,1.7,16.8,2.1,25.2,0.1c1.4-0.3,3.3-1.5,4.1,0c0.9,1.6-0.8,3.1-1.9,4.3c-4,4-9.2,5.9-14.5,7.4c-3.2,0.9-6.4,1.6-10.6,2.7
		c9.6,3.4,18.7,3.2,28.4,3.2c-2.8,4.5-6.9,6.5-11,8.5c-5.8,2.8-12.1,3.6-18.4,4.2c-2,0.2-3.2,0.7-3.9,2.9
		c-14.2,45.5-47.1,70.7-91.3,82.7c-40.5,11-80,8.4-117.2-12.6c-14.5-8.2-27-18.8-36.5-32.6c0.2-0.2,0.5-0.5,0.7-0.7
		c13.8,9.3,28.7,15.4,45.5,16c21,0.7,38.9-6.8,54.5-21.7c-7.7-1.6-15.8-1.8-18.3-10.2c-1.9-6.4,2.7-10.4,8.1-14.2
		c-7-0.6-13.2-1.5-18.9-4.3c-4.8-2.3-8.4-5.8-11.5-10c-2.1-2.9-1.4-4.6,1.3-6.5c3.8-2.6,8.2-3.4,13.1-4.8
		c-13.8-5.3-25.5-12.1-28.3-27.7c4.4-2.3,9.3-2,14.6-3.3c-4.5-3.3-8.6-6.6-12.1-10.4c-5.4-5.8-8.5-12.6-9.4-20.4
		c-0.3-2.6,0.1-4.4,3.5-3.1c25.9,10.3,52.3,19.7,75.5,35.7c3.4,2.4,6.6,4.9,10,7.4c1.4,1.8,2.6,4.3,4.9,4.3
		C197.4,173.2,197.2,170.6,197.7,169z"/>
	<path class="st7" d="M62.8,247.2c-0.2-0.3-0.3-0.6-0.5-0.9c0.4,0.1,0.8,0.1,1.2,0.2C63.3,246.7,63.1,247,62.8,247.2z"/>
	<path class="st8" d="M197.7,169c-0.4,1.5-0.3,4.2-1.7,4.2c-2.3,0-3.5-2.5-4.9-4.3C193.3,169,195.5,169,197.7,169z"/>
	<path class="st6" d="M240.1,110.1c-0.2,0.2-0.4,0.5-0.6,0.7c-0.6-0.5-0.3-0.8,0.2-1.1C239.8,109.8,240,110,240.1,110.1z"/>
</g>
</svg>
