<?xml version="1.0" encoding="utf-8"?>
<!-- Generator: Adobe Illustrator 19.2.0, SVG Export Plug-In . SVG Version: 6.00 Build 0)  -->
<svg version="1.1" id="Слой_1" xmlns="http://www.w3.org/2000/svg" xmlns:xlink="http://www.w3.org/1999/xlink" x="0px" y="0px"
	 viewBox="0 0 256 256" style="enable-background:new 0 0 256 256;" xml:space="preserve">
<style type="text/css">
	.st0{fill:#F9FCFE;}
	.st1{fill:#51B6D8;}
	.st2{fill:#FDFEFF;}
	.st3{fill:#57B8D7;}
	.st4{fill:#5EBAD7;}
	.st5{fill:#64BBD8;}
	.st6{fill:#6FBFD9;}
	.st7{fill:#69BDD8;}
	.st8{fill:#76C1DA;}
	.st9{fill:#7DC4DC;}
	.st10{fill:#85C7DE;}
	.st11{fill:#8ECBDF;}
</style>
<g>
	<path class="st0" d="M257,129c0,41.5,0,83,0.1,124.5c0,3-0.6,3.6-3.6,3.6c-83-0.1-166-0.1-249,0c-3,0-3.6-0.6-3.6-3.6
		c0.1-83,0.1-166,0-249c0-3,0.6-3.6,3.6-3.6c83,0.1,166,0.1,249,0c3,0,3.6,0.6,3.6,3.6C257,46,257,87.5,257,129z M11.6,129
		c0,26.8-0.1,53.7,0,80.5c0.2,22.4,14.8,36.8,37.1,36.8c53.5,0,107,0,160.5,0c22.3,0,37-14.5,37.1-36.8c0.2-53.7,0.2-107.3,0-161
		c-0.1-22.4-14.8-36.8-37.1-36.8c-53.5,0-107,0-160.5,0c-3.3,0-6.7,0-9.9,0.8c-16.8,4.2-27.1,17.6-27.2,36
		C11.5,75.3,11.6,102.2,11.6,129z"/>
	<path class="st1" d="M11.6,129c0-26.8-0.1-53.7,0-80.5c0.1-18.4,10.4-31.8,27.2-36c3.3-0.8,6.6-0.8,9.9-0.8c53.5,0,107,0,160.5,0
		c22.3,0,37.1,14.5,37.1,36.8c0.2,53.7,0.2,107.3,0,161c-0.1,22.4-14.8,36.8-37.1,36.8c-53.5,0-107,0-160.5,0
		c-22.3,0-37-14.5-37.1-36.8C11.5,182.7,11.6,155.8,11.6,129z M80,22c-6,0-12-0.6-17.8,1c-9.3,2.6-18.4,5.7-24.6,13.9
		C34.3,38.3,32.5,41,31,44c-1.4,1.4-2.6,2.9-3,4.9c-1.6,1.7-2.6,3.8-2.9,6.1c-1.4,1.4-1.6,3.2-2,5c-0.3,1.3-0.7,2.7-1,4
		c0,1,0,2-0.1,3c-1.9,2.1-0.6,4.7-1,7c0,6.7,0.7,7.2,7.2,5.1c10.8-3.6,21.6-7.2,32.5-10.8c2.2-0.7,4.4-1.7,6.8-1.1
		C57.3,78,47.1,88.8,36.9,99.5c-2.4,2.5-3.8,5.4-2,8.5c2,3.5,5.2,1.7,8,0.8c2.4-0.8,4.6-1.8,6.9-2.7c9.3-3.6,9.3-3.6,13.2,5.5
		c9,21.3,15,43.6,23,65.3c4.8,13.1,9.4,26.4,18.3,37.4c3.9,4.8,8.5,7.2,15.1,7c8.2-0.3,14.7-4,21-8.4c19.9-13.9,35.9-31.7,50.3-51
		c12.3-16.5,23.3-33.7,28.6-53.9c4-15.2,3-30-7.8-42.3c-7.3-8.3-16.3-14.3-28.1-10.6c-16.6,5.2-26.8,18.7-37.9,30.7
		c-1.7,1.8-1.3,5.5,0.7,8c2.1,2.6,4.3,0.3,6.3-0.5c3.3-1.2,6.6-2.5,10.1-2.8c3.3-0.3,6.4,0.4,7.7,4.1c2.7,7.8,4.4,15.7,2,23.9
		c-5.8,19.9-18.6,34.2-35.5,45.3c-2.3,1.5-3.1,0.4-4-1.5c-3.9-7.3-6.2-15.1-7.5-23.1c-2.6-15.9-4.4-31.9-7.2-47.8
		c-2.5-14-6.9-27.3-21.9-33.4c0.2-2.4,2.2-2.6,3.9-3.2c26.2-9,52.5-17.9,78.7-26.9c2-0.7,4.1-1.4,6.1-2.1c1.2-0.4,2.2-1.1,2-2.5
		c-0.2-1.6-1.6-1.4-2.8-1.4c-5,0-10,0-15,0c-5.3,0-10.7,0-16,0c-4,0-8,0-12,0c-3.3,0-6.7,0-10,0c-4.3,0-8.7,0-13,0c-4,0-8,0-12,0
		c-4,0-8,0-12,0C89.3,22,84.7,22,80,22z"/>
	<path class="st2" d="M96,58c14.9,6.1,19.3,19.4,21.9,33.4c2.8,15.8,4.7,31.9,7.2,47.8c1.3,8,3.6,15.9,7.5,23.1c1,1.8,1.7,3,4,1.5
		c16.9-11.1,29.8-25.4,35.5-45.3c2.4-8.3,0.8-16.1-2-23.9c-1.3-3.7-4.4-4.4-7.7-4.1c-3.5,0.3-6.8,1.6-10.1,2.8
		c-2,0.7-4.1,3.1-6.3,0.5c-2-2.4-2.4-6.1-0.7-8c11.1-12,21.3-25.5,37.9-30.7c11.9-3.7,20.9,2.3,28.1,10.6
		c10.8,12.4,11.8,27.2,7.8,42.3c-5.3,20.1-16.3,37.4-28.6,53.9c-14.4,19.3-30.5,37.1-50.3,51c-6.2,4.4-12.8,8.1-21,8.4
		c-6.6,0.3-11.3-2.2-15.1-7c-8.9-11.1-13.5-24.3-18.3-37.4c-8-21.6-14-44-23-65.3c-3.9-9.1-3.8-9.1-13.2-5.5
		c-2.3,0.9-4.6,1.9-6.9,2.7c-2.8,1-6,2.7-8-0.8c-1.7-3.1-0.4-6,2-8.5C47.1,88.8,57.3,78,67.4,67.2C75.9,60.7,84.3,54.4,96,58z"/>
	<path class="st3" d="M96,58c-11.7-3.6-20.1,2.7-28.6,9.1c-2.4-0.6-4.6,0.4-6.8,1.1C49.8,71.8,39,75.5,28.2,79.1
		C21.7,81.2,21,80.7,21,74c11.8-4,23.5-8,35.3-11.9C92.5,49.7,128.8,37.4,165,25.1c1.7-0.6,3.7-0.7,4-3.1c5,0,10,0,15,0
		c1.1,0,2.5-0.2,2.8,1.4c0.2,1.4-0.7,2.1-2,2.5c-2.1,0.7-4.1,1.4-6.1,2.1c-26.2,9-52.5,17.9-78.7,26.9C98.2,55.5,96.2,55.7,96,58z"
		/>
	<path class="st4" d="M169,22c-0.3,2.4-2.3,2.5-4,3.1C128.8,37.4,92.5,49.7,56.3,62C44.5,66,32.8,70,21,74c0.4-2.3-0.9-4.9,1-7
		c2.2,1.5,4.2,0.1,6.1-0.5c19.1-6.5,38.2-13.2,57.4-19.7c21-7.2,42.1-14.3,63.1-21.5c1.8-0.6,4.1-0.6,4.5-3.3
		C158.3,22,163.7,22,169,22z"/>
	<path class="st5" d="M153,22c-0.4,2.6-2.6,2.6-4.5,3.3c-21,7.2-42.1,14.3-63.1,21.5c-19.1,6.5-38.2,13.2-57.4,19.7
		c-2,0.7-3.9,2.1-6.1,0.5c0-1,0-2,0.1-3c5.4-0.9,10.4-3.3,15.6-5c33.1-11.3,66.3-22.6,99.4-33.8c1.7-0.6,3.7-0.7,4-3.1
		C145,22,149,22,153,22z"/>
	<path class="st6" d="M23,60c0.4-1.8,0.6-3.6,2-5c7.2-1.3,13.8-4.4,20.7-6.8c22.6-7.7,45.2-15.3,67.8-23c1.8-0.6,4.1-0.6,4.5-3.3
		c4.3,0,8.7,0,13,0c-0.6,3.3-3.7,3-5.9,3.8c-27.6,9.4-55.2,18.7-82.8,28C35.9,55.9,29.8,58.9,23,60z"/>
	<path class="st7" d="M23,60c6.7-1.1,12.9-4,19.3-6.2c27.6-9.3,55.2-18.6,82.8-28c2.1-0.7,5.2-0.5,5.9-3.8c3.3,0,6.7,0,10,0
		c-0.3,2.4-2.3,2.5-4,3.1C103.9,36.4,70.7,47.7,37.6,59c-5.2,1.8-10.1,4.1-15.6,5C22.4,62.7,22.7,61.3,23,60z"/>
	<path class="st8" d="M118,22c-0.4,2.6-2.6,2.6-4.5,3.3c-22.6,7.7-45.2,15.3-67.8,23C38.9,50.6,32.3,53.7,25,55
		c0.4-2.3,1.4-4.3,2.9-6.1c1.2,1.7,2.6,0.7,4,0.2c22.1-7.5,44.3-14.8,66.4-22.5c2.7-0.9,6.5-0.8,7.7-4.6C110,22,114,22,118,22z"/>
	<path class="st9" d="M106,22c-1.1,3.8-5,3.7-7.7,4.6c-22.1,7.7-44.2,15.1-66.4,22.5c-1.4,0.5-2.8,1.5-4-0.2c0.4-2,1.7-3.5,3-4.9
		c2.4,0.2,4.6-0.3,6.8-1C55.2,37,72.6,31.1,90,25.1c1.7-0.6,3.7-0.7,4-3.1C98,22,102,22,106,22z"/>
	<path class="st10" d="M94,22c-0.3,2.4-2.3,2.5-4,3.1C72.6,31.1,55.2,37,37.8,42.9c-2.2,0.8-4.5,1.3-6.8,1c1.5-3,3.3-5.7,6.6-7.1
		c1.5-0.1,3,0,4.4-0.4c11.9-4,23.8-8.2,35.8-12.2c1.2-0.4,2.2-0.7,2.3-2.2C84.7,22,89.3,22,94,22z"/>
	<path class="st11" d="M80,22c0,1.5-1.1,1.8-2.3,2.2C65.8,28.3,53.9,32.4,42,36.4c-1.4,0.5-2.9,0.3-4.4,0.4
		c6.2-8.2,15.2-11.3,24.6-13.9C68,21.4,74,22,80,22z"/>
</g>
</svg>
