<?xml version="1.0" encoding="utf-8"?>
<!-- Generator: Adobe Illustrator 19.2.0, SVG Export Plug-In . SVG Version: 6.00 Build 0)  -->
<svg version="1.1" id="Слой_1" xmlns="http://www.w3.org/2000/svg" xmlns:xlink="http://www.w3.org/1999/xlink" x="0px" y="0px"
	 viewBox="0 0 256 256" style="enable-background:new 0 0 256 256;" xml:space="preserve">
<style type="text/css">
	.st0{fill:#FFFFFF;}
	.st1{fill:#D24A43;}
	.st2{fill:#553437;}
	.st3{fill:#523236;}
	.st4{fill:#5A363A;}
	.st5{fill:#774243;}
	.st6{fill:#734042;}
	.st7{fill:#7A4344;}
	.st8{fill:#64393D;}
	.st9{fill:#4D2F33;}
	.st10{fill:#703F41;}
	.st11{fill:#6C3D40;}
	.st12{fill:#693C3F;}
	.st13{fill:#673B3E;}
	.st14{fill:#7C4444;}
	.st15{fill:#CE4B44;}
	.st16{fill:#7F4545;}
	.st17{fill:#C84D44;}
	.st18{fill:#CB4C44;}
	.st19{fill:#824645;}
	.st20{fill:#864846;}
	.st21{fill:#814645;}
	.st22{fill:#7E4545;}
	.st23{fill:#8C4A47;}
	.st24{fill:#884846;}
	.st25{fill:#C24E45;}
	.st26{fill:#854746;}
	.st27{fill:#BC4F45;}
	.st28{fill:#8F4A47;}
	.st29{fill:#944C48;}
	.st30{fill:#8D4A47;}
	.st31{fill:#834746;}
	.st32{fill:#934C48;}
	.st33{fill:#8F4B47;}
	.st34{fill:#8B4947;}
	.st35{fill:#AE4F46;}
	.st36{fill:#C54D45;}
	.st37{fill:#9A4D48;}
	.st38{fill:#994D48;}
	.st39{fill:#AA4F46;}
	.st40{fill:#894946;}
	.st41{fill:#B94F46;}
	.st42{fill:#A34F46;}
	.st43{fill:#B34F46;}
	.st44{fill:#9D4E48;}
	.st45{fill:#954C48;}
	.st46{fill:#A74F46;}
	.st47{fill:#9F4E47;}
	.st48{fill:#914B48;}
	.st49{fill:#A44F46;}
	.st50{fill:#BF4E45;}
	.st51{fill:#9E4E47;}
	.st52{fill:#9B4D48;}
	.st53{fill:#974D48;}
	.st54{fill:#B64F46;}
	.st55{fill:#A24E47;}
	.st56{fill:#A04E47;}
	.st57{fill:#A84F46;}
	.st58{fill:#B14F46;}
	.st59{fill:#B24F46;}
	.st60{fill:#854846;}
	.st61{fill:#8B4A47;}
	.st62{fill:#61393C;}
	.st63{fill:#5D373B;}
	.st64{fill:#F2EBE2;}
	.st65{fill:#F5F0EA;}
	.st66{fill:#CEB49B;}
	.st67{fill:#D1B8A0;}
	.st68{fill:#D3BCA5;}
	.st69{fill:#E5D7C8;}
	.st70{fill:#DDC9B6;}
	.st71{fill:#E0CFBC;}
	.st72{fill:#994C47;}
	.st73{fill:#F8F3EF;}
	.st74{fill:#DAC5B1;}
	.st75{fill:#D7C1AC;}
	.st76{fill:#FCFBF9;}
	.st77{fill:#FAF7F3;}
	.st78{fill:#D2BAA3;}
	.st79{fill:#D5BDA7;}
	.st80{fill:#F2EBE3;}
	.st81{fill:#F0E8DE;}
	.st82{fill:#EEE5DA;}
	.st83{fill:#EDE2D6;}
	.st84{fill:#EADFD1;}
	.st85{fill:#E8DBCD;}
	.st86{fill:#F5EFE9;}
	.st87{fill:#D0B69E;}
	.st88{fill:#FFFEFE;}
	.st89{fill:#FAF7F4;}
	.st90{fill:#FCFAF9;}
	.st91{fill:#804544;}
	.st92{fill:#E5D7C7;}
	.st93{fill:#DFCEBB;}
	.st94{fill:#EFE6DB;}
	.st95{fill:#DCC8B5;}
	.st96{fill:#EBE0D2;}
	.st97{fill:#EDE4D8;}
	.st98{fill:#ECE3D5;}
	.st99{fill:#774142;}
	.st100{fill:#D9C5B0;}
	.st101{fill:#D7C2AC;}
	.st102{fill:#D5BFA9;}
	.st103{fill:#EEE6D8;}
	.st104{fill:#E0D0BC;}
	.st105{fill:#E2D3C0;}
	.st106{fill:#E3D6C3;}
	.st107{fill:#E7DBCB;}
	.st108{fill:#E1D2BE;}
	.st109{fill:#E4D7C6;}
	.st110{fill:#E5D9C8;}
	.st111{fill:#8A4843;}
	.st112{fill:#E9DECD;}
	.st113{fill:#E3D5C2;}
	.st114{fill:#E2D1C0;}
	.st115{fill:#E6DAC9;}
	.st116{fill:#E4D8C6;}
	.st117{fill:#E4D6C4;}
	.st118{fill:#E7DCCB;}
	.st119{fill:#E9DFD0;}
	.st120{fill:#E9E0D0;}
	.st121{fill:#804645;}
	.st122{fill:#6B3C3F;}
	.st123{fill:#7B4344;}
	.st124{fill:#713F42;}
	.st125{fill:#764143;}
	.st126{fill:#663B3E;}
	.st127{fill:#874846;}
	.st128{fill:#874644;}
	.st129{fill:#884644;}
	.st130{fill:#794243;}
	.st131{fill:#864644;}
	.st132{fill:#C24F46;}
	.st133{fill:#CC4C44;}
	.st134{fill:#C34E45;}
	.st135{fill:#E8DDCC;}
	.st136{fill:#E6DBCA;}
	.st137{fill:#262223;}
	.st138{fill:#312F2F;}
	.st139{fill:#2A2728;}
	.st140{fill:#3B3939;}
	.st141{fill:#221D1E;}
	.st142{fill:#231F20;}
	.st143{fill:#E8DDCD;}
	.st144{fill:#231E1F;}
	.st145{fill:#333231;}
	.st146{fill:#221E1F;}
	.st147{fill:#2F2D2D;}
	.st148{fill:#2A2727;}
	.st149{fill:#984D48;}
	.st150{fill:#D9B7B7;}
	.st151{fill:#884847;}
	.st152{fill:#D9D7D5;}
	.st153{fill:#DADAD8;}
	.st154{fill:#BB6B6C;}
	.st155{fill:#D9D7D4;}
	.st156{fill:#D9D8D5;}
	.st157{fill:#95534E;}
	.st158{fill:#894948;}
	.st159{fill:#894846;}
	.st160{fill:#A94F46;}
	.st161{fill:#AF4F46;}
	.st162{fill:#A44F47;}
	.st163{fill:#E9E9E8;}
	.st164{fill:#EEEEED;}
	.st165{fill:#E4DBD9;}
	.st166{fill:#FDFCFB;}
	.st167{fill:#F2F1F0;}
	.st168{fill:#F8F7F6;}
	.st169{fill:#BB4F46;}
	.st170{fill:#B44F46;}
	.st171{fill:#E4E3E1;}
	.st172{fill:#DEDDDB;}
	.st173{fill:#FEFDFD;}
	.st174{fill:#BD4F45;}
	.st175{fill:#363534;}
	.st176{fill:#242021;}
	.st177{fill:#383736;}
	.st178{fill:#2A2828;}
	.st179{fill:#262323;}
	.st180{fill:#343232;}
	.st181{fill:#333131;}
	.st182{fill:#2C2929;}
	.st183{fill:#292626;}
	.st184{fill:#3C3B3A;}
	.st185{fill:#282424;}
	.st186{fill:#2E2C2C;}
	.st187{fill:#F1ECEA;}
	.st188{fill:#E9E8E7;}
	.st189{fill:#E1E2E0;}
	.st190{fill:#B15046;}
	.st191{fill:#994F4A;}
	.st192{fill:#DFDFDD;}
	.st193{fill:#904C48;}
	.st194{fill:#F2F2F1;}
	.st195{fill:#F7F4F4;}
	.st196{fill:#EDEDEB;}
	.st197{fill:#B74F46;}
	.st198{fill:#E7E4E3;}
	.st199{fill:#AD4F46;}
	.st200{fill:#A54F46;}
	.st201{fill:#DFDEDC;}
	.st202{fill:#FAF7F6;}
	.st203{fill:#F4F2F1;}
	.st204{fill:#E4E3E2;}
	.st205{fill:#EBE4E2;}
	.st206{fill:#C97274;}
	.st207{fill:#F9F9F9;}
	.st208{fill:#C44F45;}
	.st209{fill:#BD4F46;}
	.st210{fill:#F7F6F5;}
	.st211{fill:#BC4F46;}
	.st212{fill:#E6CACA;}
	.st213{fill:#E4C1C1;}
	.st214{fill:#D8AFAF;}
	.st215{fill:#F8F8F8;}
	.st216{fill:#EEEEEC;}
	.st217{fill:#E8E8E6;}
	.st218{fill:#E3E3E2;}
	.st219{fill:#FAF2F0;}
	.st220{fill:#974C48;}
	.st221{fill:#E3E2E1;}
	.st222{fill:#C14E45;}
	.st223{fill:#BA4F46;}
	.st224{fill:#BE4F45;}
	.st225{fill:#F3F3F2;}
	.st226{fill:#E8E6E5;}
</style>
<g>
	<path class="st0" d="M256.5,128.8c0,41.9,0,83.8,0,125.7c0,1.7-0.3,2.1-2,2.1c-84-0.1-168-0.1-251.9,0c-2,0-2.1-0.6-2.1-2.2
		c0-83.9,0-167.8,0-251.7c0-1.8,0.3-2.2,2.2-2.2c83.9,0.1,167.8,0.1,251.7,0c2,0,2.2,0.6,2.2,2.4C256.5,44.8,256.5,86.8,256.5,128.8
		z"/>
	<path class="st1" d="M190,10c19.3-1.3,35.1,5.4,47,20.7c0.6,0.8,1.1,1.7,1.6,2.5c0.8,2.1,0.2,4.3,0.2,6.4c0,26.4,0,52.7,0,79.1
		c0,1.4,0.1,2.8-0.2,4.2c-0.4,1.5-1.2,1.3-2.1,0.5c-1.5-1.3-2.8-2.7-4.2-4.1c-7.3-7.5-14.7-15-22.3-22.2c-4.5-4.2-8.9-8.5-13.2-12.9
		c-0.5-0.7-1-1.5-1.7-1.9c-0.8-0.6-1.4-1.5-2.2-2.2c-1.7-2-3.6-3.8-3.7-6.6c-0.1-20.1,0-40.2,0-60.3C189.2,12.2,189.1,11,190,10z"/>
	<path class="st2" d="M168.5,247c-7,0.2-14,0.2-21,0c-0.8-1.1,0.2-1.7,0.7-2.4c1.8-2.5,4-4.7,6.1-6.9c9.2-10.2,18.4-20.4,27.6-30.6
		c7.1-7.8,14.2-15.6,21.3-23.5c7-7.8,14.1-15.5,21.1-23.4c5.3-6,10.7-11.9,16.1-17.7c1.4-1.5,2.5-3.3,4.2-4.7
		c0.7-0.6,1.3-1.6,2.5-0.9c0.2,7.8,0.2,15.7,0,23.5c-5.6,5.9-11,12-16.5,18c-5.5,6.1-11,12.2-16.5,18.3c-3.7,4.1-7.5,8.2-11.2,12.4
		c-5.6,6.3-11.2,12.5-16.9,18.7C180.2,234.3,174.6,240.9,168.5,247z"/>
	<path class="st3" d="M168.5,247c0.8-2.3,2.8-3.7,4.3-5.4c5.4-6.2,11.1-12.1,16.6-18.2c8.4-9.3,16.8-18.8,25.2-28.1
		c3.5-3.9,7-7.7,10.5-11.6c6-6.6,12-13.3,18-19.9c1.2-1.3,2.3-2.7,4-3.3c0.2,10.3,0.2,20.7,0,31c-4.2,5-8.7,9.6-13,14.5
		c-7.3,8.2-14.7,16.3-22.1,24.5c-3.9,4.3-7.8,8.7-11.8,12.9c-0.7,0.8-2.1,1.4-1.2,2.9c0.1,0.2,0.1,0.4,0,0.6
		c-4.1,0.5-8.3,0.2-12.4,0.2C180.6,247.2,174.5,247.1,168.5,247z"/>
	<path class="st4" d="M247,137c-1.2,0-1.8,0.9-2.4,1.6c-5.5,6.2-11,12.3-16.6,18.5c-3.3,3.6-6.6,7.2-9.8,10.9
		c-7.6,8.4-15.2,16.9-22.8,25.3c-4,4.4-8.1,8.7-12.1,13.2c-6.9,7.7-13.8,15.5-20.7,23.2c-3.9,4.4-8,8.7-12,13
		c-1.2,1.3-2.5,2.6-3.1,4.4c-4.8,0.2-9.7,0.3-14.5-0.1c-0.6-0.4-1.3-0.7-1.4-1.6c-0.1-1.2,0.5-2.1,1.3-2.9
		c5.4-5.7,10.6-11.6,15.9-17.5c7-7.8,14.2-15.5,21.1-23.5c1.8-2.1,4.3-3.7,5.1-6.6c0.5-1.2,1.7-1.8,2.6-2.6
		c6.1-4.7,11.5-10.2,16-16.5c1.7-2,3.1-4.2,4.3-6.6c0.3-0.5,0.7-0.9,1.3-1.1c1.3-0.3,2.1-1.3,2.9-2.2c5.3-6.1,10.8-12,16.1-18
		c5.7-6.4,11.5-12.6,17.2-19c1.1-1.3,2.1-2.8,3.9-3.3c3.2,1.8,5.6,4.4,7.5,7.5C247.3,134.4,247.3,135.7,247,137z"/>
	<path class="st5" d="M33.8,17.9c1.6-1.2,3.3-2.3,5.2-2.9c1.2-0.5,1.4,0.5,1.6,1.3c0.3,1,0.2,2,0.2,3c0,72.8,0,145.6,0,218.5
		c0,1,0.1,2-0.2,3c-0.2,0.8-0.4,1.7-1.6,1.3c-1.9-0.6-3.6-1.7-5.2-2.9c0.3-1.8,0.4-3.6,0.4-5.5c0-70.1,0-140.1,0-210.2
		C34.2,21.6,34.1,19.7,33.8,17.9z"/>
	<path class="st6" d="M33.8,17.9c0.8,0.1,1.2,0.5,1.2,1.3c0,0.7,0,1.3,0,2c0,71.5,0,143,0,214.5c0,1.1,0.9,2.8-1.2,3.3
		c-1.6-0.8-3.1-1.8-4.4-3.1c0.2-1.8,0.2-3.7,0.2-5.5c0-68,0-136,0-204.1c0-1.8,0-3.7-0.2-5.5C30.7,19.7,32.2,18.7,33.8,17.9z"/>
	<path class="st7" d="M39,242c0.6-0.1,0.9-0.4,0.9-1c0-0.7,0-1.3,0-2c0-73.7,0-147.4,0-221.1c0-1,0.8-2.4-0.9-3
		c1.4-0.9,2.9-1.5,4.5-1.9c1,0.6,1.1,1.6,1.2,2.6c0.1,1,0.1,2,0.1,3c0,73.2,0,146.4,0,219.6c0,1.9,0.6,4.1-1.3,5.6
		C41.9,243.5,40.4,242.9,39,242z"/>
	<path class="st8" d="M13.9,216c-2.9-5.8-4.3-12.1-4.4-18.5c-0.1-46-0.1-92.1,0-138.1C9.6,53,11,46.8,13.9,41
		c1.4,0.1,1.5,1.2,1.7,2.1c0.3,1.2,0.2,2.5,0.2,3.7c0,54.5,0,108.9,0,163.4c0,1.2,0.1,2.5-0.2,3.7C15.4,214.8,15.3,216,13.9,216z"/>
	<path class="st9" d="M199,246.5c-2.6-0.1-1.1-1.5-0.5-2.2c1.5-1.8,3.1-3.4,4.7-5.2c5.5-6.3,11.3-12.3,16.9-18.5
		c6.8-7.6,13.5-15.3,20.4-22.8c2-2.2,3.9-4.7,6.5-6.4c0,2.5,0.7,5-0.5,7.4c-0.1,0.2,0.2,0.7,0.3,1.1c-0.4,0.9,0,1.9-0.4,2.8
		c-0.3,5.9-2.6,11.2-5.2,16.3c-2.6,5.2-5.9,9.8-10.2,13.6c-8.1,7.3-17.3,12.7-28.4,13.8C201.5,246.8,200.3,246.9,199,246.5z"/>
	<path class="st10" d="M29.4,21c0.7,0.1,1,0.4,1,1.2c0,0.7,0,1.3,0,2c0,69.6,0,139.2,0,208.7c0,1.1,0.9,2.6-1,3.2
		c-1.6-0.9-2.9-2.1-4-3.5c0.5-5.7,0.3-11.5,0.3-17.2c0-58,0-116.1,0-174.1c0-5.6,0.2-11.2-0.3-16.7C26.5,23.1,27.9,21.9,29.4,21z"/>
	<path class="st11" d="M25.4,24.5c1.1,0.8,1.1,2,1.1,3.1c0,67.3,0,134.5,0,201.8c0,1.2,0,2.3-1.1,3.1c-1.5-1.1-2.7-2.6-3.9-4
		c0.2-2,0.2-4,0.2-6c0-62.7,0-125.4,0-188c0-2,0-4-0.2-6C22.7,27,23.9,25.6,25.4,24.5z"/>
	<path class="st12" d="M21.5,28.5c0.7,0.3,1,0.9,1,1.6c0,0.6,0,1.2,0,1.7c0,64.4,0,128.9,0,193.3c0,1.2,0.5,2.6-1,3.3
		c-1.6-1.8-3.1-3.7-4.2-5.9c0.4-3.1,0.4-6.3,0.4-9.5c0-56.5,0-113,0-169.4c0-3.1,0.1-6.2-0.4-9.2C18.4,32.2,19.9,30.3,21.5,28.5z"/>
	<path class="st1" d="M247,133.2c-2.5-2.4-5-4.8-7.6-7.1c-0.7-0.4-1.5-0.8-1.5-1.9c0-27.7,0-55.3,0.1-83c0-2.7-0.2-5.3,0.6-7.9
		c5.5,7.9,8.4,16.7,8.5,26.3c0.1,24.3,0,48.6,0,72.9C247.1,132.7,247,132.9,247,133.2z"/>
	<path class="st13" d="M17.3,34.4c1.4,1,1.2,2.5,1.2,3.8c0,48.5,0,97,0,145.4c0,11.7,0,23.5,0,35.2c0,1.3,0.2,2.7-1.2,3.6
		c-1.5-2-2.7-4.2-3.4-6.5c1-1,1.1-2.4,1.1-3.7c0-55.9,0-111.8,0-167.7c0-1.3-0.1-2.7-1.1-3.7C14.7,38.6,15.9,36.4,17.3,34.4z"/>
	<path class="st14" d="M43.5,243.9c0.4-1.2,0.5-2.4,0.5-3.7c0-74.5,0-149,0-223.5c0-1.3-0.1-2.5-0.5-3.7c0.5-0.5,1.2-0.7,2-0.6
		c1.2-0.5,1.4,0.4,1.7,1.2c0.3,1.1,0.2,2.2,0.2,3.2c0,31.1,0,62.2,0,93.2c0,2.3-0.2,4.7,0.4,7c0.1,2.2,0.2,4.4-0.3,6.5
		c-0.2,3.4-0.4,6.8,0.1,10.2c0.3,2,0.2,4.1,0.7,6.2c0,0.6,0.1,1.3,0,1.9c-0.5,2.4-0.4,4.8-0.4,7.2c0,30.6,0,61.2,0,91.8
		c0,1.4,0.3,2.9-0.8,4C45.8,244.9,44.6,244.6,43.5,243.9z"/>
	<path class="st15" d="M190,10c0,20.6,0,41.1,0,61.7c0,0.9,0.4,2-0.6,2.8c-2.1-0.2-2.7-2.4-4.4-3.2c-1.9-1.8-3.5-4-5.7-5.6
		c-0.5-0.4-0.8-1.1-0.8-1.8c0.4-16.5,0.1-33.1,0.2-49.6c0-1.5-0.3-3,0.8-4.3C183,10,186.5,10,190,10z"/>
	<path class="st16" d="M47,245c0-33,0-65.9,0-98.9c0-1.6,0.3-3.1,0.5-4.7c1.5,0.5,1,1.8,1.3,2.8c0.3,1,0.3,2.1,0.6,3.1
		c0.3,2.2,1.6,4.2,1.8,6.5c0.5,1.6,1.6,3.1,1.4,4.9c-0.4,2.1-0.3,4.3-0.3,6.5c0,25.5,0,50.9,0,76.4c0,1.5,0.4,3.2-0.8,4.5
		C49.9,246,48.4,245.8,47,245z"/>
	<path class="st17" d="M162.5,10c3,0,6,0,9,0c0.9,1,0.8,2.2,0.8,3.3c0,14,0,28,0,41.9c0,1.2,0,2.5-0.6,3.6c-0.6,1.1-1.6,0.8-2.3,0.3
		c-2.2-1.4-4.4-2.9-6.7-4.1c-0.7-0.4-1-1-1-1.9c0.3-13.1,0-26.1,0.1-39.2C161.7,12.7,161.5,11.2,162.5,10z"/>
	<path class="st18" d="M171,59.4c0.4-1.2,0.5-2.4,0.5-3.7c0-15.2,0-30.4,0-45.7c2.7,0,5.3,0,8,0c0,16.2,0,32.3,0,48.5
		c0,2.2,0.1,4.3-0.5,6.4c-0.1,0.1-0.2,0.1-0.3,0.2c-2.8-1.2-4.8-3.5-7.3-5.1C171.2,59.8,171.1,59.6,171,59.4z"/>
	<path class="st19" d="M51.5,246.1c0-24.9,0-49.7,0-74.6c0-4.6-0.4-9.1,0.5-13.6c1.1,0.1,1.2,1.1,1.6,1.9c0.8,2.3,2.5,4.2,3,6.7
		c0,0.3,0.1,0.6,0.1,0.9c0.3,25.2,0.1,50.4,0.1,75.5c0,0.7,0,1.5-0.1,2.2c-0.2,1.3-0.9,1.9-2.3,1.4
		C53.4,246.4,52.4,246.7,51.5,246.1z"/>
	<path class="st20" d="M57,10.1c1.7-0.1,3.3-0.3,5-0.1c1.1,1.3,0.8,2.8,0.8,4.3c0,21.6,0,43.2,0,64.8c-0.6,3.6-2.5,6.3-5.3,8.5
		c-0.3-0.2-0.5-0.4-0.6-0.7c-0.7-1.3-0.7-2.7-0.7-4.1c0-23,0-46.1,0-69.1C56.2,12.4,56,11.1,57,10.1z"/>
	<path class="st21" d="M49,11.5c1.5-0.6,2.9-1,4.5-0.9c1.5,1.4,1.3,3.3,1.3,5.1c0,18.1,0,36.3,0,54.4c0,7.4,0,14.8,0,22.2
		c0.7,2.6-1.4,4.5-1.9,6.8c-0.5,1-0.8,2.2-1.3,3.2c-0.4,0.7-0.9,1.3-1.6,0.2c-0.9-1.9-0.8-3.9-0.8-5.9c0-25.9,0-51.7,0-77.6
		C49.2,16.5,49.2,14,49,11.5z"/>
	<path class="st22" d="M49,11.5c1.7,0.4,1,1.7,1,2.7c0,21.9,0,43.8,0,65.7c0,5.7,0.1,11.3,0,17c0,2.1,0.4,4.1,0.6,6.2
		c0.4,0.4,0.4,0.9,0.4,1.5c-0.6,1.8-1,3.7-1.4,5.6c-0.6,1.7-0.7,3.5-1,5.3c-0.4,0.8-0.2,2-1.4,2.1c-0.6-2.4-0.5-4.9-0.5-7.4
		c0-31.6,0-63.2,0-94.7c0-1,0.8-2.4-1-2.9C46.6,11.9,47.7,11.5,49,11.5z"/>
	<path class="st23" d="M65,10c1.7,0,3.3,0,5,0c1.1,1.3,0.8,2.8,0.8,4.3c0,16.9,0,33.7,0,50.6c0,1.7,0,3.5,0.2,5.2
		c0,0.3,0,0.6-0.1,0.9c-1,2.2-3,3.5-4.6,5.2c-0.6,0.7-1.2,0.3-1.5-0.4c-0.7-1.4-0.6-2.9-0.6-4.4c0-19.2,0-38.4,0-57.6
		C64.2,12.5,64,11.1,65,10z"/>
	<path class="st24" d="M64,247c-1.5,0-3,0-4.5,0c-0.9-1-0.8-2.2-0.8-3.3c0-22.1,0-44.1,0-66.2c0-1.2,0-2.3,0.6-3.4
		c0.7-1.1,1.5-0.7,2.1,0.1c0.7,0.9,1.4,1.8,2.1,2.7c0.6,0.9,1.2,1.7,1.2,2.8c0.3,6.4,0.1,12.8,0.1,19.2c0,14.7,0,29.3,0,44
		C64.8,244.3,65,245.8,64,247z"/>
	<path class="st25" d="M150,10c2.5,0,5,0,7.5,0c0.9,1,0.8,2.2,0.8,3.3c0,11.7,0,23.3,0,35c0,1.3,0,2.7-0.8,3.9
		c-0.1,0.1-0.2,0.3-0.3,0.3c-1.9,0.6-7.4-1.3-8.8-3c0.7-1.5,0.8-3.2,0.8-4.9c0-10.3,0-20.6,0-30.9C149.2,12.5,149,11.1,150,10z"/>
	<path class="st26" d="M60.1,173.4c-0.5,1.4-0.6,2.9-0.6,4.4c0,23.1,0,46.1,0,69.2c-1.7-0.1-3.5,0.3-5.1-0.4c0.9,0,1.7-0.2,1.6-1.4
		c0-0.7,0-1.3,0-2c0-25.6,0-51.1,0-76.7c1.7,0.2,1.5,2,2.4,2.9c0.6,0.7,0.9,1.6,1.4,2.3C60.1,172.2,60.5,172.7,60.1,173.4z"/>
	<path class="st27" d="M139,10c2.3,0,4.7,0,7,0c0.9,1,0.8,2.2,0.8,3.3c0,10.7,0,21.3,0,32c0,1.4,0.2,2.9-1.4,3.7
		c-2.5,0.2-4.9,0.5-6.8-1.6c-0.4-1-0.3-2.1-0.3-3.2c0-10.1,0-20.3,0-30.4C138.2,12.5,138,11.1,139,10z"/>
	<path class="st28" d="M70.5,70.9C70.1,69.7,70,68.4,70,67c0-19,0-38,0-57c1.5,0,3,0,4.5,0c0.7,0.7,0.8,1.6,0.8,2.6
		c0,17.7,0.1,35.4-0.1,53c0,0.2,0,0.3-0.1,0.5C74.4,68.5,73.2,70.4,70.5,70.9z"/>
	<path class="st29" d="M77.5,10c1.7,0,3.3,0,5,0c0.7,0.7,0.8,1.6,0.8,2.6c0,15.7,0.1,31.4,0,47.2c0,0.2-0.1,0.3-0.1,0.5
		c-1,2.6-3,3.8-5.6,4.4c-0.2-0.2-0.4-0.5-0.5-0.8c-0.3-0.9-0.3-1.8-0.3-2.7c0-15.9,0-31.7,0-47.6C76.7,12.3,76.6,11.1,77.5,10z"/>
	<path class="st30" d="M71.5,247c-1.3,0-2.7,0-4,0c-0.9-1-0.8-2.2-0.8-3.3c0-18.7,0-37.3,0-56c0-1.2-0.1-2.3,0.7-3.4
		c1.8-1.2,2.6,0.5,3.7,1.3c0.7,0.6,1,1.5,1.1,2.4c0.2,1.1,0.2,2.2,0.2,3.2c0,17.1,0,34.2,0,51.4C72.3,244.1,72.6,245.7,71.5,247z"/>
	<path class="st31" d="M54.7,93.1c-1.1-0.8-0.7-2-0.7-3c0-24.3,0-48.6,0-72.9c0-2.2,0.1-4.5-0.5-6.7c1.1-0.4,2.3-0.7,3.5-0.5
		c0,23.5,0,46.9,0,70.4c0,2.4-0.1,4.8,0.6,7.2c0.4,2.3-1.4,3.5-2.2,5.3C55.2,93.1,54.9,93.1,54.7,93.1z"/>
	<path class="st32" d="M80,247c-1.5,0-3,0-4.5,0c-0.9-1-0.8-2.1-0.8-3.3c0-16.2,0-32.4,0-48.5c0-1.2,0-2.3,0.7-3.4
		c2.1-0.9,4.4,0.5,5.4,3.2c0.1,16.3,0,32.6,0,48.9C80.8,245,80.8,246.1,80,247z"/>
	<path class="st33" d="M76,191.4c-0.7,1.1-0.5,2.2-0.5,3.4c0,17.4,0,34.8,0,52.1c-1.3,0-2.7,0-4,0c0-19.8,0-39.7,0-59.5
		C73.9,187.8,75.7,189.5,76,191.4z"/>
	<path class="st34" d="M68,183.9c-0.7,1.1-0.5,2.2-0.5,3.4c0,19.9,0,39.8,0,59.7c-1.2,0-2.3,0-3.5,0c0-22.7,0-45.4,0.1-68.1
		C66.1,180,67.9,181.3,68,183.9z"/>
	<path class="st35" d="M115.5,10c2,0,4,0,6,0c0.9,1,0.8,2.2,0.8,3.3c0,10.1,0,20.3,0,30.4c0,1.7,0.1,3.4-2,4.1
		c-1.7,0.3-3.4,1.3-5.1,0c-0.6-1-0.5-2.1-0.5-3.2c0-10.4,0-20.7,0-31.1C114.7,12.3,114.6,11.1,115.5,10z"/>
	<path class="st36" d="M157,52.4c0.4-1.2,0.5-2.4,0.5-3.7c0-12.9,0-25.8,0-38.7c1.7,0,3.3,0,5,0c0,13.5,0,27,0,40.6
		c0,1.2,0.1,2.5-0.6,3.6c-1.3,0.6-2.4-0.4-3.6-0.6C157.7,53.4,157.1,53.2,157,52.4z"/>
	<path class="st37" d="M85.5,10c1.5,0,3,0,4.5,0c0.7,0.8,0.8,1.8,0.8,2.8c0,13.8,0,27.6,0,41.4c0,0.6-0.1,1.2-0.2,1.7
		C90,57.7,88.4,58.3,87,59c-0.7,0.3-1.4,0.4-1.9-0.5c-0.4-1-0.4-2.1-0.4-3.2c0-13.8,0-27.7,0-41.5C84.7,12.5,84.5,11.1,85.5,10z"/>
	<path class="st38" d="M88,247c-1.5,0-3,0-4.5,0c-0.9-1-0.8-2.2-0.8-3.3c0-13.7,0-27.4,0-41.1c0-1.3,0-2.7,0.9-3.8
		c2.5-0.5,5.3,2.1,5.4,4.9c-0.3,1.6-0.3,3.1-0.3,4.7c0,11.5,0,23,0,34.6C88.8,244.3,89,245.8,88,247z"/>
	<path class="st39" d="M115.5,10c0,12.6,0,25.3,0,37.9c-1.9,1.6-3.9,1.9-5.9,0.8c-0.5-1.1-0.4-2.3-0.4-3.4c0-10.5,0-21,0-31.4
		c0-1.3-0.2-2.7,0.8-3.8C111.8,10,113.7,10,115.5,10z"/>
	<path class="st40" d="M65,10c0,19.8,0,39.6,0,59.5c0,2.3-0.2,4.7,0.5,6.9c0,1.7-1.3,2.5-2.3,3.7c-0.2,0.1-0.5,0.1-0.7,0
		C61.9,79,62,77.9,62,76.7c0-22.2,0-44.5,0-66.7C63,10,64,10,65,10z"/>
	<path class="st41" d="M139,10c0,12.5,0,25,0,37.6c-2.3,0.8-4.6,1.6-6.6-0.6c0.4-1.9,0.4-3.8,0.4-5.7c0-9.1,0-18.3,0-27.4
		c0-1.3-0.2-2.7,0.8-3.8C135.3,10,137.2,10,139,10z"/>
	<path class="st42" d="M106,247c-2.2,0-4.3,0-6.5,0c-0.9-1-0.8-2.2-0.8-3.3c0-8.4,0-16.7,0-25.1c0-1.3,0-2.7,0.9-3.8
		c0.3-0.3,0.7-0.6,1.1-0.4c2.7,1.6,5.3,3.3,6.1,6.7c0,7.5,0,15,0,22.5C106.8,244.8,106.9,246,106,247z"/>
	<path class="st43" d="M124.5,10c1.7,0,3.3,0,5,0c0.9,1,0.8,2.1,0.8,3.3c0,10.2,0,20.4,0,30.6c0,1.1,0,2.2-0.6,3.1
		c-1.8,1.1-3.5,1-5.3,0.1c-0.6-0.9-0.6-1.9-0.7-2.9c0-10.4,0-20.8,0-31.1C123.7,12,123.7,10.9,124.5,10z"/>
	<path class="st44" d="M90,56.5c0-15.5,0-31,0-46.4c1.3,0,2.7,0,4,0c0.7,0.7,0.8,1.6,0.8,2.6c0,13.3,0.1,26.6,0,39.9
		c0,0.4-0.1,0.8-0.2,1.2C93.7,55.7,92.2,56.6,90,56.5z"/>
	<path class="st45" d="M84.4,198.5c-1,1-0.9,2.2-0.9,3.5c0,15,0,30,0,45c-1.2,0-2.3,0-3.5,0c0-16.5,0-33.1,0-49.6c0-1-0.4-2,0.5-2.8
		c0.7-0.3,0.9,0.4,1.3,0.7c0.4,0.5,0.8,0.9,1.4,1.1c0.3,0.1,0.5,0.3,0.7,0.5C84.2,197.3,84.9,197.8,84.4,198.5z"/>
	<path class="st46" d="M110,10c0,13,0,26,0,38.9c-1.8,1.8-2.9,1.9-4.9,0.7c-0.5-1.2-0.4-2.4-0.4-3.7c0-10.6,0-21.3,0-31.9
		c0-1.4-0.2-2.9,0.8-4.1C107,10,108.5,10,110,10z"/>
	<path class="st47" d="M94,54.5c0-14.8,0-29.6,0-44.4c1.3,0,2.7,0,4,0c1,1.2,0.8,2.7,0.8,4c0,12.6,0,25.2,0,37.8
		c0,0.5-0.1,0.9-0.4,1.2C97,53.8,95.8,55.2,94,54.5z"/>
	<path class="st48" d="M77.5,10c0,18.2,0,36.4,0,54.6c-0.3,1.7-1.5,2.2-3,2.5c0-19,0-38.1,0-57.1C75.5,10,76.5,10,77.5,10z"/>
	<path class="st49" d="M105.5,10c0,13.4,0,26.8,0.1,40.1c-1.8,1.8-2.8,2-4.5,0.8c-0.4-1-0.3-2.1-0.3-3.2c0-11.3,0-22.6,0-34
		c0-1.3-0.2-2.7,0.8-3.8C102.8,10,104.2,10,105.5,10z"/>
	<path class="st50" d="M144.9,48.6c1.6-0.3,1.1-1.6,1.1-2.6c0-12,0-24,0-35.9c1.3,0,2.7,0,4,0c0,12.4,0,24.8,0,37.2
		c0,1.3-0.1,2.3-1.5,2.7C147,50.3,145.8,49.9,144.9,48.6z"/>
	<path class="st51" d="M95.5,247c-1.3,0-2.7,0-4,0c-0.9-1-0.8-2.1-0.8-3.3c0-11.3,0-22.6,0-33.8c0-1.2-0.2-2.5,0.9-3.5
		c2.6,0.2,4.1,1.5,4.6,4.2c0.1,11,0,21.9,0,32.9C96.3,244.7,96.4,245.9,95.5,247z"/>
	<path class="st52" d="M92.4,206.5c-1.5,0.4-0.9,1.6-0.9,2.5c0,12.7,0,25.3,0,38c-1.2,0-2.3,0-3.5,0c0-13.7,0-27.4,0-41.1
		c0-1-0.3-2.2,0.9-2.9C90.7,203.6,92.3,204.3,92.4,206.5z"/>
	<path class="st53" d="M85.5,10c0,16.3,0,32.7,0,49c0.1,0.2,0.2,0.4,0,0.6c-0.9,0.7-1.7,1.7-3,1.3c0-17,0-34,0-51
		C83.5,10,84.5,10,85.5,10z"/>
	<path class="st54" d="M129.5,47c0-12.3,0-24.7,0-37c1.3,0,2.7,0,4,0c0,11.5,0,23,0,34.4c0,1,0.5,2.3-1.1,2.6
		C131.4,47.8,130.4,47.8,129.5,47z"/>
	<path class="st55" d="M101.5,10c0,13.8,0,27.6,0,41.4c-0.7,1.3-1.7,1.7-3,1.1c-0.8-0.8-0.5-1.9-0.5-2.8c0-13.2,0-26.4,0-39.6
		C99.2,10,100.3,10,101.5,10z"/>
	<path class="st56" d="M95.5,247c0-11.4,0-22.9,0-34.3c0-0.9-0.3-1.8,0.4-2.6c1.9,1.1,4.2,1.8,4.5,4.5c-1,1-0.9,2.2-0.9,3.5
		c0,9.7,0,19.3,0,29C98.2,247,96.8,247,95.5,247z"/>
	<path class="st57" d="M106,247c0-7.9,0-15.9,0-23.8c0-0.9-0.3-1.8,0.4-2.6c2.7,1,4.8,2.6,5.3,5.7c0.1,5.8,0,11.6,0,17.4
		c0,1.2,0.1,2.3-0.8,3.3C109.3,247,107.7,247,106,247z"/>
	<path class="st58" d="M124.5,10c0,12.3,0,24.7,0,37c-1.4,1.8-2.9,1.4-4.5,0.3c1.5-0.5,1.5-1.6,1.5-2.9c0-11.5,0-23,0-34.4
		C122.5,10,123.5,10,124.5,10z"/>
	<path class="st35" d="M123,247c-2.5,0-5,0-7.5,0c-0.3-0.3-0.6-0.7-0.6-1.1c-0.2-5.2-0.6-10.4,0.3-15.6c0.6-0.8,1.3-0.7,1.9-0.1
		c2.5,2.2,4.9,4.4,6.9,7c0.3,0.3,0.3,0.8,0.2,1.2c-0.5,1.7-0.5,3.5-0.5,5.3C123.7,244.8,123.8,246,123,247z"/>
	<path class="st39" d="M116,230c-0.8,0.8-0.4,1.9-0.5,2.8c0,4.7,0,9.4,0,14.1c-1.5,0-3,0-4.5,0c0-6.3,0-12.6,0-18.8
		c0-0.9-0.3-1.8,0.4-2.6C113.4,226.5,115.6,227.4,116,230z"/>
	<path class="st59" d="M123,247c0-2.2,0-4.3,0-6.5c0-1,0.3-1.8,0.9-2.5c0.4,0,0.7,0,1,0.2c2.6,2.2,5.3,4.4,7.1,7.4
		c0.3,0.5,0.7,0.9,1,1.4C129.7,247,126.3,247,123,247z"/>
	<path class="st60" d="M199,246.5c1.2,0,2.5,0,3.7,0c-1.2,0.8-2.5,0.4-3.8,0.4C199,246.8,199,246.6,199,246.5z"/>
	<path class="st61" d="M246.5,202.8c0-0.9-0.3-1.9,0.4-2.8C247,201,247.3,201.9,246.5,202.8z"/>
	<path class="st62" d="M197,84c0.3,0.2,0.6,0.3,0.8,0.5c11.3,11.2,22.7,22.5,34,33.7c0.2,0.2,0.4,0.5,0.6,0.8
		c-5.1,5.8-10.3,11.5-15.5,17.2c-1.9,2.1-3.6,4.4-5.8,6.2c-0.8,0.7-1.6,1.9-2.9,0.9c-0.3-0.6-0.3-1.3-0.3-1.9c0.4-2.3,1-4.6,1.2-7
		c0.5-3.9,0.4-7.8,0-11.6c-0.3-2.3-0.6-4.7-1-7c-0.3-1.7-0.5-3.4-1-5c-0.8-2.4-0.9-4.9-1.9-7.2c-0.2-0.3-0.3-0.6-0.5-1
		c-0.6-1.9-1-3.9-2-5.7c-1.3-1.8-1.3-4.3-2.9-6c-0.9-2.3-2.8-4.2-3.3-6.7C196.6,83.8,196.8,83.8,197,84z"/>
	<path class="st63" d="M208.6,143.5c2.3-1.1,3.9-3.1,5.5-4.9c3.9-4.2,7.7-8.6,11.5-12.9c1.6-1.8,3.2-3.6,4.8-5.3
		c0.5-0.6,1-1.3,2-1.3c1.8,1.7,3.7,3.4,5.5,5.1c0.5,0.6,1,1.3,1.5,1.9c-4.7,4.2-8.6,9.2-12.8,13.9c-2,2.2-4.1,4.4-6,6.6
		c-5.4,6.3-11.1,12.3-16.7,18.4c-0.8,0.9-1.5,2-2.4,2.8c-0.5,0.5-1,1.5-2,0.7c-0.5-2,1.2-3.3,1.6-5c0.8-1.5,1.6-2.9,1.9-4.5
		c0.7-1.5,1.5-3,1.9-4.7c0.5-1.9,1.2-3.8,1.6-5.8C207.2,146.8,206.9,144.8,208.6,143.5z"/>
	<path class="st64" d="M196.6,84c1.2,2.1,2.4,4.3,3.6,6.4c-1.9,1.4-4,0.7-6,0.6c-1-0.3-1.6-1-2.2-1.8c-1.6-2.2-3.1-4.4-4.8-6.6
		c-0.6-0.7-1.4-1.5-0.3-2.5c2.2-0.6,4.4-0.3,6.7-0.1c1,0.3,1,1.6,1.9,2.1C195.9,82.7,196.7,83.1,196.6,84z"/>
	<path class="st65" d="M193.5,80.1c-2.3,0.9-4.7,0.2-7,0.4c-2-0.5-2.7-2.4-4.2-3.6c-1.1-0.9-2.1-2-3.1-3.1c-0.6-0.7-1.3-1.3-0.7-2.4
		c2.3-1.2,4.6-0.4,7-0.4c1.7,0.7,2.4,2.6,3.9,3.6C190.8,76.4,192.1,78.2,193.5,80.1z"/>
	<path class="st10" d="M196.6,84c-0.4-0.6-1.1-1.1-1.2-1.9c0.9,0.3,1.4,0.9,1.6,1.8C196.9,84,196.8,84,196.6,84z"/>
	<path class="st66" d="M81.5,195.5c-0.3-0.3-0.7-0.7-1-1c-1.6-0.9-2.6-2.6-4.5-3.1c-1.1-1.8-2.7-3-4.5-4c-0.6-1.7-2.3-2.4-3.5-3.5
		c-0.7-2.1-2.7-3.4-4-5.1c0-0.8-1.3-0.9-1.1-1.9c2.1-1.4,4.4-0.4,6.6-0.9c1.2,0,1.9,0.9,2.6,1.7c12.3,13.6,27.4,21.8,45.5,24.6
		c1.4,0.2,2.8,0.6,4.2,0.4c3-0.2,6.1,1.1,9.1,0.2c4.9-0.2,9.8-0.8,14.6-1.9c5.2-1.3,10.3-3,15.1-5.4c4.2-1.9,8.2-4.3,11.9-7.1
		c3.5-2.6,6.9-5.2,9.7-8.6c2.1-1.3,2.8-4.1,5.5-4.7c2.2,0.1,4.5-0.8,6.5,0.7c-4.8,7.1-11,12.9-17.8,18c-0.3,0.2-0.6,0.5-0.9,0.8
		c-0.9,1.8-2.6,2.5-4.2,3.4c-6.3,3.7-12.9,6.9-19.9,8.9c-6.2,1.9-12.5,2.9-18.9,3.3c-3.5-0.6-7.1-0.3-10.6-0.2
		c-10.1-1-19.9-3-28.9-7.9c-3.2-1.7-6.7-2.9-9.4-5.5c-0.1-0.2-0.3-0.4-0.4-0.6C82.4,196.3,82,195.8,81.5,195.5z"/>
	<path class="st63" d="M151.5,206.6c8.6-2.7,16.5-6.7,24-11.7c0.2,1.4-0.7,2.4-1.5,3.3c-3.3,3.7-6.7,7.4-10,11.1
		c-7.5,8.3-15,16.6-22.5,24.9c-2.5,2.8-5.1,5.5-7.7,8.2c-0.9,0.9-1.7,1.8-1.9,3.2c-2.5-2.4-5-4.7-7.5-7.1c-0.6-1.6,0.6-2.5,1.4-3.4
		c7.2-7.7,14-15.7,21.2-23.3C148.7,210.1,150,208.3,151.5,206.6z"/>
	<path class="st67" d="M194.2,176.1c-2.4,0-4.8,0-7.2-0.1c-0.4-1.5,0.8-2.2,1.5-3.2c0.9-1.3,1.8-2.6,2.8-3.8
		c0.3-0.3,0.7-0.4,1.1-0.5c2.1,0,4.3-0.8,6,1C197.4,171.9,195.8,174,194.2,176.1z"/>
	<path class="st68" d="M198.4,169.5c-2.1-0.8-4.3-0.4-6.4-0.5c0.3-2.7,1.4-5,3.9-6.4c1.9,0.4,4-0.4,5.8,0.9
		c-0.7,1.6-1.5,3.2-2.2,4.8C199.1,168.8,198.8,169.1,198.4,169.5z"/>
	<path class="st69" d="M47,117.6c0.9-0.5,0.2-1.6,0.9-2.2c1.8,0.7,3.9,0,5.7,1.1c0.5,0.6,0.6,1.3,0.6,2.1c-0.1,2.4-0.4,4.7-0.7,7.1
		c-1.3,2.3-2.8,2.7-6.3,1.7c-0.9-1.2,0-2.6-0.6-3.8C47.4,121.5,47,119.5,47,117.6z"/>
	<path class="st70" d="M48.9,147.5c-0.5-2-0.9-4.1-1.4-6.1c0-0.5,0-0.9,0.1-1.4c2.1-0.8,4.3-1.1,6.3,0.4c1.1,2.4,2.4,4.7,1,7.4
		C52.8,148.4,50.9,148.6,48.9,147.5z"/>
	<path class="st71" d="M53.5,140.5c-1.9-1-4,0.1-5.9-0.5c-0.8-1.9-0.4-4-0.7-6c-0.1-0.3,0-0.6,0.3-0.8c1.9-0.6,3.8-0.7,5.7,0
		c0.9,0.9,1,2.2,1.2,3.3C54.1,137.9,54.6,139.3,53.5,140.5z"/>
	<path class="st72" d="M47.1,133.5c-0.1,0.2-0.1,0.3-0.2,0.5c-0.9-3.5-0.2-7-0.4-10.5c1,1.1,0.1,2.4,0.5,3.5
		C48.1,129.2,48.1,131.3,47.1,133.5z"/>
	<path class="st73" d="M185.5,71c-1.2,1-2.7,0.3-4,0.5c-1,0.2-2.1-0.4-3,0.5c-0.6,0.3-1.2,0.1-1.6-0.3c-1.9-1.5-3.8-2.9-5.7-4.4
		c-0.5-0.5-1.2-1-0.5-1.8c2.7-1.4,5.5-0.6,8.3-0.4l0-0.2C181.6,66.5,183.5,68.8,185.5,71z"/>
	<path class="st74" d="M48.9,147.5c2,0,4,0,6.1,0c1.8,1.4,2.7,4.7,1.8,6.8c-2.1,0.6-4.2,0.8-6.2-0.3C50.6,151.7,49,149.8,48.9,147.5
		z"/>
	<path class="st75" d="M50.6,154c2.1,0,4.3,0,6.4,0c2,1.5,2.9,3.4,2.4,5.9c-2.1,1.2-4.2,1.3-6.3,0.1c-0.4-0.7-0.7-1.4-1.1-2.1
		C51.9,156.5,51,155.3,50.6,154z"/>
	<path class="st76" d="M158.5,53c1.1,0.4,2.3,0.8,3.4,1.2c3,1.7,6.1,3.4,9.1,5.1c0.2,0.1,0.3,0.2,0.5,0.3c0.3,1.9-1.2,1.5-2.1,1.6
		c-2.3,0.2-4.6-0.1-6.9,0.4c-1,0.1-1.9-0.3-2.8-0.7c-4.2-2-8.5-3.5-13-4.6c-1.1-0.5-3,0.1-3-2c1.2-1.1,2.6-0.9,4-1
		C151.2,53.1,154.9,53.5,158.5,53z"/>
	<path class="st77" d="M162,61c2.4-0.8,4.8-0.4,7.3-0.5c0.8,0,1.9,0.4,2.2-0.9c2.8,1.4,5,3.7,7.5,5.5c-1.7,0.8-3.4,0.3-5.1,0.4
		c-1.1,0.1-2.3-0.2-3.4,0.5C167.2,65.2,164.3,63.6,162,61z"/>
	<path class="st78" d="M59.5,172c-1.6-1.5-2.2-3.8-3.5-5.5c0-0.2,0-0.3,0-0.5c1.8-1.7,4-1.2,6.1-0.9c2.2,1.4,3.1,3.8,4.3,5.9
		c0.3,0.5,0.2,1.1-0.5,1.5C63.8,172.8,61.6,173.2,59.5,172z"/>
	<path class="st79" d="M62.5,165.5c-2.2,0-4.3-0.1-6.4,0.5c-1.2-1.9-2.2-3.9-2.9-6c2.1-0.2,4.3,0.5,6.4-0.5
		C61.3,161.1,62.3,163.1,62.5,165.5z"/>
	<path class="st80" d="M62.5,80.1c0.2,0,0.3-0.1,0.5-0.1c2.1,0.5,4.2,0.1,6.3,0.7c1,1.4-0.3,2.1-0.8,3.1c-1.7,1.7-2.3,4.5-4.9,5.3
		c-1.2,0.2-2.4,0.2-3.6,0c-1-0.1-2-0.3-1.9-1.6C59.1,84.8,61.2,82.7,62.5,80.1z"/>
	<path class="st81" d="M58,87.5c1.7,2,4,0.5,6,1c0.1,2.8-1.4,4.7-3.4,6.3c-1.4,0.1-2.8-0.1-4.2-0.2c-0.8-0.1-1.9-0.2-1.4-1.6
		c0.4-2,2.1-3.4,2.5-5.4C57.7,87.6,57.9,87.5,58,87.5z"/>
	<path class="st82" d="M55,93c0.2,1.2,1.1,1,1.9,1c1.4-0.1,2.8,0.1,4.1,0.5c0.3,0.5,0.1,1-0.1,1.5c-0.9,1.5-1.2,3.5-2.9,4.5
		c-1.2,0.3-2.4,0.3-3.7,0.2c-1-0.1-2-0.3-1.9-1.7c0.2-2.1,1.8-3.8,2.2-5.8C54.8,93.1,54.9,93.1,55,93z"/>
	<path class="st83" d="M52.5,98.9c1.7,2.2,4,0.6,6,1.1c0.4,1.5-0.7,2.6-0.9,4c-0.3,0.8-0.6,1.6-1.5,2c-1.4,0.4-2.8,0.4-4.1,0.2
		c-0.8-0.1-2-0.2-1.5-1.6c0-0.5,0-1,0-1.5C51.2,101.7,51.8,100.3,52.5,98.9z"/>
	<path class="st84" d="M50.5,104.5c0.3,1.5,1.5,0.9,2.4,1c1.2,0.1,2.4,0,3.6,0c0,2.4-0.1,4.8-2.2,6.5c-1.2,0.3-2.4,0.3-3.7,0.1
		c-1.1-0.2-2.1-0.6-1.6-2.1C49.2,108.1,49.5,106.2,50.5,104.5z"/>
	<path class="st85" d="M49,110c0.1,1.5,1.2,1.5,2.3,1.5c1.1,0,2.1,0,3.2,0c1,1.9,0.6,3.6-1,5c-1.2,0-2.5,0-3.7,0
		c-0.9,0-1.7,0-1.8-1.2C48,113.5,48.1,111.7,49,110z"/>
	<path class="st86" d="M69.5,81c-1.4,0-2.8,0-4.2,0c-0.9,0-1.8,0-2.3-1c0.8-1.2,1.7-2.4,2.5-3.6c1.6-1.7,3.3-3.3,4.9-5
		c2.4,0.6,4.9-0.3,7.2,0.7c0.4,0.9-0.2,1.5-0.7,2.1c-1.9,2-4.1,3.8-5.8,6.1C70.8,80.7,70.3,81.3,69.5,81z"/>
	<path class="st73" d="M77.5,72.5c-0.5-0.7-1.1-0.3-1.8-0.2c-1.9,0.3-3.8,0.5-5.4-0.9c0-0.2,0.1-0.3,0.1-0.5c1.5-1.1,2.8-2.4,4-3.8
		c1.1-0.8,2.2-1.4,3-2.5c0.2,0,0.3-0.1,0.5-0.1c2.8,0.6,5.6-0.1,8.4,0.7c0.2,0.2,0.3,0.4,0.3,0.6C83.9,68.5,81.3,71.2,77.5,72.5z"/>
	<path class="st87" d="M59.5,172c2.3,0,4.7,0,7,0c2.1,0.8,3.2,2.4,3.5,4.5c-2.3,1-4.7,0.3-7,0.5c-1.5-0.8-1.6-2.7-2.9-3.6
		C59.9,172.9,59.7,172.4,59.5,172z"/>
	<path class="st88" d="M158.5,53c-0.6,1.3-1.8,0.9-2.9,1c-4,0.2-8.1-0.5-12.1,0.5c-0.7,0.8-1.7,0.7-2.6,0.6c-3-0.5-6.1-0.6-9.2-1
		c-4.3-0.6-8.4,0.3-12.7,0.4c-2.1,0.2-4.2,0.8-6.3,0.7c-4.1-0.8-8.2-0.2-12.3-0.5c-1-0.1-2.7,0.4-2.5-1.7c0.2-0.2,0.3-0.4,0.5-0.6
		c1-0.4,2-0.7,3-1.1c1.4-0.4,2.7-0.8,4.1-1.3c1.5-0.2,3-0.5,4.4-1.2c1.8-0.3,3.7-0.7,5.5-1c1.5-0.2,3-0.3,4.5-0.5
		c1.5,0.1,3,0.1,4.5-0.3c1.7,0,3.3,0,5-0.1c1,0.2,1.9,0.3,2.9,0.1c2.2,0.6,4.4,0.3,6.6,0.5c1.9,0.6,3.9,0.8,5.9,1
		c1.2,0.4,2.4,0.8,3.6,1.2c2.8,0.9,5.7,1.7,8.5,2.6C157.5,52.6,158,52.8,158.5,53z"/>
	<path class="st89" d="M86.5,65.5c-1.9,0-3.7,0-5.6,0c-1.1,0-2.1-0.3-2.9-1c1.5-1.2,3-2.3,4.5-3.5c1-0.5,2-1.1,2.9-1.6
		c2.1,0.3,4.2,0.4,6.3,0.4c1,0,2-0.1,2.8,0.7c0.3,0.5,0.2,1-0.3,1.3c-2.3,1.4-4.5,3-7.1,3.9C87,65.8,86.7,65.7,86.5,65.5z"/>
	<path class="st90" d="M94.5,61c-1.8-1-3.8-0.3-5.7-0.5c-1.2-0.1-2.5,0-3.3-1.1c0-0.1,0-0.3,0.1-0.4c1.7-0.6,3-1.7,4.5-2.6
		c1.3-0.7,2.7-1.3,4-2c1.3-0.5,2.7-1,4-1.4c0.3,1.4,1.4,0.9,2.2,0.9c4.3,0.2,8.6-0.4,12.8,0.5c-0.2,1.3-1.4,1.2-2.3,1.5
		c-3.6,0.9-7.1,2-10.6,3.4c-1.2,0.4-2.3,0.9-3.4,1.4C96.1,61.1,95.3,61.7,94.5,61z"/>
	<path class="st62" d="M151.5,206.6c-0.1,2.3-2,3.4-3.2,4.8c-5.4,6.2-11.3,12.1-16.6,18.4c-2.4,2.9-5.8,5-7.2,8.7
		c-0.2-0.1-0.4-0.3-0.6-0.4c-2.4-2.9-5.1-5.5-7.9-8c-1-2-3.3-2.8-4.6-4.5c-1.4-2-3.2-3.5-5-5c-1.7-2.3-3.8-4.2-6-6
		c-1-2-3.2-2.8-4.5-4.5c-0.8-1.5-2.2-2.4-3.5-3.5c-0.7-1.6-2.5-2.2-3.5-3.5c-1.2-1.8-2.9-3.1-4.5-4.5c-0.3-0.5-0.6-1.1-0.9-1.6
		c3.6,1.8,7.1,3.7,10.7,5.4c6.2,3,12.7,5.2,19.5,6.2c2.6,0.4,5.3,0.4,7.8,1.4c3.7-0.3,7.4-0.3,11.1,0
		C138.9,209.3,145.3,208.3,151.5,206.6z"/>
	<path class="st91" d="M81.5,195.5c0.8-0.2,1.2,0.4,1.6,0.8C82.1,197.1,81.9,196,81.5,195.5z"/>
	<path class="st92" d="M208.6,115.4c0.7,2.3,0.8,4.7,1,7.1c0.3,2.4,0.1,4.9,0.1,7.3c-0.2,0.5-0.7,0.7-1.2,0.7c-2,0-3.8,0.3-4.6,2.4
		c-0.1,0.2-0.4,0-0.6-0.1c-0.4-0.6-0.5-1.4-0.5-2.1c0.2-4.5-0.4-9-0.3-13.5c0.4-1.1,1.4-1.3,2.4-1.3
		C206.1,115.8,207.4,115.6,208.6,115.4z"/>
	<path class="st93" d="M203.5,133c0.4-4.1,3.5-2.9,5.9-3c0.6,1.5,0.3,3,0.2,4.5c0.1,2.4-0.7,4.7-1.1,7c-1.8,1.1-3.7,0.8-5.6,0.4
		c-1.5-1.3-0.3-2.8-0.4-4.2c0-0.3,0.1-0.5,0.2-0.8c0.3-0.8,0.3-1.7,0.3-2.6C203,133.8,203.1,133.3,203.5,133z"/>
	<path class="st94" d="M193.5,90.5c2.2,0,4.5,0,6.7-0.1c1.4,1.8,1.9,4,2.8,6c0.1,1.4-1,1.5-2,1.7c-1.2,0.2-2.4,0.2-3.6-0.1
		C195.2,95.9,193.8,93.5,193.5,90.5z"/>
	<path class="st95" d="M202.5,141.5c2,0,4,0,6,0c0,0.7,0,1.3,0,2c-0.5,1.7-1,3.3-1.5,5c-2,1.1-4.1,0.8-6.1,0
		C200.5,146,201.3,143.7,202.5,141.5z"/>
	<path class="st96" d="M205.5,103c1.3,2.3,1.4,5,2.2,7.5c-0.8,0.9-2,0.7-3,0.7c-1,0-1.8,0.4-2.5,0.9c-1.6-0.1-1.1-1.6-1.6-2.5
		c-0.4-1.7-1.4-3.3-0.7-5.2C201.3,102.6,203.7,103.8,205.5,103z"/>
	<path class="st85" d="M202,112c-0.1-1.2,0.6-1.5,1.7-1.5c1.3,0,2.7,0,4,0c0.5,1.6,0.9,3.2,0.9,4.9c-0.2,1.3-1.2,1.1-2.1,1.1
		c-1.2,0.1-2.5-0.5-3.5,0.5C201.1,115.6,201.5,113.8,202,112z"/>
	<path class="st97" d="M197,97.5c2-0.5,4.3,1,6-1c1.1,1.8,2,3.8,2,6c0,1.1-0.8,1-1.5,1c-1.2,0-2.4,0.1-3.6,0
		C197.6,102.2,197.1,99.9,197,97.5z"/>
	<path class="st98" d="M199.5,103c1.8-0.3,3.8,0.6,5.5-0.6c0.2,0.2,0.3,0.4,0.5,0.6c-0.2,1.2-1.1,1-1.9,1c-1.2,0.1-2.5-0.2-3.6,0.5
		C198.9,104.3,199.1,103.7,199.5,103z"/>
	<path class="st99" d="M209.6,134.5c-0.1-1.5-0.1-3-0.2-4.5c0.1-2.5,0.1-5,0.2-7.5C210.3,126.5,210.3,130.5,209.6,134.5z"/>
	<path class="st100" d="M201,148.5c2,0,4,0,6,0c0,2.1-1,4-1.6,6c-1.9,0.4-3.9,0.4-5.8-0.2c-1.2-1.5,0-2.8,0.3-4.2
		C200.1,149.5,200.4,148.9,201,148.5z"/>
	<path class="st101" d="M199.5,154c2,0.2,4-0.5,5.9,0.5c-0.4,1.6-0.9,3.2-1.9,4.5c-2,1.1-3.9,0.9-5.8-0.1c-0.6-0.6-0.4-1.3-0.3-2
		C197.9,155.8,197.9,154.4,199.5,154z"/>
	<path class="st102" d="M197.5,158.5c2,0.7,4,0.5,6,0.5c-0.2,1.7-1.1,3.1-1.9,4.6c-2.1-0.3-4.2,0.4-6.2-0.6
		C195,161,196,159.6,197.5,158.5z"/>
	<path class="st103" d="M199.5,103c0,0.5-0.1,1.1,0.5,1.5c-0.1,1.7,0.7,3.3,1,5c-0.7,0.5-1.3,0.1-1.8-0.3c-1.1-0.8-2.1-1.6-3.1-2.5
		c-15.9-15.9-31.8-31.8-47.6-47.7c-0.9-0.9-2.5-1.7-1.5-3.5c5.2,1.4,10.1,3.4,15,5.5c2.8,1.7,5.7,3.3,8.5,5c2.6,2,5.1,4.3,8,6
		c2.7,2.8,5.3,5.7,8,8.5c2.3,3.3,4.7,6.7,7,10c1.2,2.3,2.3,4.7,3.5,7C198.1,99.2,198.2,101.4,199.5,103z"/>
	<path class="st104" d="M70,176.5c-1.1-1.6-2-3.2-3.5-4.5c-1.3-2.2-2.7-4.3-4-6.5c-1-2-2-4-3-6c-0.8-1.8-1.7-3.7-2.5-5.5
		c-0.3-2.3-1.1-4.4-2-6.5c-0.2-2.4-0.7-4.7-1.5-7c0-1.3,0-2.7,0-4c0.6-0.2,0.9,0.3,1.2,0.6c7.7,7.9,16.1,15.2,23.7,23.3
		c0.8,0.8,1.6,1.8,2.9,1.6c0.6,0.4,0.7,1,0.8,1.7c0.1,0.6,0,1.3,0,1.9c0,1-0.1,2.1,0,3.1c0.1,0.6,0.3,1.2,0.3,1.8
		c0.1,0.8,0.1,1.7,0.3,2.5c0.2,0.8,0.3,1.6,0.6,2.3c0.2,0.8,0.5,1.7,0.9,2.4c0.3,0.6,0.6,1.1,1,1.6c0.6,0.7,1.3,1.4,2,2
		c1.4,1.2,3,1.8,4.8,2.1c0.5,0.1,0.9,0.1,1.4,0.2c0.8,0.3,1.7,0.2,2.6,0.2c0.9,0,1.8,0,2.8,0.2c0.9,0.3,1.9,0.3,2.8,0.3
		c2.1,0.1,4.2-0.3,6.3,0.3c0.2,0.1,0.4,0.3,0.6,0.5c0,1.1-1,0.9-1.6,1c-0.6,0.2-1.5-0.3-1.7,0.6c-0.2,0.7,0.6,1.1,1.1,1.6
		c1.9,1.9,3.7,3.8,5.6,5.6c3.1,3,5.9,6.3,9.4,9c0.2,0.2,0.3,0.4,0.2,0.7c-8.3-0.7-16.3-2.8-23.9-6.2c-9.4-4.2-17.5-10.1-24.6-17.5
		C72,178.7,71.4,177.2,70,176.5z"/>
	<path class="st105" d="M146,201.5c-4.9,1.6-9.9,2.1-15,2c-0.9,0.4-1.8,0.5-2.5-0.4c-4.3-5.3-9.6-9.7-14.2-14.7
		c-0.7-0.8-1.7-1.4-1.5-2.7c0.1-0.4,0.4-0.5,0.7-0.7c1.9-0.4,3.7-0.1,5.6-0.2c3.7,0.1,7.4-0.1,11.1,0.1c0.7,0.1,1.2,0.4,1.7,1
		c4,4.8,8.7,8.9,13,13.4C145.4,199.9,146.3,200.4,146,201.5z"/>
	<path class="st106" d="M146,201.5c-3.7-3.7-7.3-7.5-11-11.2c-1.5-1.5-2.9-2.9-4-4.7c2-1.5,4.3-0.5,6.4-0.8c3.3-0.1,6.6,0.3,9.9-0.3
		c1.7-0.3,3.3-0.4,5,0c0.3,0.1,0.8,0.4,0.7,0.6c-1.4,1.6,0.1,2.3,0.9,3.2c2.3,2.6,5.3,4.6,7.1,7.7
		C156.4,198.8,151.3,200.4,146,201.5z"/>
	<path class="st107" d="M191.5,169.5c-1.5,2.2-3,4.3-4.5,6.5c-1.7,1.3-2.6,3.4-4.5,4.5c-0.8,0.3-1.3-0.2-1.7-0.7
		c-2-1.8-3.8-3.9-5.9-5.6c-0.7-0.6-0.9-1.4-0.9-2.2c0-0.5,0-1,0-1.6c0-0.4,0.1-0.8,0.2-1.2c0.5-1.9,0-3.8,0.3-5.7
		c0.2-1.3,0.6-2.7,0.4-4c0.1-1.2-0.1-2.4,0.3-3.6c0.7-1.2,1.5-0.6,2.3,0c1,0.8,2,1.8,2.9,2.8C183.7,162.5,188,165.6,191.5,169.5z"/>
	<path class="st108" d="M113,185.6c0,1,0.9,1.5,1.5,2.2c4.4,4.5,8.8,8.9,13.3,13.3c0.9,0.9,1.1,3,3.2,2.5c-1.5,0.9-3.3,0.6-4.8,0.3
		c-1.6-0.2-3.1-0.3-4.7-0.4c-1.6-0.6-2.7-1.9-3.8-3.1c-4.1-4.1-8.1-8.1-12.2-12.2c-0.6-0.6-1.8-1.1-1.3-2.2c0.4-1.1,1.6-0.4,2.5-0.5
		c0.7-0.1,1.3-0.1,2-0.1C110.1,184.6,111.6,184.5,113,185.6z"/>
	<path class="st109" d="M161,196c-3-2.9-5.9-5.8-8.9-8.6c-1.6-1.5-0.4-1.9,0.9-2.3c1.2-1.2,2.7-0.7,4.1-0.8c0.9,0,1.9,0.1,2.8-0.2
		c1.4-0.2,2.8-0.4,4.2-0.7c1.1-0.1,2.1-0.7,3.2-0.5c1.9,2,4.2,3.6,5.6,6.2C169.3,191.8,165.4,194.4,161,196z"/>
	<path class="st110" d="M172.9,189c-1.9-1.8-4.2-3.4-5.4-5.9c0.1-1,1-1.3,1.6-1.9c0.8-0.6,1.4-1.2,2-1.9c0.4-0.5,0.7-1,1-1.6
		c0.4-0.8,0.6-1.6,0.9-2.5c0.3-0.8,0.3-1.6,0.5-2.4c0.2-0.4,0.3-1,1-0.8c0,0.6-0.1,1.2,0.5,1.6c2.9,1.9,4.7,4.9,7.5,6.9
		C179.9,184,176.4,186.5,172.9,189z"/>
	<path class="st111" d="M132.5,210c-3.7,0-7.4,0-11.1,0C125.1,209.2,128.8,209.4,132.5,210z"/>
	<path class="st112" d="M191.5,169.5c-2.7-1.2-4.4-3.7-6.6-5.5c-2.5-2.1-4.7-4.7-7.1-7c-0.6-0.6-1.1-1.5-2.2-1.5c-1-0.8-0.7-2-0.8-3
		c-0.1-3.2,0.2-6.5-0.3-9.7c-0.2-0.7-0.2-1.4-0.2-2.2c0-1,0-1.9,0-2.9c0.2-1.2-0.6-2.3-0.1-3.4c0.3-0.4,0.6-0.5,1-0.1
		c7.6,7.6,15.3,15.1,22.8,22.8c-0.2,0.5-0.3,1-0.5,1.5c-0.7,1.5-1.7,2.8-2,4.5c-1.2,2-2.3,4-3.5,6
		C191.8,169.2,191.6,169.3,191.5,169.5z"/>
	<path class="st108" d="M81.1,161.9c-0.7,2-1.5,0.4-2-0.1c-4.6-4.5-9.1-9.2-13.8-13.7c-4-3.8-8.2-7.5-11.8-11.6
		c-0.2-1-0.7-1.9-0.5-3c-1.4-2.7-0.8-5.3,0-8c-0.3-2.4,0.5-4.7,0.5-7c1.6-0.7,2.2,0.7,3,1.5c7,7,14.1,14,21,21c1.3,1.3,3,2.1,4,3.7
		c0.4,3.4,0.1,6.8,0.2,10.3C81.4,157.3,82.3,159.7,81.1,161.9z"/>
	<path class="st113" d="M81.1,144.1c-1.3,0.1-2.1-0.8-2.9-1.7c-7.4-7.4-14.8-14.9-22.3-22.3c-0.7-0.7-1.2-1.6-2.4-1.7
		c0-0.7,0-1.3,0-2c0.6-1.6,1.1-3.2,1-5c0.7-2,1.3-4,2-6c0.2-0.7,0.3-1.3,0.5-2c1.6-0.4,2.4,0.9,3.3,1.8c6.4,6.3,12.7,12.6,19,19
		c1.4,1.4,3,2.6,4.4,4c-0.2,3.1-1.2,6.1-1.5,9.1c0,0.4-0.1,0.8-0.2,1.1c-0.6,1.6-0.1,3.3-0.5,4.9C81.4,143.7,81.3,143.9,81.1,144.1z
		"/>
	<path class="st114" d="M53,125.5c0,2.7,0,5.3,0,8c-2,0-3.9,0-5.9,0c0-2.2,0-4.3,0-6.5c1.1,0,2.2-0.1,3.2,0
		C51.7,127.2,52.4,126.6,53,125.5z"/>
	<path class="st98" d="M147,55.5c-0.2,1.2,0.6,1.8,1.3,2.5c16.2,16.2,32.4,32.4,48.7,48.7c1.2,1.2,2.4,2.3,4,2.8c1,0.6,0,1.9,1,2.5
		c0.5,1.6,0.2,3.4,1,5c0.7,5.3,0.5,10.7,0.5,16c0,0.5,0,1,0,1.5c-0.6,0.7,0.1,1.7-0.5,2.5l0,0c-1.8,0.4-2.7-1.1-3.7-2.1
		c-11.8-11.7-23.5-23.5-35.3-35.3c-1.9-1.9-3.9-3.9-5.8-5.8c-0.7-0.7-1.5-1.4-1.8-2.4c-0.3-1.9-0.1-3.8-0.2-5.7c0-3,0-3-3.1-3
		c-0.4,0-0.8,0-1.2,0c-1,0.2-0.8,1.2-1.3,1.8c-1,0.7-1.8,0-2.4-0.7c-9.5-9.4-19-18.8-28.3-28.4c-0.4-0.4-0.8-0.9-1-1.4
		c3.9-0.6,7.8-1.2,11.7-0.8c4.3,0.4,8.5,0.9,12.8,1.3C144.6,55.2,145.8,55.4,147,55.5z"/>
	<path class="st115" d="M69.5,81c2.4-2.3,4.3-5,7-7c1.1-0.3,1.7,0.6,2.3,1.2c8.1,8.1,16.3,16.2,24.4,24.3c0.6,0.6,1.2,1.2,1.4,2
		c0.3,3.1,0,6.3,0.2,9.4c0.1,2.4,0.8,2.8,3.1,2.8c2.2-0.1,2-1.6,2-3c-0.1-1.9-0.1-3.8,0-5.8c0-1.8-0.1-3.6,0-5.4
		c0.1-1-0.2-2.2,1.1-2.7c0.4,0.3,0.6,0.7,0.7,1.1c0.3,3.7,0.1,7.4,0.1,11.2c0,1.7,0.4,3.1,1.8,4.1c0.3,0.2,0.5,0.4,0.7,0.7
		c2.9,4.4,7.1,5.4,12.1,4.8c2-0.2,4,0,6,0c3.2,0.2,6.5-0.7,9.7,0.6c0.2,0.3,0.2,0.6-0.1,0.8c-0.6,0.4-1.2,0.5-1.9,0.5
		c-11.5,0-22.9,0.2-34.4-0.1c-0.6-0.1-1.1-0.4-1.5-0.8c-11.8-12.2-24-24.1-35.9-36.1c-0.1-0.1-0.1-0.1-0.1-0.2
		C68.5,82.7,69,81.8,69.5,81z"/>
	<path class="st116" d="M68,83.5c1.1,0,1.6,0.8,2.2,1.5c11,10.9,21.9,21.9,32.9,32.9c0.6,0.6,1.4,1.2,1.4,2.2
		c-0.4,1.3-1.5,1.1-2.4,1.1c-4.5,0.1-9,0.5-13.4,1.7c-0.7,0-1.3-0.3-1.8-0.8c-8.7-9-17.7-17.7-26.4-26.7c0.2-0.3,0.3-0.7,0.5-1
		c0.8-2.1,2.4-3.8,3-6C65.3,86.8,66.7,85.2,68,83.5z"/>
	<path class="st117" d="M60.5,95.5c0.9,0,1.3,0.6,1.9,1.1c8.1,8.1,16.1,16.1,24.2,24.2c0.6,0.6,1.1,1.2,1.7,1.8
		c-1.2,2.1-2.9,3.8-4.8,5.4c-1.3,0.2-1.9-0.8-2.7-1.5c-6.9-6.9-13.9-13.8-20.8-20.8c-0.9-0.9-1.8-1.8-3-2.2c0.5-1.2,1-2.3,1.5-3.5
		C58.8,98.3,59.9,97,60.5,95.5z"/>
	<path class="st118" d="M104,101c-2.6-2-4.7-4.5-7-6.7C90.2,87.5,83.3,80.8,76.5,74c0.3-0.5,0.7-1,1-1.5c3.1-2,5.7-4.8,9-6.5
		c1.2-0.7,1.8,0.3,2.5,1c2,1.9,3.9,3.8,5.8,5.8c0.8,0.8,1.6,1.4,2.7,1.7c2.2,4.2,3.3,8.8,4.7,13.4c0.3,1.9,1,3.7,1.5,5.5
		c0.2,0.9,0.5,1.8,0.7,2.7C104.6,97.7,105.1,99.4,104,101z"/>
	<path class="st112" d="M97,74.6c-1.1,0.7-1.5-0.4-2-0.9c-2.1-2.1-4.2-4.2-6.3-6.3c-0.6-0.6-1.1-1.5-2.2-1.5c0-0.2,0-0.3,0-0.5
		c2.7-1.5,5.3-3,8-4.5c2-0.3,3.4-2,5.5-2c1-0.3,1.5,0.5,2.1,1c3.1,3,6.1,6,9.1,9.1c0.7,0.7,1.4,1.5,1.1,2.6
		c-0.9,2.9-1.4,5.9-2.5,8.8c-0.8,1.2-1.8,0.9-2.8,0.2c-0.8-0.6-1.5-1.3-2.3-1.9c-1.1-1.2-1.1-2.9-1.6-4.3c-0.6-2-4-3.2-5.6-2
		C96.7,73,97.3,73.9,97,74.6z"/>
	<path class="st119" d="M112,71.5c0-0.6-0.3-1.1-0.8-1.5c-3.7-3.7-7.5-7.3-11.2-11c3.6-2.1,7.7-2.8,11.7-3.9c0.5-0.1,1-0.1,1.3-0.5
		c2,0.1,3.9-0.8,6-0.5c1.3,0.2,1.6,1.4,2.3,2.1c9,8.9,18,17.9,27,26.9c0.6,0.6,1.1,1.5,2.2,1.5c0.8,0.7,0.7,1.7,0.7,2.5
		c0,4,0,8,0,11.9c0,1,0.2,2.2-0.9,2.6c-1.1,0.5-1.8-0.5-2.6-1.1c-0.6-0.5-1.2-0.9-1.7-1.5c-0.2-0.2-0.3-0.5-0.5-0.8
		c-0.5-3.9-0.1-7.8-0.2-11.7c0-1,0.2-2-0.5-2.9c-1.3-0.8-2.5-0.8-3.7,0.1c-0.6,0.9-0.4,1.9-0.4,2.9c-0.2,4.8,0.3,9.5-0.2,14.3
		c-0.6,1.2-1.4,0.6-2,0c-1.2-1-2.4-2-3.4-3.3c-0.7-2.6,0.1-5.3-0.5-7.9c-1.4-6.4-5.2-8.6-11.6-6.3c-0.5,0.2-0.9,0.3-1.5,0.2
		c-2.3-1.9-5.1-3.4-5.2-6.9c0-1.5,1.4-3,0.6-4.2c-0.8-1.2-2.6-0.2-4-0.6C112.7,71.9,112.3,71.8,112,71.5z"/>
	<path class="st120" d="M157,92c1.2,1.1,2.4,2.3,3.6,3.4c13.1,13.1,26.3,26.2,39.4,39.4c0.9,0.9,1.8,1.8,3,2.2c0.1,1.5,0,3-0.5,4.5
		c-0.1,2.4-1.1,4.7-1.5,7c-0.2,0.5-0.3,1-0.5,1.5c-0.7,1.1-1.6,1.1-2.5,0.4c-0.7-0.5-1.2-1.1-1.8-1.7c-5.7-5.7-11.3-11.5-17.1-17.1
		c-7.3-7-14.1-14.6-21.6-21.4c-0.5-0.5-0.9-1-1-1.7c-0.2-4.8-0.1-9.5-0.1-14.3C156.3,93.4,156.3,92.6,157,92z"/>
	<path class="st120" d="M203,137c0.1-0.8-0.3-1.8,0.5-2.5C203.4,135.3,203.8,136.3,203,137z"/>
	<path class="st119" d="M157,109.5c1.2,0.5,2.1,1.3,3,2.2c12.4,12.4,24.8,24.8,37.2,37.2c0.9,0.9,1.7,2.2,3.3,1.1
		c-0.3,1.3-0.7,2.7-1,4c-0.5,1-1,2-1.5,3c-1.1-0.4-2-1.2-2.8-2c-5.8-5.8-11.6-11.6-17.4-17.4c-1.1-1.1-2.8-1.8-3.3-3.6
		c-1.1-0.7-1.1-2-1.4-3.1c-1.6-5.8-5.2-8.8-11.2-9.2c-1.6-0.1-3.1-0.2-4.6-0.9c-1.4-1.2-2.6-2.6-3.5-4.1c-0.5-0.8-0.8-1.9,0.6-2.1
		c1.8-0.2,2-1.3,2-2.8C156.3,111,156.3,110.1,157,109.5z"/>
	<path class="st121" d="M174,173c0,0.9,0.1,1.8-0.5,2.5c-1,0.9-2.2,0.8-3.3,0.8c-27.9,0-55.9,0-83.8,0c-1.2,0-2.3,0.1-3.3-0.8
		c-0.7-0.7-0.5-1.6-0.5-2.5c0.8-0.9,2-0.8,3-0.8c2.9,0,5.7-0.1,8.6,0c0.3,0,0.6,0,0.9,0c1.9,0,3.9,0,5.8,0c0.3,0,0.6,0,0.9,0
		c2.8,0,5.6-0.1,8.3,0c2.5,0.9,4.9,0,7.3-0.7c0.9,0.1,1.6,0.8,2.6,0.7c1.6,0,3.3,0,4.9,0c0.3,0,0.6,0,0.8,0c1.4,0,2.8,0,4.2,0
		c0.3,0,0.6,0,0.8,0c1.7,0,3.3,0,5,0c0.8,0,1.6-0.2,2.4-0.2c2.3,0.5,4.6,0.7,6.9,0.2c3.8-0.1,7.5-0.1,11.3,0c2.5,0.5,5,0.5,7.5,0
		c2.4,0,4.8-0.1,7.2-0.1C172,172.3,173.1,172.2,174,173z"/>
	<path class="st122" d="M169.5,181.4c-0.7,0.6-1.3,1.1-2,1.7c-1,0.2-1.9,1-3,0.8c-3.2-0.2-6.3,0.4-9.4,0.3c-17,0-34.1,0-51.1,0
		c-4,0-7.9-0.5-11.9-0.3c-2-0.2-3.7-0.9-5-2.4c0.1-1.2,1-1.1,1.8-1.3c0.8-0.2,1.7-0.1,2.5-0.1c24.7,0,49.4,0,74.1,0
		C166.7,180.2,168.5,179.6,169.5,181.4z"/>
	<path class="st123" d="M83,175.5c30.2,0,60.3,0,90.5,0c0.1,1-0.4,1.8-1,2.5c-1.1,0.3-2.1,0.3-3.2,0.3c-27.4,0-54.7,0-82.1,0
		c-1.1,0-2.2,0-3.2-0.2C83.4,177.3,83,176.5,83,175.5z"/>
	<path class="st124" d="M169.5,181.4c-0.8-0.7-1.7-0.4-2.6-0.4c-25.7,0-51.4,0-77.1,0c-0.9,0-2-0.4-2.8,0.6c-0.8-0.5-1.5-1.2-2-2
		c-0.1-0.9,0.7-1,1.3-1.2c0.7-0.2,1.5-0.1,2.2-0.1c26.5,0,53,0,79.5,0c1.3,0,2.9-0.7,3.6,1.3C171,180.3,170.5,181.2,169.5,181.4z"/>
	<path class="st125" d="M171.5,179.6c-0.7-0.9-1.7-0.5-2.6-0.5c-27.1,0-54.3,0-81.4,0c-0.9,0-1.9-0.3-2.6,0.6c-0.6-0.3-0.8-1-1-1.6
		c0.7-0.8,1.7-0.5,2.6-0.5c27.8,0,55.5,0,83.3,0c0.9,0,1.8-0.3,2.6,0.5C172.3,178.6,172.1,179.2,171.5,179.6z"/>
	<path class="st126" d="M92,183.9c0.8-0.7,1.7-0.4,2.6-0.4c22.4,0,44.8,0,67.2,0c0.9,0,1.8-0.3,2.6,0.4c-1.5,0.2-3,0.4-4.5,0.7
		c-0.9,0.3-1.8-0.1-2.7,0.4c-1.4,0-2.9,0.1-4.3,0.1c-1.8,0-3.5,0-5.3,0c-3.4,0.4-6.8,0.1-10.2,0.2c-6.2,0-12.3,0-18.5,0
		c-3.6-0.1-7.1,0.2-10.7-0.2c-2.3,0-4.6-0.1-6.9-0.1c-0.8-0.4-1.8,0-2.7-0.4c-1,0-1.9-0.1-2.9-0.1c-0.9-0.4-1.8,0-2.7-0.4
		C92.9,184,92.4,184,92,183.9z"/>
	<path class="st33" d="M82,170.5c-0.1-0.5-0.2-1-0.4-1.6c-0.2-1.9,0.7-2.8,2.6-2.7c3.4,0.3,6.9-0.7,10.3,0.6c0.8,1.3,0.8,2.5,0,3.8
		C90.4,171.6,86.2,171.9,82,170.5z"/>
	<path class="st51" d="M81.1,161.9c0-2.3,0.1-4.6,0.1-6.9c0.3-0.1,0.5,0,0.6,0.3c0.2,0.5,0.3,1,0.3,1.5c0.1,0.8,0,1.6,0.1,2.4
		c0.4,1.3,1.6,1,2.5,1.1c2.3,0.1,4.6,0,6.9,0c1.1,0,2.2-0.1,3,0.7c0.5,0.9,0.5,1.8-0.2,2.7c-4.4,0.9-8.7,1.2-13-0.2
		C81.3,163,81.2,162.4,81.1,161.9z"/>
	<path class="st127" d="M82,170.5c4.1,0,8.3,0,12.4,0c0.7,0.8,0.7,1.6,0.1,2.5c-4,0-8.1,0-12.1,0.1C81.8,172.3,82,171.4,82,170.5z"
		/>
	<path class="st38" d="M81.5,163.5c4.3,0,8.6,0,13,0c0.7,0.7,0.6,1.5,0,2.2c-4.3,0.7-8.6,1.1-12.9-0.2
		C81.5,164.8,81.5,164.2,81.5,163.5z"/>
	<path class="st45" d="M81.6,165.5c4.3,0,8.6,0,12.9,0c0.5,0.5,0.5,1,0,1.5c-3.4,0-6.7,0.1-10.1,0c-1.6-0.1-2.4,0.4-2.7,2
		C81.4,167.8,81.5,166.7,81.6,165.5z"/>
	<path class="st128" d="M108.4,185.1c3.5,0,7.1,0,10.6,0c0.2,0.1,0.2,0.2,0.2,0.3c-0.1,0.1-0.1,0.1-0.2,0.1c-2,0-4,0.1-6,0.1
		c-1.4,0-2.9-0.1-4.3-0.1C108.6,185.3,108.5,185.2,108.4,185.1z"/>
	<path class="st122" d="M93.3,184.1c0.9,0,1.9-0.4,2.7,0.4C95.1,184.5,94.1,184.6,93.3,184.1z"/>
	<path class="st129" d="M98.8,184.6c0.9,0,1.9-0.4,2.7,0.4C100.6,185,99.7,185,98.8,184.6z"/>
	<path class="st130" d="M119,185.4c0-0.1,0-0.3,0-0.4c6.2,0,12.3,0,18.5,0c0.2,0.1,0.2,0.2,0.2,0.3c-0.1,0.1-0.1,0.1-0.2,0.1
		c-2.2,0.1-4.3,0.1-6.5,0.2C127,185.5,123,185.5,119,185.4z"/>
	<path class="st131" d="M137.5,185.4c0-0.1,0-0.3,0-0.4c3.4,0,6.8,0,10.2,0.1C144.3,185.7,140.9,185.5,137.5,185.4z"/>
	<path class="st51" d="M175.3,159.5c0.1,1.4,0.1,2.7-0.3,4c-1.9,1.2-4,0.7-6.1,0.5c-0.5-0.2-0.9-0.6-1.3-0.9c-2-0.8-3.8-0.8-5.4,0.8
		c-1.7,0.4-3.5,0.6-5.2-0.2c-0.5-0.5-0.6-1.1-0.6-1.7c0.1-0.5,0.2-0.9,0.6-1.2c1.1-0.6,2.2-0.5,3.4-0.5c3.7,0,7.5,0,11.2,0
		c1,0,2,0,2.9-0.6C174.8,159.5,175,159.4,175.3,159.5z"/>
	<path class="st132" d="M175.3,159.5c-0.1,0-0.2,0-0.3,0c-0.2-0.2-0.4-0.4-0.5-0.7c-0.2-0.8-0.2-1.6-0.2-2.4c0-0.8,0-1.6,0-2.4
		c0-0.9,0-1.8,0-2.7c-0.2-1.2,0.7-2.9-1-3.4c-1.7-0.5-3.6-0.6-4.6,1.6c-0.2,0.2-0.4,0.3-0.7,0.2c-0.2-0.2-0.4-0.4-0.5-0.6
		c-0.3-1.4-1.3-2.8-0.3-4.3c1.3-0.6,2.6-0.5,3.9-0.4c1.7,0.1,3.1-0.3,3.9-1.9c0.8,4.3,0.2,8.7,0.5,13.1
		C175.5,156.8,175.4,158.2,175.3,159.5z"/>
	<path class="st53" d="M168.5,163.5c2.2,0,4.4,0,6.6,0c-0.1,2,0.3,4.1-0.5,6.1c-0.8-1.9-2.4-2.1-4.3-1.9c-0.8,0.1-1.5,0.6-2.4,0.3
		c-0.6-0.7-0.5-1.5-0.4-2.3C167.8,164.9,167.8,164.1,168.5,163.5z"/>
	<path class="st33" d="M168.1,168c1.7-1.9,3.9-1,5.8-0.8c1,0.1,0.4,1.6,0.7,2.4c0,0.3-0.1,0.6-0.1,0.9c-2.4,1.2-4.9,1-7.3,0.2
		c-0.6-0.7-0.4-1.3,0-2C167.3,168.3,167.6,168,168.1,168z"/>
	<path class="st127" d="M167,170c2.4,1.2,5,0.2,7.5,0.5c0,0.5,0,1,0.1,1.5c-0.2,0.3-0.3,0.6-0.5,1c-3.5,0-7,0-10.5,0
		c-0.1-1.2,1.1-1.2,1.5-1.9C165.6,170.5,166,169.7,167,170z"/>
	<path class="st106" d="M157.3,184.9c0.8-0.5,1.7-0.4,2.7-0.4C159.2,185.3,158.2,184.9,157.3,184.9z"/>
	<path class="st1" d="M157.5,120.4c1.6,0.2,3.3,0.4,4.9,0.6c6,0.5,10.4,4.2,11.6,10.1c0.2,1,0.4,1.9,0.6,2.9
		c0.1,1.2,0.2,2.3,0.3,3.5c-11.5-0.4-23.1-0.1-34.6-0.2c-1.3,0-2.7,0.1-3.9-0.4c-0.8-0.5-0.9-1.3-1-2.1c-0.4-3.3-0.7-3.5-4.1-2.7
		c-0.8,0.6-0.5,1.5-0.6,2.2c-0.1,1,0,2-1,2.6c-1.4,0.6-3,0.4-4.4,0.4c-4.7,0-9.5,0-14.2,0c-1,0-2,0-2.9-0.5c-0.9-0.8-0.9-1.9-0.9-3
		c0-1.5-0.8-2-2.2-2c-4.7,0-9.3,0-14,0c-1.5,0-2.4,0.6-2.3,2.2c0,0.8,0,1.7-0.5,2.4c-2,1.5-4.5,0.6-6.7,1.1c0.3-3.2,0.8-6.4,1.8-9.5
		c1.2-2.2,2.8-3.9,4.8-5.4c4-1.9,8.4-1.8,12.6-2.1c1.2-0.1,2.5,0.1,3.7-0.4c12.5-0.1,25-0.1,37.5-0.2c0.9-0.8,2.1-0.5,3.1-0.7
		C149.3,119.2,153.5,119.2,157.5,120.4z"/>
	<path class="st133" d="M136,136.5c12,0,24,0,36,0c1.1,0,2.2-0.2,2.9,1c0,1,0.1,2,0.1,3c-1,0.9-2.3,0.7-3.5,0.8
		c-3.4,0.1-6.7-0.3-10.1,0.4c-1.3,0-2.6,0.4-4,0.1c-1.3-0.8-2.7-0.5-4.1-0.5c-3.5,0.1-7-0.4-10.5,0.4c-1.8,0.3-3.5,0.8-5.1,1.9
		c-1.3,0.9-2.3,0.6-2.3-1C135.4,140.5,134.7,138.4,136,136.5z"/>
	<path class="st17" d="M160.9,141c4.6-1,9.4-0.3,14-0.5c0,0.6,0.1,1.3,0.1,1.9c0.2,2-0.6,2.9-2.7,2.6c-1.7-0.2-3.5,0-5.2,0
		C165.1,143.6,162.8,142.6,160.9,141z"/>
	<path class="st134" d="M81.5,155c-0.1,0-0.2,0-0.3,0c0-3.6-0.1-7.3-0.1-10.9c0,0,0,0,0,0c0.2-0.2,0.5-0.4,0.8-0.6
		c4.2-0.3,8.5-0.8,12.7,0.3c0.7,0.8,0.7,1.7,0.2,2.6c-1,1-2.3,0.7-3.5,0.8c-2.2,0.1-4.5,0-6.7,0c-1.4,0-2.2,0.6-2.2,2.1
		c0,0.8,0,1.7,0,2.5c0,0.7,0,1.4-0.1,2.1C82,154.4,81.8,154.7,81.5,155z"/>
	<path class="st133" d="M81.6,137.5c1.9-1.9,4.3-0.6,6.4-1c2.3-0.2,4.5-0.7,6.7,0.5c0.6,1.2,0.7,2.5-0.1,3.7
		c-4.3,1-8.6,0.9-12.9,0.1c-0.7-0.7-0.4-1.5-0.3-2.3C81.5,138.2,81.6,137.8,81.6,137.5z"/>
	<path class="st108" d="M81.4,138.5c0,0.7,0.1,1.3,0.1,2c0.8,1.2,0.9,2.3-0.1,3.5c-0.1,0-0.2,0.1-0.4,0.1
		C81.1,142.2,80.6,140.3,81.4,138.5z"/>
	<path class="st135" d="M157.5,120.4c-4.2-0.2-8.3-0.3-12.5-0.5c-0.9-0.5-2.1,0.2-3-0.4c-3.3,0-6.7,0-10,0c-0.3-0.3-0.6-0.5-0.9-0.8
		c-3-2.9-3-3.1,0.4-5.1c0.9-0.5,1.6-1.1,1.9-2.2c0.2-0.6,0.4-1.2,0.6-1.7c0.3-0.7,0.4-1.5,0.5-2.3c0.4-2.2,0.2-4.4,0.3-6.6
		c0-1-0.2-2,0.8-2.7c2,0.5,2.7,2.6,4.4,3.5c0.9,0.7,0.7,1.8,0.7,2.7c0,2,0,4.1,0.4,6.1c0.6,3.4,2.6,4.4,5.9,3c1.4-0.6,2.2-2,3.7-2.5
		c0.2,0,0.5,0.1,0.6,0.3c0.7,0.8,0.1,2.2,1.5,2.7c2,0.7,3.1-0.2,3.2-2.8c0-0.5,0-1,0-1.5c0-0.7,0-1.4,0-2.1c-0.1-1.1,0-2.3,0-3.4
		c-0.1-1.5,0-2.9,0-4.4c0-1.5,0-3,0-4.5c0-1.6-0.1-3.2,0-4.9c0-1.4-0.1-2.8,0-4.2c0.1-1.8-0.5-2.9-2.5-2.8c-0.7,0-1.5,0-2.2-0.4
		c-0.3-0.2-0.3-0.4-0.1-0.7c6-0.1,6-0.1,6,5.8c0,1.4,0,2.8,0,4.2c0,5.8,0,11.7,0,17.5c0,0.7-0.1,1.3,0,2c0.3,2.4,0,4.2-3.2,3.6
		C154.5,117.4,156.7,118.4,157.5,120.4z"/>
	<path class="st119" d="M151,82c0,0.2,0,0.3,0,0.5c1.4,2.3,0.5,4.9,0.7,7.4c0,1.7,0.1,3.4,0,5c0,1.5,0.1,3,0,4.5c0,1.5,0,2.9,0,4.4
		c0,1,0,2-0.3,3c-0.4,1-1.2,1.7-2,2.3c-2.7,1.2-4,0.6-4-2.3c0-2.8-0.9-5.7,0.7-8.4c0.8,0.6,1.6,1.2,2.4,1.8c0.5,0.4,0.8,1.3,1.6,1
		c0.8-0.3,0.4-1.2,0.4-1.8c0-5,0-10,0-14.9C150.6,83.7,150.2,82.7,151,82z"/>
	<path class="st136" d="M134,111.4c-0.2,2-1.9,2.7-3.4,3.2c-1.8,0.6-1.6,1.2-0.4,2.3c0.8,0.7,1.8,1.3,1.8,2.5c-1.3,0-2.7,0-4,0
		c-3.2,0-6.8,0.8-9.6-0.4c-2.6-1.1-4.2-4.5-6.8-6.3c-0.6-0.4-0.6-1.1-0.6-1.8c0-4.3,0.1-8.6,0.1-12.9c1.7-0.1,2.3,1.4,3.4,2.3
		c0.8,0.7,1.4,1.7,2.8,2.2c0.1-3.2,0-6.2,0.1-9.2c0-1-0.5-2.5,1.2-2.8c0.2,0.2,0.3,0.4,0.4,0.7c0.3,1.3,0.2,2.6,0.2,3.9
		c0,1.3,0,2.6,0,3.9c0,1,0,2,0,3c0,1.2,0,2.5,0,3.7c0,0.9,0.1,1.7,0.3,2.6c0.1,0.6,0.2,1.1,0.4,1.7c0.7,1.4,1.9,2.5,3.2,3.3
		c2.5,0.9,5,1.1,7.5,0C131.7,112.6,132.5,111.3,134,111.4z"/>
	<path class="st135" d="M118.4,90.5c-0.9,3.6-0.2,7.2-0.4,10.8c-0.1,0.8,0.4,1.9-0.3,2.3c-1,0.5-1.5-0.8-2.1-1.3
		c-1.5-1.4-3-2.8-4.5-4.3c0-0.4-0.1-0.7-0.1-1.1c-0.8-1-0.1-2,0-3c0.6-2.2,1.6-4.3,2-6.6c0.9-2.8,1.7-5.7,2.7-8.6
		c0.2-0.7,0.2-1.7,1.4-1.8c-0.3,1.6,0.8,2.6,1.8,3.6c1,1,2.2,1.8,2.8,3.1C120.5,85.9,119.6,88.3,118.4,90.5z"/>
	<path class="st137" d="M111.4,94c-0.1,1-0.3,2-0.4,2.9c-0.1,0.9-0.3,1.7-0.4,2.6c-1.9,1.1-3.8,0.9-5.8,0.4c-1.3-1,0.2-2.9-1.2-3.9
		c0.4-0.9-0.7-1.6-0.4-2.5C106,93.1,108.7,93,111.4,94z"/>
	<path class="st138" d="M110.6,105c0.2,2,0.2,4,0,6c-0.6,0.5-1.3,0.7-2.1,0.7c-3.6,0.4-4.2-0.2-4.2-3.8c0-1-0.1-2,0.1-3
		C106.5,103.8,108.5,103.9,110.6,105z"/>
	<path class="st139" d="M110.6,105c-2,0-4,0-5.9,0c-0.6-1.8-0.6-3.7,0-5.5c2,0,4,0,5.9,0C110.8,101.3,110.8,103.2,110.6,105z"/>
	<path class="st140" d="M104.6,99.5c0,1.8,0,3.7,0,5.5c-0.4,6-0.4,6,5.9,6c0.1,1.1,0.8,2.7-0.4,3.2c-1.7,0.6-3.6,0.5-5.4,0
		c-0.9-0.2-0.5-1.3-0.5-2c-0.1-3.7-0.1-7.5-0.2-11.2c0.1-1.7,0.4-3.4-0.4-5C105.4,96.7,104.1,98.4,104.6,99.5z"/>
	<path class="st136" d="M142,119.5c1,0.1,2.1-0.4,3,0.4c-1,0-2,0-3,0C142,119.8,142,119.6,142,119.5z"/>
	<path class="st141" d="M97,74.6c-0.3-0.7-0.6-1.3-0.8-2c-0.3-0.9,0.1-1.2,0.9-1.1c1.4,0,2.8,0.1,4.2,0c1.4-0.1,1.9,0.6,2.2,1.7
		c0.5,1.8,0.7,3.7,1.6,5.3c1.6,2.7,2.5,5.7,2.4,8.9c-1.6,1.6-3.4,1.8-5.9,0.6C100.4,83.4,98.9,79,97,74.6z"/>
	<path class="st142" d="M101.6,88c1.2,0,2.4,0,3.6,0c0.8,0,1.7,0.1,1.8-1.1c0.5-0.2,1,0.1,1.4,0.2c1.6,0.6,3.4-0.1,5,0.4
		c-0.4,2.3-1.1,4.4-2.1,6.5c-2.8,0-5.5,0.3-8.2-0.5C102.6,91.7,102.1,89.8,101.6,88z"/>
	<path class="st141" d="M113.5,87.5c-1.9,0.6-3.7,1-5.5-0.2c-0.8-2.6,0.2-4.7,1.5-6.8c0.7-3,1.3-6.1,2.6-9c2,0,4.1,0,6.1,0
		c0.1,2.1-1.1,3.7-1.1,5.5C115.8,80.5,114.6,84,113.5,87.5z"/>
	<path class="st143" d="M109.4,80.5c-0.1,2.4-1.5,4.5-1.5,6.8c-0.3-0.1-0.6-0.3-0.9-0.4c-0.7-2.8-1.3-5.6-2-8.4c1.1,0,1.6,1,2.3,1.6
		C108,80.8,108.6,81.1,109.4,80.5z"/>
	<path class="st144" d="M118.4,90.5c0.1-2.7,1.3-4.9,3.1-6.9c3.1-1.9,6.4-2.4,9.6-0.6c2.4,1.3,3.8,3.4,3.9,6.2
		c0.3,1.7,0.2,3.4,0.1,5.2c-1.6,1.2-3.2,0.8-4.9,0.4c-1.4-1.1-0.6-2.9-1.1-4.3c-1.1-2.9-2.3-3.2-4.3-1.1c-0.3,0.7-0.4,1.6-1.2,1.9
		c-1.7,0.4-3.5,0.7-5.1-0.4C118.5,90.8,118.5,90.7,118.4,90.5z"/>
	<path class="st145" d="M146.1,98.5c0,2.6-0.1,5.1-0.1,7.7c0,3.5,0.3,3.7,3.5,2.3c2.3,0.6,4.8-0.3,7,1c0,0.5,0,1,0,1.5
		c-1.9,1.2-3.8,1-5.7,0.1l0,0c-3.4,1-6.8,1.3-10.2-0.1c-0.9-3.1-0.1-6.3-0.6-9.5c0-5.5,0-11.1,0.1-16.6c0-0.8-0.4-1.7,0.4-2.3
		c1.1,1.4,0.7,3,0.7,4.5c0.1,1.9,0.1,3.8,0,5.7c0,2,0.1,4,0,6c0,1.4,0,2.9,0,4.3c0,0.6,0,1.1,0,1.7c0,1.1,0.2,2,1.6,2
		c1.3,0,2-0.6,2-1.9c0-0.5,0-1,0-1.5c0-1.3-0.1-2.7,0.1-4c0.1-0.3,0.2-0.5,0.3-0.8c0.2-0.3,0.4-0.3,0.7-0.2L146.1,98.5z"/>
	<path class="st146" d="M140.6,93c0-3.5,0-6.9-0.1-10.4c1.7-0.3,3.3-0.2,5-0.1c0.5,3.5,0.3,7,0.1,10.5
		C143.9,94.1,142.2,94.1,140.6,93z"/>
	<path class="st147" d="M135,94.5c0-1.7,0-3.5,0.1-5.2c1,2.8,0.1,5.8,0.5,8.7c-0.4,3.3,0.5,6.7-0.6,10c-2.1,1-4.1,1.4-5.9-0.5
		c-0.8-5.3-0.3-10.7-0.2-16c0-0.6,0.2-1.1,0.7-1.5c0.9,1.4,0.2,3,0.5,4.5c1.1,1.8,0.6,3.7,0.7,5.6c0,0.7,0,1.3,0,2
		c0,1.1,0.5,1.7,1.6,1.7c1.2,0,1.9-0.4,1.9-1.7c0-0.7,0-1.3,0-2C134.4,98.2,133.8,96.2,135,94.5z"/>
	<path class="st148" d="M145.5,93c0-3.5,0-7,0-10.5c0.7,0.2,0.5,0.8,0.5,1.2c0,4.9,0,9.9-0.1,14.8c-0.1,0-0.3,0-0.4,0
		C144.4,96.7,144.5,94.8,145.5,93z"/>
	<path class="st149" d="M101.5,173c-0.2,0-0.4,0-0.5,0c-0.7-0.9-0.7-2-0.7-3c0-1.3,0-2.7,0-4c-0.1-1.5,0-3,0-4.5
		c-0.1-2.1-0.1-4.3,0-6.4c0.1-3.1-0.4-6.1,0.3-9.2c0.1-0.3,0.4-0.5,0.7-0.5c0.6,0.3,0.7,0.9,0.8,1.5c0.1,0.9,0.1,1.7,0.1,2.6
		c0,1,0,2,0,3c0,1,0,2,0,3c0,1.1,0,2.3,0,3.4c0,0.7,0,1.4,0,2.1c0,1.6,1.1,1.8,2.3,1.8c1.4,0.1,3-0.4,4.2,0.7c0.6,1.1,0.6,2.2,0,3.4
		c-1.1,1-2.5,0.8-3.7,0.8c-2.1-0.1-3.1,0.7-2.8,2.9C102.2,171.4,102.1,172.3,101.5,173z"/>
	<path class="st127" d="M130.1,173c-1.5,0-3,0-4.5,0c-1.1-1.8-1-3.7-0.2-5.6c1.6-0.9,3.1-0.9,4.7-0.1C131,169.2,131,171.1,130.1,173
		z"/>
	<path class="st127" d="M156.5,173c-4.1,0-8.1,0-12.2-0.1c0-0.9,0.5-1.5,0.9-2.2c0.2-0.3,0.5-0.5,0.9-0.6c2.2-0.5,4.4-0.2,6.6-0.5
		c0.9,0.1,1.4,0.9,2.1,1.4C155.3,171.7,156.6,171.8,156.5,173z"/>
	<path class="st150" d="M130.1,173c0-1.8-0.1-3.6-0.1-5.5c-0.7-0.9-0.6-1.9-0.6-3c0-1.2,0-2.3,0-3.5c0-1.2,0-2.3,0-3.5
		c0-1.2,0-2.3,0-3.5c0-1.3,0-2.6,0-3.9c0-1.2,0-2.3,0-3.5c0-0.9,0-1.7,0-2.6c0-1.2,0-2.3,0-3.5c0-1.3-0.3-2.7,0.6-3.9
		c0.5-1.8-0.6-3.7,0.6-5.4c0.8,0.8,0.8,1.8,0.8,2.8c0,5.5,0.1,10.9,0,16.4c0,1.4,0.1,2.8,0,4.2c0,1.7,0.1,3.3,0,5c0,1.3,0,2.7,0,4
		c0,1.2,0,2.3,0,3.5c0,1.2,0,2.3,0,3.5c0,0.9,0,1.8-0.7,2.5C130.4,173,130.2,173,130.1,173z"/>
	<path class="st151" d="M101.5,173c0-0.8,0-1.7,0-2.5c2.2-1.3,4.6-0.7,6.9-0.5c0.4,0.1,0.8,0.3,1.1,0.6c0.6,0.7,1.2,1.4,1.1,2.4
		C107.6,173,104.5,173,101.5,173z"/>
	<path class="st152" d="M156.5,173c-0.7-0.5-1.4-1-2-1.5c2.6-1.8,8.4-1.8,10.9,0c-0.3,0.9-1.4,0.8-1.9,1.5
		C161.2,173.5,158.8,173.5,156.5,173z"/>
	<path class="st153" d="M100.9,170c0,1,0,2,0,3c-2,0-3.9,0-5.9-0.1c-0.5-1-0.4-2.1,0-3.1C97,169,99,168.9,100.9,170z"/>
	<path class="st154" d="M95.1,170c0,1,0,2-0.1,2.9c0,0-0.2,0-0.2,0s-0.2,0-0.2,0c0-0.8-0.1-1.6-0.1-2.5c0-1.2,0-2.3,0-3.5
		c0-0.5,0-1,0-1.5c0-0.7,0-1.3,0-2c0-0.8,0-1.7,0-2.5c-0.5-0.6-0.6-1.3-0.6-2c0-0.8,0-1.7,0-2.5c0-0.8,0-1.7,0-2.5
		c0-0.7,0-1.4,0-2.1c0-0.8,0-1.7,0-2.5c0-1-0.1-2,0.6-2.9c0-0.8,0-1.7,0-2.5c-0.7-1.2-0.8-2.3,0-3.5c0-1.1,0.1-2.3,0.1-3.4
		c1.7,0.4,1.2,1.8,1.3,2.8c0.1,5,0.1,10,0,15c0,2.2,0.1,4.4,0,6.6c0,1.5,0.1,3.1,0,4.6C95.7,167.3,96,168.8,95.1,170z"/>
	<path class="st153" d="M125,173c-1.8,0-3.6,0-5.4,0c-0.9-1-0.9-2-0.2-3.1c1.8-0.9,3.7-0.9,5.5,0C125.4,170.9,125.4,171.9,125,173z"
		/>
	<path class="st155" d="M110.6,173c-0.3-0.7-1.2-1-1.2-1.9c2.7-1.4,5.5-0.8,8.2-0.4c0.8,0.7,0.4,1-0.4,1.3
		C115.2,173.2,113,173.9,110.6,173z"/>
	<path class="st155" d="M145.5,171c0.2,1-0.9,1.2-1.2,1.9c-2.1,0.7-4.2,0.7-6.1-0.5c-0.7-0.2-1-0.6-0.6-1.3
		C140.2,169.8,142.9,169.8,145.5,171z"/>
	<path class="st156" d="M130.5,172.9c0-0.8,0-1.6,0-2.4c2-0.9,4-1.2,6.1-0.3c0.1,1,0.1,2-0.7,2.8
		C134.1,172.9,132.3,172.9,130.5,172.9z"/>
	<path class="st157" d="M125,173c0-1,0-2,0-3c-0.5-0.6-0.7-1.3-0.7-2c-0.1-0.9,0-1.7,0-2.6c-0.1-1.6,0-3.2,0-4.9
		c0-2.1-0.1-4.1,0-6.2c0-0.7,0-1.5,0.5-2.2c0.2-0.2,0.5-0.3,0.8-0.1c0.5,0.6,0.6,1.3,0.6,2.1c0.1,1.2,0,2.3,0,3.5c0,1.2,0,2.3,0,3.5
		c0,1.2,0,2.3,0,3.5c0,1.1,0.1,2.1-0.6,3c0,1.8,0,3.6-0.1,5.5C125.3,173,125.2,173,125,173z"/>
	<path class="st158" d="M117.3,171.9c0.2-0.3,0.4-0.6,0.6-0.9c0.1-1,0.6-1.5,1.6-1c0,1,0.1,2,0.1,3
		C118.5,173.3,118,172.4,117.3,171.9z"/>
	<path class="st159" d="M135.9,173c0.3-0.8-0.5-1.8,0.6-2.4c0.5,0.1,0.9,0.4,1,1c0.2,0.3,0.5,0.6,0.7,0.9
		C137.5,172.8,136.7,173.1,135.9,173z"/>
	<path class="st160" d="M94.4,156.5c0,0.8,0,1.7,0,2.5c-0.6,0.6-1.3,0.7-2.1,0.7c-2.9,0.1-5.8,0.1-8.7,0c-0.8,0-1.5-0.2-2.1-0.7
		c0-0.8,0-1.7,0-2.5c0.6-0.6,1.5-0.7,2.3-0.8c2.7-0.1,5.5-0.1,8.2,0C92.9,155.8,93.8,155.8,94.4,156.5z"/>
	<path class="st161" d="M94.4,156.5c-4.3,0-8.6,0-12.9,0c0-0.5,0-1-0.1-1.5c0-0.3,0-0.7,0.1-1c0.6-0.6,1.5-0.7,2.3-0.8
		c2.7-0.1,5.5-0.1,8.2,0c0.8,0,1.7,0.1,2.3,0.8C94.4,154.8,94.4,155.7,94.4,156.5z"/>
	<path class="st162" d="M81.6,159c4.3,0,8.6,0,12.9,0c0,0.7,0,1.3,0,2c-3.7,0-7.3-0.1-11,0C81.9,161.1,81.3,160.5,81.6,159z"/>
	<path class="st49" d="M175,159c0,0.2,0,0.3,0,0.5c0.1,1.7-1.1,1.5-2.2,1.5c-5.2,0-10.5,0-15.7,0c-0.7-0.6-0.7-1.4-0.4-2.2
		c0.7-1.1,1.8-1,2.9-1.1c2.9,0,5.8-0.1,8.7-0.1C170.4,158.8,172.9,157.6,175,159z"/>
	<path class="st53" d="M157.1,163.5c1.8,0,3.6,0,5.3,0c0.5,0.3,0.6,0.9,0.7,1.5c0,1-0.3,1.9-0.9,2.8c-1.4,1.2-2.8,1.1-4.3,0.2
		c-0.8-0.7-1.2-1.5-1.4-2.5C156.4,164.7,156.4,164,157.1,163.5z"/>
	<path class="st163" d="M157.1,163.5c0,0.7-0.1,1.3-0.1,2c-1.7,1.1-3.5,0.9-5.4,0.3c-0.4-0.3-0.6-0.7-0.7-1.2
		c-0.1-1-0.2-1.9,0.6-2.7c1.8-0.8,3.7-0.9,5.4,0.2C157,162.5,157,163,157.1,163.5z"/>
	<path class="st164" d="M156.9,162c-1.8,0-3.5,0-5.3,0c-1-1-0.8-2-0.2-3.1c1.9-0.8,3.7-1,5.5,0.1c0.1,0.7,0.1,1.3,0.2,2
		C157,161.3,157,161.7,156.9,162z"/>
	<path class="st165" d="M162.6,165c-0.1-0.5-0.1-1-0.2-1.5c0.2-0.5-0.2-1.5,0.9-1.4c1.6,0.1,3.2-0.5,4.8,0.4
		c-0.1,0.1-0.2,0.2-0.2,0.3C165.9,163.2,163.9,163.2,162.6,165z"/>
	<path class="st165" d="M168.5,163.5c-0.1,0.7-0.3,1.4-0.4,2.1c-0.9-1-0.9-2-0.2-3.1c0,0,0.2-0.1,0.2-0.1
		C168.2,162.8,168.3,163.1,168.5,163.5z"/>
	<path class="st166" d="M160.9,141c2.5,0.6,4.7,1.7,6.2,4c0.3,1.3,0.6,2.7,0.9,4c-1.4,1.1-3,0.7-4.6,0.6c-0.3,0-0.5-0.1-0.8-0.2
		c-2.7-2.7-2.7-2.7-5.6-0.9c-1.9,0.1-3.9,1-5.4-1c-0.3-1.2,0.3-2.2,0.8-3.1c1.3-1.7,2.6-3.4,5.1-2.9
		C158.6,141.3,159.8,141.2,160.9,141z"/>
	<path class="st167" d="M156.9,159c-1.8,0-3.6,0-5.3,0c-1.1-1.3-0.9-2.7-0.2-4.1c1.4-1,3-0.7,4.6-0.7c2.9,0,5.8,0,8.7,0
		c1.9,0,2.8-0.7,2.7-2.6c0-0.8,0.1-1.7,0.8-2.2c0.1,0.1,0.2,0.2,0.3,0.2c0.5,0.3,0.6,0.9,0.7,1.4c0.1,1,0.1,1.9,0.1,2.9
		c0,0.8,0,1.7,0,2.5c-0.1,0.6-0.2,1.1-0.7,1.5c-2.9,1.2-5.9,0.2-8.8,0.5C158.7,158.6,157.7,157.9,156.9,159z"/>
	<path class="st168" d="M168.1,149.4c-0.3,5.6-0.3,5.6-5.8,5.6c-3.5,0-7.1,0-10.6,0c-1-1-0.8-2-0.2-3.1c1.7-1,3.5-0.8,5.3-0.3
		c0.5,0.2,0.8,0.7,1.2,1.1c3,1.4,4.1,0.9,4.5-2.2c0.1-0.6,0.2-1.1,0.6-1.6c1.7,0,3.3,0,5,0C168.2,149.1,168.2,149.3,168.1,149.4z"/>
	<path class="st169" d="M168.5,151c0-0.5-0.1-0.9-0.1-1.4c0.2-0.9-0.2-2.2,1.1-2.5c1.7-0.3,3.6-0.7,5,0.2c1.2,0.7,0.3,2.4,0.5,3.7
		C172.8,152.1,170.7,152.1,168.5,151z"/>
	<path class="st170" d="M168.5,151c2.2,0,4.3,0,6.5,0c0,1,0,2,0,3c-2.2,1.1-4.3,1.1-6.5,0C168.5,153,168.5,152,168.5,151z"/>
	<path class="st161" d="M168.5,154c2.2,0,4.3,0,6.5,0c0,0.8,0,1.7,0,2.5c-2.2,1.1-4.3,1.1-6.5,0C168.5,155.7,168.5,154.8,168.5,154z
		"/>
	<path class="st160" d="M168.5,156.5c2.2,0,4.3,0,6.5,0c0,0.8,0,1.7,0,2.5c-1.6,0-3.1,0-4.7,0c-0.8,0-1.7,0.1-1.9-1.1
		C168.5,157.4,168.5,157,168.5,156.5z"/>
	<path class="st171" d="M167.9,162.6c0.1,1,0.1,2,0.2,3.1c0,0.8,0,1.6,0,2.4c-0.2,0.2-0.3,0.4-0.5,0.5c-2.9,1.3-4.6,0.9-5.6-1.1
		c0.2-0.8,0.4-1.6,0.6-2.5C163.1,161.4,165.8,162.7,167.9,162.6z"/>
	<path class="st172" d="M162,167.5c1.5,2,3.8,0.6,5.6,1.1c-0.2,0.5-0.4,1-0.6,1.4c-0.5,0.5-1.1,1-1.6,1.5c-3.6-0.8-7.3-0.7-10.9,0
		c-0.5-0.5-1.1-1-1.6-1.5c-0.6-0.5-0.9-1-0.3-1.7c1.7-0.8,3.6-0.4,5.4-0.7C159.3,168.4,160.7,168.4,162,167.5z"/>
	<path class="st173" d="M95.1,155c0-5.2-0.1-10.4-0.1-15.7c0-0.8,0.4-1.7-0.4-2.3c-2.1-0.6-4.4,0.5-6.5-0.6c0-0.3,0.1-0.7,0.1-1
		c0.1-4.5,0.1-4.5,4.8-4.5c4.4,0,8.8,0.1,13.2,0c1.7,0,2.2,0.5,2,2.1c-0.1,1.1,0,2.3,0,3.5c-0.4,1.6-1.8,1.1-2.8,1.2
		c-3.5,0.2-3.5,0.2-3.5,3.7c0,1.4,0.3,2.8-0.4,4.1c-0.1,3.2-0.2,6.3-0.3,9.5C99,156.1,97,156.1,95.1,155z"/>
	<path class="st173" d="M130.5,150.5c0-6.5,0-13,0-19.4c1.8,0,4.1-0.9,5.2,0.4c0.9,1.1,0.3,3.3,0.4,5c0,2.1-0.1,4.3-0.1,6.4
		c0,0.3,0,0.6,0.1,1.4c1.9-2,4-3.1,6.4-3.2c2,0,3.5,0.9,4.2,2.9c0.4,0.9,0.5,1.8,0.5,2.8c0,1,0.1,2-0.6,2.9
		c-1.5,0.9-3.1,0.5-4.6,0.5c-0.3,0-0.5-0.1-0.7-0.2c-0.4-0.2-0.6-0.6-0.8-0.9c-1.3-2.2-1.8-2.3-4-0.8c-0.5,0.8-0.2,2.1-1.2,2.7
		C133.6,151.3,132,151.6,130.5,150.5z"/>
	<path class="st133" d="M101.3,145.5c0-2.3,0-4.6-0.1-6.9c-0.1-1.5,0.6-1.7,1.9-1.7c1.7,0,3.4,0.5,5-0.4c7.3,0,14.6,0,21.8,0
		c0,1.3,0,2.7,0,4c-1,1-2.3,0.8-3.5,0.8c-7.1-0.1-14.2-0.1-21.3,0c-0.9,0-2-0.5-2.7,0.7c-0.2,0.7-0.1,1.4-0.2,2.1
		C102.1,144.6,101.9,145.2,101.3,145.5L101.3,145.5z"/>
	<path class="st17" d="M146.1,144c-0.7-1.6-2.2-2.4-3.7-3c4.7-1.1,9.6-0.3,14.3-0.5c0.5,0,0.7,0.4,0.8,0.9c-1.8,0.6-3.4,1.5-4.6,3.1
		C150.6,144.8,148.3,145.2,146.1,144z"/>
	<path class="st17" d="M94.4,140.5c0,1.2,0,2.3,0,3.5c-4.3,0-8.6,0-13,0c0-1.2,0.1-2.3,0.1-3.5C85.8,140.5,90.1,140.5,94.4,140.5z"
		/>
	<path class="st174" d="M94.4,146.5c0,1,0,2,0,3c-0.6,0.6-1.3,0.7-2.1,0.7c-2.9,0.1-5.8,0.1-8.7,0c-0.8,0-1.5-0.2-2.1-0.7
		c-0.5-2.4,0.5-3.2,2.9-3C87.8,146.7,91.1,146.5,94.4,146.5z"/>
	<path class="st41" d="M81.5,149.5c4.3,0,8.6,0,12.8,0c0,0.8,0,1.7,0,2.5c-0.6,0.6-1.3,0.7-2.1,0.7c-2.9,0.1-5.8,0.1-8.7,0
		c-0.8,0-1.5-0.2-2.1-0.7C81.5,151.2,81.5,150.3,81.5,149.5z"/>
	<path class="st170" d="M81.5,152c4.3,0,8.6,0,12.9,0c0,0.7,0,1.3,0,2c-4.3,0-8.6,0-12.9,0C81.5,153.3,81.5,152.7,81.5,152z"/>
	<path class="st141" d="M151.1,90c0-2.5,0-5-0.1-7.5c5.6-0.3,5.6-0.3,5.5,5.3c0,0.7-0.1,1.5-0.1,2.2C154.7,91.1,152.9,91.1,151.1,90
		z"/>
	<path class="st175" d="M122.4,113.5c-1.5-0.8-2.4-2-3-3.5c2.2-1.1,12.8-1.1,15,0c-0.2,0.5-0.3,0.9-0.5,1.4
		c-0.9,0.7-1.9,1.4-2.8,2.1C128.3,113.8,125.3,113.9,122.4,113.5z"/>
	<path class="st176" d="M151.1,90c1.8,0,3.6,0,5.4,0c0,1.7,0,3.3,0,5c-1.8,1.1-3.6,1.1-5.4,0C151.1,93.3,151.1,91.7,151.1,90z"/>
	<path class="st177" d="M140.5,111c3.4,0,6.8,0.1,10.2,0.1c-1.6,2-3.5,3.6-6.3,3.6C141.8,114.6,140.9,113.9,140.5,111z"/>
	<path class="st178" d="M151.1,104c0-1.5,0-3,0-4.5c1.8-1.1,3.6-1.1,5.4,0c0,1.5,0,3,0,4.5C154.7,105.1,152.9,105.1,151.1,104z"/>
	<path class="st179" d="M156.5,99.5c-1.8,0-3.6,0-5.4,0c0-1.5,0-3,0-4.5c1.8,0,3.6,0,5.4,0C156.5,96.5,156.5,98,156.5,99.5z"/>
	<path class="st180" d="M134.4,110c-5,0-10,0-15,0c-0.6-0.4-0.4-1-0.4-1.5c1.5-1.2,3.3-0.6,4.9-0.6c1.9,1.1,3.8,0.7,5.6-0.4
		c1.7,1.1,3.7,0.3,5.5,0.5C135.1,108.7,134.9,109.4,134.4,110z"/>
	<path class="st177" d="M150.8,111.1c1.9,0,3.8-0.1,5.7-0.1c0,1.1,0.7,2.6-0.4,3.2c-1.3,0.7-3.2,0.6-4.5,0
		C150.3,113.7,151.3,112.1,150.8,111.1z"/>
	<path class="st147" d="M151.1,104c1.8,0,3.6,0,5.4,0c0,1.2,0,2.3,0,3.5c-2.6,1.2-4.3,1.1-5.5-0.6C151,105.9,151,105,151.1,104z"/>
	<path class="st181" d="M151,106.9c1.7,1.2,3.7,0.3,5.5,0.6c0,0.7,0,1.3,0,2c-1.6,0-3.1,0-4.7,0c-0.9,0-1.8,0-2.3-1
		C150,108,150.5,107.4,151,106.9z"/>
	<path class="st138" d="M124.6,108.5c-1.9,0-3.8,0-5.6,0c-0.5-0.8-0.5-1.6-0.4-2.5c0.5-0.5,1.1-0.6,1.8-0.7c2.9-0.3,2.9-0.3,2.9-3.4
		c0-1,0-2,0-3c0-1.3,0-2.7,0-4c0-1.4-0.2-2.7,0.6-4c0.2-0.7-0.1-1.5,0.6-2c0.8,0.7,0.8,1.6,0.8,2.5c0.1,4.9,0.1,9.7,0,14.6
		C125.3,106.9,125.2,107.8,124.6,108.5z"/>
	<path class="st182" d="M123.9,102c0,0.2,0.1,0.3,0.1,0.5c0.1,3.5,0.1,3.5-3.4,3.5c-0.7,0-1.3,0-2,0c0-1.3,0-2.7,0-4
		C120.3,101,122.1,100.9,123.9,102z"/>
	<path class="st137" d="M123.9,95c0,1.3,0,2.7,0,4c-1.8,1.1-3.6,1.1-5.3,0c0-1.3,0-2.7,0-4C120.3,94,122.1,93.9,123.9,95z"/>
	<path class="st176" d="M123.9,95c-1.8,0-3.6,0-5.3,0c0-1.3,0-2.7,0-4c1.8,0,3.5,0,5.3,0C123.9,92.3,123.9,93.7,123.9,95z"/>
	<path class="st183" d="M118.5,99c1.8,0,3.6,0,5.3,0c0,1,0,2,0,3c-1.8,0-3.6,0-5.3,0C118.5,101,118.5,100,118.5,99z"/>
	<path class="st184" d="M122.4,113.5c2.9-0.6,5.8-0.9,8.7,0C128.3,115.3,125.3,115.1,122.4,113.5z"/>
	<path class="st118" d="M124.6,108.5c-0.7-6.5-0.3-13-0.2-19.5c2-2.5,3.8-2.1,5.1,1c0,5.8-0.1,11.6-0.1,17.5
		C127.7,109.8,126.6,110,124.6,108.5z"/>
	<path class="st185" d="M135,94.5c0,2,0,4,0,6c-1.7,1-3.3,1.1-5,0c0-2,0-4,0-6C131.7,94.5,133.4,94.5,135,94.5z"/>
	<path class="st137" d="M145.5,93c0,1.8,0,3.7,0,5.5c0,0.2,0,0.3,0,0.5c-1.6,1-3.3,1.1-4.9,0c0-2,0-4,0-6
		C142.2,93,143.9,93,145.5,93z"/>
	<path class="st148" d="M140.6,99c1.6,0,3.3,0,4.9,0c0,1.5,0,3,0,4.5c-1.7,1-3.3,1.1-4.9,0C140.6,102,140.6,100.5,140.6,99z"/>
	<path class="st186" d="M140.6,103.5c1.6,0,3.3,0,4.9,0c0,4-0.2,4.2-3.3,4c-1.3-0.1-1.7-0.6-1.7-1.8
		C140.6,105,140.5,104.2,140.6,103.5z"/>
	<path class="st139" d="M130,100.5c1.7,0,3.3,0,5,0c0,0.4,0,0.8,0,1.2c0,2.5-2.2,3.9-4.3,2.6C129.3,103.4,130.3,101.8,130,100.5z"/>
	<path class="st187" d="M95.1,155c2,0,3.9,0,5.9,0c0,2.2,0,4.3,0,6.5c-2,1.1-3.9,1.1-5.9,0C95.1,159.3,95.1,157.2,95.1,155z"/>
	<path class="st188" d="M95.1,161.5c2,0,3.9,0,5.9,0c0,1.5,0,3,0,4.5c-2,1.1-3.9,1.1-5.9,0C95.1,164.5,95.1,163,95.1,161.5z"/>
	<path class="st28" d="M108.9,170.5c-2.5,0-4.9,0-7.4,0c0-3.5,0-3.5,3.4-3.5c1.2,0,2.3,0,3.5,0c0.5,0.3,0.8,0.7,1,1.3
		C109.6,169.1,109.7,169.9,108.9,170.5z"/>
	<path class="st160" d="M101.6,159c0-1.2,0-2.3,0-3.5c2.3-1.3,4.7-1,7-0.2c0.8,1.2,0.8,2.5,0,3.8C106.3,160.1,103.9,160.2,101.6,159
		z"/>
	<path class="st189" d="M95.1,166c2,0,3.9,0,5.9,0c0,1.3,0,2.7,0,4c-1.9,0-3.9,0-5.8,0C95.1,168.7,95.1,167.3,95.1,166z"/>
	<path class="st190" d="M108.4,155.5c-2.3,0-4.6,0-6.8,0c0-1,0-2,0-3c2.3-1.2,4.6-1,7-0.2C109.3,153.4,109.4,154.5,108.4,155.5z"/>
	<path class="st134" d="M101.3,145.5c0.1-0.5,0.2-1,0.2-1.5c2.3-1.2,4.6-1,7-0.1c0.7,1.1,0.7,2.2,0,3.3c-2.4,0.9-4.7,1.1-7.1-0.1
		C101.5,146.5,101.4,146,101.3,145.5z"/>
	<path class="st41" d="M108.4,152.5c-2.3,0-4.6,0-6.8,0c0-1,0-2,0-3c2.3-1.2,4.6-1,7-0.2C109.3,150.4,109.4,151.5,108.4,152.5z"/>
	<path class="st51" d="M108.4,163.5c-1.5,0-3-0.1-4.5,0c-2,0.2-2.8-0.6-2.4-2.5c2.3-1.2,4.6-1,7-0.2
		C109.2,161.7,109.3,162.6,108.4,163.5z"/>
	<path class="st174" d="M108.4,149.5c-2.3,0-4.6,0-6.8,0c0-0.8,0-1.7,0-2.5c2.3,0,4.6,0,6.8,0C109.2,147.8,109.2,148.7,108.4,149.5z
		"/>
	<path class="st49" d="M108.4,161c-2.3,0-4.6,0-6.9,0c0-0.7,0-1.3,0-2c2.3,0,4.6,0,6.8,0C109.1,159.7,109.1,160.3,108.4,161z"/>
	<path class="st154" d="M108.4,161c0-0.7,0-1.3,0-2c0-1.2,0-2.3,0-3.5c0-1,0-2,0-3c0-1,0-2,0-3c0-0.8,0-1.7,0-2.5c0-1,0-2,0-3
		c-0.5-0.6-0.5-1.3-0.2-2.1c0.3-0.4,0.5-0.7,1.1-0.3c0.2,0.3,0.3,0.5,0.4,0.8c0.3,4.6,0.1,9.3,0.1,13.9c0,2,0.1,3.9,0,5.9
		c0,1,0,2,0,3c0,0.8,0,1.7-0.4,2.5c-0.1,0.1-0.2,0.2-0.3,0.3c-0.2-0.3-0.3-0.7-0.5-1c0-1.2,0-2.3,0-3.5
		C108.4,162.7,108.4,161.8,108.4,161z"/>
	<path class="st191" d="M125.6,167.5c0-1,0-2,0-3.1c1.4-1,2.9-0.9,4.3,0c0,1,0,2,0,3C128.5,167.5,127,167.5,125.6,167.5z"/>
	<path class="st192" d="M137.5,171.5c-0.5-0.2-0.8-0.5-1-1c-2-0.5-4,0.2-5.9-0.1c0-1.2,0-2.3,0-3.5c1.4-1.1,3-0.6,4.5-0.7
		c0.3,0,0.5,0.1,0.8,0.1c1.6,0.8,3.2,0.9,4.9,0.7c1.9,0.4,3.9-0.3,5.8,0.7c0.7,1.1,0.5,2-0.6,2.7c-0.2,0.1-0.3,0.3-0.5,0.4
		C142.8,171.2,140.1,170.5,137.5,171.5z"/>
	<path class="st193" d="M146,170.6c0.4-0.8,0.6-1.7,0.4-2.6c-0.2-0.2-0.2-0.5,0-0.7c0.2-0.3,0.6-0.6,1-0.7c1.3-0.3,2.7-0.3,4,0
		c0.9,0.4,1.2,1.1,0.9,2c0.2,0.5,0.4,1,0.6,1.5C150.6,170.9,148.3,170.3,146,170.6z"/>
	<path class="st17" d="M109,141.6c-0.2,0.1-0.4,0.3-0.6,0.4c-2.3,1.2-4.5,1.1-6.8,0c-0.3-1.9,1.1-1.5,2.1-1.5c8.7,0,17.5,0,26.2,0
		c0,1.2,0,2.3,0,3.5c-1.3,1-2.7,0.8-4.1,0.4c-0.8-0.3-0.8-1.3-1.4-1.8c-3.1-1-3.6-0.8-4.9,2c-1.7,0.6-3.4,0.8-5.1,1.4
		c-0.8-0.9-0.4-2.2-0.9-3.3C112.3,141.5,110.3,142.8,109,141.6z"/>
	<path class="st194" d="M130.5,159.5c0-1.7,0-3.3,0-5c1.7-1.1,3.4-1,5.1-0.1c0.8,1.7,0.8,3.5,0,5.2
		C133.9,160.5,132.2,160.6,130.5,159.5z"/>
	<path class="st195" d="M135.5,154.5c-1.7,0-3.3,0-5,0c0-1.3,0-2.7,0-4c1.7,0,3.3,0,5,0C136.5,151.8,136.5,153.2,135.5,154.5z"/>
	<path class="st196" d="M130.5,159.5c1.6,0,3.3,0,4.9,0c1,1.3,0.9,2.7,0.2,4.1c-1.7,0.9-3.4,1-5.1-0.1
		C130.5,162.2,130.5,160.8,130.5,159.5z"/>
	<path class="st197" d="M125.6,154c-0.1-0.7-0.2-1.4-0.2-2c-0.5-0.7-0.5-1.5,0.1-2.2c1.5-0.7,3-0.9,4.4,0.2c0,1.3,0,2.7,0,4
		C128.5,155,127.1,155,125.6,154z"/>
	<path class="st198" d="M130.5,163.5c1.6,0,3.3,0,4.9,0c1,1.2,0.9,2.3,0.1,3.5c-1.7,0-3.3,0-5,0
		C130.5,165.8,130.5,164.7,130.5,163.5z"/>
	<path class="st199" d="M125.6,154c1.4,0,2.8,0,4.3,0c0,1.2,0,2.3,0,3.5c-1.4,1-2.9,1-4.3,0C125.6,156.3,125.6,155.2,125.6,154z"/>
	<path class="st200" d="M125.6,157.5c1.4,0,2.9,0,4.3,0c0,1.2,0,2.3,0,3.5c-1.4,1-2.9,1-4.3,0C125.6,159.8,125.6,158.7,125.6,157.5z
		"/>
	<path class="st51" d="M125.6,161c1.4,0,2.9,0,4.3,0c0,1.2,0,2.3,0,3.5c-1.4,0-2.9,0-4.3,0C125.6,163.3,125.6,162.2,125.6,161z"/>
	<path class="st174" d="M129.9,150c-1.5,0-3,0-4.5,0c-0.9-1.2-0.8-2.4-0.1-3.6c1.5-0.8,3-0.9,4.5,0.1
		C129.9,147.7,129.9,148.8,129.9,150z"/>
	<path class="st134" d="M129.9,146.5c-1.5,0-3,0-4.4,0c-0.7-0.8-0.7-1.7,0-2.5c1.5,0,3,0,4.4,0C129.9,144.8,129.9,145.7,129.9,146.5
		z"/>
	<path class="st201" d="M108.9,170.5c0-0.8,0-1.7,0-2.5c0,0,0.2,0,0.2,0c1.6-1.2,3.5-0.5,5.2-0.9c1.3,0.1,2.7,0,4,0
		c2.2,0.4,4.6-0.5,6.7,0.8c0,0.7,0,1.3,0,2c-1.8,0-3.7,0-5.5,0c-0.9-0.2-1.2,0.4-1.6,1c-2.8,0-5.6,0-8.4,0
		C109.3,170.9,109.1,170.7,108.9,170.5z"/>
	<path class="st202" d="M119.4,144.5c0.2-3.3,1.2-3.8,5.6-2.6c0.3,3.4,0.3,6.8,0,10.2c0,0.6,0,1.3,0,1.9c-1.8,1.1-3.6,0.9-5.5,0.2
		c-0.6-0.6-0.7-1.4-0.8-2.2c-0.1-1.4-0.1-2.7,0-4.1C118.8,146.8,118.6,145.6,119.4,144.5z"/>
	<path class="st203" d="M119.6,154c1.8,0,3.6,0,5.5,0c0.2,2.2,0.2,4.3,0,6.5c-1.8,1.1-3.6,0.9-5.4,0.3c-0.5-0.4-0.7-1-0.8-1.6
		c-0.1-0.9-0.1-1.8-0.1-2.7C118.8,155.6,118.8,154.6,119.6,154z"/>
	<path class="st188" d="M119.6,160.5c1.8,0,3.6,0,5.4,0c0.2,1.7,0.2,3.3,0,5c-1.7,1.1-3.5,0.9-5.4,0.3c-0.7-0.5-0.8-1.3-0.8-2
		c0-0.9-0.1-1.7,0.2-2.6C119.2,160.9,119.3,160.7,119.6,160.5z"/>
	<path class="st204" d="M119.6,165.5c1.8,0,3.6,0,5.4,0c0,0.8,0,1.7,0,2.5c-2.3-0.3-4.8,0.6-7-0.5
		C117.9,166.3,118.6,165.8,119.6,165.5z"/>
	<path class="st205" d="M125.1,152.1c0-3.4,0-6.8,0-10.2c0.1,0.7,0.3,1.4,0.4,2.1c-0.2,0.8-0.2,1.7,0,2.5c-0.2,1.2-0.2,2.3,0,3.5
		c0,0.7,0,1.3,0,2C125.3,152,125.2,152.1,125.1,152.1z"/>
	<path class="st171" d="M152.3,168.6c-0.3-0.5-0.5-1.1-0.8-1.6c-0.4-0.5-0.5-1,0-1.5c1.8,0,3.6,0,5.4,0c0.3,0.7,0.7,1.4,1,2.1
		C156.3,169.4,154.2,168.1,152.3,168.6z"/>
	<path class="st53" d="M151.6,165.5c0,0.5,0,1,0,1.5c-1.5,0-3,0-4.6,0c-1-1.5-0.8-3-0.2-4.5c1.2-1,2.6-0.8,3.9-0.4
		c0.9,0.6,0.2,1.7,0.7,2.4C151.5,164.9,151.5,165.2,151.6,165.5z"/>
	<path class="st206" d="M151.4,164.5c-0.6-0.6-0.3-1.4-0.5-2.1c-0.8-1-0.7-2.2-0.7-3.4c0-0.9,0-1.7,0-2.6c0-0.9,0-1.7,0-2.6
		c0-1.5-0.3-2.9,0.5-4.3c0.2-0.2,0.5-0.3,0.8-0.2c0.6,0.8,0.6,1.7,0,2.5c0,1,0,2,0,3c0,1.3,0,2.7,0,4c0,1,0,2,0,3
		C151.5,162.8,151.5,163.7,151.4,164.5z"/>
	<path class="st207" d="M151.6,152c0-0.8-0.1-1.7-0.1-2.5c-0.6-0.7-0.6-1.5-0.2-2.3c0.2-0.2,0.5-0.3,0.7-0.1
		c0.4,1.6,1.7,0.8,2.7,0.9c0.9,0.1,1.8,0,2.7,0c0.9,0.8,0.2,1.7,0.2,2.6c-0.1,0.5-0.2,1.1-0.7,1.4C155.1,152,153.4,152,151.6,152z"
		/>
	<path class="st208" d="M152,147c-0.1,0.1-0.2,0.1-0.4,0.1c-1.5,0-3,0.1-4.4-0.2c-0.2-0.1-0.5-0.3-0.6-0.5c-0.1-0.8-0.3-1.6-0.4-2.4
		c2.2,0.2,4.6-0.5,6.7,0.5C152.7,145.4,151.8,146,152,147z"/>
	<path class="st209" d="M157.1,150.5c-0.3-0.9,0.3-1.6,0.3-2.5c0.2-1.4,1.2-1.5,2.3-1.6c1.8-0.1,2.3,1.2,2.9,2.6
		c0.1,0.3,0.1,0.5-0.2,0.7C160.7,150.4,158.9,150.2,157.1,150.5z"/>
	<path class="st167" d="M162.4,149.5c0.1-0.2,0.1-0.3,0.2-0.5c0.1,0,0.3,0,0.4,0c0,0.2,0,0.5,0,0.7c0,4.5-1.6,5.5-6,3.7
		c0.3-0.3,0.7-0.6,1.1-0.5C160.8,153.4,161.9,151.8,162.4,149.5z"/>
	<path class="st197" d="M162.4,149.5c0.4,4,0.4,4-3.5,4c-0.7,0-1.3,0-2-0.1c0-0.5-0.1-1-0.1-1.5c0.1-0.5,0.1-1,0.2-1.5
		C158.6,148.7,160.7,149.8,162.4,149.5z"/>
	<path class="st210" d="M141.4,149.5c1.7,0,3.4,0,5,0c1.1,1.7,0.9,3.4,0.2,5.1c-1.7,0.9-3.5,0.9-5.2,0.1
		C140.5,153,140.5,151.3,141.4,149.5z"/>
	<path class="st211" d="M135.9,147.5c3.4-1.8,4.4-1.4,5.1,2c0.2,0.6,0.3,1.2-0.2,1.7c-1.7,0.7-3.3,0.8-4.9-0.1
		C135.6,149.9,135.7,148.7,135.9,147.5z"/>
	<path class="st212" d="M146.5,154.5c0-1.7,0-3.3,0-5c0-1,0-2,0.1-3.1c0.1,0.1,0.2,0.1,0.3,0.1c1,0.8,0.8,1.9,0.8,2.9
		c0,1.5,0,2.9,0,4.4c0,0.9,0,1.7,0,2.6c0,0.9,0,1.7,0,2.6c0,1.2,0.2,2.4-0.6,3.4c0,1.5-0.1,3-0.1,4.5c-0.1,0.2-0.3,0.4-0.4,0.6
		c-0.5-0.4-0.6-1-0.7-1.6c-0.1-1.2-0.1-2.4,0-3.5c0-1.3,0-2.7,0-4C145.8,157.1,145.5,155.7,146.5,154.5z"/>
	<path class="st213" d="M135.9,147.5c0.1,1.2,0.1,2.3,0.2,3.5c0.7,0.9,0.6,1.9,0.6,2.9c0,0.8,0,1.7,0,2.5c0,0.8,0,1.7,0,2.5
		c0,0.7,0,1.4,0,2.1c0,0.9,0,1.7,0,2.6c0,1.2,0.2,2.4-0.7,3.4l-0.2,0c0,0-0.2,0-0.2,0c0-1.2,0-2.3-0.1-3.5c0-1.3,0-2.7,0-4
		c0-1.7,0-3.3,0-5c0-1.3,0-2.7,0-4C135.7,149.5,135.2,148.4,135.9,147.5z"/>
	<path class="st214" d="M140.9,151c0.1-0.5,0.1-1,0.2-1.5c0.1,0,0.2,0,0.4,0.1c0,1.7,0.1,3.3,0.1,5c0.9,1.2,0.7,2.6,0.7,3.9
		c0,1.3,0,2.6,0,3.9c0,1,0.1,2.1-0.5,3c-0.2,0.2-0.5,0.3-0.8,0.2c-0.5-0.6-0.6-1.3-0.6-2c0-0.8,0-1.7,0-2.5c0-0.7,0-1.4,0-2.1
		c0-0.8,0-1.7,0-2.5c0-0.8,0-1.7,0-2.5C140.3,152.9,140.2,151.9,140.9,151z"/>
	<path class="st17" d="M101.6,142c2.3,0,4.5,0,6.8,0c0,0.7,0,1.3,0,2c-2.3,0-4.5,0-6.8,0C101.6,143.3,101.6,142.7,101.6,142z"/>
	<path class="st215" d="M114.4,142c0.1,1.3,0.1,2.7,0.2,4c1,1.2,0.4,2.6,0.6,4c0,1.7-0.1,3.3,0,5c-0.1,0.6-0.2,1.2-0.7,1.7
		c-1.8,0.7-3.7,0.9-5.5-0.2c0-4.8,0-9.7,0-14.5C110.9,141.6,112.6,141.6,114.4,142z"/>
	<path class="st216" d="M109.1,156.5c1.8,0,3.6,0,5.3,0c0.9,0.8,0.7,1.8,0.8,2.8c0,1,0.1,2-0.3,3c-0.2,0.3-0.4,0.5-0.6,0.6
		c-1.7,0.3-3.5,0.7-5.1-0.4C109.1,160.5,109.1,158.5,109.1,156.5z"/>
	<path class="st217" d="M109.1,162.5c1.8,0,3.6,0,5.3,0c1,1,0.8,2,0.2,3.1c-1.9,0.9-3.7,1-5.5-0.1
		C109.1,164.5,109.1,163.5,109.1,162.5z"/>
	<path class="st218" d="M109.1,165.5c1.8,0,3.6,0,5.3,0c0.5,0.3,0.5,0.8,0.5,1.3c-0.1,0.2-0.2,0.5-0.4,0.6c-1.7,1.2-3.6,0.3-5.4,0.6
		C109.1,167.2,109.1,166.3,109.1,165.5z"/>
	<path class="st219" d="M114.4,142c-1.8,0-3.5,0-5.3,0c0-0.1-0.1-0.3,0-0.4C110.8,141.8,112.7,140.9,114.4,142z"/>
	<path class="st220" d="M140.9,163.5c0,0.7,0.1,1.3,0.1,2c0.4,0.8,0.1,1.5-0.6,2c-1.6,1.2-3.1,0.7-4.5-0.5c0-1.2,0-2.3,0.1-3.5
		C137.7,162.5,139.3,162.5,140.9,163.5z"/>
	<path class="st221" d="M140.5,167.5c0.2-0.7,0.4-1.3,0.6-2c0.1,0,0.3,0,0.4-0.1c1.7-0.2,3.4-0.5,5,0.5c0,0.5,0.1,1.1,0.1,1.6
		c0.1,0.2,0,0.3-0.1,0.4C144.5,167.7,142.4,168.6,140.5,167.5z"/>
	<path class="st222" d="M114.6,150c0-1.3,0-2.7,0-4c1.1-2.2,3.1-1.3,4.8-1.5c0,1.2,0,2.3,0,3.5C117.9,148.8,115.9,148.7,114.6,150z"
		/>
	<path class="st53" d="M114.6,167.4c0-0.2,0-0.3,0.1-0.4c0.1-0.3,0.1-0.6,0.1-1c0.1-3.4,1.4-4,4.7-2.5c0.1,0.7,0.1,1.3,0.2,2
		c-0.5,0.7-1.1,1.3-1.6,2C116.8,168.2,115.7,168.6,114.6,167.4z"/>
	<path class="st58" d="M114.6,159.5c-0.1-1-0.1-2-0.2-3c0.1-0.5,0.1-1,0.2-1.5c0.1-0.2,0.1-0.3,0.1-0.5c0.2-3.4,1.4-4,4.7-2.5
		c0.1,0.7,0.1,1.3,0.2,2c-0.1,0.8-0.1,1.7-0.2,2.5c-0.6,0.6-1.3,0.6-2.1,0.6c-1.1,0-1.7,0.6-1.8,1.6c-0.1,0.2-0.2,0.4-0.3,0.6
		C115,159.6,114.8,159.6,114.6,159.5z"/>
	<path class="st223" d="M119.4,152c-0.2,0-0.3,0-0.5,0c-2.4-0.4-4.2,0.1-4.3,3c0-1.7,0-3.3,0-5c0.6-3,3.1-1.7,4.8-2
		C119.4,149.3,119.4,150.7,119.4,152z"/>
	<path class="st39" d="M115,159c-0.4-4.1,2.8-2,4.4-2.5c0,0.8,0,1.7,0,2.5C117.9,160.1,116.5,159.9,115,159z"/>
	<path class="st49" d="M115,159c1.5,0,2.9,0,4.4,0c0.1,0.5,0.1,1,0.2,1.5c-0.1,0.2-0.1,0.3-0.2,0.5c-1.4,1-2.9,0.9-4.4,0.2
		c-0.4-0.6-0.4-1.1-0.1-1.7C115,159.3,115,159.2,115,159z"/>
	<path class="st51" d="M115,161c1.5,0,2.9,0,4.4,0c0,0.8,0,1.7,0,2.5c-3.9,0-3.9,0-4.8,3.5c-0.1-0.5-0.1-1-0.2-1.5c0-1,0-2,0-3
		l0.2,0C114.9,162.1,114.5,161.4,115,161z"/>
	<path class="st49" d="M147.1,162.5c0-1.2,0-2.3,0-3.5c1.3-0.9,2.6-0.9,3.9,0c0,1.2,0,2.3,0,3.5
		C149.7,162.5,148.4,162.5,147.1,162.5z"/>
	<path class="st197" d="M147.1,154c0-1.5,0-3,0-4.5c1.4-1,2.7-1,4.1,0.1c-0.1,1.5-0.1,3-0.2,4.4C149.6,154.9,148.4,154.9,147.1,154z
		"/>
	<path class="st224" d="M151.1,149.6c-1.4,0-2.7,0-4.1-0.1c-0.1-1-0.1-2-0.2-2.9c1.6,0.2,3.3-0.7,4.8,0.6c-0.1,0.8-0.1,1.5-0.2,2.3
		C151.3,149.5,151.2,149.5,151.1,149.6z"/>
	<path class="st161" d="M147.1,154c1.3,0,2.6,0,3.8,0c0,0.8,0,1.7,0,2.5c-1.3,0.9-2.6,0.9-3.8,0C147.1,155.7,147.1,154.8,147.1,154z
		"/>
	<path class="st160" d="M147.1,156.5c1.3,0,2.6,0,3.8,0c0,0.8,0,1.7,0,2.5c-1.3,0-2.6,0-3.9,0C147.1,158.2,147.1,157.3,147.1,156.5z
		"/>
	<path class="st225" d="M141.5,158.5c0-1.3,0-2.7,0-4c1.6,0,3.3,0,4.9,0c0,1.3,0,2.7,0,4C144.8,159.5,143.2,159.5,141.5,158.5z"/>
	<path class="st170" d="M140.9,151c0,1,0,2,0,3c-1.6,1-3.2,1-4.8,0c0-1,0-2,0-3C137.7,151,139.3,151,140.9,151z"/>
	<path class="st216" d="M141.5,158.5c1.6,0,3.3,0,4.9,0c0,1.3,0,2.7,0,4c-1.6,1-3.3,1.1-4.9,0C141.6,161.2,141.5,159.8,141.5,158.5z
		"/>
	<path class="st226" d="M141.6,162.5c1.6,0,3.3,0,4.9,0c0,1.2,0,2.3-0.1,3.5c-1.6-0.2-3.4,0.6-5-0.5
		C141.5,164.5,141.5,163.5,141.6,162.5z"/>
	<path class="st161" d="M136.1,154c1.6,0,3.2,0,4.8,0c0,0.8,0,1.7,0,2.5c-1.6,1-3.2,1-4.8,0C136.1,155.7,136.1,154.8,136.1,154z"/>
	<path class="st51" d="M140.9,163.5c-1.6,0-3.2,0-4.8,0c0-0.8,0-1.7,0-2.5c1.6-1,3.2-1,4.8,0C140.9,161.8,140.9,162.7,140.9,163.5z"
		/>
	<path class="st160" d="M136.1,156.5c1.6,0,3.2,0,4.8,0c0,0.8,0,1.7,0,2.5c-1.6,1-3.2,1-4.8,0C136.1,158.2,136.1,157.3,136.1,156.5z
		"/>
	<path class="st49" d="M136.1,159c1.6,0,3.2,0,4.8,0c0,0.7,0,1.3,0,2c-1.6,0-3.2,0-4.8,0C136.1,160.3,136.1,159.7,136.1,159z"/>
	<path class="st39" d="M115,161c0,0.5,0.1,1.1-0.4,1.5c0-1,0-2,0-3c0.1,0,0.3,0,0.4,0C115,160,115,160.5,115,161z"/>
</g>
</svg>
