<?xml version="1.0" encoding="utf-8"?>
<!-- Generator: Adobe Illustrator 19.2.0, SVG Export Plug-In . SVG Version: 6.00 Build 0)  -->
<svg version="1.1" baseProfile="tiny" xmlns="http://www.w3.org/2000/svg" xmlns:xlink="http://www.w3.org/1999/xlink" x="0px"
	 y="0px" viewBox="0 0 900 83" xml:space="preserve">
<g id="Слой_1">
	<g>
		<g>
			<path fill="#FFFFFF" d="M1,22C1,15.8,1.1,9.7,0.9,3.5C0.9,1.3,1.3,0.9,3.5,0.9C12.3,1.1,21.2,1,30,1c0.1,2.4-1.9,3-3.4,3.9
				c-4.6,2.6-6.1,6.2-5.7,11.5c0.5,7.9,0.4,16,0,23.9c-0.3,4.7,1.1,7.7,5.3,10c2.6,1.4,4.6,4,7.9,1.7c3.5-2.4,7.3-4.1,7-9.8
				c-0.5-8.6-0.5-17.3,0-25.9c0.3-5.5-0.9-9.7-6-12.2C33.8,3.4,33,2.5,33,1c146.7,0,293.3,0,440,0c-0.2,2.3-2.2,3.2-3.6,3.7
				c-4.9,1.7-5.7,5-5.4,9.6c0.4,6.3,0.1,6.3-5.7,3.3c-2.4-1.2-4.6-3.8-7.7-2.2c-2.8,1.4-5.4,3.2-8.2,4.7c-1.8,1-2.4,2.5-2.4,4.5
				c0.1,11.6,0.1,23.3,0,34.9c0,1.6,0.3,2.7,1.7,3.9c6,5.1,10.2,5.6,17.1,2.2c1.6-0.8,3-2.2,5.2-1.7c0,2.3,0.2,4.7,0,6.9
				c-0.5,4,0.9,6.4,4.7,8.1c2.3,1.1,5.5,1.8,6.4,5c-156.5,0-313,0-469.5,0.1c-3.8,0-4.8-0.9-4.6-4.6C1.3,73.7,1,67.8,1,62
				c4.4,0.9,7.4,4.3,11.1,6.5c2.2,1.3,4,2.2,3.9-1.8c-0.1-16.8,0-33.6,0-50.4c0-0.9,0.4-2.1-0.8-2.7c-1.1-0.5-1.7,0.7-2.5,1.1
				C8.7,17,5.7,20.9,1,22z M348,73c1.1-0.1,2-0.6,1.9-1.8c-0.1-3.3-2.7-3.7-5.2-4.2c-1.4-0.3-2.9-0.7-2.3-2.5
				c0.6-1.8,2.1-1.7,3.7-0.8c1,0.6,1.5,2.3,3.5,1.6c-1-2.7-2.5-4.6-5.6-4.1c-2.1,0.3-3.7,1.7-3.9,3.9c-0.2,2.9,2.4,3.2,4.3,3.9
				C346.6,69.7,348.3,70.4,348,73c-2.9,0.6-5.3-0.6-7.5-3.1c-0.8,3.2,0.8,4.5,2.8,4.8C344.9,75.1,347.4,76.1,348,73z M381,63L381,63
				c-2.3-3.6-4.9-1.9-7.1-0.1c-2.6,2.1-2.6,7.6-0.4,10c2,2.3,10,3,10.2,0.8c0.5-5.4,0.2-10.8,0.2-17.3C381.2,59.1,382.9,61.6,381,63
				z M295,51c0.1,0.1,0.3,0.2,0.4,0.2C295.3,51.2,295.1,51.1,295,51c0-0.3,0-0.7-0.1-1c4.7-0.5,5.9-2.9,4.1-8
				c-4.6-10.6-12-19.4-17.6-29.3c-0.9-1.6-1.8-1.5-3.2-0.5c-1.3,1.1-2.7,1.7-1.5,3.9c4.3,8.1,8.4,16.2,12.6,24.4
				c0.8,1.6,2.2,3.4,3.7,2.1c2.1-1.9,4.1-0.4,6-0.6c-0.2,1.4-0.3,2.6-2.3,2.4c-4.5-0.5-3.9,1.9-2.7,4.7c-2-0.8-4-1.6-5.9-2.5
				c-4.1-2.1-8-1.3-11.9,0.4c-1.3,0.6-2.5,1.5-1.8,3c0.6,1.4,2.2,2.3,3.7,1.4c3-1.7,5.5-1.7,8,0.9c1.1,1.2,2.8,0.8,4.2,0
				C291.8,51.6,293.3,50.8,295,51z M256,64.1c-1.7,0-2.5-1.4-3.8-2.2c-3.3-2.1-8-0.8-9.9,2.6c-1.9,3.5-0.3,8.7,3.2,10.2
				c3.8,1.7,7.2,0,8.6-4.3c-1.5-0.7-2.9-0.4-4.3,0.2c-1.4,0.6-2.6,0.4-3.4-1c-0.6-1.1-0.6-2.3,0.1-3.3c0.7-1.1,1.9-1.4,3.1-0.9
				c2.1,0.9,4.2,0.5,6.4,0.6c0,1.8,0,3.7,0,5.5c0,1.7-0.2,3.4,2.4,3.5c2.4,0.1,2.7-1.4,2.6-3.3c-0.1-2.5-0.3-4.8,2.9-6.1
				c1.8-0.7,1.6-2.9,0.2-4.2C262.3,59.7,257.4,61.4,256,64.1z M22,70c0,5.1,4.6,11.1,9,11.8c2.6,0.4,9.3-5.5,10-8.8c0-2,0.1-4,0-6
				c-0.2-3.5-8-11.1-11-10.8C24,56.8,19.9,63.9,22,70z M163,71c1.2,0.9,2.2,2,3.5,2.7c6.2,3.2,12.5,7.2,19.7,4.9
				c15.9-5.2,23.5-24.6,15.4-38.9c-1.7-2.9-1.6-5-0.2-7.8c2.9-5.7,2.1-10.4-2.1-15c-1.9-2.1-4-4-6-6c-5.1-5-8.8-5.3-14.2-0.4
				c-2.3,2.1-3.8,2.5-6.2,0.5c-6.3-5-13.5-6.7-21.5-6.1c-8.1,0.6-18.7,9.8-19.4,17.5c-0.6,7.4,0.3,14.5,4.6,21
				c1.7,2.6,2.2,5.4,0.2,8.4c-8.7,12.9-5.3,13.4,2.6,21.3c0.2,0.2,0.5,0.5,0.7,0.7c7,6.9,8.5,6.9,15.4,0.2c1.1-1,2.2-2,3.4-2.9
				C160.3,71,161.7,71,163,71z M47,71c4.4-2.9,7.8-5.5,11.5-7.6c2.7-1.6,3.6-3.6,3.5-6.5c-0.2-6.5-0.8-13.1,0.1-19.5
				c1.5-10.6-2-17.9-11.6-22.4c-1-0.4-1.5-2.1-2.9-1.3c-1,0.6-0.6,1.8-0.6,2.8C47,34.3,47,52.1,47,71z M304.8,56.5
				c2-0.7,2.5-1.8,2.7-2.9c0.8-4.3,0.7-8.5-0.7-12.7c-1.2-3.6-2.2-7.6,0.7-10.8c3-3.3,6.7-2.2,10.2-0.7c3.4,1.5,6.2,3.8,6.1,7.7
				c0,3.6-2.3,6.4-4.6,9.1c-2.7,3.2-5.9,6.2-5.7,11.1c3.1-3.9,6.7-7.1,10.1-10.6c6.5-6.7,6-14.7-1.6-20c-4.6-3.2-9.9-4.3-15.1-1.7
				c-5.3,2.6-6.9,7.5-6,13C302.1,44.2,306.1,49.6,304.8,56.5z M293,69.7c0-1.8,0.1-3.3,0-4.8c-0.4-3.1-2.4-3.9-5.3-4
				c-2.9-0.1-6.2,2.9-5.9,3.1c4,3.2-1.9,5.4-0.7,8c0.3,0.7,0.4,1.8,1,2.1c3.4,1.9,7.2,0.6,10.6,0.4C295.1,74.4,291.9,71.2,293,69.7z
				 M272.8,75c0.2,0,0.3,0,0.5,0c2.5-0.3,5.9-0.6,5.3-3.7c-0.6-2.8-3.1-0.7-4.7,0.1c-1.1,0.6-2,0.1-2.3-1.1
				c-0.3-1.1,0.7-1.3,1.6-1.3c1.5-0.1,3,0,4.5-0.1c2,0,2.8-1,1.9-2.9c-1.5-3.5-3.9-5.9-8-5c-4.1,0.8-5.8,3.7-5.4,7.6
				C266.5,72.6,268.3,75.3,272.8,75z M331.7,75c0.2,0,0.3,0,0.5,0c2.1,0,4-0.6,5.3-2.3c0.3-0.4,0.4-1.5,0.2-1.8
				c-1.8-1.8-3.3-0.3-4.8,0.6c-1.1,0.6-2,0.1-2.3-1.1c-0.2-1.2,0.8-1.3,1.6-1.3c1.2-0.1,2.3-0.1,3.5,0c3.1,0.3,3.4-1.1,2.4-3.6
				c-1.4-3.7-4.1-5.2-7.9-4.3c-4.1,1-5.6,4.1-5,8C325.6,72.7,327.4,75.4,331.7,75z M317.7,68.4c-1.3-1.8-1.5-3.6-1.9-5.3
				c-0.4-1.8-1.8-2.4-3.4-1.9c-1.8,0.5-1.4,2-1,3.3c0.9,2.7,1.8,5.3,2.9,7.9c0.6,1.4,1.3,2.6,3.2,2.6c1.9,0,2.7-1.1,3.3-2.5
				c1-2.6,2.1-5.2,2.9-7.9c0.4-1.1,2.3-2.8-0.3-3.5c-1.9-0.5-3.7-0.1-4.3,2.3C318.7,65,318.2,66.6,317.7,68.4z M300.5,75
				c1.5-0.2,3.1-0.6,1.8-2.7c-1.9-2.9-2.1-5.8,0-8.6c1.6-2.1-1-2.8-1.3-4.2c-0.4-1.7-2.2-2-3.2-1.4c-6.1,3.3-0.7,8.3-1.6,12.5
				C295.6,73.3,297.7,74.8,300.5,75z M403,68.7c0-4.9-2.5-8-6.2-7.6c-3.9,0.4-5.7,2.9-5.8,6.7c-0.1,4.4,2.4,7.3,6.3,7.1
				C401.6,74.8,403.7,72.7,403,68.7z M359.9,61.5c-1.3,4.1-1,7.2-0.7,10.1c0.2,1.9,1.7,3.4,3.8,3.2c2.3-0.1,6.1,0.4,6.6-1.3
				c1-3.5,0.9-7.4-0.3-12.3c-1.8,3.5-0.9,5.8-1.3,8.1c-0.5,2.2-1.8,3.6-4.1,3.5c-2.4-0.1-2.7-1.9-2.8-3.9
				C360.9,66.9,361.5,64.7,359.9,61.5z M309.2,68.2c-1.3-2.2,1.8-6.8-2.4-6.7c-3.5,0-1.7,4.3-1.7,6.6c0,2.2-2,6.4,1.8,6.5
				C311,74.7,308,70.3,309.2,68.2z M354,58c-3.1,4.9-0.2,9.5-0.9,13.9c-0.3,1.5,0.8,3.4,2.5,2.7c2.2-0.9-0.5-1.9-0.5-3
				c0-2.2-0.6-4.5,0-6.4C355.9,62.8,355.6,60.7,354,58z M316.4,43.3c-2.3,0.9-5-0.1-5.1,2.2c-0.1,3.7-1.8,7-2,12.1
				C312.4,52.5,314.5,48.5,316.4,43.3z M388.1,74.3c0.9-3.9,1.4-7.8-0.2-11.6C386.8,66.6,386.7,70.4,388.1,74.3z"/>
			<path fill="#FFFFFF" d="M863,84c-128.7,0-257.3,0-386,0c0-1.1,0.7-1.8,1.6-2.3c9.8-5.6,19.6-11.3,29.5-16.7
				c2.9-1.6,4-3.3,3.9-6.6c-0.2-11-0.1-22,0-33c0-2.6-0.6-4.2-3.1-5.6c-6.6-3.5-13.1-7.2-19.4-11.2c-3.7-2.3-8.4-3.3-10.6-7.7
				c123.7,0,247.3,0,371,0c-2,3.8-6.2,4.7-9.2,7c-1.6,1.3-2.9,2.4-1.8,4.4c1.5,2.8-0.4,3.9-2.2,5c-6.4,4.1-12.8,8.3-19.3,12.2
				c-2.3,1.4-2.4,2.6-1.3,4.8c1.8,3.7,3.3,7.6,4.9,11.4c3.4,7.9,6.9,15.8,10.2,23.7c1.5,3.6,4.9,4.8,7.8,6.6
				c2.3,1.5,3.7-1.4,5.5-2.3c1.6-0.9,3.1-1.4,4.6-0.2C853.6,77.3,858.9,79.9,863,84z M574,68c0,1.3-0.2,2.8,1.4,3.3
				c0.3,0.1,1.3-0.7,1.3-1.1C576.7,68.5,575.4,68.1,574,68c0-2.7,0.1-5.3-1.3-7.8c-1.3-2.3-0.3-3.8,2.2-4.2c1.6-0.3,3.2-0.8,4.9-1
				c7.1-0.5,7.2-0.4,6.2,6.6c-0.5,3.7,1,4.6,4.5,4.4c6.2-0.4,8.9-4.3,11.2-9.4c-2.3-0.3-3.2,0.7-4,2.5c-0.9,2.2-2.6,4-4.9,4.8
				c-1.3,0.4-4.3,0.9-3.6-1.6c1-3.9,2.4-8.5,6.8-9.9c4.8-1.5,9.8-2.5,14.7-5.3c-0.3,2.8-1.1,5-0.5,6.9c1,3.5-0.6,4.1-3.4,4.2
				c-4.2,0.1-6.9,4.6-6.3,6.2c1.7,4.2-1.4,5-3.1,7c-0.8,1-2.4,2.2-1.4,3.2c1.2,1.3,2.6,0,3.8-1.1C605.6,68,611,62.1,618.5,59
				c1.8-0.8,1.4-1.9,0.9-3.3c-1.5-4.6,0.3-7.6,4.9-8.6c5.5-1.2,7.7-4.7,7.7-10c0-3.8,1.9-3.8,4.5-2.1c6.9,4.4,8.3,4.2,14.8-2.4
				c-5.6,1.3-10.6,1.8-15.5-0.6c-0.7-0.3-1.9,0.2-2.9,0.5c-1.3,0.4-2.6,0.7-3.8-0.2c-4.9-3.5-10.2-5.1-16.9-3.2
				c2.9-4.5,5.2-8.3,9.3-10.6c1.4-0.8,2.4-2.3,3.7-3.3c1.8-1.4,1.4-3.1,0.5-4.4c-1.1-1.5-2.4,0-3.4,0.6c-2.5,1.4-4.8,3-7.2,4.4
				c-0.8,0.4-2.3,1.9-2.7-0.2c-0.6-3.1-1.9-1.3-2.9-0.6c-5.8,3.6-11.3,7.6-16.2,12.4c-2.8,2.7-5.4,3-7.7,0.6
				c-5.4-5.5-12.6-6.9-19.2-9.7c-2.3-1-3-0.2-4.6,0.8c-5.3,3.3-5.8,10-10.2,13.9c-1.2,1-2.2,2.4-0.9,3.9c1.4,1.6,4,1.3,4.9,0.3
				c2.4-2.9,6-2.7,8.7-4.5c3.7-2.5,4.9-0.3,6.3,2.3c2.5,4.5,4.1,9.5,7.4,13.6c2,2.4,0,3.2-2.1,3.4c-1.8,0.2-3.5,0-4.8,1.9
				C568.4,57.8,569.8,64.9,574,68z M720.4,5c-21.7,0-38,15.6-38.5,35.9c-0.5,20,15.2,38.8,37,38.8c22.8,0,38.3-15.9,38.8-37
				C758.3,22.6,741.8,4.7,720.4,5z"/>
			<path fill="#E3E3E3" d="M863,84c-4.1-4.1-9.4-6.7-13.9-10.3c-1.5-1.2-3-0.7-4.6,0.2c-1.8,0.9-3.2,3.8-5.5,2.3
				c-2.8-1.8-6.3-3.1-7.8-6.6c-3.3-7.9-6.8-15.8-10.2-23.7c-1.6-3.8-3.1-7.7-4.9-11.4c-1-2.2-1-3.4,1.3-4.8
				c6.5-3.9,12.9-8.1,19.3-12.2c1.8-1.2,3.8-2.3,2.2-5c-1.1-2.1,0.2-3.2,1.8-4.4c3-2.4,7.2-3.2,9.2-7c1.7,0,3.3,0,5,0
				c1.9,4.7,6.8,5.9,10.2,8.8c2.4,2.1,4.5,2.3,7,0.1c1.3-1.1,2.7-2.8,4.8-1.3c2.9,2,5.9,3.8,7.4,7.2c2.9,6.9,5.5,13.9,8.7,20.6
				c2.5,5.2,3.1,11.4,7.9,15.5c0,0.7,0,1.3,0,2c-0.3,0-0.7-0.1-1,0c-8.3,3.6-15.2,9.3-22.6,14.2c-1.2,0.8-1.6,2.1-1,3.5
				c1.4,3-0.7,4.1-2.8,5.4c-3.3,2.1-7,3.7-9.6,6.8C863.7,84,863.3,84,863,84z"/>
			<path fill="#E3E3E3" d="M479,1c2.2,4.4,6.9,5.4,10.6,7.7c6.3,4,12.8,7.7,19.4,11.2c2.5,1.3,3.1,3,3.1,5.6c-0.1,11-0.2,22,0,33
				c0.1,3.3-1,5-3.9,6.6c-9.9,5.4-19.7,11.1-29.5,16.7c-1,0.5-1.6,1.2-1.6,2.3c-0.7,0-1.3,0-2,0c-0.9-3.2-4-3.9-6.4-5
				c-3.8-1.7-5.2-4.1-4.7-8.1c0.3-2.3,0-4.6,0-6.9c-2.3-0.5-3.7,0.9-5.2,1.7c-6.9,3.4-11.1,2.8-17.1-2.2c-1.4-1.1-1.7-2.3-1.7-3.9
				c0-11.6,0.1-23.3,0-34.9c0-2.1,0.6-3.5,2.4-4.5c2.7-1.6,5.4-3.3,8.2-4.7c3.1-1.6,5.3,1,7.7,2.2c5.8,3,6.1,3,5.7-3.3
				c-0.3-4.6,0.6-8,5.4-9.6c1.5-0.5,3.5-1.4,3.6-3.7C475,1,477,1,479,1z"/>
			<path fill="#E3E3E3" d="M33,1c0,1.5,0.8,2.4,2.1,3.1c5.1,2.5,6.3,6.7,6,12.2c-0.5,8.6-0.5,17.3,0,25.9c0.3,5.6-3.5,7.3-7,9.8
				c-3.3,2.3-5.3-0.3-7.9-1.7c-4.2-2.3-5.6-5.3-5.3-10c0.4-8,0.5-16,0-23.9c-0.3-5.3,1.2-8.9,5.7-11.5C28.1,4,30.1,3.4,30,1
				C31,1,32,1,33,1z"/>
			<path fill="#FFFFFF" d="M901,52c-4.8-4.1-5.4-10.3-7.9-15.5c-3.2-6.7-5.8-13.7-8.7-20.6c-1.4-3.4-4.5-5.2-7.4-7.2
				c-2.1-1.5-3.5,0.2-4.8,1.3c-2.5,2.1-4.6,1.9-7-0.1c-3.4-3-8.3-4.2-10.2-8.8c14.3,0,28.7,0.1,43-0.1c2.5,0,3.1,0.6,3.1,3.1
				C900.9,20,901,36,901,52z"/>
			<path fill="#E4E3E4" d="M1,22c4.7-1.1,7.7-5,11.7-7.3c0.8-0.5,1.4-1.7,2.5-1.1c1.1,0.5,0.8,1.7,0.8,2.7c0,16.8,0,33.6,0,50.4
				c0,4-1.8,3-3.9,1.8C8.4,66.3,5.4,62.9,1,62C1,48.7,1,35.3,1,22z"/>
			<path fill="#FFFFFF" d="M864,84c2.6-3.1,6.3-4.7,9.6-6.8c2.1-1.3,4.1-2.4,2.8-5.4c-0.7-1.4-0.2-2.7,1-3.5
				c7.5-4.9,14.4-10.6,22.6-14.2c0.3-0.1,0.7,0,1,0c0,9.2-0.1,18.3,0.1,27.5c0,2.2-0.4,2.6-2.6,2.6C887,83.9,875.5,84,864,84z"/>
			<path fill="#E3E3E4" d="M159,71c-1.1,1-2.3,1.9-3.4,2.9c-6.9,6.7-8.4,6.7-15.4-0.2c-0.2-0.2-0.5-0.5-0.7-0.7
				c-7.9-7.8-11.3-8.4-2.6-21.3c2-2.9,1.5-5.7-0.2-8.4c-4.2-6.4-5.2-13.5-4.6-21c0.6-7.6,11.3-16.9,19.4-17.5
				c8-0.6,15.2,1.1,21.5,6.1c2.5,2,4,1.6,6.2-0.5c5.4-4.9,9.1-4.7,14.2,0.4c2,2,4.1,3.9,6,6c4.2,4.6,5,9.3,2.1,15
				c-1.4,2.8-1.5,4.8,0.2,7.8c8.1,14.3,0.5,33.7-15.4,38.9c-7.2,2.3-13.6-1.7-19.7-4.9c-1.3-0.7-2.4-1.8-3.5-2.7
				c-0.5-3.5-1-7-1.5-10.7C156.3,63.2,158.6,67.3,159,71z M176.2,56c2.7-0.5,5.1,1.2,7.6,2.9c0.9,0.6,3.2,1.9,2.8-0.4
				c-0.4-2.6-2-6.7-4.2-6.7c-5.5-0.1-11,1.2-16.5,2.1c-0.8,0.1-1.8,1.1-1.3,2.3c0.4,1,1.4,0.7,2.1,0.8C169.8,57.5,172.6,56,176.2,56
				z M150,23.9c0.9,1.4,1.8,3,2.9,4.4c1.4,1.8,3.3,2.5,5.2,0.8c1.5-1.3,0.3-2.7-0.8-3.2c-2.2-1.1-3.7-4-6.8-3.2
				C150.3,22.8,150.2,23.3,150,23.9z"/>
			<path fill="#E4E3E4" d="M47,71c0-18.8,0-36.7,0-54.5c0-1-0.4-2.2,0.6-2.8c1.4-0.8,1.9,0.8,2.9,1.3c9.7,4.5,13.2,11.8,11.6,22.4
				c-0.9,6.4-0.3,13-0.1,19.5c0.1,3-0.8,5-3.5,6.5C54.8,65.5,51.4,68,47,71z"/>
			<path fill="#E4E4E4" d="M304.8,56.5c1.3-6.9-2.7-12.3-3.8-18.4c-1-5.6,0.7-10.5,6-13c5.2-2.5,10.5-1.4,15.1,1.7
				c7.5,5.2,8,13.3,1.6,20c-3.4,3.5-7,6.7-10.1,10.6c-0.2-4.9,3-7.9,5.7-11.1c2.3-2.7,4.5-5.6,4.6-9.1c0-3.9-2.7-6.3-6.1-7.7
				c-3.5-1.5-7.2-2.6-10.2,0.7c-2.9,3.2-1.9,7.2-0.7,10.8c1.4,4.2,1.5,8.5,0.7,12.7C307.4,54.7,306.9,55.9,304.8,56.5z"/>
			<path fill="#E6E6E6" d="M299,42c-2,0.2-3.9-1.3-6,0.6c-1.5,1.4-2.9-0.5-3.7-2.1c-4.2-8.1-8.3-16.3-12.6-24.4
				c-1.2-2.2,0.2-2.9,1.5-3.9c1.3-1.1,2.2-1.2,3.2,0.5C287,22.6,294.4,31.5,299,42C299,42,299,42,299,42z M292.4,38.3
				c0.4,0,0.5-0.1,0.2-0.5c0,0-0.2,0.1-0.4,0.1C292.3,38,292.3,38.1,292.4,38.3z"/>
			<path fill="#F1F0F1" d="M22,70c-2.1-6.1,2-13.2,8-13.8c3-0.3,10.9,7.3,11,10.8c0.1,2,0,4,0,6c-1.1-0.4-2.5-0.4-3.2-1.2
				C33,66.7,27.9,65.6,22,70z"/>
			<path fill="#E4E4E5" d="M22,70c5.9-4.4,11-3.3,15.8,1.8c0.7,0.7,2.1,0.8,3.2,1.2c-0.7,3.4-7.4,9.2-10,8.8
				C26.6,81.1,22,75.1,22,70z"/>
			<path fill="#E4E4E5" d="M293,69.7c-1.1,1.4,2.2,4.6-0.3,4.8c-3.4,0.2-7.2,1.6-10.6-0.4c-0.6-0.3-0.7-1.4-1-2.1
				c-1.2-2.7,4.7-4.8,0.7-8c-0.2-0.2,3.1-3.2,5.9-3.1c2.8,0.1,4.9,1,5.3,4C293.1,66.4,293,67.9,293,69.7z"/>
			<path fill="#E5E4E5" d="M272.8,75c-4.5,0.4-6.3-2.4-6.7-6.3c-0.4-4,1.3-6.8,5.4-7.6c4.2-0.8,6.5,1.5,8,5c0.8,1.9,0.1,2.8-1.9,2.9
				c-1.5,0-3,0-4.5,0.1c-0.8,0-1.8,0.2-1.6,1.3c0.3,1.1,1.2,1.6,2.3,1.1c1.7-0.8,4.1-3,4.7-0.1c0.6,3-2.8,3.4-5.3,3.7
				C273.1,75,272.9,75,272.8,75z"/>
			<path fill="#E4E3E4" d="M331.7,75c-4.3,0.4-6.1-2.2-6.6-5.9c-0.6-3.9,0.9-7,5-8c3.8-0.9,6.4,0.6,7.9,4.3c1,2.4,0.7,3.8-2.4,3.6
				c-1.2-0.1-2.3,0-3.5,0c-0.8,0-1.8,0.2-1.6,1.3c0.2,1.1,1.2,1.7,2.3,1.1c1.6-0.9,3.1-2.4,4.8-0.6c0.3,0.3,0.2,1.4-0.2,1.8
				c-1.3,1.7-3.2,2.3-5.3,2.3C332,75,331.9,75,331.7,75z"/>
			<path fill="#E4E4E4" d="M256,65.9c-2.1,0-4.3,0.4-6.4-0.6c-1.2-0.5-2.3-0.2-3.1,0.9c-0.7,1-0.7,2.2-0.1,3.3c0.8,1.4,2,1.6,3.4,1
				c1.4-0.6,2.8-0.9,4.3-0.2c-1.5,4.3-4.8,6-8.6,4.3c-3.5-1.5-5.1-6.7-3.2-10.2c1.8-3.4,6.6-4.7,9.9-2.6c1.2,0.8,2.1,2.2,3.8,2.2
				C256,64.7,256,65.3,256,65.9z"/>
			<path fill="#E5E4E5" d="M317.7,68.4c0.5-1.9,1-3.4,1.4-5c0.6-2.4,2.4-2.7,4.3-2.3c2.6,0.7,0.7,2.3,0.3,3.5
				c-0.9,2.7-1.9,5.3-2.9,7.9c-0.6,1.4-1.4,2.5-3.3,2.5c-1.9,0-2.7-1.2-3.2-2.6c-1-2.6-2-5.3-2.9-7.9c-0.4-1.3-0.8-2.8,1-3.3
				c1.7-0.5,3,0.2,3.4,1.9C316.2,64.9,316.5,66.6,317.7,68.4z"/>
			<path fill="#E5E4E5" d="M300.5,75c-2.8-0.2-4.9-1.8-4.4-4.4c0.9-4.2-4.5-9.2,1.6-12.5c1-0.6,2.8-0.3,3.2,1.4
				c0.4,1.4,2.9,2.1,1.3,4.2c-2.1,2.8-1.9,5.7,0,8.6C303.7,74.4,302.1,74.8,300.5,75z"/>
			<path fill="#E4E4E5" d="M294.9,50c0,0.3,0,0.7,0.1,1l0,0c-1.8-0.2-3.2,0.6-4.7,1.3c-1.4,0.7-3.1,1.2-4.2,0c-2.5-2.7-5-2.7-8-0.9
				c-1.5,0.9-3.1,0-3.7-1.4c-0.7-1.5,0.6-2.5,1.8-3c3.9-1.7,7.8-2.5,11.9-0.4c1.9,1,4,1.7,5.9,2.5C294.3,49.4,294.6,49.7,294.9,50z"
				/>
			<path fill="#E6E6E6" d="M256,65.9c0-0.6,0-1.3,0-1.9c1.4-2.6,6.2-4.3,8.1-2.6c1.4,1.3,1.6,3.5-0.2,4.2c-3.2,1.3-3,3.6-2.9,6.1
				c0,1.8-0.2,3.3-2.6,3.3c-2.5-0.1-2.3-1.9-2.4-3.5C256,69.6,256,67.8,256,65.9z"/>
			<path fill="#E7E6E7" d="M381,63c1.9-1.4,0.2-3.9,2.8-6.5c0,6.5,0.3,12-0.2,17.3c-0.2,2.1-8.1,1.4-10.2-0.8
				c-2.2-2.5-2.1-7.9,0.4-10C376.1,61.1,378.7,59.4,381,63c-1.5,0.1-3.1-0.1-4.4,0.4c-2.8,1.1-3,3.8-2.5,6.3c0.4,2.2,2,3.6,4.3,3.2
				c2.8-0.4,3.8-2.5,3.5-5.1C381.8,66.2,381.3,64.6,381,63z"/>
			<path fill="#E7E6E7" d="M403,68.7c0.7,4-1.4,6.1-5.7,6.3c-3.8,0.2-6.4-2.8-6.3-7.1c0.1-3.8,1.9-6.3,5.8-6.7
				C400.5,60.7,403,63.8,403,68.7z M401,68.6c0.1-3-0.8-5.3-3.9-5.4c-3.3-0.1-3.9,2.6-4.1,5.1c-0.2,2.9,1.4,4.6,4.4,4.7
				C400.7,73.1,401.1,70.9,401,68.6z"/>
			<path fill="#E8E7E8" d="M359.9,61.5c1.6,3.2,1,5.4,1.1,7.5c0.1,2,0.3,3.8,2.8,3.9c2.3,0.1,3.7-1.3,4.1-3.5
				c0.5-2.2-0.5-4.6,1.3-8.1c1.2,4.8,1.3,8.8,0.3,12.3c-0.5,1.7-4.3,1.2-6.6,1.3c-2.1,0.1-3.6-1.3-3.8-3.2
				C358.9,68.7,358.5,65.6,359.9,61.5z"/>
			<path fill="#E4E4E5" d="M309.2,68.2c-1.3,2.1,1.7,6.5-2.3,6.4c-3.7-0.1-1.8-4.3-1.8-6.5c0-2.3-1.8-6.6,1.7-6.6
				C311.1,61.4,307.9,66,309.2,68.2z"/>
			<path fill="#E7E6E7" d="M348,73c0.3-2.6-1.4-3.3-3.4-4c-2-0.7-4.5-1-4.3-3.9c0.2-2.2,1.7-3.6,3.9-3.9c3.1-0.5,4.6,1.4,5.6,4.1
				c-2,0.7-2.5-0.9-3.5-1.6c-1.5-0.9-3-1-3.7,0.8c-0.6,1.7,0.9,2.2,2.3,2.5c2.4,0.5,5.1,0.9,5.2,4.2C350,72.4,349.1,72.9,348,73
				L348,73z"/>
			<path fill="#E6E6E6" d="M354,58c1.6,2.8,1.9,4.8,1.1,7.3c-0.6,2,0,4.3,0,6.4c0,1.1,2.7,2.1,0.5,3c-1.7,0.7-2.8-1.2-2.5-2.7
				C353.8,67.5,350.9,62.9,354,58z"/>
			<path fill="#E5E4E5" d="M316.4,43.3c-1.9,5.2-4,9.1-7.1,14.3c0.2-5.1,2-8.5,2-12.1C311.4,43.2,314.1,44.2,316.4,43.3z"/>
			<path fill="#EDEDED" d="M159,71c-0.4-3.7-2.7-7.8,2.5-10.7c0.5,3.7,1,7.2,1.5,10.7C161.7,71,160.3,71,159,71z"/>
			<path fill="#E6E6E6" d="M294.9,50c-0.3-0.3-0.6-0.6-0.9-0.9c-1.2-2.8-1.7-5.2,2.7-4.7c1.9,0.2,2.1-1,2.3-2.4c0,0,0,0,0,0
				C300.9,47.1,299.6,49.5,294.9,50z"/>
			<path fill="#E7E6E7" d="M388.1,74.3c-1.3-3.9-1.3-7.7-0.2-11.6C389.5,66.5,389,70.4,388.1,74.3z"/>
			<path fill="#E7E6E7" d="M348,73c-0.6,3.1-3.1,2.1-4.7,1.8c-1.9-0.4-3.5-1.6-2.8-4.8C342.7,72.4,345.1,73.6,348,73
				C348,73,348,73,348,73z"/>
			<path fill="#E4E4E5" d="M295,51c0.1,0.1,0.3,0.2,0.4,0.2C295.3,51.2,295.1,51.1,295,51C295,51,295,51,295,51z"/>
			<path fill="#E3E3E3" d="M720.4,5c21.4-0.3,37.9,17.6,37.4,37.8c-0.5,21.1-16,37-38.8,37c-21.8,0-37.5-18.8-37-38.8
				C682.4,20.6,698.7,5,720.4,5z"/>
			<path fill="#E4E3E4" d="M574,68c-4.2-3.1-5.6-10.2-2.9-14.1c1.3-1.9,3-1.7,4.8-1.9c2-0.2,4.1-0.9,2.1-3.4
				c-3.3-4.1-4.9-9.1-7.4-13.6c-1.5-2.7-2.6-4.9-6.3-2.3c-2.6,1.8-6.3,1.7-8.7,4.5c-0.8,1-3.5,1.3-4.9-0.3c-1.3-1.5-0.3-2.8,0.9-3.9
				c4.4-3.9,4.9-10.6,10.2-13.9c1.6-1,2.3-1.8,4.6-0.8c6.6,2.8,13.8,4.2,19.2,9.7c2.3,2.4,4.9,2.1,7.7-0.6
				c4.8-4.7,10.4-8.8,16.2-12.4c1.1-0.7,2.4-2.5,2.9,0.6c0.4,2.1,1.9,0.7,2.7,0.2c2.5-1.4,4.8-3,7.2-4.4c1-0.6,2.3-2.1,3.4-0.6
				c0.9,1.3,1.3,3-0.5,4.4c-1.3,1-2.3,2.5-3.7,3.3c-4.2,2.3-6.4,6.1-9.3,10.6c6.7-1.9,12-0.4,16.9,3.2c1.2,0.9,2.5,0.6,3.8,0.2
				c0.9-0.3,2.2-0.8,2.9-0.5c4.9,2.4,9.9,1.8,15.5,0.6c-6.5,6.6-7.9,6.7-14.8,2.4c-2.6-1.6-4.5-1.7-4.5,2.1c0,5.3-2.2,8.7-7.7,10
				c-4.5,1-6.3,4-4.9,8.6c0.4,1.4,0.9,2.5-0.9,3.3c-7.5,3.2-12.9,9-18.6,14.4c-1.2,1.1-2.6,2.3-3.8,1.1c-1-1.1,0.6-2.2,1.4-3.2
				c1.7-2,4.7-2.8,3.1-7c-0.6-1.6,2.1-6.2,6.3-6.2c2.9,0,4.4-0.6,3.4-4.2c-0.5-1.9,0.3-4.1,0.5-6.9c-4.9,2.9-9.9,3.8-14.7,5.3
				c-4.4,1.4-5.7,6-6.8,9.9c-0.6,2.5,2.3,2,3.6,1.6c2.2-0.8,3.9-2.6,4.9-4.8c0.7-1.8,1.6-2.7,4-2.5c-2.3,5.1-5.1,9.1-11.2,9.4
				c-3.5,0.2-5-0.7-4.5-4.4c1-7,0.9-7.1-6.2-6.6c-1.6,0.1-3.2,0.7-4.9,1c-2.6,0.5-3.6,1.9-2.2,4.2C574.1,62.7,574,65.3,574,68
				L574,68z M609.5,60.3c-1.3,0.3-2.6,0.4-3.6,0.9c-1.6,0.8-3.7,2-2.4,3.9c1.1,1.6,2.4-0.7,3.6-1.2
				C608.4,63.3,609.7,62.5,609.5,60.3z"/>
			<path fill="#E4E3E4" d="M574,68c1.4,0.1,2.7,0.5,2.6,2.2c0,0.4-1,1.2-1.3,1.1C573.8,70.8,574,69.3,574,68C574,68,574,68,574,68z"
				/>
			<path fill="#EEEEEE" d="M176.2,56c-3.6,0-6.4,1.5-9.5,1c-0.8-0.1-1.8,0.1-2.1-0.8c-0.4-1.2,0.5-2.2,1.3-2.3
				c5.5-0.9,11-2.3,16.5-2.1c2.3,0.1,3.9,4.2,4.2,6.7c0.3,2.3-2,0.9-2.8,0.4C181.3,57.2,178.9,55.4,176.2,56z"/>
			<path fill="#EEEEEE" d="M150,23.9c0.2-0.5,0.2-1.1,0.4-1.1c3.1-0.8,4.6,2,6.8,3.2c1.1,0.6,2.3,1.9,0.8,3.2
				c-1.9,1.7-3.8,0.9-5.2-0.8C151.8,26.9,150.9,25.3,150,23.9z"/>
			<path fill="#FFFFFF" d="M292.4,38.3c0-0.1-0.1-0.3-0.1-0.4c0.1,0,0.3-0.1,0.4-0.1C292.9,38.1,292.8,38.3,292.4,38.3z"/>
			<path fill="#FEFEFE" d="M381,63c0.3,1.6,0.8,3.2,1,4.8c0.3,2.6-0.8,4.7-3.5,5.1c-2.3,0.4-3.8-1-4.3-3.2c-0.5-2.5-0.4-5.1,2.5-6.3
				C377.9,62.9,379.5,63.1,381,63C381,63,381,63,381,63z"/>
			<path fill="#FEFEFE" d="M401,68.6c0.1,2.3-0.3,4.5-3.5,4.4c-3-0.1-4.6-1.8-4.4-4.7c0.2-2.5,0.8-5.2,4.1-5.1
				C400.2,63.3,401.1,65.6,401,68.6z"/>
			<path fill="#FFFFFF" d="M609.5,60.3c0.1,2.2-1.2,3-2.5,3.6c-1.2,0.5-2.4,2.9-3.6,1.2c-1.3-1.9,0.8-3.2,2.4-3.9
				C607,60.7,608.3,60.6,609.5,60.3z"/>
		</g>
	</g>
	<g>
		<path fill="#FFFFFF" d="M248.2,60.1c-1.3,3.5-5.4,10.4-3,14.1c2.1,3.4,9.3,3.7,12.6,2.8c3.7-1,6.6-4.4,6.1-8.3
			c-0.6-3.9-4.1-6.2-7.6-7.2c-3.1-0.9-6.5-1.1-9.6-1.7c-2.7-0.4-5.7-1.4-8.5-1.3c-2.9,0.1-6.1,2-5.3,5.4c1.1,4.3,7.4,4.7,10.8,5.2
			c7,1.1,14,1.4,21.1,1c2.7-0.2,3.5-4.2,0.7-4.9c-6.1-1.6-11.9-1-17.7,1.4c-2.8,1.2-0.6,4.9,1.9,4.6c4.4-0.6,8.7-1.6,13-2.8
			c3.1-0.9,1.8-5.4-1.3-4.8c-6.1,1.2-11.9,3.1-17.5,5.8c1,1.3,2,2.6,3,3.9c1.9-1.8,6.7-1.3,9.1-1.4c2.7-0.2,5.3-0.3,8-0.5
			c5.1-0.3,12.1-1.9,16.9,0.2c2.9,1.3,5.5-3,2.5-4.3c-6.6-3-14.5-1.2-21.4-0.8c-5.7,0.3-14.1-1-18.7,3.2c-2.2,2,0.6,5.1,3,3.9
			c5.2-2.4,10.7-4.1,16.3-5.3c-0.4-1.6-0.9-3.2-1.3-4.8c-4.3,1.2-8.6,2.2-13,2.8c0.6,1.5,1.3,3,1.9,4.6c4.6-1.9,9.1-2.2,13.9-0.9
			c0.2-1.6,0.4-3.3,0.7-4.9c-5.3,0.3-10.6,0.2-15.8-0.3c-3.1-0.3-6.4-1.4-9.5-1.5c-2.6-0.1-0.1,0.4,1,0.5c1.6,0.2,3.2,0.5,4.7,0.8
			c2.5,0.4,4.9,0.7,7.4,1.2c1.1,0.2,3.9,0.5,4.5,1.3c0.2,1.5,0.3,3,0.5,4.6c-1,0.2-2,0.5-3,0.7c-0.6,0-4.4-0.3-4.9-0.9
			c-0.4-0.5,0.3-1.3,0.4-1.9c0.3-2.6,1.9-5.8,2.9-8.2C254.2,58.5,249.3,57.1,248.2,60.1L248.2,60.1z"/>
	</g>
	<g>
		<path fill="#FFFFFF" d="M327.2,82.4c0.7,0,1.5,0,2.2,0c1.4,0.1,2.7-0.2,3.9-0.9c1.2-0.4,2.3-1.1,3.2-2.1c1-0.9,1.7-2,2.1-3.2
			c0.6-1.2,0.9-2.5,0.9-3.9c-0.1-0.9-0.2-1.8-0.4-2.7c-0.5-1.7-1.3-3.2-2.6-4.4c-2-1.8-4.4-2.9-7.1-2.9c-0.7,0-1.5,0-2.2,0
			c-1.4-0.1-2.7,0.2-3.9,0.9c-1.2,0.4-2.3,1.1-3.2,2.1c-1,0.9-1.7,2-2.1,3.2c-0.6,1.2-0.9,2.5-0.9,3.9c0.1,0.9,0.2,1.8,0.4,2.7
			c0.5,1.7,1.3,3.2,2.6,4.4C322.1,81.3,324.5,82.4,327.2,82.4L327.2,82.4z"/>
	</g>
	<g>
		<path fill="#FFFFFF" d="M338.3,59.8c-1.5-0.2-3-0.4-4.4-0.6c-2.3-0.3-5.5,1.3-7.1,2.9c-1.7,1.7-3,4.6-2.9,7.1
			c0.1,2.6,1,5.3,2.9,7.1c0.7,0.5,1.3,1,2,1.6c1.6,0.9,3.2,1.4,5,1.4c1.5,0.2,3,0.4,4.4,0.6c2.3,0.3,5.5-1.3,7.1-2.9
			c1.7-1.7,3-4.6,2.9-7.1c-0.1-2.6-1-5.3-2.9-7.1c-0.7-0.5-1.3-1-2-1.6C341.8,60.2,340.1,59.8,338.3,59.8L338.3,59.8z"/>
	</g>
	<g>
		<path fill="#FFFFFF" d="M330.6,76.9c12.9,0,12.9-20,0-20C317.7,56.9,317.7,76.9,330.6,76.9L330.6,76.9z"/>
	</g>
	<g>
		<path fill="#FFFFFF" d="M331.7,76.9c12.9,0,12.9-20,0-20C318.8,56.9,318.8,76.9,331.7,76.9L331.7,76.9z"/>
	</g>
	<g>
		<path fill="#FFFFFF" d="M323.8,72.3c5.5,2.7,11.1,4.3,17.3,4.5c5.2,0.2,10.2-4.8,10-10c-0.3-5.6-4.4-9.7-10-10
			c-0.9,0-2.5-0.2-0.7,0c-1-0.1-2-0.4-2.9-0.6c-0.8-0.2-1.6-0.6-2.4-0.7c-0.7-0.3-0.5-0.2,0.4,0.2c-0.5-0.2-1-0.5-1.5-0.7
			c-4.7-2.3-11-1.4-13.7,3.6C317.8,63.1,318.8,69.8,323.8,72.3L323.8,72.3z"/>
	</g>
	<g>
		<path fill="#FFFFFF" d="M354.4,79.7c12.9,0,12.9-20,0-20C341.6,59.7,341.6,79.7,354.4,79.7L354.4,79.7z"/>
	</g>
	<g>
		<path fill="#FFFFFF" d="M353.4,73.9c0.4-0.2,0.7-0.4,1.1-0.6c1.2-0.6,2.1-1.5,2.8-2.6c0.9-1,1.5-2.1,1.8-3.4
			c0.4-1.3,0.5-2.7,0.2-4c-0.1-1.3-0.5-2.6-1.2-3.7c-0.5-0.7-1-1.3-1.6-2c-1.2-1.2-2.7-2.1-4.4-2.6c-0.9-0.1-1.8-0.2-2.7-0.4
			c-1.8,0-3.5,0.5-5,1.4c-0.4,0.2-0.7,0.4-1.1,0.6c-1.2,0.6-2.1,1.5-2.8,2.6c-0.9,1-1.5,2.1-1.8,3.4c-0.4,1.3-0.5,2.7-0.2,4
			c0.1,1.3,0.5,2.6,1.2,3.7c0.5,0.7,1,1.3,1.6,2c1.2,1.2,2.7,2.1,4.4,2.6c0.9,0.1,1.8,0.2,2.7,0.4C350.1,75.2,351.8,74.8,353.4,73.9
			L353.4,73.9z"/>
	</g>
	<g>
		<path fill="#FFFFFF" d="M366.5,58.7c-0.2-0.2-0.4-0.4-0.6-0.6c-0.9-1-2-1.7-3.2-2.1c-1.2-0.6-2.5-0.9-3.9-0.9
			c-1.4-0.1-2.7,0.2-3.9,0.9c-1.2,0.4-2.3,1.1-3.2,2.1c-1.7,1.9-3,4.4-2.9,7.1c0.1,0.9,0.2,1.8,0.4,2.7c0.5,1.7,1.3,3.2,2.6,4.4
			c0.2,0.2,0.4,0.4,0.6,0.6c0.9,1,2,1.7,3.2,2.1c1.2,0.6,2.5,0.9,3.9,0.9c1.4,0.1,2.7-0.2,3.9-0.9c1.2-0.4,2.3-1.1,3.2-2.1
			c1.7-1.9,3-4.4,2.9-7.1c-0.1-0.9-0.2-1.8-0.4-2.7C368.6,61.4,367.8,60,366.5,58.7L366.5,58.7z"/>
	</g>
	<g>
		<path fill="#FFFFFF" d="M344.1,57.9c1.1,4.3,4.1,8.3,8.1,10.3c2.4,1.2,5.1,1.7,7.7,1c2.3-0.6,4.8-2.4,6-4.6c1.2-2.3,1.8-5.1,1-7.7
			c-0.8-2.4-2.3-4.8-4.6-6c-0.4-0.2-0.8-0.4-1.1-0.7c0.7,0.5,1.3,1,2,1.6c-0.4-0.3-0.8-0.7-1.1-1.1c0.5,0.7,1,1.3,1.6,2
			c-0.4-0.5-0.7-1-0.9-1.6c0.3,0.8,0.7,1.6,1,2.4c-0.1-0.3-0.2-0.7-0.3-1c-0.6-2.4-2.5-4.7-4.6-6c-2.1-1.3-5.3-1.8-7.7-1
			c-2.4,0.8-4.8,2.3-6,4.6C343.9,52.6,343.4,55.2,344.1,57.9L344.1,57.9z"/>
	</g>
	<g>
		<path fill="#FFFFFF" d="M356.6,77.3c4.6,2.4,9.4,3,14.4,1.9c5.1-1.1,8.6-7.3,7-12.3c-1.7-5.4-6.8-8.2-12.3-7
			c-0.3,0.1-0.6,0.1-0.9,0.2c0.9-0.1,1.8-0.2,2.7-0.4c-0.9,0.1-1.7,0.1-2.6,0c0.9,0.1,1.8,0.2,2.7,0.4c-0.9-0.1-1.7-0.4-2.5-0.7
			c0.8,0.3,1.6,0.7,2.4,1c-0.3-0.1-0.5-0.2-0.8-0.4c-2.4-1.2-5.1-1.7-7.7-1c-2.3,0.6-4.8,2.4-6,4.6
			C350.5,68.3,351.6,74.7,356.6,77.3L356.6,77.3z"/>
	</g>
	<g>
		<path fill="#FFFFFF" d="M372.7,78.3c3.4,1.7,7.3,2.9,11.2,2.5c2.7-0.3,5-0.9,7.1-2.9c1.7-1.7,3-4.6,2.9-7.1
			c-0.1-2.6-1-5.3-2.9-7.1c-1.8-1.7-4.5-3.2-7.1-2.9c-0.8,0.1-1.7,0.1-2.5,0c0.9,0.1,1.8,0.2,2.7,0.4c-1-0.1-1.9-0.4-2.8-0.8
			c0.8,0.3,1.6,0.7,2.4,1c-0.3-0.1-0.5-0.2-0.8-0.4c-2.4-1.2-5.1-1.7-7.7-1c-2.3,0.6-4.8,2.4-6,4.6
			C366.7,69.2,367.8,75.7,372.7,78.3L372.7,78.3z"/>
	</g>
	<g>
		<path fill="#FFFFFF" d="M387.2,60.8c-0.4,0-0.8,0-1.2,0c1.7,0.3,2,0.3,0.9,0.1c-0.4-0.1-0.8-0.2-1.1-0.4c1.5,0.7,1.7,0.7,0.8,0.3
			c-0.4-0.2-0.7-0.4-1-0.6c1.2,1,1.4,1.1,0.6,0.4c-0.3-0.3-0.6-0.6-0.8-0.9c0.9,1.3,1.1,1.4,0.5,0.6c-2.8-4.4-9-6.6-13.7-3.6
			c-4.4,2.9-6.6,9-3.6,13.7c4.1,6.5,11,10.5,18.7,10.5c5.2,0,10.2-4.6,10-10C397,65.4,392.8,60.8,387.2,60.8L387.2,60.8z"/>
	</g>
	<g>
		<path fill="#FFFFFF" d="M381.7,68.3c0.2-0.1,0.4-0.2,0.6-0.3c-0.8,0.3-1.6,0.7-2.4,1c0.3-0.1,0.6-0.2,0.9-0.2
			c-0.9,0.1-1.8,0.2-2.7,0.4c0.3,0,0.6,0,0.9,0c-0.9-0.1-1.8-0.2-2.7-0.4c0.1,0,0.2,0,0.4,0.1c1.3,0.4,2.7,0.5,4,0.2
			c1.3-0.1,2.6-0.5,3.7-1.2c1.2-0.6,2.1-1.5,2.8-2.6c0.9-1,1.5-2.1,1.8-3.4c0.1-0.9,0.2-1.8,0.4-2.7c0-1.8-0.5-3.5-1.4-5
			c-1.4-2.1-3.4-4.1-6-4.6c-2.5-0.5-4.1-0.5-6.7,0c-0.3,0.1-0.5,0.1-0.8,0.2c-0.8,0.3-1.8,0.7-2.6,1.1c-0.2,0.1-0.3,0.2-0.5,0.3
			c-2.2,1.4-3.9,3.5-4.6,6c-0.4,1.3-0.5,2.7-0.2,4c0.1,1.3,0.5,2.6,1.2,3.7c1.4,2.1,3.4,4,6,4.6c0.9,0.1,1.8,0.2,2.7,0.4
			C378.5,69.6,380.1,69.2,381.7,68.3L381.7,68.3z"/>
	</g>
	<g>
		<path fill="#FFFFFF" d="M381.4,67.5c1.4,1.9,2.8,3.7,5,4.8c2.2,1.1,4.4,1.8,6.9,1.8c2.6,0,5.2-1.1,7.1-2.9c1-0.9,1.7-2,2.1-3.2
			c0.6-1.2,0.9-2.5,0.9-3.9c-0.1-2.6-1-5.3-2.9-7.1c-1.9-1.8-4.4-3-7.1-2.9c-0.2,0-0.4,0-0.6,0c0.9,0.1,1.8,0.2,2.7,0.4
			c-0.3-0.1-0.7-0.1-1-0.3c0.8,0.3,1.6,0.7,2.4,1c-0.3-0.1-0.6-0.3-0.9-0.5c0.7,0.5,1.3,1,2,1.6c-0.3-0.2-0.5-0.4-0.7-0.7
			c0.5,0.7,1,1.3,1.6,2c0-0.1-0.1-0.1-0.1-0.2c-0.6-1.2-1.5-2.1-2.6-2.8c-1-0.9-2.1-1.5-3.4-1.8c-1.3-0.4-2.7-0.5-4-0.2
			c-1.3,0.1-2.6,0.5-3.7,1.2c-2.1,1.4-4,3.4-4.6,6c-0.1,0.9-0.2,1.8-0.4,2.7C380,64.2,380.5,65.9,381.4,67.5L381.4,67.5z"/>
	</g>
	<g>
		<path fill="#FFFFFF" d="M391.4,73c0.4,0.6,0.7,1.1,1.1,1.7c0.6,1.2,1.5,2.1,2.6,2.8c1,0.9,2.1,1.5,3.4,1.8c1.3,0.4,2.7,0.5,4,0.2
			c1.3-0.1,2.6-0.5,3.7-1.2c0.7-0.5,1.3-1,2-1.6c1.2-1.2,2.1-2.7,2.6-4.4c0.1-0.9,0.2-1.8,0.4-2.7c0-1.8-0.5-3.5-1.4-5
			c-0.4-0.6-0.7-1.1-1.1-1.7c-0.6-1.2-1.5-2.1-2.6-2.8c-1-0.9-2.1-1.5-3.4-1.8c-1.3-0.4-2.7-0.5-4-0.2c-1.3,0.1-2.6,0.5-3.7,1.2
			c-0.7,0.5-1.3,1-2,1.6c-1.2,1.2-2.1,2.7-2.6,4.4c-0.1,0.9-0.2,1.8-0.4,2.7C390,69.8,390.5,71.5,391.4,73L391.4,73z"/>
	</g>
	<g>
		<path fill="#FFFFFF" d="M316.1,79.1c12.9,0,12.9-20,0-20C303.2,59.1,303.2,79.1,316.1,79.1L316.1,79.1z"/>
	</g>
	<g>
		<path fill="#FFFFFF" d="M302.2,81.3c12.9,0,12.9-20,0-20C289.4,61.3,289.3,81.3,302.2,81.3L302.2,81.3z"/>
	</g>
	<g>
		<path fill="#FFFFFF" d="M294.4,79.1c12.9,0,12.9-20,0-20C281.6,59.1,281.6,79.1,294.4,79.1L294.4,79.1z"/>
	</g>
	<g>
		<path fill="#FFFFFF" d="M293.9,75.8c12.9,0,12.9-20,0-20C281,55.8,281,75.8,293.9,75.8L293.9,75.8z"/>
	</g>
	<g>
		<path fill="#FFFFFF" d="M303.9,80.8c12.9,0,12.9-20,0-20C291,60.8,291,80.8,303.9,80.8L303.9,80.8z"/>
	</g>
	<g>
		<path fill="#FFFFFF" d="M310,81.9c12.9,0,12.9-20,0-20C297.1,61.9,297.1,81.9,310,81.9L310,81.9z"/>
	</g>
	<g>
		<path fill="#FFFFFF" d="M275.6,81.9c12.9,0,12.9-20,0-20C262.7,61.9,262.7,81.9,275.6,81.9L275.6,81.9z"/>
	</g>
	<g>
		<path fill="#FFFFFF" d="M290.6,83c12.9,0,12.9-20,0-20C277.7,63,277.7,83,290.6,83L290.6,83z"/>
	</g>
	<g>
		<path fill="#FFFFFF" d="M286.1,77.4c12.9,0,12.9-20,0-20C273.2,57.4,273.2,77.4,286.1,77.4L286.1,77.4z"/>
	</g>
	<g>
		<path fill="#FFFFFF" d="M282.2,74.7c12.9,0,12.9-20,0-20C269.4,54.7,269.3,74.7,282.2,74.7L282.2,74.7z"/>
	</g>
	<g>
		<path fill="#FFFFFF" d="M270,73c12.9,0,12.9-20,0-20C257.1,53,257.1,73,270,73L270,73z"/>
	</g>
	<g>
		<path fill="#FFFFFF" d="M259.4,74.7c12.9,0,12.9-20,0-20C246.6,54.7,246.6,74.7,259.4,74.7L259.4,74.7z"/>
	</g>
	<g>
		<path fill="#FFFFFF" d="M253.3,73.6c0.4,0,0.7,0,1.1,0c1.4,0.1,2.7-0.2,3.9-0.9c1.2-0.4,2.3-1.1,3.2-2.1c1-0.9,1.7-2,2.1-3.2
			c0.6-1.2,0.9-2.5,0.9-3.9c-0.1-0.9-0.2-1.8-0.4-2.7c-0.5-1.7-1.3-3.2-2.6-4.4c-2-1.8-4.4-2.9-7.1-2.9c-0.4,0-0.7,0-1.1,0
			c-1.4-0.1-2.7,0.2-3.9,0.9c-1.2,0.4-2.3,1.1-3.2,2.1c-1,0.9-1.7,2-2.1,3.2c-0.6,1.2-0.9,2.5-0.9,3.9c0.1,0.9,0.2,1.8,0.4,2.7
			c0.5,1.7,1.3,3.2,2.6,4.4C248.2,72.4,250.6,73.6,253.3,73.6L253.3,73.6z"/>
	</g>
	<g>
		<path fill="#FFFFFF" d="M244,57.6c-0.2,0.2-0.5,0.5-0.8,0.7c-1.2,1.1,1.6-1,0.6-0.5c-0.7,0.4-1.3,0.8-2.1,1.1
			c0.8-0.3,1.6-0.7,2.4-1c-1,0.4-2,0.7-3,0.9c0.9-0.1,1.8-0.2,2.7-0.4c-0.3,0.1-0.7,0.1-1,0.1c-2.7,0.2-5.1,1-7.1,2.9
			c-1.7,1.7-3,4.6-2.9,7.1c0.2,5,4.4,10.5,10,10c5.9-0.5,11.2-2.6,15.4-6.8c3.7-3.7,4-10.5,0-14.1C254.2,53.9,248,53.6,244,57.6
			L244,57.6z"/>
	</g>
	<g>
		<path fill="#FFFFFF" d="M228.7,66.5c-0.5,2.5-0.5,4.1,0,6.7c0.1,0.3,0.1,0.5,0.2,0.8c0.3,0.8,0.7,1.8,1.1,2.6
			c0.1,0.2,0.2,0.3,0.3,0.5c1.4,2.2,3.5,3.9,6,4.6c1.3,0.4,2.7,0.5,4,0.2c1.3-0.1,2.6-0.5,3.7-1.2c2.1-1.4,4-3.4,4.6-6
			c0.1-0.9,0.2-1.8,0.4-2.7c0-1.8-0.5-3.5-1.4-5c-0.1-0.2-0.2-0.4-0.3-0.6c0.3,0.8,0.7,1.6,1,2.4c-0.1-0.3-0.2-0.6-0.2-0.9
			c0.1,0.9,0.2,1.8,0.4,2.7c0-0.3,0-0.6,0-0.9c-0.1,0.9-0.2,1.8-0.4,2.7c0-0.1,0-0.2,0.1-0.4c0.4-1.3,0.5-2.7,0.2-4
			c-0.1-1.3-0.5-2.6-1.2-3.7c-0.6-1.2-1.5-2.1-2.6-2.8c-1-0.9-2.1-1.5-3.4-1.8c-0.9-0.1-1.8-0.2-2.7-0.4c-1.8,0-3.5,0.5-5,1.4
			C231.2,61.8,229.2,63.9,228.7,66.5L228.7,66.5z"/>
	</g>
	<polygon fill="#E5E5E6" points="30.6,59.7 40.7,65.5 40.7,77.2 30.6,83 20.5,77.2 20.5,65.5 	"/>
</g>
<g id="Слой_2">
	<text transform="matrix(1 0 0 1 221.7778 76.333)" fill="#E3E3E4" font-family="'Arial-BoldMT'" font-size="24px">creative</text>
	<text transform="matrix(1 0 0 1 312.5161 76.333)" fill="#E3E3E4" font-family="'ArialMT'" font-size="24px">studio</text>
</g>
</svg>
