<?xml version="1.0" encoding="utf-8"?>
<!-- Generator: Adobe Illustrator 19.2.0, SVG Export Plug-In . SVG Version: 6.00 Build 0)  -->
<svg version="1.1" baseProfile="tiny" id="Слой_1"
	 xmlns="http://www.w3.org/2000/svg" xmlns:xlink="http://www.w3.org/1999/xlink" x="0px" y="0px" viewBox="0 0 900 83"
	 xml:space="preserve">
<!-- 	 <style type="text/css">
    <![CDATA[
    .textFor{font-family: Arial;
    font-size: 25px; 
    fill: #E4E3E4;
    }
    .forOne{font-weight: bold;}
    ]]>
  </style> -->

	<symbol id="1-icon" viewBox="0 0 62 83">
		<path fill="#E4E3E4" d="M33,1c-0.1,2.6,2.2,3.3,3.8,4.1c3.4,1.8,4.4,4.4,4.3,8.2c-0.2,10.2-0.3,20.3,0,30.5c0.2,5.5-4.6,6-7.3,8.5
		c-2.1,2-4.3-0.2-6.6-1.3c-5.6-2.7-6.6-6.9-6.3-12.6c0.4-7.8,0.4-15.7,0-23.5c-0.2-4.6,1.3-7.6,5.3-9.7C27.8,4.3,30.1,3.6,30,1
		C31,1,32,1,33,1z"/>
		<path fill="#E4E3E4" d="M1,22c4.7-1.1,7.7-5,11.7-7.3c0.8-0.5,1.4-1.7,2.5-1.1c1.1,0.5,0.8,1.7,0.8,2.7c0,16.8,0,33.6,0,50.4
		c0,4-1.8,3-3.9,1.8C8.4,66.3,5.4,62.9,1,62C1,48.7,1,35.3,1,22z"/>
		<path fill="#E4E3E4" d="M47,41.5c0-8.3,0-16.6,0-24.9c0-1.1-0.5-2.5,0.9-3.1c1.1-0.4,1.6,0.9,2.5,1.3c10.3,4.3,13,12.2,11.7,22.7
		c-0.8,6.2-0.3,12.6-0.1,18.9c0.1,3.1-0.7,5.3-3.6,6.9c-2.9,1.6-5.4,3.8-8.1,5.7c-0.8,0.6-1.7,1.4-2.7,1c-1.1-0.5-0.6-1.7-0.6-2.6
		C47,58.8,47,50.2,47,41.5z"/>
		<path fill="#EEEEEE" d="M22,70c-2.1-6,2.1-13.2,8-13.8c3-0.3,10.8,7.3,11,10.8c0.1,2,0,4,0,6c-1.1-0.4-2.5-0.4-3.2-1.2
		C33,66.7,27.9,65.6,22,70z"/>
		<path fill="#E4E3E4" d="M22,70c5.9-4.4,11-3.3,15.8,1.8c0.7,0.7,2.1,0.8,3.2,1.2c-0.7,3.3-7.4,9.2-10,8.8C26.6,81.1,22,75.1,22,70z
		"/>
	</symbol>
	<symbol id="2-icon" viewBox="130 0 80 83">
		<path fill="#E4E3E4" d="M159,71c-1.1,1-2.3,1.9-3.4,2.9c-6.9,6.7-8.4,6.7-15.4-0.2c-0.2-0.2-0.5-0.5-0.7-0.7
		c-7.9-7.8-11.3-8.4-2.6-21.3c2-2.9,1.5-5.7-0.2-8.4c-4.2-6.4-5.2-13.5-4.6-21c0.6-7.6,11.3-16.9,19.4-17.5c8-0.6,15.2,1.1,21.5,6.1
		c2.5,2,4,1.6,6.2-0.5c5.4-4.9,9.1-4.6,14.2,0.4c2,2,4.1,3.9,6,6c4.2,4.6,5,9.3,2.1,15c-1.4,2.8-1.5,4.8,0.2,7.8
		c8.1,14.3,0.5,33.7-15.4,38.9c-7.2,2.3-13.6-1.7-19.7-4.9c-1.3-0.7-2.4-1.8-3.5-2.7c-0.5-3.5-1-7-1.5-10.8
		C156.4,63.2,158.5,67.3,159,71z M175.8,56c1.9-0.2,3.6,0.2,5.3,1c1.8,0.9,4.2,3.9,5.3,2c1.4-2.4-1.9-4.9-3.3-7.1
		c-1-1.6-2.8,0-4.1,0.2c-2.1,0.2-4.1,1.1-6.4,0.9c-1.8-0.1-3.7-0.1-5.5,0.2c-1.3,0.2-2.7,1.2-2.5,2.6c0.2,1.6,1.8,1.2,2.9,1.1
		C170.2,56.7,173,56.3,175.8,56z M158.6,28.2c0.1-1.6-6.3-6.2-7.6-5.8c-0.8,0.2-1.1,1-0.8,1.5c1.3,2.3,2.1,5,4.9,5.9
		C156.7,30.3,158.1,29.9,158.6,28.2z"/>
		<path fill="#EEEEEE" d="M159,71c-0.5-3.7-2.5-7.7,2.5-10.7c0.5,3.8,1,7.3,1.5,10.8C161.7,71,160.3,71,159,71z"/>
		<path fill="#EEEEEE" d="M175.8,56c-2.8,0.3-5.6,0.8-8.4,1c-1,0.1-2.7,0.5-2.9-1.1c-0.1-1.5,1.2-2.4,2.5-2.6
		c1.8-0.3,3.7-0.3,5.5-0.2c2.2,0.2,4.2-0.7,6.4-0.9c1.4-0.2,3.1-1.8,4.1-0.2c1.4,2.3,4.7,4.7,3.3,7.1c-1.1,1.9-3.5-1.1-5.3-2
		C179.4,56.2,177.6,55.8,175.8,56z"/>
		<path fill="#EEEEEE" d="M158.6,28.2c-0.5,1.7-2,2.1-3.5,1.6c-2.8-0.9-3.6-3.6-4.9-5.9c-0.3-0.6,0-1.3,0.8-1.5
		C152.4,22,158.7,26.6,158.6,28.2z"/>
	</symbol>
	<symbol id="3-icon" viewBox="238 0 165 83">
		<path fill="#E4E3E4" d="M313.6,57.3c-0.1-5,3.2-8.1,6.1-11.4c5.2-6.2,5.5-10.8,1-14.7c-2.2-1.9-4.9-2.8-7.7-3.1
		c-4.1-0.4-6.6,2.3-6.9,6.6c-0.4,5.2,2.9,9.9,2.1,15.2c-0.4,2.3-0.2,4.6-3,7.1c0.5-6.8-2.5-12.2-3.9-17.9c-1.6-6.4,1-11.5,5.9-14.1
		c4.1-2.2,12-0.9,15.9,2.5c6.5,5.6,6.9,12.8,1,19C320.6,50.1,316.8,53.3,313.6,57.3z"/>
		<path fill="#E4E3E4" d="M299,42c-2,0.2-3.9-1.3-6,0.6c-1.5,1.4-2.9-0.5-3.7-2.1c-4.2-8.1-8.3-16.3-12.6-24.4
		c-1.2-2.2,0.2-2.9,1.5-3.9c1.3-1.1,2.2-1.2,3.2,0.5C287,22.6,294.4,31.5,299,42L299,42z M292.6,37.7c-0.1,0-0.3,0-0.3,0.1
		c-0.1,0.1-0.1,0.2-0.1,0.4c0.2,0,0.3-0.1,0.5-0.1C292.7,37.9,292.7,37.8,292.6,37.7z"/>

		<path fill="#E4E3E4" d="M299,42c2,2.4,0.7,5.3,0.9,7.9c0.1,1.5-0.7,2.1-2,0.9c-1-0.9-2-1-2.9,0.2l0,0c-1.7-0.2-3.2,0.6-4.7,1.3
		c-1.4,0.7-3.1,1.2-4.2,0c-2.5-2.6-5-2.7-8-1c-1.5,0.9-3.1,0.1-3.7-1.3c-0.8-1.8,0.8-2.7,2.2-3.3c3.8-1.6,7.6-2.3,11.5-0.2
		c1.6,0.8,3.3,1.5,5.5,2.6c-0.9-3.2-0.3-5.2,3.2-4.7C298.6,44.7,298.8,43.4,299,42C299,42,299,42,299,42z"/>
		<path fill="#E4E3E4" d="M309.6,56.4c-0.1-3.7,1.6-7,1.6-10.7c0-2.5,2.7-1.5,5.1-2.4C314.7,48.6,312.2,52.5,309.6,56.4z"/>
	
		<path fill="#E4E3E4" d="M295,51c0.1,0.1,0.3,0.2,0.4,0.2C295.3,51.2,295.1,51.1,295,51C295,51,295,51,295,51z"/>
		<text class="textFor forOne" transform="matrix(1 0 0 1 222.7778 76.333)">creative</text>
		<text class="textFor" transform="matrix(1 0 0 1 317.4321 76.333)">studio</text>
	</symbol>
	<symbol id="4-icon" viewBox="438 0 78 83">
		<path fill="#E4E3E4" d="M479,1c2.2,4.4,6.9,5.4,10.6,7.7c6.3,4,12.8,7.7,19.4,11.2c2.5,1.3,3.1,3,3.1,5.6c-0.1,11-0.2,22,0,33
		c0.1,3.3-1,5-3.9,6.6c-9.9,5.4-19.7,11.1-29.5,16.7c-1,0.5-1.6,1.2-1.6,2.3c-0.7,0-1.3,0-2,0c-0.9-3.2-4-3.9-6.4-5
		c-3.8-1.7-5.2-4.1-4.7-8.1c0.3-2.3,0-4.6,0-6.9c-2.3-0.5-3.7,0.9-5.2,1.7c-6.9,3.4-11.1,2.8-17.1-2.2c-1.4-1.1-1.7-2.3-1.7-3.9
		c0-11.6,0.1-23.3,0-34.9c0-2.1,0.6-3.5,2.4-4.5c2.7-1.6,5.4-3.3,8.2-4.7c3.1-1.6,5.3,1,7.7,2.2c5.8,3,6.1,3,5.7-3.3
		c-0.3-4.6,0.6-8,5.4-9.6c1.5-0.5,3.5-1.4,3.6-3.7C475,1,477,1,479,1z"/>
	</symbol>
	<symbol id="5-icon" viewBox="546 0 108 83">
		<path fill="#E4E3E4" d="M574,68c-4.2-3.1-5.6-10.2-2.9-14.1c1.3-1.9,3-1.7,4.8-1.9c2-0.2,4.1-0.9,2.1-3.4
		c-3.3-4.1-4.9-9.1-7.4-13.6c-1.5-2.7-2.6-4.9-6.3-2.3c-2.6,1.8-6.3,1.7-8.7,4.5c-0.8,1-3.5,1.3-4.9-0.3c-1.3-1.5-0.3-2.8,0.9-3.9
		c4.4-3.9,4.9-10.6,10.2-13.9c1.6-1,2.3-1.8,4.6-0.8c6.6,2.8,13.8,4.2,19.2,9.7c2.3,2.4,4.9,2.1,7.7-0.6c4.8-4.7,10.4-8.8,16.2-12.4
		c1.1-0.7,2.4-2.5,2.9,0.6c0.4,2.1,1.9,0.7,2.7,0.2c2.5-1.4,4.8-3,7.2-4.4c1-0.6,2.3-2.1,3.4-0.6c0.9,1.3,1.3,3-0.5,4.4
		c-1.3,1-2.3,2.5-3.7,3.3c-4.2,2.3-6.4,6.1-9.3,10.6c6.7-1.9,12-0.4,16.9,3.2c1.2,0.9,2.5,0.6,3.8,0.2c0.9-0.3,2.2-0.8,2.9-0.5
		c4.9,2.3,9.9,2,15.8,0.2c-6.8,6.9-8.2,7.1-15.1,2.7c-2.6-1.6-4.5-1.7-4.5,2.1c0,5.3-2.2,8.7-7.7,10c-4.5,1-6.3,4-4.9,8.6
		c0.4,1.4,0.9,2.5-0.9,3.3c-7.5,3.2-12.9,9-18.6,14.4c-1.2,1.1-2.6,2.3-3.8,1.1c-1-1.1,0.6-2.2,1.4-3.2c1.7-2,4.7-2.8,3.1-7
		c-0.6-1.6,2.1-6.2,6.3-6.2c2.9,0,4.4-0.6,3.4-4.2c-0.5-1.9,0.3-4.1,0.5-6.9c-4.9,2.9-9.9,3.8-14.7,5.3c-4.4,1.4-5.7,6-6.8,9.9
		c-0.6,2.5,2.3,2,3.6,1.6c2.2-0.8,3.9-2.6,4.9-4.8c0.7-1.8,1.6-2.7,4-2.5c-2.3,5.1-5.1,9.1-11.2,9.4c-3.5,0.2-5-0.7-4.5-4.4
		c1-7,0.9-7.1-6.2-6.6c-1.6,0.1-3.2,0.7-4.9,1c-2.6,0.5-3.6,1.9-2.2,4.2C574.1,62.7,574,65.3,574,68L574,68z M609.5,60.4
		c-2.7,0.2-5.2,0.7-6.3,3.6c-0.2,0.6,0.1,1.7,0.7,1.5c2.3-0.8,4.6-1.8,5.7-4.3C609.6,61.1,609.5,60.9,609.5,60.4z"/>
		<path fill="#E4E3E4" d="M574,68c1.4,0.1,2.7,0.5,2.6,2.2c0,0.4-1,1.2-1.3,1.1C573.8,70.8,574,69.3,574,68C574,68,574,68,574,68z"/>
	</symbol>
	<symbol id="6-icon" viewBox="680 0 78 83">
			<path fill="#E4E3E4" d="M720.2,5c21.5-0.4,37.9,17.5,37.5,37.6c-0.4,20.9-15.8,36.8-37.7,37.2c-23.1,0.4-38.6-18.9-38.2-38.7
			C682.4,20.7,698.6,5,720.2,5z"/>
	</symbol>
	<symbol id="7-icon" viewBox="813 0 87 83">
		<path fill="#E4E3E4" d="M863,84c-4.1-4.1-9.4-6.7-13.9-10.3c-1.5-1.2-3-0.7-4.6,0.2c-1.8,0.9-3.2,3.8-5.5,2.3
		c-2.8-1.8-6.3-3.1-7.8-6.6c-3.3-7.9-6.8-15.8-10.2-23.7c-1.6-3.8-3.1-7.7-4.9-11.4c-1-2.2-1-3.4,1.3-4.8
		c6.5-3.9,12.9-8.1,19.3-12.2c1.8-1.2,3.8-2.3,2.2-5c-1.1-2.1,0.2-3.2,1.8-4.4c3-2.4,7.2-3.3,9.2-7c1.7,0,3.3,0,5,0
		c1.9,4.7,6.8,5.9,10.2,8.8c2.4,2.1,4.5,2.2,7,0.1c1.3-1.1,2.7-2.8,4.8-1.3c2.9,2,5.9,3.8,7.4,7.2c2.9,6.9,5.5,13.9,8.7,20.6
		c2.5,5.2,3.1,11.4,7.9,15.5c0,0.7,0,1.3,0,2c-0.3,0-0.7-0.1-1,0c-8.3,3.6-15.2,9.3-22.6,14.2c-1.2,0.8-1.6,2.1-1,3.5
		c1.4,3-0.7,4.1-2.8,5.4c-3.3,2.1-7,3.7-9.6,6.8C863.7,84,863.3,84,863,84z"/>
	</symbol>

</svg>
